<?xml version="1.0" encoding="UTF-8"?>
<svg width="483px" height="165px" viewBox="0 0 483 165" version="1.1" xmlns="http://www.w3.org/2000/svg" xmlns:xlink="http://www.w3.org/1999/xlink">
    <!-- Generator: Sketch 53.2 (72643) - https://sketchapp.com -->
    <title>askalocal</title>
    <desc>Created with Sketch.</desc>
    <g id="askalocal" stroke="none" stroke-width="1" fill="none" fill-rule="evenodd">
        <g id="aal-icon">
            <polygon id="Fill-1" fill="#FF4E00" fill-rule="evenodd" points="104.728569 121.422418 194 121.422418 194 -1.14953974e-15 0 -1.14953974e-15 0 121.422418 55.8832972 121.422418 39.2535142 165"></polygon>
            <path d="M56.125,51.3306452 L56.125,46.6263441 L69.625,46.6263441 L69.625,88.5887097 L56.125,88.5887097 L56.125,83.5080645 C52.46875,89.1532258 47.21875,90 43.75,90 C37.75,90 32.6875,88.4946237 28.09375,83.6021505 C23.6875,78.8978495 22,73.4408602 22,67.8897849 C22,60.8333333 24.625,54.811828 28.46875,50.9543011 C32.125,47.2849462 37.1875,45.2150538 43,45.2150538 C46.5625,45.2150538 52.28125,46.061828 56.125,51.3306452 Z M46.375,56.8817204 C43.46875,56.8817204 40.75,58.1048387 38.96875,59.8924731 C37.5625,61.3037634 35.875,63.75 35.875,67.5134409 C35.875,71.2768817 37.46875,73.7231183 38.6875,75.0403226 C40.5625,77.016129 43.46875,78.3333333 46.65625,78.3333333 C49.375,78.3333333 51.90625,77.2043011 53.6875,75.4166667 C55.46875,73.7231183 56.96875,71.0887097 56.96875,67.5134409 C56.96875,64.5026882 55.84375,61.6801075 53.875,59.7983871 C51.8125,57.8225806 48.8125,56.8817204 46.375,56.8817204 Z M111.0625,48.7903226 L105.71875,57.3521505 C103.65625,56.1290323 100.9375,55 98.3125,55 C96.90625,55 95.3125,55.3763441 94.46875,56.2231183 C94,56.6935484 93.625,57.4462366 93.625,58.1048387 C93.625,59.0456989 94.28125,59.6102151 94.9375,59.9865591 C95.875,60.5510753 97.28125,60.8333333 98.96875,61.3978495 L102.53125,62.5268817 C104.875,63.2795699 107.3125,64.2204301 109.46875,66.1962366 C111.90625,68.4543011 112.75,70.9946237 112.75,74.1935484 C112.75,79.7446237 110.3125,83.3198925 108.4375,85.2016129 C104.3125,89.3413978 99.25,90 94.84375,90 C89.21875,90 83.125,88.7768817 77.6875,83.9784946 L83.40625,74.8521505 C84.71875,75.9811828 86.59375,77.2983871 88,77.9569892 C89.875,78.8978495 91.84375,79.2741935 93.625,79.2741935 C94.46875,79.2741935 96.625,79.2741935 97.84375,78.3333333 C98.6875,77.6747312 99.25,76.6397849 99.25,75.6048387 C99.25,74.8521505 98.96875,73.9112903 97.75,73.1586022 C96.8125,72.594086 95.59375,72.2177419 93.625,71.6532258 L90.25,70.6182796 C87.8125,69.8655914 85.28125,68.5483871 83.5,66.7607527 C81.53125,64.6908602 80.5,62.3387097 80.5,59.1397849 C80.5,55.094086 82.09375,51.7069892 84.53125,49.4489247 C88.28125,45.9677419 93.34375,45.2150538 97.1875,45.2150538 C103.375,45.2150538 107.6875,46.8145161 111.0625,48.7903226 Z M121.1875,20 L134.6875,20 L134.6875,62.0564516 L149.875,46.6263441 L167.59375,46.6263441 L147.71875,65.6317204 L169,88.5887097 L150.8125,88.5887097 L134.6875,70.5241935 L134.6875,88.5887097 L121.1875,88.5887097 L121.1875,20 Z" id="ask" fill="#FFFFFF" fill-rule="nonzero"></path>
        </g>
        <path d="M250.393701,52.144958 L250.393701,47.4180672 L264,47.4180672 L264,89.5819328 L250.393701,89.5819328 L250.393701,84.4768908 C246.708661,90.1491597 241.417323,91 237.92126,91 C231.874016,91 226.771654,89.487395 222.141732,84.5714286 C217.700787,79.8445378 216,74.3613445 216,68.7836134 C216,61.6932773 218.645669,55.6428571 222.519685,51.7668067 C226.204724,48.0798319 231.307087,46 237.165354,46 C240.755906,46 246.519685,46.8508403 250.393701,52.144958 Z M240.566929,57.7226891 C237.637795,57.7226891 234.897638,58.9516807 233.102362,60.7478992 C231.685039,62.1659664 229.984252,64.6239496 229.984252,68.4054622 C229.984252,72.1869748 231.590551,74.644958 232.818898,75.9684874 C234.708661,77.9537815 237.637795,79.2773109 240.850394,79.2773109 C243.590551,79.2773109 246.141732,78.1428571 247.937008,76.3466387 C249.732283,74.644958 251.244094,71.9978992 251.244094,68.4054622 C251.244094,65.3802521 250.110236,62.5441176 248.125984,60.6533613 C246.047244,58.6680672 243.023622,57.7226891 240.566929,57.7226891 Z" id="Path-3" fill="#C3C3C3" fill-rule="nonzero"></path>
        <polygon id="Path" fill="#000000" fill-rule="nonzero" points="296 20 310 20 310 89 296 89"></polygon>
        <path d="M365,68.5 C365,73.8886555 362.942748,79.9390756 358.734733,84.1932773 C354.994275,87.9747899 348.635496,91 340.5,91 C332.364504,91 326.005725,87.9747899 322.265267,84.1932773 C318.057252,79.9390756 316,73.8886555 316,68.5 C316,63.1113445 318.057252,57.0609244 322.265267,52.8067227 C326.005725,49.0252101 332.364504,46 340.5,46 C348.635496,46 354.994275,49.0252101 358.734733,52.8067227 C362.942748,57.0609244 365,63.1113445 365,68.5 Z M340.5,57.5336134 C337.414122,57.5336134 334.889313,58.5735294 332.925573,60.5588235 C330.961832,62.5441176 329.839695,65.0966387 329.839695,68.5 C329.839695,72.3760504 331.335878,74.8340336 332.925573,76.4411765 C334.608779,78.1428571 337.040076,79.4663866 340.593511,79.4663866 C343.585878,79.4663866 346.110687,78.4264706 348.074427,76.4411765 C350.038168,74.4558824 351.160305,71.9033613 351.160305,68.5 C351.160305,65.0966387 350.038168,62.5441176 348.074427,60.5588235 C346.110687,58.5735294 343.585878,57.5336134 340.5,57.5336134 Z" id="Path-4" fill="#000000" fill-rule="nonzero"></path>
        <path d="M405,48.3634454 L405,60.7478992 C401.666667,58.0063025 398.238095,57.5336134 396.047619,57.5336134 C391.761905,57.5336134 389.190476,59.6134454 388.238095,60.5588235 C386.428571,62.355042 385.095238,65.0966387 385.095238,68.5 C385.095238,71.6197479 386.238095,74.2668067 387.952381,76.0630252 C390.047619,78.3319328 393.190476,79.4663866 396.238095,79.4663866 C398.619048,79.4663866 401.857143,78.8046218 405,76.157563 L405,88.447479 C401.380952,90.4327731 397.952381,91 394.142857,91 C387,91 381.571429,88.447479 377.666667,84.6659664 C374.428571,81.5462185 371,76.2521008 371,68.5945378 C371,61.4096639 374.047619,55.737395 378.047619,51.9558824 C382.809524,47.512605 388.428571,46 394.238095,46 C397.952381,46 401.380952,46.6617647 405,48.3634454 Z" id="Path" fill="#000000" fill-rule="nonzero"></path>
        <path d="M444.393701,52.144958 L444.393701,47.4180672 L458,47.4180672 L458,89.5819328 L444.393701,89.5819328 L444.393701,84.4768908 C440.708661,90.1491597 435.417323,91 431.92126,91 C425.874016,91 420.771654,89.487395 416.141732,84.5714286 C411.700787,79.8445378 410,74.3613445 410,68.7836134 C410,61.6932773 412.645669,55.6428571 416.519685,51.7668067 C420.204724,48.0798319 425.307087,46 431.165354,46 C434.755906,46 440.519685,46.8508403 444.393701,52.144958 Z M434.566929,57.7226891 C431.637795,57.7226891 428.897638,58.9516807 427.102362,60.7478992 C425.685039,62.1659664 423.984252,64.6239496 423.984252,68.4054622 C423.984252,72.1869748 425.590551,74.644958 426.818898,75.9684874 C428.708661,77.9537815 431.637795,79.2773109 434.850394,79.2773109 C437.590551,79.2773109 440.141732,78.1428571 441.937008,76.3466387 C443.732283,74.644958 445.244094,71.9978992 445.244094,68.4054622 C445.244094,65.3802521 444.110236,62.5441176 442.125984,60.6533613 C440.047244,58.6680672 437.023622,57.7226891 434.566929,57.7226891 Z" id="Path-2" fill="#000000" fill-rule="nonzero"></path>
        <polygon id="Path" fill="#000000" fill-rule="nonzero" points="469 20 483 20 483 89 469 89"></polygon>
    </g>
</svg>