<?xml version="1.0" encoding="UTF-8"?>
<svg width="1440px" height="720px" viewBox="0 0 1440 720" version="1.1" xmlns="http://www.w3.org/2000/svg" xmlns:xlink="http://www.w3.org/1999/xlink">
    <!-- Generator: Sketch 53.2 (72643) - https://sketchapp.com -->
    <title>bg-top</title>
    <desc>Created with Sketch.</desc>
    <g id="bg-top" stroke="none" stroke-width="1" fill="none" fill-rule="evenodd">
        <g id="Group-31" transform="translate(688.669842, 241.763250) rotate(6.000000) translate(-688.669842, -241.763250) translate(-395.830158, -323.736750)" fill="#E6F4F4">
            <path d="M150.4779,1130.7428 L29.9779,700.8918 L29.9779,99.6458 L1298.9779,24.6458 C1298.9779,24.6458 2135.4779,-30.8542 2138.4779,104.1458 C2141.4779,239.1458 2189.4779,560.1458 2071.4779,710.1458 C1904.20148,746.770454 1778.74416,774.238945 1695.10595,792.551272 C1351.85527,867.704945 836.979256,980.435454 150.4779,1130.7428 Z" id="Fill-1"></path>
            <path d="M1177.2025,927.6198 C1220.2025,916.3528 1150.8045,931.5478 1176.8155,925.8518 L1271.3415,901.4418 C1194.0845,922.0718 1307.7965,902.1288 1177.2025,927.6198" id="Fill-3"></path>
            <path d="M1320.8295,878.8307 L1337.6475,872.6797 C1363.7875,867.5727 1416.1955,857.9507 1381.9035,867.3177 C1364.3045,869.9317 1346.8335,873.1377 1320.8295,878.8307" id="Fill-5"></path>
            <path d="M1206.8724,855.4684 L1241.7404,849.0734 C1224.3644,852.8784 1216.4484,857.7074 1190.2354,862.8274 L1206.8724,855.4684 Z" id="Fill-7"></path>
            <path d="M1595.9912,44.6222 C1599.9682,41.3512 1611.7302,39.5982 1648.7982,37.4482 C1665.3372,38.0182 1692.5802,38.0212 1714.1032,38.5202 C1735.6282,38.9962 1751.4272,39.8592 1745.1382,41.4202 L1736.7572,41.4192 C1738.5662,43.9572 1778.2582,49.4952 1820.0152,50.5902 C1824.6732,49.7562 1818.3982,48.0192 1815.9772,46.2992 C1813.5562,44.6022 1815.0032,42.8242 1835.1732,42.1682 C1860.3372,42.9472 1888.0012,44.8692 1914.2162,47.8542 C1940.4312,50.8332 1965.1712,54.9252 1984.5622,59.4102 C1997.2612,59.3662 2009.9102,59.6282 2022.5252,60.2192 C2046.0772,65.5982 2060.1262,70.7502 2071.7622,75.9362 C2077.5572,78.5542 2082.7512,81.2242 2087.8862,84.2242 C2088.5242,84.5982 2089.1692,84.9762 2089.8192,85.3572 C2090.4422,85.7492 2091.0732,86.1442 2091.7102,86.5442 C2093.0092,87.3282 2094.2312,88.1702 2095.4942,89.0202 C2097.9602,90.7262 2100.5132,92.5812 2102.6572,94.5102 C2100.1782,93.1212 2097.1852,91.7222 2094.0602,90.4402 C2090.9622,89.1292 2087.5492,87.9452 2084.0932,86.8092 C2085.7732,87.8562 2086.9412,88.7862 2087.9052,89.5962 C2088.8062,90.4362 2089.4602,91.1782 2090.0412,91.8922 C2090.6422,92.5982 2091.0712,93.3092 2091.6162,94.0442 C2092.1492,94.7822 2092.8042,95.5492 2093.5342,96.4472 C2093.9142,96.8922 2094.3472,97.3602 2094.8512,97.8592 C2095.3002,98.3672 2095.7972,98.9072 2096.3842,99.4782 C2096.6942,99.7622 2096.9662,100.0602 2097.2412,100.3662 C2097.3862,100.5172 2097.5322,100.6712 2097.6852,100.8302 C2097.7922,100.9502 2097.9032,101.0742 2098.0172,101.2012 C2098.1492,101.3262 2098.1892,101.4102 2098.2472,101.5192 C2098.3062,101.6222 2098.3682,101.7222 2098.4372,101.8202 C2098.5642,102.0262 2098.7512,102.1772 2098.8852,102.4042 C2099.4772,103.2432 2100.1752,104.2102 2100.8082,105.4812 C2101.1492,106.1042 2101.3612,106.8522 2101.6182,107.6382 C2101.7282,108.0412 2101.7892,108.4702 2101.8472,108.9172 C2101.8602,109.1422 2101.8742,109.3712 2101.8882,109.6052 C2101.8962,109.9202 2101.9052,110.2412 2101.9142,110.5692 C2101.9642,110.7872 2102.0132,111.0022 2102.0602,111.2152 L2102.1322,111.5362 L2102.1672,111.6962 L2102.1772,111.7362 L2102.1892,111.8572 L2102.2122,112.1072 C2102.3412,113.4382 2102.4662,114.7372 2102.5872,116.0062 C2102.8392,118.5302 2103.0792,120.9362 2103.3092,123.2442 C2103.7882,127.8152 2104.2282,131.9992 2104.6452,135.9612 C2105.4722,143.7972 2106.2062,150.7562 2106.9852,158.1472 C2108.4912,172.8452 2110.0902,189.1952 2112.7992,217.4002 C2112.4812,251.4042 2115.1052,297.7232 2116.1782,345.2942 C2116.7162,369.0792 2116.8802,393.1832 2116.2322,416.1752 C2115.6222,439.1722 2114.1982,461.0552 2111.9482,480.3782 C2112.4422,499.5742 2110.3242,523.6552 2105.5062,549.2252 C2100.6932,574.7802 2093.0062,601.7582 2082.8042,626.3962 C2077.6862,638.7002 2071.9612,650.4082 2065.8602,661.1532 C2064.3782,663.8762 2062.7732,666.4562 2061.2222,669.0342 C2060.8352,669.6792 2060.4502,670.3222 2060.0652,670.9642 C2059.6632,671.5882 2059.2612,672.2112 2058.8602,672.8322 C2058.1552,673.9292 2057.4522,675.0202 2056.7552,676.1032 C2056.5382,676.4562 2056.4312,676.6342 2056.2592,676.8852 L2055.7852,677.5882 C2055.4732,678.0602 2055.1622,678.5272 2054.8552,678.9922 C2054.2142,679.9222 2053.5842,680.8382 2052.9642,681.7382 C2052.9102,681.8892 2052.7452,681.8662 2052.6262,681.9172 L2052.2442,682.0242 L2051.4832,682.2432 C2050.9762,682.3942 2050.4732,682.5432 2049.9762,682.6912 C2048.9762,682.9972 2047.9872,683.3142 2047.0062,683.6462 C2044.3832,684.3572 2041.8202,685.0522 2039.3212,685.7292 C2036.6642,686.4612 2034.0812,687.1952 2031.5772,687.9312 C2021.5642,690.8732 2012.8212,693.8412 2005.7272,696.8492 C1877.2752,722.5692 1865.1592,732.6472 1798.4562,752.6152 C1698.1812,768.3022 1925.8982,716.7272 1872.0682,722.5352 C1727.1912,752.2202 1570.2712,789.9892 1422.4642,821.6762 C1386.1502,833.6662 1451.2282,823.8582 1374.3202,841.7272 C1399.2862,833.7642 1369.9802,835.6142 1342.5622,841.5652 C1372.6242,835.6292 1342.2712,843.5952 1339.1692,845.6362 L1361.0502,841.6732 C1378.6652,847.8352 1257.0872,863.4482 1206.9462,879.4172 C1182.8212,881.3262 1234.3642,873.4672 1237.6232,869.4372 C1235.5992,865.3692 1211.7982,865.2562 1140.8542,879.0762 C1002.8612,914.9102 903.0542,926.5752 749.2452,962.3102 C756.9132,964.3702 713.3252,972.2662 688.5872,978.2222 C719.2272,968.2432 656.8962,978.0532 626.8332,983.9842 C590.7672,993.9572 586.9042,1002.0502 529.4612,1013.9322 L569.4632,1012.1022 C591.2432,1008.1612 668.5072,988.2522 707.0672,978.3252 C733.1852,980.4902 899.5482,932.6302 884.0642,946.7572 L859.5422,950.7192 C769.8982,966.4482 726.8982,986.5542 644.0602,1008.4562 C575.9822,1020.2892 552.2502,1020.1502 506.3802,1025.9862 C451.9032,1035.8592 437.7552,1041.8672 410.0172,1049.8492 C363.1712,1061.7802 339.0452,1063.6782 311.9482,1067.5992 C295.5222,1071.5632 319.8742,1067.6482 303.3742,1071.6192 C281.5662,1075.5662 257.1482,1079.4912 240.6872,1083.4642 C234.0352,1091.5692 324.5402,1071.7252 378.9852,1061.8722 C365.1572,1065.8482 362.1622,1067.8652 342.9912,1071.8332 C326.5652,1075.7922 329.5662,1073.7742 326.8562,1073.7652 L293.7942,1081.7332 C293.4292,1083.7652 301.0982,1085.8252 257.2242,1095.7392 L230.3842,1097.6462 C143.0232,1115.4372 103.0132,1133.5112 215.3302,1109.7302 L224.2332,1103.6812 L332.8962,1085.9682 C351.2772,1086.0952 282.9432,1099.9482 282.4012,1103.9852 C267.8962,1112.0292 360.6822,1094.2382 401.5562,1086.3492 C443.0852,1074.4012 374.7522,1088.2532 344.8312,1094.1522 L403.4762,1074.1842 C419.9312,1070.2112 444.4552,1066.2642 444.0622,1068.3042 C463.0512,1066.3492 442.8002,1076.4212 475.8202,1068.4732 C571.5362,1048.6772 479.7262,1060.3712 559.3792,1042.4992 C535.8672,1040.3492 401.8462,1068.0752 358.5782,1073.9402 L322.9852,1081.8532 C307.1002,1081.7802 380.6162,1067.9852 326.1712,1077.8332 C414.6482,1053.9332 544.7272,1034.3102 612.4462,1024.5062 C614.4702,1028.5782 687.7582,1016.7902 631.9452,1034.7782 C662.0072,1028.8482 677.8202,1028.9352 719.1592,1018.9922 C829.9902,987.0872 880.5642,985.3232 979.6092,961.4802 C966.0452,963.4382 985.6472,957.4262 988.4332,955.4492 C1127.8812,927.7342 949.5832,983.6542 1139.4582,937.9462 C1172.4132,930.0102 1189.3062,923.9952 1178.6722,923.9512 C1154.2552,927.8772 1130.1262,929.7942 1091.4952,939.7422 C1091.7512,937.7242 1028.8352,951.5792 1065.0832,939.5912 C1152.5912,921.7852 1192.1962,905.7372 1263.1662,891.8982 L1285.5952,883.8962 C1312.9442,877.9682 1379.3202,860.0392 1417.2692,854.1492 C1526.4762,832.4062 1410.6822,862.2372 1407.4312,866.2702 L1497.6462,848.4552 C1600.2332,818.5462 1671.2432,820.9652 1757.6952,792.9882 L1749.1222,797.0062 C1699.2752,810.9612 1766.9942,801.1582 1802.6942,793.2112 L1830.3682,785.2502 C1851.6362,776.2252 1895.6232,765.7972 1945.3082,754.8922 C1970.1652,749.5102 1996.4082,743.8292 2021.9812,738.2922 C2028.3692,736.8872 2034.7162,735.4922 2040.9882,734.1122 C2047.5542,732.6372 2054.0422,731.1792 2060.4202,729.7472 C2064.5092,728.8122 2068.5872,727.9282 2072.5492,726.9492 C2074.5342,726.4692 2076.5092,725.9912 2078.4732,725.5162 L2079.9402,725.1602 L2080.6732,724.9812 C2080.9132,724.9162 2081.1942,724.9152 2081.3052,724.6492 C2081.9052,723.8342 2082.5052,723.0212 2083.1032,722.2112 C2087.9052,715.7772 2092.4372,709.3072 2096.4972,703.0472 C2097.2572,701.9102 2097.9882,700.8162 2098.6902,699.7682 C2099.3642,698.7832 2100.0092,697.8412 2100.6222,696.9442 C2101.8212,695.1372 2102.8802,693.5052 2103.8452,692.1022 C2104.8052,690.6952 2105.6482,689.5052 2106.3562,688.5532 C2107.0302,687.5852 2107.5772,686.8602 2107.9792,686.3972 C2108.7812,685.4732 2109.0022,685.6032 2108.4912,686.9622 C2108.0112,688.3342 2106.6982,690.8942 2104.4322,694.8192 L2108.0372,689.2242 L2111.4592,683.5362 C2112.0242,682.5852 2112.6082,681.6412 2113.1582,680.6832 L2114.7762,677.7942 L2117.9982,672.0032 L2121.0512,666.1422 L2122.5672,663.2042 L2124.0072,660.2382 L2126.8782,654.2982 L2129.5872,648.3012 C2136.7912,632.2892 2142.7162,615.8602 2147.9072,599.2852 C2147.9152,583.8672 2152.0892,565.6172 2156.7822,543.3302 C2161.4072,521.0822 2166.4622,494.7782 2168.0832,464.4922 C2167.9032,443.6402 2166.7652,430.0812 2165.6812,414.8542 C2164.5532,399.6342 2163.4392,382.7522 2162.0022,355.4162 C2163.1232,320.6902 2162.4032,289.5042 2161.0082,260.4142 C2159.6062,231.3192 2157.4932,204.2972 2155.5072,177.8092 C2154.5172,164.5662 2153.5602,151.4562 2152.7792,138.3022 C2152.4052,131.7312 2152.0502,125.1412 2151.8022,118.5362 C2151.6902,115.1022 2151.5772,111.6572 2151.4642,108.1982 C2151.3902,106.1162 2151.3662,104.0352 2151.2532,101.9362 L2150.9642,98.7412 C2150.8502,97.6772 2150.6082,96.6282 2150.4292,95.5702 C2149.5692,91.3652 2148.1242,87.2582 2146.1382,83.3902 C2144.1052,79.5442 2141.5952,75.9352 2138.7492,72.5532 C2135.8522,69.2142 2132.6312,66.1082 2129.1552,63.2282 C2128.7272,62.8532 2128.2862,62.5112 2127.8602,62.1852 L2126.5972,61.2072 C2125.7802,60.5882 2124.9682,59.9202 2124.1342,59.3552 C2122.4742,58.1872 2120.8092,56.9782 2119.1082,55.9162 C2105.5332,47.1512 2091.0242,40.8412 2075.8492,35.0592 C2070.5932,34.9842 2061.9212,33.7082 2052.7652,32.5442 C2043.6082,31.3562 2033.9552,30.2502 2026.7432,29.8222 C2019.5322,29.3782 2014.7662,29.6062 2015.3762,30.9472 C2015.9702,32.3492 2021.9892,34.7472 2036.0502,39.6432 C2020.4202,35.6962 2004.8452,32.3952 1989.3722,29.4732 C1973.8982,26.5482 1958.5212,24.0192 1943.2302,21.7182 C1912.6442,17.1622 1882.4062,13.5682 1852.2322,10.5902 C1791.8762,4.6902 1731.7662,1.1792 1669.1192,0.0012 C1660.4282,0.9372 1651.0672,1.7892 1642.6082,2.8112 C1634.9312,5.9092 1621.0122,9.8532 1606.5792,14.1772 C1592.1452,18.4942 1577.1962,23.1872 1567.3942,27.6202 C1557.5912,32.0532 1552.9292,36.1982 1559.0252,39.4172 C1565.1182,42.6532 1581.9682,44.8992 1615.1742,45.9992 C1611.2222,45.5022 1605.4562,45.0322 1595.9912,44.6222 Z" id="Fill-9"></path>
            <path d="M1353.0267,892.3747 L1432.6087,874.5227 L1414.1227,874.4197 C1348.6907,886.2757 1396.9447,882.4597 1353.0267,892.3747" id="Fill-15"></path>
            <path d="M1277.6195,24.134 C1166.8905,19.497 1022.6715,19.175 866.0695,23.304 C836.4215,27.377 805.4795,31.426 770.5445,35.269 L672.4815,35.65 C575.1005,41.427 460.1875,50.083 399.2205,61.578 C381.3545,61.433 381.2165,60.226 363.3515,60.081 C328.2705,64.59 257.0825,66.401 222.2545,72.707 C177.7035,72.936 177.2025,69.324 150.1595,67.29 C131.4485,69.107 111.6815,70.488 91.2665,71.619 C78.7335,72.26 66.0065,72.911 53.1465,73.569 C37.1495,74.323 20.9875,75.086 4.7365,75.852 C4.3735,100.668 4.0075,125.698 3.6415,150.65 C3.2985,167.665 3.0095,184.626 2.8815,201.334 C2.6255,234.75 3.0105,267.154 4.8765,296.945 C-5.3995,342.107 10.9705,438.479 1.3095,492.414 C-0.0025,531.279 -0.2685,571.256 0.2455,607.588 C0.5015,625.754 0.9535,643.009 1.5675,658.758 C1.8745,666.632 2.2225,674.13 2.6045,681.177 C2.8125,684.701 3.0135,688.112 3.2075,691.401 C3.2605,692.223 3.3135,693.038 3.3655,693.844 C3.4205,695.02 3.4735,696.185 3.5275,697.338 C3.6405,699.769 3.7515,702.152 3.8605,704.484 C4.9955,707.872 6.0935,711.146 7.1505,714.302 C7.9175,716.34 8.6555,718.302 9.3645,720.185 C10.8035,723.945 12.1675,727.377 13.4465,730.456 C16.0065,736.615 18.2315,741.369 20.0575,744.534 C18.3385,745.13 4.1885,712.598 13.9015,756.185 C16.8495,764.424 22.2245,781.353 22.8075,781.189 C25.1935,789.663 43.8965,867.524 53.9485,892.139 C57.9585,902.273 59.6975,905.203 59.9385,902.54 C39.3475,799.593 122.3475,1015.943 154.9935,1090.939 C159.0565,1102.505 163.0725,1114.463 167.1085,1126.081 C156.6495,1082.369 144.4075,1034.657 128.4385,978.407 C130.3575,996.45 106.9505,910.803 116.0955,954.55 C118.5005,963.131 121.4465,971.408 123.8545,979.951 L137.2205,1041.026 C120.5225,990.514 90.4165,869.798 75.0935,837.595 C60.0515,777.288 59.8065,758.517 53.6535,723.15 C52.4605,718.765 51.2575,714.341 50.0405,709.87 C49.4375,707.633 48.8325,705.384 48.2235,703.121 C47.8255,701.606 47.4275,700.082 47.0255,698.548 C47.3955,676.57 47.7775,653.937 48.1605,631.261 C48.5815,607.797 48.9915,584.288 49.2285,561.371 C49.7025,515.537 49.4835,472.069 47.2765,436.046 C46.0365,338.523 51.4775,320.42 55.6965,293.508 C53.2745,249.276 56.2615,169.292 52.0295,151.9 C52.0895,150.613 52.1475,149.339 52.2065,148.079 C52.2365,147.448 52.2665,146.822 52.2965,146.198 L52.3425,145.27 L52.3885,144.771 C52.5165,143.468 52.6435,142.193 52.7675,140.945 C53.0285,138.487 53.3025,136.216 53.5885,134.124 C54.1595,129.941 54.7805,126.476 55.4385,123.647 C61.4035,124.246 66.2105,124.992 70.1105,125.833 C72.0615,126.254 73.7855,126.698 75.3155,127.161 C75.6905,127.279 76.0605,127.396 76.4275,127.511 L76.9565,127.688 L77.2155,127.778 L77.3435,127.822 L77.6745,127.855 C79.5155,128.031 81.3205,128.204 83.0945,128.374 C97.2845,129.779 109.5105,131.329 122.9135,132.556 C185.2955,131.883 184.8685,128.269 228.7005,122.634 C352.8545,116.469 203.7295,136.242 345.4345,127.821 C398.6685,125.876 468.8725,116.854 468.4045,113.245 C530.8265,113.171 609.9615,104.219 654.8385,105.795 C750.7825,88.581 876.7945,97.463 990.5665,80.394 C1054.1555,77.096 1110.5755,72.505 1166.0465,67.388 C1193.7805,64.83 1221.2795,62.14 1249.3195,59.415 C1263.3395,58.063 1277.4945,56.699 1291.8815,55.313 C1299.0475,54.624 1306.2705,53.93 1313.5635,53.23 C1320.8415,52.574 1328.1865,51.912 1335.6135,51.243 C1349.3065,45.191 1351.7845,39.714 1342.3455,35.044 C1337.6265,32.714 1329.9295,30.591 1319.1705,28.756 C1308.4195,26.919 1294.5835,25.433 1277.6195,24.134" id="Fill-29"></path>
        </g>
    </g>
</svg>