<?xml version="1.0" encoding="UTF-8"?>
<svg width="448px" height="501px" viewBox="0 0 448 501" version="1.1" xmlns="http://www.w3.org/2000/svg" xmlns:xlink="http://www.w3.org/1999/xlink">
    <!-- Generator: Sketch 53.2 (72643) - https://sketchapp.com -->
    <title>Group</title>
    <desc>Created with Sketch.</desc>
    <g id="Page-1" stroke="none" stroke-width="1" fill="none" fill-rule="evenodd">
        <g id="Desktop-HD-Copy-17" transform="translate(-851.000000, -251.000000)">
            <g id="Group" transform="translate(851.000000, 251.000000)">
                <g id="Croods---The-Feedback(2)" transform="translate(0.000000, 88.000000)" opacity="0.472260975">
                    <g id="Screen">
                        <g id="Screen/Stats">
                            <g id="Window">
                                <path d="M343.037304,241.34744 L6.89361735,241.34744 C3.46085205,241.34744 0.677660728,238.565389 0.677660728,235.134029 L0.677660728,6.89090258 C0.677660728,3.45927212 3.46085205,0.677220605 6.89361735,0.677220605 L343.037304,0.677220605 C346.470341,0.677220605 349.253261,3.45927212 349.253261,6.89090258 L349.253261,235.134029 C349.253261,238.565389 346.470341,241.34744 343.037304,241.34744 Z" id="Window-Bg" fill="#FFFFFF" fill-rule="nonzero"></path>
                                <path d="M343.037304,0.135227324 L6.89361735,0.135227324 C3.16134921,0.135227324 0.135445391,3.15998305 0.135445391,6.89090258 L0.135445391,235.134029 C0.135445391,238.864723 3.16139479,241.889433 6.89361735,241.889433 L343.037304,241.889433 C346.769709,241.889433 349.795476,238.864813 349.795476,235.134029 L349.795476,6.89090258 C349.795476,3.15989311 346.769755,0.135227324 343.037304,0.135227324 Z M6.89361735,1.21921389 L343.037304,1.21921389 C346.170824,1.21921389 348.711046,3.75854774 348.711046,6.89090258 L348.711046,235.134029 C348.711046,238.266151 346.170786,240.805447 343.037304,240.805447 L6.89361735,240.805447 C3.76030931,240.805447 1.21987607,238.266054 1.21987607,235.134029 L1.21987607,6.89090258 C1.21987607,3.75864498 3.76027106,1.21921389 6.89361735,1.21921389 Z" id="window-border" fill="#009192" fill-rule="nonzero"></path>
                                <path d="M79.4668087,118.742869 L79.4668087,128.845082 L23.3475213,128.845082 L23.3475213,118.742869 L79.4668087,118.742869 Z M112.270837,96.392692 L112.270837,106.494905 L23.3475213,106.494905 L23.3475213,96.392692 L112.270837,96.392692 Z M100.573896,72.9783113 L100.573896,83.0805241 L23.3475213,83.0805241 L23.3475213,72.9783113 L100.573896,72.9783113 Z M135.641944,51.0896417 L135.641944,61.1921254 L23.3475213,61.1921254 L23.3475213,51.0896417 L135.641944,51.0896417 Z M150.768125,25.2726047 L150.768125,35.3748175 L23.3475213,35.3748175 L23.3475213,25.2726047 L150.768125,25.2726047 Z" id="Info" fill="#E0E0E0" fill-rule="nonzero"></path>
                                <path d="M146.864988,136.087738 L146.864988,131.515483 C149.94188,130.966263 152.311361,129.833497 153.973431,128.117185 C155.635502,126.400873 156.466538,124.389355 156.466538,122.082632 C156.466538,119.995596 155.910225,118.347937 154.797599,117.139653 C153.684973,115.931369 152.373173,115.059483 150.8622,114.523993 C149.351227,113.988504 147.49685,113.514802 145.29907,113.102887 C143.595791,112.773355 142.373277,112.464419 141.631526,112.176078 C140.889775,111.887738 140.5189,111.455227 140.5189,110.878546 C140.5189,109.670263 141.768887,109.066121 144.268861,109.066121 C146.796308,109.066121 149.474852,109.780107 152.304493,111.208078 L152.304493,111.208078 L155.230287,104.164334 C152.95009,102.873667 150.161658,102.077298 146.864988,101.775227 L146.864988,101.775227 L146.864988,97.367738 L141.054609,97.367738 L141.054609,101.85761 C137.785412,102.324447 135.27857,103.422887 133.534082,105.152929 C131.789595,106.882972 130.917351,108.956277 130.917351,111.372844 C130.917351,113.45988 131.466796,115.114405 132.565686,116.336419 C133.664575,117.558433 134.955771,118.437185 136.439272,118.972674 C137.922773,119.508163 139.777149,120.009327 142.002401,120.476163 C143.733153,120.833156 144.976272,121.162688 145.731758,121.464759 C146.487245,121.76683 146.864988,122.219937 146.864988,122.824078 C146.864988,123.345837 146.57653,123.737156 145.999613,123.998036 C145.422696,124.258915 144.461167,124.389355 143.115027,124.389355 C141.549109,124.389355 139.914511,124.149071 138.211232,123.668504 C136.507952,123.187937 134.969507,122.549469 133.595895,121.7531 L133.595895,121.7531 L130.464059,128.838036 C131.70031,129.606944 133.25936,130.252277 135.141208,130.774036 C137.023057,131.295795 138.994191,131.611596 141.054609,131.72144 L141.054609,131.72144 L141.054609,136.087738 L146.864988,136.087738 Z" id="$" fill="#CFCFCF" fill-rule="nonzero"></path>
                                <g id="Pie-Chart" transform="translate(226.535019, 22.232185)">
                                    <path d="M69.5667699,29.7090094 L74.7828815,0.139481971 C81.7357088,1.36492878 88.038962,5.00251669 92.5770333,10.4088997 C97.1153757,15.8150116 99.6046863,22.6514439 99.6046863,29.7090094 L69.5667699,29.7090094 Z" id="Bg-2" stroke="#E0E0E0" stroke-width="4"></path>
                                    <path d="M63.7469558,34.3016437 L93.7848722,34.3016437 C93.7848722,50.7730905 80.2254222,64.3272585 63.7469558,64.3272585 C47.2687607,64.3272585 33.7090395,50.7730905 33.7090395,34.3016437 C33.7090395,17.8301969 47.2687607,4.27602889 63.7469558,4.27602889 C65.4956003,4.27602889 67.2409915,4.4286 68.9630674,4.73211624 L63.7469558,34.3016437 Z" id="Stork-4" stroke="#E0E0E0" stroke-width="4"></path>
                                    <path d="M26.7428737,13.3658253 C26.7428737,20.7475028 20.7562742,26.7316506 13.3715724,26.7316506 C5.98659954,26.7316506 0,20.7475028 0,13.3658253 C0,5.98414782 5.98659954,-1.13686838e-13 13.3715724,-1.13686838e-13 C20.7562742,-1.13686838e-13 26.7428737,5.98414782 26.7428737,13.3658253 Z" id="BG" stroke="#E0E0E0" stroke-width="4"></path>
                                    <path d="M69.5667699,29.7090094 L74.7828815,0.139481971 C81.7357088,1.36492878 88.038962,5.00251669 92.5770333,10.4088997 C97.1153757,15.8150116 99.6046863,22.6514439 99.6046863,29.7090094 L69.5667699,29.7090094 Z" id="Stork-3" fill="#F2F2F2" fill-rule="nonzero"></path>
                                    <path d="M63.7469558,34.3016437 L93.7848722,34.3016437 C93.7848722,50.7730905 80.2254222,64.3272585 63.7469558,64.3272585 C47.2687607,64.3272585 33.7090395,50.7730905 33.7090395,34.3016437 C33.7090395,17.8301969 47.2687607,4.27602889 63.7469558,4.27602889 C65.4956003,4.27602889 67.2409915,4.4286 68.9630674,4.73211624 L63.7469558,34.3016437 Z" id="Stoke-2" fill="#F2F2F2" fill-rule="nonzero"></path>
                                    <path d="M26.7428737,13.3658253 C26.7428737,20.7475028 20.7562742,26.7316506 13.3715724,26.7316506 C5.98659954,26.7316506 0,20.7475028 0,13.3658253 C0,5.98414782 5.98659954,-1.13686838e-13 13.3715724,-1.13686838e-13 C20.7562742,-1.13686838e-13 26.7428737,5.98414782 26.7428737,13.3658253 Z" id="Stroke" fill="#F2F2F2" fill-rule="nonzero"></path>
                                </g>
                                <path d="M249.420682,162.905295 L249.420682,221.07391 L234.553137,221.07391 L234.553137,162.905295 L249.420682,162.905295 Z M194.867041,106.233664 L194.867041,221.07391 L179.999225,221.07391 L179.999225,106.233664 L194.867041,106.233664 Z M223.748141,138.256253 L223.748141,221.07391 L208.880596,221.07391 L208.880596,138.256253 L223.748141,138.256253 Z M278.760496,180.25206 L278.760496,221.07391 L263.89268,221.07391 L263.89268,180.25206 L278.760496,180.25206 Z M307.661929,189.739924 L307.661929,221.07391 L292.794113,221.07391 L292.794113,189.739924 L307.661929,189.739924 Z M332.174942,182.434938 L332.174942,221.07391 L317.307126,221.07391 L317.307126,182.434938 L332.174942,182.434938 Z" id="Graph" fill="#E0E0E0" fill-rule="nonzero"></path>
                                <polygon id="Up" fill="#5AB8B8" fill-rule="nonzero" points="297.373528 124.721516 250.099129 150.090866 193.885225 64.1242278 199.610747 60.8202367 181.225039 48.8459792 182.407068 70.7487406 187.225194 67.9680441 247.524419 160.183323 294.80885 134.809095 325.11218 180.989632 331.53201 176.77726"></polygon>
                            </g>
                        </g>
                    </g>
                </g>
                <g id="Group-2" transform="translate(253.000000, 0.000000)">
                    <g id="Croods---Standing(1)" transform="translate(97.500000, 251.000000) scale(-1, 1) translate(-97.500000, -251.000000) ">
                        <g id="Lower-Body" transform="translate(0.000000, 194.500000)" fill-rule="nonzero">
                            <g id="Lower-Body/Jeans-2">
                                <g id="shoe-2" transform="translate(124.836888, 263.365745)">
                                    <polygon id="SKIN" fill="#FFFFFF" points="1.01116996 1.41934669 4.40684215 24.5549465 37.764868 27.9919923 32.5926201 4.15616017"></polygon>
                                    <path d="M37.8741913,28.8304854 L4.23968695,25.536712 C3.83112987,25.4964622 3.50243476,25.1836879 3.44274844,24.7782553 L0.0095238445,1.37426778 C-0.0619316136,0.887077766 0.276430996,0.434267775 0.764850067,0.362992128 C1.25410979,0.294651361 1.70680113,0.6296469 1.77867692,1.11641764 L5.11060288,23.8298699 L36.8195928,26.935811 L31.7601261,4.38796983 C31.6521023,3.90748812 31.9555778,3.43077982 32.4368513,3.32302781 C32.9206468,3.21527581 33.3972967,3.51840694 33.5044799,3.99846938 L38.8337961,27.7483534 C38.896845,28.0275862 38.8211863,28.3198164 38.6311989,28.5340626 C38.4605464,28.7260876 38.2163369,28.8350974 37.9616192,28.8350974 C37.9326167,28.8350974 37.9031938,28.8334203 37.8741913,28.8304854 Z" id="path-6" fill="#009192"></path>
                                    <path d="M2.89636638,21.8414471 C3.00481054,21.415051 3.42513677,21.1454614 3.85933376,21.2226068 C4.27251443,21.2968173 4.79582057,21.3970225 5.41159849,21.5156755 C9.18696863,22.2401714 17.0424454,23.7482803 24.4868432,23.75415 L24.5057578,23.75415 C28.8914417,23.75415 32.7483551,22.5575577 35.3661468,20.3836505 C35.5742083,20.2109118 35.8524642,20.1496986 36.1155885,20.2167816 C48.8926649,23.5348726 58.1242897,25.9322499 64.9655194,30.4834096 C66.1676524,31.2837932 70.504158,34.7754614 69.754296,37.2449529 C69.4071066,38.3870403 68.1721881,38.9660501 66.0831668,38.9660501 C58.4567678,38.9660501 42.0257955,39.0083962 27.5291644,39.0461304 C15.7991204,39.076737 5.66925847,39.1031509 1.85521832,39.1031509 C1.45212548,39.1031509 1.08854329,38.9207691 0.830883317,38.5899663 C-0.670942279,36.6630082 1.77493601,26.2349618 2.89636638,21.8414471" id="path-23" fill="#FF7841"></path>
                                    <path d="M2.00893162,42.7954391 L67.9312151,42.7954391 C69.0265852,42.7954391 69.9151549,41.909944 69.9151549,40.816911 L69.9151549,40.1632713 C69.9151549,39.0702383 69.0265852,38.184324 67.9312151,38.184324 L2.00893162,38.184324 C0.913561485,38.184324 0.0249918496,39.0702383 0.0249918496,40.1632713 L0.0249918496,40.816911 C0.0249918496,41.909944 0.913561485,42.7954391 2.00893162,42.7954391" id="Fill-47" fill="#009192"></path>
                                    <path d="M49.2094227,28.1169743 C49.5435821,28.1169743 49.8638707,27.9295613 50.0168694,27.6084016 C51.419498,24.6701679 54.1142094,25.3892134 54.4172647,25.4818717 C54.8871894,25.6240037 55.3869573,25.3619609 55.5332308,24.8940573 C55.679084,24.4253151 55.4205834,23.9284819 54.9523399,23.7800608 C53.4240338,23.296225 50.0874842,23.3138342 48.4028167,26.8419788 C48.190552,27.2868226 48.3796988,27.8184551 48.8256649,28.0301857 C48.9496611,28.0893026 49.0803826,28.1169743 49.2094227,28.1169743" id="path-25" fill="#009192"></path>
                                    <path d="M41.315192,25.9694391 C41.6493513,25.9694391 41.9700602,25.782026 42.1230589,25.4608664 C43.5256875,22.5226326 46.2203989,23.2416781 46.5230338,23.3343365 C46.9933788,23.4768878 47.4931467,23.2144257 47.6389999,22.746522 C47.7848531,22.2777798 47.5263525,21.7809466 47.0581091,21.6325256 C45.5281216,21.149109 42.1924127,21.1671375 40.5090063,24.6944435 C40.2967415,25.1392874 40.4858883,25.6709199 40.9318545,25.8826505 C41.0558507,25.9417673 41.1861518,25.9694391 41.315192,25.9694391" id="path-26" fill="#009192"></path>
                                </g>
                                <g id="shoe-1" transform="translate(0.000000, 263.719893)">
                                    <polygon id="SKIN" fill="#FFFFFF" points="65.9798199 1.00392365 64.98091 24.3814453 35.6013132 26.8934068 36.0498132 3.42086623"></polygon>
                                    <path d="M35.5326976,27.7804265 C35.3065621,27.7804265 35.0879925,27.6948957 34.9215433,27.5393471 C34.7370201,27.3670278 34.6344605,27.1246906 34.6389342,26.8722909 L35.0673965,3.39367362 C35.0766437,2.90145239 35.4982309,2.50650145 35.9774028,2.51866024 C36.4708657,2.52788415 36.8638708,2.93373606 36.8550439,3.42637656 L36.4443852,25.9180358 L64.1199247,23.6078663 L65.1068507,0.853325715 C65.127867,0.361943021 65.54399,-0.0216876657 66.0382936,0.000952833904 C66.5317566,0.0223355279 66.9142535,0.438669159 66.8928168,0.930471121 L65.8722647,24.4694631 C65.8529297,24.9176611 65.5019573,25.2820055 65.0534693,25.3193204 L35.6070954,27.7770724 C35.5822961,27.7791687 35.5574969,27.7804265 35.5326976,27.7804265" id="path-1" fill="#009192"></path>
                                    <path d="M67.0187886,21.6228395 C66.9103444,21.1964435 66.4900182,20.9268538 66.0558212,21.0039992 C65.6422202,21.0782097 65.1193344,21.1784149 64.5031361,21.2970679 C60.7281863,22.0215639 52.8727095,23.5296727 45.4283118,23.5355425 L45.4089768,23.5355425 C41.0237133,23.5355425 37.1667999,22.3389502 34.5485878,20.1650429 C34.3409467,19.9923043 34.0622704,19.9310911 33.7991462,19.9981741 C21.02249,23.3162651 11.7908651,25.7136424 4.94963551,30.2648021 C3.74708218,31.0651857 -0.589003137,34.5568538 0.160858846,37.0263453 C0.508048306,38.1684328 1.74296675,38.7474426 3.83156775,38.7474426 C11.4583871,38.7474426 27.8893595,38.7897887 42.3859906,38.8275229 C54.1156142,38.8581295 64.2458965,38.8845434 68.0599366,38.8845434 C68.4626092,38.8845434 68.8266117,38.7021616 69.0842716,38.3713587 C70.5860972,36.4444006 68.1402189,26.0163543 67.0187886,21.6228395" id="path-2" fill="#FF7841"></path>
                                    <path d="M67.9062233,42.5768317 L1.98393977,42.5768317 C0.88814931,42.5768317 0,41.6913364 0,40.5983034 L0,39.9446638 C0,38.8516308 0.88814931,37.9657164 1.98393977,37.9657164 L67.9062233,37.9657164 C69.0015935,37.9657164 69.8897428,38.8516308 69.8897428,39.9446638 L69.8897428,40.5983034 C69.8897428,41.6913364 69.0015935,42.5768317 67.9062233,42.5768317" id="path-3" fill="#009192"></path>
                                    <path d="M20.7057321,27.8983667 C20.3715728,27.8983667 20.0512842,27.7109537 19.8982854,27.389794 C18.4956568,24.4515603 15.8009454,25.1706058 15.4978902,25.2632642 C15.0279655,25.4053962 14.5277773,25.1433534 14.3819241,24.6754497 C14.2360709,24.2067075 14.4941512,23.7098743 14.9628149,23.5614533 C16.4911211,23.0776174 19.8276706,23.0952267 21.5119178,26.6233712 C21.7241826,27.0682151 21.5350358,27.5998476 21.08949,27.8115782 C20.9654937,27.870695 20.8347723,27.8983667 20.7057321,27.8983667" id="path-4" fill="#009192"></path>
                                    <path d="M28.5997528,25.7508315 C28.2655935,25.7508315 27.9453049,25.5634185 27.7923061,25.2422588 C26.3892572,22.3040251 23.6945458,23.0230706 23.3923312,23.1157289 C22.9219862,23.2582802 22.421798,22.9958181 22.2759448,22.5279145 C22.1300916,22.0591723 22.3885922,21.5623391 22.8568356,21.413918 C24.3868231,20.9305014 27.722532,20.94853 29.4059385,24.475836 C29.6182033,24.9206799 29.4290565,25.4523123 28.9835107,25.6640429 C28.8595144,25.7231598 28.728793,25.7508315 28.5997528,25.7508315" id="path-5" fill="#009192"></path>
                                </g>
                                <g id="pant" transform="translate(5.043915, 0.000000)">
                                    <path d="M21.9717127,1.23657033 L0,277.594055 C21.6631932,279.361691 44.6962296,279.105937 68.5800063,277.594055 C68.5800063,277.594055 72.3650439,46.6077123 74.4439774,46.3733412 C78.3357779,45.9356248 97.4534755,277.594055 97.4534755,277.594055 C119.061186,281.085723 140.254454,280.022039 161.323306,277.594055 C161.323306,277.594055 145.289542,72.9457408 117.844341,0.203911992 C74.466675,2.12667738 21.9717127,1.23657033 21.9717127,1.23657033" id="path-10" fill="#009192"></path>
                                    <path d="M45.9416142,10.2438834 C45.4258739,9.97764794 44.7916016,10.1780583 44.5251148,10.6920815 C37.5594686,24.0931609 22.5227183,22.8257122 21.8678501,22.7624026 C21.2861186,22.7062206 20.7758425,23.1275855 20.7190985,23.7036604 C20.6623545,24.2797354 21.0847823,24.7925008 21.6623105,24.849102 C21.6917334,24.8520369 22.2125176,24.8977372 23.0947823,24.8977372 C27.3602528,24.8977372 40.0654536,23.8265061 46.3905226,11.6568183 C46.6578501,11.1432144 46.4569341,10.5105382 45.9416142,10.2438834" id="path-21" fill="#FFFFFF"></path>
                                    <path d="M123.083582,20.7878157 C122.464861,20.8490289 107.873657,22.1269593 101.116492,8.71749451 C100.856731,8.20305205 100.241794,8.00306097 99.7432867,8.26929647 C99.2435188,8.53553198 99.0484875,9.16820816 99.3074084,9.68223135 C105.440388,21.8531769 117.758048,22.9231502 121.893218,22.9231502 C122.747741,22.9231502 123.252973,22.8770306 123.281555,22.874515 C123.841009,22.8179138 124.249566,22.3055677 124.195765,21.729912 C124.141122,21.1542563 123.641775,20.7328915 123.083582,20.7878157" id="path-22" fill="#FFFFFF"></path>
                                </g>
                            </g>
                        </g>
                        <g id="Upper-Body" transform="translate(21.000000, 49.500000)">
                            <g id="Upper-Body/Recording">
                                <g id="Hand-2" transform="translate(81.658044, -0.000105)">
                                    <path d="M49.2488639,27.6502143 C46.6452256,36.1582719 35.2116566,66.0100392 27.3057736,68.841168 L0.893720411,89.8139049 C4.98365125,98.6539515 19.7360608,109.537491 27.4486459,109.537491 C35.1608108,109.537491 59.9743745,103.781757 70.2574011,36.7853623 C72.5454596,26.7284417 68.6261352,13.6920034 66.0548533,16.3994746 C60.490816,22.2574883 49.2488639,27.6502143 49.2488639,27.6502143" id="SKIN" fill="#FFFFFF" fill-rule="nonzero"></path>
                                    <path d="M2.01123424,90.0655795 C6.3125321,98.3988397 20.2253566,108.645648 27.4483938,108.645648 C36.7792183,108.645648 44.3775054,100.993971 47.2110001,97.7042617 C57.5398299,85.7128343 64.9965054,65.1714315 69.374282,36.6505546 C69.3772235,36.6295957 69.3814256,36.6086368 69.3860479,36.5880971 C71.0387447,29.3241601 69.3415054,20.5084258 67.4476064,17.6307683 C67.0799203,17.0724231 66.8429203,16.9537957 66.787032,16.9324176 C66.7815692,16.9412203 66.749633,16.963856 66.7034096,17.0124806 C61.581016,22.406045 51.9787341,27.2991108 49.987766,28.2820834 C47.8593884,35.0115683 36.4598566,66.2072206 27.7522076,69.6256178 L2.01123424,90.0655795 Z M27.4483938,110.428832 C19.3731651,110.428832 4.28332466,99.2673767 0.082457646,90.1875603 C-0.0902498008,89.8144918 0.0148033907,89.3722589 0.337106582,89.1161411 L26.7491598,68.1434041 C26.8256385,68.0830425 26.9117821,68.034837 27.0038087,68.0017219 C34.0755693,65.4694671 45.1708671,37.9231793 48.393899,27.3896532 C48.467016,27.1519793 48.636782,26.9549656 48.8615958,26.8468176 C48.972532,26.793582 60.0216064,21.4557683 65.4057926,15.7863847 C66.0436756,15.1148614 66.8887235,14.9622806 67.6661171,15.3764286 C70.7487979,17.0196066 73.0591277,28.445982 71.1362341,36.9515245 C60.664532,105.135032 35.050463,110.428832 27.4483938,110.428832 L27.4483938,110.428832 Z" id="Fill-3" fill="#009192" fill-rule="nonzero"></path>
                                    <g id="Phone" transform="translate(40.604157, 0.000000)">
                                        <path d="M13.6453604,0.826985706 L3.07301931,5.29500121 C0.645870764,6.32074727 -0.393123355,9.33016223 0.752322042,12.0168304 L11.4617165,37.1359587 C12.6064377,39.8209281 15.5024907,41.1672871 17.9296392,40.141541 L28.5019803,35.6735255 C30.9152774,34.6536333 31.968123,31.6383645 30.8226776,28.9516963 L20.114026,3.83431038 C18.9685806,1.14764216 16.0586575,-0.192906559 13.6453604,0.826985706 Z M20.7964377,11.7770631 C21.0463109,12.3631464 20.8064737,13.0376022 20.2671359,13.2655337 L8.09061565,18.4114972 C7.53897001,18.6446302 6.89737343,18.3426803 6.64750023,17.756597 L4.71642921,13.2272261 C4.46085381,12.6277681 4.69408534,11.9718885 5.24573098,11.7387555 L17.4222513,6.59279202 C17.961589,6.36486053 18.6097913,6.64823425 18.8653667,7.24769217 L20.7964377,11.7770631 Z" id="Fill-1" fill="#009192"></path>
                                        <path d="M16.85191,36.8862083 C16.2437197,37.6969042 15.3121301,37.6734519 14.721534,36.8862083 C14.1204083,36.0849293 14.1625712,34.8126838 14.721534,34.0676065 C15.2699672,33.3365646 16.2367,33.2475536 16.85191,34.0676065 C17.446016,34.9016948 17.4161374,36.1341133 16.85191,36.8862083 Z" id="Path" fill="#FFFFFF"></path>
                                        <path d="M13.85191,31.036625 C13.2402098,31.6481911 12.3068654,31.6218281 11.721534,31.036625 C11.1204083,30.4356311 11.1625712,29.4813919 11.721534,28.9225517 C12.3262145,28.3180038 13.2911923,28.361957 13.85191,28.9225517 C14.446016,29.548154 14.4161374,30.4742757 13.85191,31.036625 Z" id="Path" fill="#FFFFFF"></path>
                                        <path d="M11.8518165,26.0364883 C11.2417399,26.6456192 10.3099499,26.6245435 9.72098184,26.0364883 C9.11972678,25.4361652 9.16365409,24.4812384 9.72098184,23.9247745 C10.2800649,23.366558 11.2382293,23.3121384 11.8518165,23.9247745 C12.4460504,24.5514311 12.4161654,25.4747667 11.8518165,26.0364883 Z" id="Path" fill="#FFFFFF"></path>
                                        <path d="M21.853635,34.0365753 C21.2431322,34.6447337 20.3124476,34.6253856 19.7213115,34.0365753 C19.1178798,33.4337263 19.1653508,32.4775732 19.7213115,31.9221495 C20.2649315,31.3790545 21.1499016,31.3702354 21.6125866,31.7428696 C21.7023132,31.788567 21.7779651,31.8483299 21.853617,31.9221495 C22.4729024,32.5759782 22.3866979,33.5040092 21.853617,34.0365753 L21.853635,34.0365753 Z" id="Path" fill="#FFFFFF"></path>
                                        <path d="M19.855749,29.0360315 C19.2447373,29.6457822 18.3115189,29.624685 17.7216481,29.0360315 C17.1194714,28.4350976 17.163466,27.4791992 17.7216481,26.9221691 C18.2639632,26.3809732 19.147913,26.3686478 19.6144997,26.7429371 C20.281857,27.0750409 20.6040637,28.2892432 19.855731,29.0360585 L19.855749,29.0360315 Z" id="Path" fill="#FFFFFF"></path>
                                        <path d="M17.8523415,24.0366592 C17.2333681,24.6550952 16.2996411,24.6147057 15.7210923,24.0366592 C15.1179646,23.4340552 15.1654118,22.4782905 15.7210923,21.9230924 C16.3260206,21.3186893 17.2896384,21.3608779 17.8523415,21.9230924 C18.4502022,22.5538072 18.4115333,23.4779529 17.8523415,24.0366592 Z" id="Path" fill="#FFFFFF"></path>
                                        <path d="M26.8531671,32.0359472 C26.2341441,32.6553643 25.3003423,32.6149107 24.7217472,32.0359472 C24.120327,31.434144 24.1625106,30.4786199 24.7217472,29.9190272 C25.2932742,29.3471362 26.2675489,29.3347929 26.8531671,29.9190272 C27.3877779,30.4838905 27.4721901,31.3390916 26.8531671,32.0359472 Z" id="Path" fill="#FFFFFF"></path>
                                        <path d="M24.7067673,27.0359099 C23.891245,27.6484503 22.6469047,27.6220454 21.8665374,27.0359099 C21.0651131,26.4339584 21.121325,25.4781989 21.8665374,24.9184683 C22.7054563,24.2883546 23.9873511,24.4538135 24.3669763,24.7389328 C25.2621671,25.0258364 25.7284797,26.1752081 24.7067733,27.0359369 L24.7067673,27.0359099 Z" id="Path" fill="#FFFFFF"></path>
                                        <path d="M22.8563533,22.035761 C22.2451979,22.6458787 21.31176,22.6247687 20.7217504,22.035761 C20.1194321,21.4344653 20.1634371,20.4779916 20.7217504,19.9206263 C21.3628437,19.2806216 22.3174274,19.4599885 22.6009801,19.7412863 C23.2103771,20.0032611 23.6524108,21.1425991 22.8563578,22.035788 L22.8563533,22.035761 Z" id="Path" fill="#FFFFFF"></path>
                                    </g>
                                    <g id="palm" transform="translate(44.449264, 12.170594)" fill-rule="nonzero">
                                        <path d="M28.7024784,16.7604612 C26.8816965,16.3802667 24.3578986,17.6608558 24.4684146,19.5903325 C24.5528773,21.0683544 26.4161007,22.2722339 29.0411699,20.8998448 C30.9674252,19.8925599 30.3539146,17.1054448 28.7024784,16.7604612" id="SKIN" fill="#FFFFFF"></path>
                                        <path d="M25.614881,4.35174207 C26.2519236,1.75367633 24.1441364,-0.0110633976 21.1984449,1.36845167 C20.367264,1.75786811 19.101163,2.6741914 19.0465353,4.12873934 C18.9066044,7.83678865 25.1623119,6.19654481 25.614881,4.35174207" id="SKIN" fill="#FFFFFF"></path>
                                        <path d="M28.3755949,16.0242588 C30.2451215,14.8199602 29.4496587,11.3508423 27.2191693,11.0226259 C26.7044087,10.9467547 26.1719991,10.978193 25.6517757,11.0930478 C26.5237172,10.6705163 27.1519353,10.1201355 27.39818,9.58400673 C28.4394672,7.31583413 26.2699087,4.10996017 21.4412438,6.94611906 C18.80693,8.49330536 19.8335098,11.7415163 21.9971853,11.8236752 C22.8338289,11.8551136 23.6263502,11.7574451 24.3365098,11.5738451 C22.6199406,12.4650177 21.4168715,14.2159245 22.1715736,15.8075437 C23.0166215,17.5894697 25.6126959,17.8040889 28.3755949,16.0242588" id="SKIN" fill="#FFFFFF"></path>
                                        <path d="M28.6263358,20.1100295 C27.5728624,20.6608295 26.5920858,20.7639473 25.9348731,20.3925555 C25.5898784,20.1976377 25.3801922,19.8866076 25.3604422,19.5395281 C25.3293465,18.9962733 25.670139,18.5838021 25.9617667,18.3335528 C26.5051018,17.8674267 27.3140114,17.5853199 28.0334156,17.5853199 C28.2019209,17.5853199 28.3653837,17.6008295 28.5196018,17.6331062 C28.9192241,17.7165226 29.2516124,18.1549829 29.3276709,18.6994952 C29.3684316,18.9920815 29.3818784,19.7151637 28.6263358,20.1100295 M22.9795167,15.4265528 C22.6378837,14.7051473 22.9698518,14.0105692 23.3081231,13.5549226 C23.6581603,13.0837665 24.1456071,12.6905774 24.6868411,12.400087 C25.1209209,12.2802021 25.5268465,12.1305555 25.9004156,11.9578541 C26.1504422,11.9067144 26.4004688,11.872761 26.6446124,11.872761 C26.7954688,11.872761 26.9442241,11.8832404 27.0887773,11.9046185 C27.8905433,12.0224076 28.334288,12.7974678 28.4704369,13.4249774 C28.6002826,14.0227254 28.5263252,14.8656925 27.8905433,15.2752295 C26.4769475,16.1861034 25.0272135,16.5566569 24.0161816,16.2695199 C23.5274741,16.1303528 23.1786975,15.8469884 22.9795167,15.4265528 M20.817522,9.85483769 C20.7393624,9.5467418 20.5868252,8.48202947 21.8945273,7.71409522 C23.0114529,7.05808152 24.0401337,6.72315824 24.8683731,6.72315824 C25.4247348,6.72315824 25.8907507,6.87448152 26.2315433,7.18131988 C26.7677348,7.66421303 26.9135486,8.49921577 26.5857826,9.21265687 C26.4450114,9.51949522 25.9911816,9.92567878 25.3049741,10.2673089 C24.8776177,10.3741993 24.4561443,10.5276185 24.0540007,10.7237939 C23.456038,10.8738596 22.7757135,10.9602103 22.0310965,10.9325445 C21.3297614,10.9061363 20.9389635,10.3356349 20.817522,9.85483769 M21.5785273,2.17507606 C22.6744422,1.66200208 23.6867348,1.64733085 24.2846975,2.13567332 C24.7897933,2.54814455 24.9582986,3.27835277 24.7469316,4.13976373 C24.6448199,4.55516919 22.8248784,5.67730892 21.080155,5.43418563 C20.0384475,5.28915002 19.9186869,4.70984591 19.9392773,4.16239934 C19.9838199,2.98115551 21.3125326,2.29999112 21.5785273,2.17507606 M31.0976071,18.4538569 C30.9547348,17.4277089 30.3639156,16.5746815 29.5583677,16.1425089 C30.2122188,15.3427171 30.4706497,14.2134514 30.2172614,13.047298 C29.9331975,11.7390432 29.0915114,10.7334349 28.0002188,10.3188678 C28.0813199,10.1981445 28.1548571,10.0770021 28.2107454,9.95544043 C28.8704794,8.51891714 28.5561603,6.87196645 27.4287294,5.85797467 C27.188788,5.64167878 26.787905,5.35705687 26.221038,5.16171988 C26.3412188,4.97099385 26.4319848,4.77188426 26.4828305,4.56355276 C26.8585007,3.03145688 26.460139,1.60792811 25.4167507,0.756158248 C24.2725114,-0.178189699 22.5534209,-0.250707507 20.8187826,0.561240439 L20.8187826,0.561659617 C20.2136763,0.845024001 18.2348943,1.93698291 18.1533731,4.09491167 C18.1008465,5.49370892 18.769405,6.52572536 19.9766763,6.98430618 C19.1286869,7.8981144 18.7841124,9.10325139 19.0841443,10.2912021 C19.4186337,11.6124514 20.473788,12.5447034 21.7445114,12.687224 C20.9856071,13.8202623 20.8397933,15.0836651 21.3637986,16.1886185 C21.7869529,17.0810486 22.5345114,17.7018514 23.5262135,17.9839582 C23.6552188,18.0204267 23.7913677,18.0418048 23.9258358,18.0661171 C23.669506,18.557813 23.5447029,19.0914267 23.5762188,19.6413884 C23.6304263,20.5908267 24.183006,21.4518185 25.0541071,21.9439336 C25.583155,22.2428076 26.1924635,22.3916158 26.8463146,22.3916158 C27.6695114,22.3916158 28.5633039,22.1560377 29.456256,21.6890733 C30.6593252,21.059887 31.2883837,19.8203774 31.0976071,18.4538569" id="Fill-14" fill="#009192"></path>
                                        <path d="M13.8195927,29.3039043 C13.1867523,26.0695262 10.1309651,24.8786412 8.31270445,24.5902467 C8.98672572,19.4792084 6.64950232,15.1038275 5.82882679,13.944381 C4.57869381,12.1775454 -0.00246578065,11.2272686 0.843002306,15.9120029 C1.49811401,19.5433426 2.43728954,21.608633 1.68594911,24.7004906 L5.41239594,27.1170522 C5.24809274,27.5848549 5.11110338,28.0643947 5.01781615,28.5070467 C3.74331082,34.5574632 11.3319332,36.5523317 13.5863747,35.0692796 C14.7936459,34.2753563 14.4759651,32.6602632 13.8195927,29.3039043" id="SKIN" fill="#FFFFFF"></path>
                                        <path d="M15.0995188,31.7033215 C15.0995188,32.2775955 15.0738858,32.822527 14.9776571,33.4261434 C14.9272316,33.7447188 14.6288805,33.9584996 14.3095188,33.9081982 C14.0069656,33.8578969 13.7968592,33.5812393 13.8262741,33.2794311 L13.830056,33.2417051 C13.9229231,32.2775955 13.8724975,31.2086914 13.658189,30.2361982 C13.460689,29.2511297 13.0824975,28.3163626 12.5320188,27.5283078 C12.2588805,27.1300886 11.9390986,26.7695955 11.5949443,26.4971297 C11.2419656,26.2120886 10.8343592,25.9773489 10.3889337,25.7971023 C9.95611455,25.6210475 9.48967838,25.4827188 9.01904008,25.382116 C8.91818902,25.8306366 8.79212519,26.2749654 8.64505072,26.7151023 C8.52318902,27.0714037 8.13239115,27.2684174 7.77100817,27.1468558 C7.41802945,27.0252941 7.22473157,26.6396503 7.33818902,26.2833489 C7.45164647,25.9270475 7.5482954,25.5707462 7.63191774,25.2060612 C7.76260391,24.6275955 7.85505072,24.0407462 7.90967838,23.4455133 C8.03994434,22.0203078 7.94707732,20.5699517 7.65755072,19.1615133 C7.41802945,17.9836229 7.04404008,16.814116 6.51036987,15.782938 C6.38010391,15.5314311 6.23302945,15.284116 6.08595498,15.0954859 C5.95568902,14.9278147 5.75398689,14.7433763 5.54388051,14.5798969 C5.11064115,14.252938 4.60260391,13.9762804 4.0857422,13.7792667 C3.57308263,13.582253 3.02680603,13.4648832 2.57717837,13.5026092 C2.35866773,13.5193763 2.17797624,13.5780612 2.05191241,13.6577051 C1.93005071,13.7373489 1.84180603,13.8421434 1.77036986,14.0098147 C1.62707731,14.3409654 1.62329539,14.8900886 1.70733794,15.4308284 C1.72834858,15.5691571 1.75776348,15.7074859 1.78717837,15.8458147 L1.88802943,16.298527 L2.10654007,17.2039517 C2.39648688,18.4153763 2.76627411,19.6687188 2.87552943,21.0561982 C2.92595497,21.7436503 2.90452411,22.4520612 2.79947092,23.1395133 C2.69063582,23.8227736 2.51414645,24.4808832 2.3082422,25.1222256 C2.1569656,25.5917051 1.65691241,25.8474037 1.18627411,25.6964996 C0.715635817,25.5497873 0.455103902,25.0467736 0.606380497,24.5772941 L0.610582625,24.5731023 L0.614784753,24.5479517 C0.803460285,23.9904448 0.959359221,23.4287462 1.05600816,22.8670475 C1.15265709,22.3011571 1.17786986,21.7436503 1.14425284,21.1735681 C1.07281667,20.0334037 0.753454965,18.8387462 0.463508157,17.5979791 L0.253401772,16.6590202 L0.152550708,16.1853489 C0.118933687,16.0176777 0.0895187936,15.8458147 0.0643060276,15.6697599 C-0.0197365254,14.9739243 -0.0785663128,14.2026366 0.270210283,13.3642804 C0.446699646,12.9492941 0.774465604,12.5384996 1.19047624,12.2869928 C1.60648688,12.0312941 2.05611454,11.9264996 2.46372092,11.9013489 C3.28733794,11.8552393 3.99749752,12.052253 4.6614337,12.3079517 C5.32074753,12.5720339 5.93047625,12.9115681 6.50196562,13.3558969 C6.7877103,13.582253 7.05664647,13.8253763 7.31297625,14.1607188 C7.5482954,14.4751023 7.71638051,14.7769106 7.87185923,15.0871023 C8.48116774,16.3111023 8.85935923,17.5770202 9.10728477,18.8764722 C9.40563583,20.4567736 9.48547625,22.0915681 9.30478477,23.6970202 C9.32999753,23.7054037 9.35941242,23.7095955 9.38462519,23.7179791 C9.95191242,23.8646914 10.5149975,24.0575133 11.0612741,24.3132119 C11.6033486,24.5689106 12.1286146,24.8958695 12.5992529,25.3108558 C13.0778752,25.7384174 13.4522848,26.2162804 13.7632422,26.7192941 C14.4019656,27.7337051 14.7843592,28.8654859 14.9566465,29.9972667 C15.0532954,30.5631571 15.0995188,31.1332393 15.0995188,31.7033215" id="Fill-18" fill="#009192"></path>
                                    </g>
                                </g>
                                <g id="T-Shirt" transform="translate(0.398990, 19.959019)" fill-rule="nonzero">
                                    <path d="M6.31579939,130.364269 C5.44323443,116.010357 -3.2003389,37.9433822 6.31579939,22.7167384 C21.1140122,-0.962212309 59.5878527,1.00499043 59.5878527,1.00499043 C59.5878527,1.00499043 79.1054751,-1.01293286 93.1309166,14.7955302 C97.293124,19.4865521 107.157619,41.7205959 109.078831,48.6768561 C107.940055,52.3564013 99.1622304,60.5886397 94.7697464,63.3946177 C102.208773,95.1301712 102.545784,130.092557 102.545784,130.092557 C102.545784,130.092557 21.2232675,131.728274 6.31579939,130.364269 Z" id="Fill-1" fill="#FF7841"></path>
                                    <path d="M90.4191155,42.1221684 C90.1476581,41.4011822 88.9933336,41.9079685 89.329924,42.6297931 C90.5863602,46.4983876 93.4370836,61.6386808 93.8791474,63.3212616 C99.1902166,90.869226 101.712754,123.880338 101.657286,129.238692 C93.3059772,129.307437 24.2734239,130.837437 7.2800196,129.752604 C7.16483928,112.758789 -3.76069262,41.9176934 7.09008343,23.1614863 C14.138087,10.9785961 27.9612111,5.83392194 38.3261792,3.67431646 C49.6551155,1.3135055 59.4338868,1.88861783 59.5317964,1.8949055 C60.034791,1.81777673 78.698541,0.104595909 92.4617698,15.3861521 C96.3638655,19.7841685 106.042626,41.374774 108.14327,48.6500287 C106.893137,51.8948862 99.6700996,58.8540808 95.235174,62.001689 C94.8233655,60.596604 91.4267857,46.0792095 90.4191155,42.1221684 Z M93.8001474,14.2044891 C80.084823,-1.25396025 60.9584187,-0.00187532419 59.5738176,0.111721936 C43.0464293,-0.881310939 14.9594079,4.60363427 5.54159939,22.2724096 C-5.43645913,44.9641958 4.46921641,99.7981383 5.29115258,120.459426 C5.58782279,124.238736 5.26341853,131.243201 6.0719079,131.26416 C28.0855941,131.543752 94.5998123,130.995048 102.585956,130.983311 C103.058275,130.961933 103.432685,130.577127 103.439408,130.105552 C103.444451,129.76979 100.897961,93.7544287 95.4578868,63.8192451 C99.8318815,60.648163 109.277844,52.7998917 109.94052,48.4404397 C108.1231,41.859763 98.2195251,19.1855822 93.8001474,14.2044891 Z" id="Fill-3" fill="#009192"></path>
                                </g>
                                <g id="neck" transform="translate(36.154688, 7.677351)" fill-rule="nonzero">
                                    <path d="M7.60362175,0.891143399 C7.60362175,0.891143399 7.03297281,15.3272174 1.05376536,17.388316 C-0.572878253,25.5019269 10.450143,31.0422037 18.8291856,30.649853 C35.0498186,29.8903023 30.0018026,16.6648146 28.8861377,16.6287653 C28.9184941,14.970916 29.8143877,2.57078997 29.8143877,2.57078997 L7.60362175,0.891143399 Z" id="SKIN" fill="#FFFFFF"></path>
                                    <path d="M1.85174941,18.0266823 C1.56138239,20.1485617 2.22069622,22.159359 3.81624409,24.0104494 C6.91237175,27.6032248 13.207159,30.0248165 18.7875845,29.7594768 C24.3625473,29.4983289 27.946542,27.6472385 29.151292,24.4065727 C30.2833452,21.3629206 29.0365739,18.0623124 28.533159,17.4482165 C28.2091749,17.3090494 27.9852015,16.9846056 27.9923452,16.6115371 C28.0204994,15.1922001 28.6524994,6.28089325 28.8596643,3.3923371 L8.44152601,1.84850422 C8.20410579,5.07617544 7.03759516,15.6176659 1.85174941,18.0266823 M17.9765739,31.5611042 C12.1234303,31.5611042 5.71980792,28.9538165 2.46105792,25.1728302 C0.402015363,22.7843535 -0.387564425,20.0316111 0.177621746,17.213896 C0.239813235,16.903285 0.46210579,16.6492631 0.761717492,16.5461453 C5.18865899,15.0199179 6.55687175,4.70226859 6.71066962,0.855890522 C6.72033452,0.614024768 6.82790899,0.386411069 7.00902069,0.225446685 C7.1905526,0.0644823019 7.43133452,-0.0139039994 7.67127601,0.0020247677 L29.882042,1.68167134 C30.3728505,1.71897819 30.7413771,2.14486312 30.7060792,2.6348823 C30.6976749,2.75057545 29.9211218,13.5058467 29.7958983,16.2095453 C30.7686909,17.2553946 31.3859835,19.8186686 31.3993103,21.6341289 C31.4179196,24.1777015 30.5434569,26.3972494 28.8697494,28.0525837 C26.743893,30.1560193 23.3796696,31.3292987 18.8712069,31.5405645 C18.5749569,31.5539782 18.2761856,31.5611042 17.9765739,31.5611042" id="Fill-27" fill="#009192"></path>
                                </g>
                                <g id="Hand-1" transform="translate(0.208228, 63.412963)" fill-rule="nonzero">
                                    <path d="M38.7662539,0.771115091 C38.3065411,4.33538633 37.8951528,7.91432879 37.5266262,11.4907562 C37.1639826,15.0684411 36.8442007,18.6511562 36.6496422,22.2271644 L36.6496422,22.2300987 C36.6244294,22.6928713 36.2281688,23.0474959 35.7646741,23.0219261 C35.3011794,22.9967754 34.9460996,22.6019096 34.9708922,22.1395562 C34.9713124,22.1370411 34.9717326,22.1299151 34.9717326,22.1269808 C35.2221794,18.5082165 35.596589,14.9137644 36.0130198,11.3260192 C36.4361741,7.738274 36.9005092,4.1618466 37.4152698,0.583742489 C37.4690571,0.211931531 37.814472,-0.0462821681 38.1872007,0.00695344854 C38.5565677,0.0601890648 38.8141581,0.398884955 38.7666741,0.766504132 L38.7662539,0.771115091 Z" id="Fill-29" fill="#009192"></path>
                                    <path d="M131.291012,62.1319955 C130.762804,59.7992695 125.219778,58.0906996 120.857549,56.4588394 C120.822671,56.3548832 120.793257,56.248412 120.756698,56.144875 C117.669815,47.4511215 43.3976289,45.80459 39.1425544,42.7919572 C35.7497565,40.3900669 35.8703576,25.9552504 35.8106874,22.1771984 C29.2734374,22.6252998 1.31332039,24.9856915 1.31332039,24.9856915 C2.50882571,64.8897681 15.0782299,69.5765983 23.9804374,72.4454531 C39.1971821,77.3494174 86.0769587,70.5830448 96.4461289,73.2884202 C105.310517,75.6010257 109.889155,67.1378202 115.742299,73.2247051 C117.684102,75.2438859 120.288161,73.0524229 121.073959,70.5847215 C121.547118,69.0999928 121.942538,66.6264229 121.946741,63.85859 C127.725927,64.9409078 131.876368,64.7174859 131.291012,62.1319955" id="SKIN" fill="#FFFFFF"></path>
                                    <path d="M105.480955,68.3234654 C106.331046,69.068764 107.162647,70.6415202 107.163067,73.3108462 C107.163908,75.7274078 107.775317,76.6349284 109.038057,76.7736763 C110.747482,76.9610489 111.511009,75.4603914 111.912732,72.7558544 C112.075354,71.6597037 112.081658,69.654775 111.765658,68.3251421" id="Fill-33" fill="#FFFFFF"></path>
                                    <path d="M116.585204,62.7742602 C117.315534,67.7834383 116.733959,73.2612574 115.236321,74.8168273 C113.617241,76.4994081 111.511135,75.8760903 111.809066,73.4444383 C112.104895,71.0329068 111.83764,67.5105533 111.10689,65.3245396" id="Fill-35" fill="#FFFFFF"></path>
                                    <path d="M130.3041,62.9719865 C129.677983,63.5965618 127.392026,63.89837 122.836919,63.1103152 C122.7991,61.4210276 122.605802,59.6395207 122.193994,57.9041235 C125.436355,59.1901618 131.178563,60.8643591 130.3041,62.9719865 M120.223196,70.3159865 C119.650446,71.882455 118.469648,73.3986221 117.029579,73.0532194 C117.854036,69.6503317 117.664941,66.1019892 117.058994,62.7032933 C116.964026,62.1483015 116.093345,62.2312988 116.105111,62.7959317 C116.385393,65.835392 116.338749,68.9427591 115.634473,71.8962878 C115.355451,72.8671043 115.088196,73.8978632 114.243568,74.495192 C113.743095,74.8313728 113.134627,75.0724002 112.819047,74.5287262 C112.543387,73.181907 112.9241,70.69157 112.512292,68.4045344 C112.358074,67.5494111 112.125276,64.6600166 110.983137,64.7866084 C110.667558,64.8624796 110.47426,65.1768632 110.549898,65.487055 C111.20627,68.1723098 111.12685,71.0508057 110.873462,73.7993563 C110.490228,74.8355646 109.878818,76.3999372 108.604313,75.660507 C107.515962,74.1942221 108.265621,71.8686221 107.469318,70.1776577 C107.139871,69.3870878 106.173802,66.9805865 104.977877,67.8470276 C104.713143,68.1278769 104.725749,68.5680139 105.00309,68.8316769 C105.631308,69.4072084 106.022946,70.3801207 106.18809,71.2717125 C103.338627,72.3095974 100.477398,73.4183235 96.6702704,72.4244522 C82.2212544,69.832255 36.9004672,76.3609536 24.2550044,71.5978331 C16.0104299,68.9410824 3.58053635,64.9337399 2.23165337,25.8034661 C6.7363342,25.422014 27.8982491,23.6446989 34.9284087,23.1333017 C35.012031,31.9393948 35.5242704,41.3314989 38.626281,43.5179317 C40.2735151,44.6874385 48.5306959,45.4419591 64.2046321,46.7875207 C79.9911853,48.2965618 102.628467,49.6287098 115.920217,53.9173207 C118.811281,54.9573015 119.702132,55.8459591 119.912238,56.441192 C121.403574,60.5151837 121.35777,66.5454796 120.223196,70.3159865 M132.161441,61.9366166 C131.717276,59.263518 125.970446,57.3755399 121.762015,55.8413481 C121.697302,55.8178741 121.736382,55.8367372 121.567877,55.770507 C121.287175,54.6001618 120.207648,53.4105344 117.303978,52.4040878 C102.437691,47.249455 53.2593502,44.907507 39.659164,42.0646413 C37.8194725,40.7639318 36.8319725,34.4050003 36.7143129,23.1626441 C36.730281,22.3272222 36.8155842,21.2725702 35.7474034,21.2887304 C29.2807491,21.7332469 1.51729167,24.0722606 1.23995124,24.0974113 C0.765110816,24.1389099 0.407929965,24.5375482 0.420212766,25.0108003 C1.64125443,60.2205015 9.6164725,76.5399426 42.9292597,75.1734221 C57.0538714,75.5460714 85.9182863,72.1871974 96.2206427,74.1510468 C100.34293,75.2287536 103.536547,74.1426632 106.34777,73.1077125 C106.34651,74.4725563 106.279696,75.9392604 107.381494,77.0396029 C108.774499,78.2900111 111.061717,77.8062796 111.886175,76.2054385 C113.472478,77.3762029 115.599595,76.197055 116.390855,74.7131646 C121.497281,75.7577563 122.667153,69.4671509 122.824313,64.9207454 C126.152398,65.3709426 132.740914,66.4792495 132.161441,61.9366166" id="Fill-37" fill="#009192"></path>
                                </g>
                            </g>
                        </g>
                        <g id="Head" transform="translate(41.000000, 0.500000)" fill-rule="nonzero">
                            <g id="Head/Plain-Hair">
                                <path d="M57.5076427,39.2895594 C57.3382996,36.4246223 55.8226792,35.1406566 54.2579492,35.0755823 C54.120358,34.1883194 53.9709127,33.3006394 53.8015697,32.4121251 C49.5976281,10.4324509 35.6911755,7.47532514 24.0623871,10.3210737 C16.3623579,12.2048909 5.96427035,17.5380623 8.11450393,37.4537137 C3.47619736,36.315748 1.30394918,38.821108 1.46397838,42.3242737 C1.60791999,45.4695309 4.01343824,47.7633994 8.74446013,48.013268 C10.122066,58.6787766 20.255555,75.2526966 39.8515113,71.4587823 C51.2880952,69.244588 55.5618908,57.1290909 55.0428543,43.1176794 C57.1558324,42.768948 57.6143288,41.0857766 57.5076427,39.2895594" id="SKIN" fill="#FFFFFF"></path>
                                <path d="M20.2540657,0.330460571 C48.111,-2.75639657 55.3339051,16.5072606 55.0290876,27.870232 C54.9693942,30.0101749 54.3093796,33.7853177 54.3982847,34.3484606 C57.454927,34.4652606 57.675073,38.0234891 57.7423869,39.2081749 C57.8355255,40.7516034 57.6915839,42.9165749 55.384708,43.9218891 C55.355073,43.9344034 55.320781,43.9427463 55.2869124,43.950672 C55.570562,57.2120606 51.6248686,69.8765177 39.4071898,72.2417177 C37.4169854,72.6292434 35.4868978,72.8215463 33.6156569,72.8215463 C28.3660219,72.8215463 23.5863139,71.3073177 19.3565474,68.2997177 C14.8439781,65.0906377 11.7407664,60.7148091 9.78781752,56.451192 C8.98851825,56.3585863 7.19263504,55.2227063 4.58348175,48.2701863 C4.56612409,48.2243006 4.55130657,48.1763291 4.53394891,48.1304434 C1.77238686,47.1251291 0.135686131,45.0932263 0.00910218978,42.3284034 C-0.0878467153,40.2260034 0.581058394,38.4865177 1.8930438,37.4269749 C1.92225547,37.4036149 1.95570073,37.380672 1.98575912,37.3577291 C1.0590292,30.6630034 0.085729927,22.4548834 2.17838686,16.362512 C5.08516058,7.89993486 11.8381387,1.26068914 20.2540657,0.330460571 Z M45.9561095,20.6949577 C42.3956715,19.373032 42.5315693,22.9729749 35.9225328,24.4913749 C29.614927,25.9388606 27.7098175,21.7132034 21.2955255,21.971832 C12.5701241,22.3264034 13.8190292,32.6214891 10.6057445,36.4133177 C9.70018248,37.477032 8.89156934,37.9000149 8.09269343,38.1882606 C7.86958394,38.2687691 7.53259124,38.2862891 7.29974453,38.2278891 C6.61390511,38.061032 5.97886861,37.9776034 5.39886861,37.9776034 C4.4039781,37.9776034 3.57843066,38.2237177 2.96837226,38.7159463 C2.07974453,39.433432 1.63056204,40.689032 1.69829927,42.2533177 C1.83419708,45.1524606 4.19653285,46.9336606 8.18032847,47.1464034 C8.58675182,47.1672606 8.92120438,47.4717749 8.97624088,47.872232 C9.69594891,53.4536034 13.1082117,61.7964606 20.3472044,66.9481749 C25.6899781,70.7441749 31.9941971,71.9789177 39.0765474,70.6065177 C48.2257299,68.8336606 57.1920219,57.800232 52.3572774,32.5338891 C51.8323139,29.7849177 51.1422409,27.2820606 50.2917153,25.0294891 C49.0555109,22.4473749 47.6495401,21.3252606 45.9561095,20.6949577 Z M5.78649489,39.9921114 C6.32119562,39.9921114 6.75386715,40.7417171 6.75386715,41.6661057 C6.75386715,42.5904943 6.32119562,43.3401 5.78649489,43.3401 C5.25221752,43.3401 4.81954599,42.5904943 4.81954599,41.6661057 C4.81954599,40.7417171 5.25221752,39.9921114 5.78649489,39.9921114 Z M54.6518759,36.0378891 C54.9232482,38.031832 55.1175693,40.0591463 55.2234088,42.0822891 C55.8842701,41.5608606 56.1378613,40.7098891 56.0536131,39.3041177 C55.8969708,36.688632 55.2111314,36.1505177 54.6518759,36.0378891 Z" id="Combined-Shape" fill="#009192"></path>
                            </g>
                        </g>
                        <g id="Face" transform="translate(62.000000, 34.500000)" fill="#009192" fill-rule="nonzero">
                            <g id="Face/Normal-Face-2">
                                <path d="M10.0440257,23.8363176 C10.4690829,23.4546118 11.1253114,23.4875529 11.5093543,23.9100235 C11.53214,23.9347294 11.5540971,23.9619059 11.5739829,23.9886706 C11.5917971,24.0121412 11.6700971,24.1031412 11.7334829,24.1644941 C11.7985257,24.2336706 11.8739257,24.3003765 11.9460114,24.3687294 C12.0963971,24.5025529 12.2558971,24.6318471 12.4228543,24.7537294 C12.75594,24.9987294 13.1200971,25.2116118 13.5016543,25.3911412 C14.2618686,25.7609059 15.1012114,25.9828471 15.9654114,26.0808471 C17.7141114,26.3044353 19.5721829,26.1269647 21.1680114,25.3396706 L21.1680114,25.3396706 L21.17464,25.3363765 C21.4493114,25.2004941 21.7828114,25.3120824 21.9195257,25.5854941 C22.0462971,25.8399647 21.9555686,26.1467294 21.71984,26.2970235 C20.8519114,26.8463176 19.8857971,27.2346118 18.8881971,27.4742588 C17.8864543,27.7064941 16.8668971,27.8254941 15.8303543,27.7740235 C14.78884,27.7225529 13.7353114,27.5170824 12.7451686,27.1127294 C12.2488543,26.9159059 11.76704,26.6746118 11.3100829,26.3826706 C11.0813971,26.2373176 10.8589257,26.0796118 10.6410114,25.9095529 C10.5332971,25.8210235 10.4251686,25.7353765 10.3191114,25.6377882 C10.2072543,25.5377294 10.11984,25.4570235 9.97939714,25.3022 L9.97939714,25.3022 L9.97028286,25.2923176 C9.58624,24.8698471 9.61896857,24.2180235 10.0440257,23.8363176 Z M16.7987471,7.23363529 C17.1040757,7.24063529 17.3497471,7.47904706 17.3688043,7.77675294 L17.3688043,7.77675294 L17.3692186,7.78457647 C17.4508329,9.11869412 17.5448757,10.4631059 17.6704043,11.7844588 C17.7383471,12.4404 17.81499,13.1082824 17.9413471,13.7061647 C17.9645471,13.8128118 17.9910614,13.9124588 18.01799,13.9997529 C18.3345043,14.1286353 18.6514329,14.2776941 18.9658757,14.4634 C19.3014471,14.6688706 19.6432329,14.9146941 19.93779,15.2560471 C20.2373186,15.5883412 20.47139,16.0342824 20.5741329,16.4909294 C20.6756329,16.9545765 20.67729,17.3655176 20.6056186,17.8147529 C20.5335329,18.2586353 20.3392329,18.7255765 20.0272757,19.0949294 C19.7186329,19.4671647 19.3217471,19.7306941 18.9261043,19.8991059 C18.5267329,20.0675176 18.1269471,20.1506941 17.73669,20.1968118 C17.3464329,20.2400471 16.9636329,20.2429294 16.5891186,20.2153412 C16.4147043,20.2038118 16.18519,20.1819882 16.0182329,20.1420471 C15.8318043,20.1000471 15.6934329,20.0613412 15.4552186,19.9600471 C15.1610757,19.8352824 15.0243614,19.4972235 15.1503043,19.2048706 C15.2240471,19.0327529 15.3727757,18.9149882 15.5422186,18.8725765 L15.5422186,18.8725765 L15.7671757,18.8178118 C15.8587329,18.7955765 16.05759,18.8025765 16.2067329,18.8104 C16.3753471,18.8215176 16.48389,18.8297529 16.6487757,18.8301647 C16.9520329,18.8330471 17.2503186,18.8104 17.5324471,18.7614 C18.0975329,18.6625765 18.5826614,18.4307529 18.8109329,18.1223412 C18.92859,17.9679294 18.9998471,17.7879882 19.0280186,17.5656353 C19.0582614,17.3494588 19.04169,17.0719294 18.9845186,16.8804588 C18.8813614,16.4966941 18.5673329,16.1742824 18.0859329,15.8543412 C17.8506186,15.6974588 17.5863043,15.5516941 17.3033471,15.4228118 L17.3033471,15.4228118 L17.1985329,15.3729882 L17.13349,15.3425176 C17.0692757,15.3116353 16.9876614,15.2585176 16.95079,15.2264 C16.9110186,15.1926353 16.8708329,15.1547529 16.8368614,15.1172824 L16.8368614,15.1172824 L16.7685043,15.0308118 C16.6214329,14.8134 16.6003043,14.7051059 16.55639,14.5840471 C16.4880329,14.3592235 16.4540614,14.1722824 16.4234043,13.9865765 C16.3107186,13.2552824 16.2742614,12.5766941 16.2390471,11.8882235 C16.1719329,10.5174588 16.1698614,9.16481176 16.2013471,7.80104706 C16.2088043,7.48028235 16.4760186,7.22622353 16.7987471,7.23363529 Z M2.79676,9.38111176 C2.96578857,8.21911176 3.95966,7.40011176 5.01650286,7.55205294 C6.07334571,7.70399412 6.79296,8.76922941 6.62393143,9.93122941 C6.45490286,11.0936412 5.46103143,11.9122294 4.40377429,11.7607 C3.34734571,11.6087588 2.62773143,10.5431118 2.79676,9.38111176 Z M24.8413171,6.84114118 C25.89816,6.6892 26.8916171,7.5082 27.0606457,8.6702 C27.2300886,9.83261176 26.5104743,10.8978471 25.4540457,11.0497882 C24.3967886,11.2017294 23.4029171,10.3827294 23.2338886,9.22072941 C23.06486,8.05872941 23.78406,6.99308235 24.8413171,6.84114118 Z M8.38945143,1.05572353 C9.07343714,0.993958824 9.67870857,1.49507647 9.74085143,2.17531176 C9.80299429,2.85513529 9.29880857,3.45672353 8.61440857,3.51807647 C8.58623714,3.52095882 8.55765143,3.52260588 8.52948,3.52301765 L8.52948,3.52301765 L8.51000857,3.52342941 C7.04799429,3.55184118 5.68168,3.36448824 4.45249429,3.36819412 C3.83728,3.36901765 3.25313714,3.42748824 2.69219429,3.57778235 C2.13166571,3.73013529 1.59226571,3.95454706 1.00812286,4.20160588 L1.00812286,4.20160588 L0.978294286,4.21395882 C0.62118,4.36548824 0.208137143,4.19995882 0.0560942857,3.84501765 C-0.0553485714,3.58478235 0.00513714286,3.29448824 0.185765714,3.09848824 C0.695337143,2.54795882 1.35902286,2.11642941 2.08153714,1.82819412 C2.80280857,1.53295882 3.56882286,1.36331176 4.30625143,1.27107647 C5.04492286,1.17884118 5.75666571,1.1669 6.43526571,1.14260588 C7.11428,1.12078235 7.76305143,1.11254706 8.38945143,1.05572353 Z M22.0714029,0.0549294118 C22.8080029,-0.0158941176 23.5715314,-0.0237176471 24.3508029,0.0635764706 C25.1263457,0.153341176 25.9296457,0.344811765 26.6447029,0.719517647 C27.3630743,1.0864 27.9758029,1.60481176 28.4480886,2.18745882 C28.7215171,2.52469412 28.66766,3.01881176 28.32836,3.29057647 C28.03836,3.52281176 27.6340171,3.51787059 27.3518886,3.30210588 L27.3518886,3.30210588 L27.3407029,3.29345882 C26.3613314,2.54404706 25.3687029,2.09892941 24.20456,2.07710588 C23.6262171,2.0664 23.02426,2.16563529 22.4177457,2.30110588 C21.8108171,2.4374 21.1980886,2.62681176 20.5899171,2.84998824 C19.9167029,3.09663529 19.1697457,2.75445882 18.9211743,2.08534118 C18.6730171,1.41622353 19.0172886,0.6734 19.6905029,0.426752941 C19.7621743,0.400811765 19.8417171,0.379811765 19.9138029,0.366635294 C20.6197457,0.242282353 21.3348029,0.126576471 22.0714029,0.0549294118 Z" id="Normal-face-2"></path>
                            </g>
                        </g>
                        <g id="Facial-Hair" transform="translate(51.000000, 48.500000)" fill="#009192" fill-rule="nonzero">
                            <g id="Facial-Hair/Beard-Moustache">
                                <path d="M29.6552947,16.0820417 C28.4012681,16.3562083 27.6746398,17.874125 24.1654451,18.0999583 C20.341392,18.3457917 18.3570354,17.2279167 18.300885,15.8333333 C18.1752743,12.675 24.0004044,10.529625 29.5309735,10.4166667 C36.6233982,10.6820833 37.631569,11.057875 38.1423301,12.9120417 C38.7940912,15.2787083 37.8075071,16.5570417 36.3047549,16.9282917 C32.2402947,17.9324583 31.5307195,15.671625 29.6552947,16.0820417 Z M41.0937637,10.3462083 C40.4811,9.17454167 38.3698434,6.525375 33.9102504,5.82745833 C31.063215,5.38204167 29.3811973,6.91954167 28.4703124,6.93579167 C27.6517637,6.950375 24.3123097,4.94083333 18.7168142,7.91666667 C16.1551062,9.27875 15.3893805,11.6666667 14.5575221,14.1666667 C13.9207345,13.875 13.4465752,14.7204167 9.56637168,12.9166667 C5.68616814,11.1129167 1.69279027,4.22495833 0.560630973,3.26495833 C-0.302422124,2.53370833 -0.492834513,9.768375 2.49557522,17.9166667 C4.76998123,24.1181334 9.34630354,29.6220417 14.4730469,32.041625 C24.5951,36.819125 39.4845336,34.6720417 43.7519673,27.9324583 C48.999746,19.6437083 46.4941469,2.91658333 45.0833566,0.416625 C43.6725664,-2.08333333 44.6017106,9.78829167 41.0937637,10.3462083 Z" id="Beard-Moustache"></path>
                            </g>
                        </g>
                    </g>
                </g>
            </g>
        </g>
    </g>
</svg>