<?xml version="1.0" encoding="UTF-8"?>
<svg width="80px" height="66px" viewBox="0 0 80 66" version="1.1" xmlns="http://www.w3.org/2000/svg" xmlns:xlink="http://www.w3.org/1999/xlink">
    <!-- Generator: Sketch 53.2 (72643) - https://sketchapp.com -->
    <title>Check-orange</title>
    <desc>Created with Sketch.</desc>
    <g id="Check-orange" stroke="none" stroke-width="1" fill="none" fill-rule="evenodd">
        <path d="M32.578195,0.121 C42.496195,0.121 51.351195,4.6093 57.254195,11.574 L52.297195,15.824 C47.574495,10.2732 40.492195,6.7342 32.582195,6.7342 C18.180195,6.7342 6.609195,18.3042 6.609195,32.7072 C6.609195,47.1102 18.179195,58.6802 32.582195,58.6802 C48.875195,58.6802 61.035195,43.9222 58.203195,28.1022 L63.753995,23.2624 C70.011795,43.9224 54.546995,65.1764 32.585995,65.1764 C14.640995,65.1764 -2.55795385e-13,50.5354 -2.55795385e-13,32.5904 C-2.55795385e-13,14.6454 14.640995,0.0044 32.585995,0.0044 L32.578195,0.121 Z M26.675895,22.316 L35.531395,33.531 L74.609395,-8.52651283e-14 L79.921895,6.2578 L34.347895,45.3358 L20.179895,27.5078 L26.554895,22.4297 L26.675895,22.316 Z" id="Fill-1" fill="#FF4E00"></path>
    </g>
</svg>