<?xml version="1.0" encoding="UTF-8"?>
<svg width="120px" height="120px" viewBox="0 0 120 120" version="1.1" xmlns="http://www.w3.org/2000/svg" xmlns:xlink="http://www.w3.org/1999/xlink">
    <!-- Generator: Sketch 53.2 (72643) - https://sketchapp.com -->
    <title>close copy</title>
    <desc>Created with Sketch.</desc>
    <g id="close-copy" stroke="none" stroke-width="1" fill="none" fill-rule="evenodd">
        <path d="M91,40.2510731 L79.7450849,29 L60,48.7417654 L40.2549151,29 L29,40.2510731 L48.7450849,59.9976529 L29,79.7394183 L40.2549151,90.9951855 L60,71.2534201 L79.7450849,91 L91,79.7442328 L71.2549151,59.9928385 L91,40.2510731 Z M60.0023978,120 C26.8654711,120 0,93.1356 0,59.9952 C0,26.8644 26.8654711,0 60.0023978,0 C93.1393245,0 120,26.8644 120,59.9952 C120.004692,93.1356 93.1441247,120 60.0023978,120 Z" id="Fill-1" fill="#333333"></path>
        <polygon id="Path" fill="#FFFFFF" points="91 40.2510731 79.7450849 29 60 48.7417654 40.2549151 29 29 40.2510731 48.7450849 59.9976529 29 79.7394183 40.2549151 90.9951855 60 71.2534201 79.7450849 91 91 79.7442328 71.2549151 59.9928385"></polygon>
    </g>
</svg>