<?xml version="1.0" encoding="UTF-8"?>
<svg width="432px" height="142px" viewBox="0 0 432 142" version="1.1" xmlns="http://www.w3.org/2000/svg" xmlns:xlink="http://www.w3.org/1999/xlink">
    <!-- Generator: Sketch 53.2 (72643) - https://sketchapp.com -->
    <title>cocompany</title>
    <desc>Created with Sketch.</desc>
    <g id="cocompany" stroke="none" stroke-width="1" fill="none" fill-rule="evenodd">
        <g id="Group-8" transform="translate(-2.000000, 8.000000)">
            <path d="M140.72,83.888 C129.324,83.888 122.886,76.044 122.886,63.612 C122.886,51.254 129.324,43.484 140.72,43.484 C148.49,43.484 153.596,47.184 155.89,53.252 L148.12,56.73 C147.232,53.474 144.79,51.106 140.72,51.106 C135.466,51.106 132.802,54.806 132.802,60.208 L132.802,67.238 C132.802,72.64 135.466,76.266 140.72,76.266 C145.234,76.266 147.454,73.676 148.86,70.198 L156.112,73.676 C153.596,80.484 148.194,83.888 140.72,83.888 Z M178.756,83.888 C167.73,83.888 160.848,76.044 160.848,63.612 C160.848,51.254 167.73,43.484 178.756,43.484 C189.856,43.484 196.738,51.254 196.738,63.612 C196.738,76.044 189.856,83.888 178.756,83.888 Z M178.756,76.266 C183.714,76.266 186.822,73.084 186.822,67.238 L186.822,60.06 C186.822,54.288 183.714,51.106 178.756,51.106 C173.872,51.106 170.764,54.288 170.764,60.06 L170.764,67.238 C170.764,73.084 173.872,76.266 178.756,76.266 Z M214.572,83 L205.1,83 L205.1,44.372 L214.572,44.372 L214.572,50.81 L214.942,50.81 C216.422,46.74 219.53,43.484 225.302,43.484 C230.556,43.484 234.626,46.074 236.476,51.254 L236.624,51.254 C238.03,46.962 242.322,43.484 248.464,43.484 C256.012,43.484 260.304,48.96 260.304,58.58 L260.304,83 L250.832,83 L250.832,59.542 C250.832,53.992 248.834,51.254 244.616,51.254 C240.916,51.254 237.438,53.326 237.438,57.47 L237.438,83 L227.966,83 L227.966,59.542 C227.966,53.992 225.968,51.254 221.75,51.254 C218.124,51.254 214.572,53.326 214.572,57.47 L214.572,83 Z M270.812,97.8 L270.812,44.372 L280.284,44.372 L280.284,50.736 L280.58,50.736 C281.986,46.296 286.13,43.484 291.236,43.484 C301.004,43.484 306.406,50.736 306.406,63.612 C306.406,76.562 301.004,83.888 291.236,83.888 C286.13,83.888 282.06,80.928 280.58,76.562 L280.284,76.562 L280.284,97.8 L270.812,97.8 Z M288.202,76.044 C293.086,76.044 296.49,72.492 296.49,67.016 L296.49,60.356 C296.49,54.88 293.086,51.254 288.202,51.254 C283.688,51.254 280.284,53.696 280.284,57.47 L280.284,69.754 C280.284,73.75 283.688,76.044 288.202,76.044 Z M324.758,83.888 C316.914,83.888 312.474,79.374 312.474,72.492 C312.474,64.574 318.468,60.652 328.976,60.652 L335.562,60.652 L335.562,57.84 C335.562,53.548 333.416,51.032 328.384,51.032 C323.944,51.032 321.428,53.252 319.578,55.916 L313.954,50.884 C316.766,46.444 321.28,43.484 329.05,43.484 C339.484,43.484 345.034,48.442 345.034,57.248 L345.034,75.452 L348.882,75.452 L348.882,83 L343.628,83 C339.558,83 337.042,80.336 336.45,76.34 L336.006,76.34 C334.748,81.298 330.53,83.888 324.758,83.888 Z M327.94,77.006 C332.158,77.006 335.562,75.082 335.562,71.456 L335.562,66.35 L329.494,66.35 C324.536,66.35 322.094,68.052 322.094,71.086 L322.094,72.344 C322.094,75.452 324.24,77.006 327.94,77.006 Z M366.05,83 L356.578,83 L356.578,44.372 L366.05,44.372 L366.05,50.81 L366.42,50.81 C367.974,46.666 371.23,43.484 377.224,43.484 C385.142,43.484 389.582,48.96 389.582,58.58 L389.582,83 L380.11,83 L380.11,59.542 C380.11,54.066 378.26,51.254 373.746,51.254 C369.824,51.254 366.05,53.326 366.05,57.47 L366.05,83 Z M417.036,64.796 L423.77,44.372 L432.65,44.372 L417.11,89.882 C415.186,95.432 412.448,97.8 406.084,97.8 L400.386,97.8 L400.386,90.252 L407.342,90.252 L409.118,84.85 L395.28,44.372 L404.678,44.372 L411.412,64.796 L413.928,74.564 L414.372,74.564 L417.036,64.796 Z" id="company" fill="#000000" fill-rule="nonzero"></path>
            <path d="M20.72,83.888 C9.324,83.888 2.886,76.044 2.886,63.612 C2.886,51.254 9.324,43.484 20.72,43.484 C28.49,43.484 33.596,47.184 35.89,53.252 L28.12,56.73 C27.232,53.474 24.79,51.106 20.72,51.106 C15.466,51.106 12.802,54.806 12.802,60.208 L12.802,67.238 C12.802,72.64 15.466,76.266 20.72,76.266 C25.234,76.266 27.454,73.676 28.86,70.198 L36.112,73.676 C33.596,80.484 28.194,83.888 20.72,83.888 Z M58.756,83.888 C47.73,83.888 40.848,76.044 40.848,63.612 C40.848,51.254 47.73,43.484 58.756,43.484 C69.856,43.484 76.738,51.254 76.738,63.612 C76.738,76.044 69.856,83.888 58.756,83.888 Z M58.756,76.266 C63.714,76.266 66.822,73.084 66.822,67.238 L66.822,60.06 C66.822,54.288 63.714,51.106 58.756,51.106 C53.872,51.106 50.764,54.288 50.764,60.06 L50.764,67.238 C50.764,73.084 53.872,76.266 58.756,76.266 Z" id="co" fill="#FF4E00" fill-rule="nonzero"></path>
            <path d="M79,124 L121,1" id="Line-Copy-10" stroke="#C3C3C3" stroke-width="8" stroke-linecap="square"></path>
        </g>
    </g>
</svg>