<?xml version="1.0" encoding="UTF-8"?>
<svg width="20px" height="20px" viewBox="0 0 20 20" version="1.1" xmlns="http://www.w3.org/2000/svg" xmlns:xlink="http://www.w3.org/1999/xlink">
    <!-- Generator: Sketch 53.2 (72643) - https://sketchapp.com -->
    <title>non copy 3</title>
    <desc>Created with Sketch.</desc>
    <g id="Page-1" stroke="none" stroke-width="1" fill="none" fill-rule="evenodd" fill-opacity="0.5">
        <g id="Desktop-HD-Copy-10" transform="translate(-200.000000, -1408.000000)" fill="#333333">
            <g id="non" transform="translate(200.000000, 1408.000000)">
                <path d="M13.94864,7.14856 L11.10956,9.9892 L13.9502,12.82984 L12.82988,13.9486 L9.98924,11.10952 L7.1486,13.9486 L6.02984,12.82984 L8.87048,9.9892 L6.02984,7.14856 L7.15016,6.02824 L9.9908,8.86888 L12.83144,6.02824 L13.94864,7.14856 Z M17.06896,17.06896 C13.18928,20.94864 6.81896,20.97832 2.90976,17.06896 C-0.96992,13.18928 -0.96992,6.82816 2.90976,2.90976 C6.78944,-0.96992 13.15056,-0.96992 17.06896,2.90976 C20.94864,6.83008 20.94864,13.14896 17.06896,17.06896 Z M15.9096,4.06896 C12.6424,0.72052 7.2016,0.8174 4.0688,4.028336 C0.78912,7.308016 0.78912,12.628336 4.0688,15.907936 C7.34848,19.187536 12.6688,19.187616 15.9484,15.907936 C19.18904,12.668856 19.18904,7.309536 15.909336,4.068736 L15.9096,4.06896 Z" id="Fill-1"></path>
            </g>
        </g>
    </g>
</svg>