<?xml version="1.0" encoding="UTF-8"?>
<svg width="379px" height="240px" viewBox="0 0 379 240" version="1.1" xmlns="http://www.w3.org/2000/svg" xmlns:xlink="http://www.w3.org/1999/xlink">
    <!-- Generator: Sketch 53.2 (72643) - https://sketchapp.com -->
    <title>country-thailand</title>
    <desc>Created with Sketch.</desc>
    <g id="country-thailand" stroke="none" stroke-width="1" fill="none" fill-rule="evenodd">
        <g id="Group-16" transform="translate(127.000000, 14.000000)" fill="#E6F4F4">
            <path d="M43.9035983,187.834933 C43.6473762,187.083636 43.6473762,186.332338 43.4009932,185.590783 C43.1447711,184.595547 42.642166,183.346632 41.6369557,182.839173 C41.8931779,183.336791 41.8931779,183.834409 42.1395608,184.341768 C41.6369557,184.088088 41.1343506,184.088088 40.8781285,183.84415 C40.6219063,183.590471 40.1193012,183.092853 40.1193012,182.595235 L40.1193012,182.097618 L39.8630791,182.097618 C39.6068569,182.097618 39.360474,181.6 39.1042518,181.34632 C39.1042518,181.092641 38.8480297,180.595023 38.8480297,180.351085 C38.8480297,179.10217 38.8480297,177.355687 38.3454246,176.350561 C37.8428195,175.599263 38.6016467,174.847966 38.3454246,174.10641 L38.0892024,173.852731 C38.0892024,173.599051 38.0892024,173.355113 37.8329803,173.101434 C37.8329803,172.603816 37.5767582,172.106198 37.3303752,171.598839 C37.3303752,171.345159 37.074153,171.345159 37.074153,171.101221 C36.8179309,170.847542 36.3153258,170.847542 36.0689428,170.847542 C35.3101156,170.847542 34.8075105,171.101221 34.0486832,171.345159 C33.7924611,171.345159 33.7924611,171.598839 33.5460781,171.598839 L32.2846457,171.598839 L32.0284236,171.852519 C31.5258185,172.350136 31.0232134,172.106198 30.5107691,172.106198 L28.4905095,172.106198 L28.2342873,172.106198 L27.9780652,171.852519 C27.9780652,171.598839 27.7218431,171.354901 27.7218431,171.101221 C27.7218431,170.847542 27.9780652,170.603604 28.2244482,170.349924 C28.4806703,170.096244 28.7270533,170.096244 28.9832754,169.852306 C28.9832754,169.354689 28.7270533,169.101009 28.4806703,168.603391 C28.2244482,168.349712 27.9780652,167.852094 27.9780652,167.608156 C27.9780652,167.354477 27.7218431,167.354477 27.7218431,167.110538 C27.7218431,167.110538 27.7218431,166.856859 27.4656209,166.856859 C27.4656209,166.603179 27.2093988,166.603179 27.2093988,166.359241 C26.9531766,165.861624 26.7067937,165.364006 26.7067937,164.856647 L26.7067937,163.354052 C26.7067937,162.602755 26.9630158,161.851458 26.7067937,161.109902 L26.7067937,160.856222 L26.9630158,160.856222 L26.9630158,160.602543 C26.9630158,160.602543 26.9630158,160.348863 26.7067937,160.348863 C26.4505715,159.851245 26.4505715,159.353628 26.7067937,158.846269 C26.9630158,158.592589 27.4656209,158.592589 27.4656209,158.348651 C27.7218431,158.094971 27.4656209,157.597354 26.9630158,157.353416 C26.7067937,157.099736 26.2041886,156.855798 26.2041886,156.602118 C25.9479664,156.104501 26.4604107,155.606883 26.9630158,155.606883 C27.219238,155.606883 27.7218431,155.860563 27.968226,155.860563 C28.2244482,155.860563 28.4708311,155.606883 28.4708311,155.109265 C28.4708311,154.611648 28.214609,154.611648 28.214609,154.357968 L27.9583869,154.104288 L27.9583869,153.606671 C28.214609,152.855373 28.460992,152.357756 28.460992,151.606459 C28.460992,151.352779 28.7172141,151.108841 29.2198192,151.108841 L29.4760414,151.108841 C29.7322635,150.855161 29.7322635,150.357544 29.9786465,150.113606 C29.9786465,149.859926 30.2348686,149.859926 30.2348686,149.615988 C30.4910908,149.11837 30.7374737,148.620753 30.7374737,148.113393 L31.7426839,148.113393 C31.9989061,147.859714 31.7426839,147.615776 31.7426839,147.362096 C31.7919555,147.118158 31.7919555,146.62054 31.7919555,146.366861 C31.7919555,146.113181 31.7919555,145.615563 32.2945606,145.371625 C32.5507827,145.117946 32.2945606,144.874008 32.0383385,144.620328 C31.7821163,143.869031 32.2945606,142.873795 33.2997708,142.620116 C33.0435487,141.624881 33.2997708,140.375966 33.8023759,139.127151 C34.304981,137.878336 34.304981,136.883 35.0638083,135.877973 C35.3200304,135.380356 35.8226355,135.380356 36.0690185,134.882738 C36.0690185,134.629059 36.0690185,134.629059 36.3252407,134.38512 C36.3252407,134.38512 36.5814628,134.131441 36.8278458,134.131441 C37.0840679,133.877761 37.0840679,133.633823 37.0840679,133.633823 C37.34029,133.380144 37.586673,132.882526 37.34029,132.638588 C37.34029,132.384908 37.0840679,132.384908 37.0840679,132.14097 L37.0840679,131.643353 C37.34029,131.145735 37.586673,130.892055 38.0892781,130.394438 C38.8481054,129.64314 39.3507105,128.891843 39.8533156,127.896608 C40.1095377,127.642928 40.1095377,127.14531 40.1095377,126.901372 L40.1095377,126.647693 L39.8533156,126.394013 C39.5970935,126.140334 39.3507105,125.642716 39.3507105,125.398778 L39.6069326,125.398778 L39.6069326,124.647481 C39.6069326,124.393801 39.6069326,124.393801 39.3507105,124.149863 C39.0944883,123.652245 39.3507105,122.900948 39.3507105,122.149651 L39.3507105,121.895971 L39.0944883,121.642292 C38.8382662,121.388612 39.0944883,121.144674 39.0944883,120.890994 L39.0944883,119.3884 C39.0944883,119.13472 39.3507105,118.890782 39.3507105,118.890782 C39.3507105,118.637102 39.6069326,118.139485 39.6069326,117.895547 C39.8631548,117.641867 39.8631548,117.641867 40.1095377,117.397929 L40.3657599,117.144249 L40.3657599,116.89057 C40.3657599,116.392952 40.621982,115.641655 40.868365,115.144037 C40.868365,115.144037 41.1245871,115.144037 41.1245871,114.890358 L41.1245871,114.636678 C41.1245871,114.13906 40.868365,113.885381 40.868365,113.387763 C40.868365,113.134084 40.6121429,112.890145 40.3657599,112.890145 C40.1095377,112.890145 40.1095377,112.890145 39.8631548,112.636466 L39.6069326,112.382786 C39.3507105,111.885169 39.1043275,111.387551 38.8481054,111.133871 L38.8481054,110.880192 C38.8481054,110.880192 39.1043275,110.880192 39.1043275,110.626512 C39.3605497,110.626512 39.6069326,110.372832 39.6069326,110.128894 L39.6069326,109.631277 C39.6069326,109.631277 39.6069326,109.377597 39.8631548,109.377597 C40.1193769,109.123918 40.3657599,108.879979 40.621982,108.6263 C40.621982,108.6263 40.8782042,108.37262 41.1245871,108.37262 C41.8834144,108.37262 42.3860195,107.875003 43.1448467,107.875003 L44.150057,107.875003 C44.9088842,107.875003 45.9140944,107.621323 46.6729217,107.621323 C47.1755268,107.621323 47.4317489,107.367643 47.9343541,107.367643 L48.9395643,107.367643 C49.9447745,107.621323 50.9598239,107.621323 51.718752,107.865261 C52.2213572,107.865261 52.9801844,108.118941 53.4827895,108.118941 L53.9853946,108.118941 L53.9853946,108.37262 L53.9853946,109.123918 C53.9853946,109.621535 53.7291725,109.875215 53.4827895,110.372832 C53.2265674,110.87045 53.4827895,111.368068 53.7390117,111.621747 C53.9952338,112.119365 53.9952338,112.616983 53.7390117,112.870662 C53.4827895,113.124342 52.9801844,113.124342 52.9801844,113.36828 C52.9801844,113.62196 52.9801844,113.865898 53.2364066,114.119577 C53.4926287,114.373257 53.7390117,114.870875 53.4926287,115.114813 L53.4926287,115.61243 C53.4926287,115.61243 53.2364066,115.86611 53.2364066,116.110048 C53.2364066,116.363728 53.2364066,116.363728 53.4926287,116.363728 C53.7488508,116.617407 53.7488508,117.115025 53.7488508,117.358963 C53.7488508,117.612643 53.7488508,118.11026 53.4926287,118.354198 L53.2364066,118.607878 C52.9801844,118.861557 52.7338014,119.359175 52.7338014,119.603113 C52.7338014,120.100731 53.2364066,120.35441 53.4926287,120.35441 C53.4926287,120.60809 53.7488508,120.852028 53.9952338,120.852028 C54.2514559,120.852028 54.7540611,120.598349 54.7540611,120.35441 C54.7540611,120.35441 54.7540611,120.100731 55.0102832,120.100731 L55.2665053,120.100731 C56.5279377,120.100731 57.7893701,120.35441 59.0508024,120.598349 L59.8096297,120.598349 C60.3122348,120.598349 60.8148399,121.095966 61.5736671,121.349646 C61.8298893,121.349646 61.8298893,120.852028 62.0762723,120.852028 L62.3324944,120.852028 L63.0913216,120.852028 L63.3475438,120.852028 L63.3475438,120.598349 C63.6037659,120.344669 63.8501489,120.344669 64.106371,120.344669 C64.3625932,120.344669 64.3625932,120.090989 64.6089762,120.090989 C64.8651983,119.83731 65.6141864,119.83731 65.8704085,119.83731 C66.3730136,119.83731 66.6292358,120.334927 67.1318409,120.588607 C67.388063,120.588607 67.634446,120.842287 67.8906681,121.086225 C68.1468903,121.339904 68.1468903,121.583842 68.3932732,121.837522 C68.6494954,122.091202 68.8958783,122.33514 69.1521005,122.33514 C69.4083226,122.33514 69.9109277,122.08146 70.4135328,122.08146 L70.669755,122.08146 L70.669755,122.33514 C70.9259771,122.588819 71.4285822,122.588819 71.4285822,123.086437 L71.4285822,123.340116 C71.4285822,123.340116 71.1723601,123.593796 71.4285822,123.593796 C71.6848044,124.091414 72.1874095,124.589031 72.6900146,124.842711 C72.9462367,124.842711 72.9462367,125.096391 73.1926197,125.096391 C73.1926197,125.35007 73.1926197,125.35007 73.4488419,125.594008 C73.705064,126.091626 74.2076691,126.345306 74.2076691,126.842923 L74.2076691,127.340541 C74.2076691,127.59422 74.4638912,127.838159 74.4638912,127.838159 L74.7201134,127.838159 L75.7253236,127.838159 C75.9815457,127.838159 75.9815457,128.091838 76.2279287,128.091838 C76.7305338,128.589456 77.2331389,128.843135 77.7455832,128.843135 C78.0018054,128.843135 78.2481883,128.843135 78.2481883,129.096815 L78.2481883,129.350495 L78.2481883,129.604174 C78.5044105,129.350495 78.5044105,129.106557 78.5044105,128.852877 L78.5044105,127.603962 C78.5044105,127.603962 78.5044105,127.350282 78.7606326,127.603962 C78.7606326,127.603962 79.0168548,127.350282 79.0168548,127.106344 C79.2730769,127.106344 79.5194599,127.360024 79.5194599,127.603962 C79.5194599,127.857642 79.775682,128.10158 79.775682,128.355259 C80.0319041,128.852877 80.2782871,129.106557 80.7808922,129.350495 C81.0371144,129.848112 81.0371144,130.34573 81.2834973,130.853089 C81.2834973,131.106769 81.5397195,131.350707 81.5397195,131.848324 L81.5397195,132.102004 L81.7959416,132.102004 C82.0521638,132.102004 82.2985467,132.355684 82.5547689,132.599622 C82.5547689,132.345942 82.2985467,131.848324 82.2985467,131.604386 C82.0423246,131.350707 81.7959416,131.106769 81.5397195,130.609151 C81.5397195,130.111533 81.2834973,129.857854 81.2834973,129.613916 C81.0272752,129.360236 80.7808922,129.116298 80.7808922,128.862618 C80.5246701,128.365001 80.5246701,128.111321 80.5246701,127.613704 L80.5246701,125.613491 L80.5246701,125.115874 C80.5246701,124.862194 80.7808922,124.862194 80.7808922,124.618256 C80.7808922,124.364576 81.0371144,124.364576 81.0371144,124.120638 C81.0371144,123.866959 80.5345093,123.623021 80.5345093,123.125403 C80.0319041,123.125403 79.529299,122.627785 79.2730769,122.130168 C79.0168548,121.63255 78.7704718,121.134932 78.2678667,120.881253 C78.0116445,120.881253 77.7652616,120.627573 77.5090394,120.627573 C77.2528173,120.627573 77.0064343,120.373894 77.0064343,120.129955 C76.7502122,119.632338 77.5090394,119.13472 77.5090394,118.627361 C77.5090394,118.373681 77.2528173,118.129743 77.2528173,117.876064 C76.9965951,117.622384 76.7502122,117.124766 76.9965951,116.627149 C76.9965951,115.875851 76.9965951,115.124554 76.740373,114.626937 C76.4841509,113.875639 75.7351628,113.378022 75.2227185,112.880404 C74.7201134,112.129107 74.9664964,111.133871 74.7201134,110.382574 C74.7201134,109.884956 74.4638912,109.133659 74.7201134,108.636041 C74.7201134,108.138424 74.7201134,107.884744 74.4638912,107.387126 L74.4638912,107.133447 L74.7201134,106.879767 L75.9815457,106.879767 L77.2429781,106.879767 L77.7455832,106.879767 C78.2481883,106.626088 78.5044105,106.12847 78.2481883,105.630852 L78.7507934,105.133235 C78.7507934,105.133235 79.0070156,104.879555 79.2533986,104.879555 C79.5096207,104.381937 80.5148309,104.381937 80.5148309,103.63064 L80.5148309,102.879343 C80.5148309,102.879343 80.7710531,102.879343 80.7710531,102.625663 L81.0272752,102.371984 C81.2834973,101.620686 82.0324854,100.869389 82.5449297,100.127833 C83.0475348,99.3765361 83.3037569,98.1276212 84.0625842,97.6300035 C84.0625842,97.1323859 84.3188063,96.8787063 84.5651893,96.6347682 C84.8214115,96.3810886 85.3240166,96.1371505 85.5703995,95.8834709 C85.8266217,95.6297913 86.0730046,95.3858533 86.3292268,95.3858533 C86.8318319,95.1321737 87.5906591,95.1321737 88.0932643,95.1321737 C89.0984745,95.1321737 90.1135239,94.8784941 90.872452,94.3808764 C91.3750571,94.3808764 91.8776623,94.3808764 92.3901065,94.1271968 C92.3901065,94.1271968 92.6463287,94.1271968 92.6463287,93.8735172 L92.9025508,93.8735172 L94.1639832,93.8735172 L94.1639832,93.3758995 C94.4202053,93.3758995 94.6665883,93.6295791 94.9228104,93.8735172 C94.9228104,93.8735172 94.9228104,94.1271968 95.1790326,94.1271968 C95.4352547,94.3808764 95.4352547,94.3808764 95.6816377,94.3808764 C96.4404649,94.3808764 96.94307,94.634556 97.7018973,94.634556 C97.7018973,94.634556 97.7018973,94.8882356 97.9581194,94.8882356 C97.9581194,94.8882356 98.2143416,94.8882356 98.2143416,94.634556 C98.4705637,94.3808764 98.7169467,94.3808764 98.9731688,94.3808764 C99.229391,94.3808764 99.4757739,94.634556 99.7319961,94.634556 C100.234601,94.634556 100.490823,94.3808764 100.993428,94.3808764 L101.496034,94.3808764 C101.752256,94.3808764 101.998639,94.1271968 102.254861,94.1271968 L102.511083,93.8735172 L102.511083,94.1271968 L102.767305,94.1271968 C102.767305,94.1271968 103.023527,94.1271968 103.023527,93.8735172 C103.526132,93.6198376 104.028737,94.1271968 104.787565,94.1271968 C105.29017,94.1271968 105.792775,94.1271968 106.551602,94.3808764 L107.310429,94.3808764 C107.566652,94.3808764 108.069257,94.1271968 108.31564,93.8832587 C108.571862,93.8832587 108.571862,93.6295791 108.818245,93.6295791 L109.074467,93.3758995 C109.330689,93.1222199 109.577072,93.1222199 109.833294,93.1222199 L110.838504,93.1222199 L111.094727,93.1222199 L112.099937,93.1222199 C112.356159,93.3758995 112.858764,93.6198376 113.105147,93.6198376 L113.863974,93.6198376 C114.366579,93.8735172 114.622801,94.1174553 114.622801,94.6150729 L114.622801,94.8687525 C114.622801,95.1224321 114.879024,95.1224321 114.879024,95.1224321 C114.879024,95.3761117 115.135246,95.3761117 115.135246,95.6200498 C115.135246,95.8737294 115.391468,95.8737294 115.637851,95.8737294 L115.894073,95.8737294 C116.150295,95.8737294 116.150295,95.6200498 116.396678,95.6200498 C116.6529,95.3663702 116.6529,95.3663702 116.6529,95.1224321 C116.6529,94.8687525 116.909122,94.8687525 117.155505,94.6248145 C117.411727,94.3711349 117.411727,94.3711349 117.411727,94.1271968 L118.170555,94.1271968 C118.426777,93.8735172 118.929382,93.6295791 118.929382,93.3758995 C119.185604,93.3758995 119.688209,93.3758995 119.934592,93.1222199 L120.190814,92.8685403 C120.447036,92.6148607 120.693419,92.8685403 120.949642,92.8685403 C121.205864,92.8685403 121.205864,92.6148607 121.452247,92.3709227 C121.708469,91.873305 121.954852,91.6196254 121.954852,91.1220077 C122.211074,91.1220077 122.211074,90.8683281 122.457457,90.8683281 L122.457457,90.6146485 C122.457457,89.6194132 122.713679,88.6144363 122.457457,87.6192509 C122.201235,87.1216333 122.457457,86.6240156 122.713679,86.1166564 L122.969901,85.8629768 L122.969901,85.6092972 C122.969901,85.1116795 123.226123,84.6140619 123.472506,84.3603823 L123.472506,84.1067027 C122.969901,83.853023 122.713679,83.1114673 122.467296,82.8577877 C122.211074,82.8577877 122.211074,82.6041081 121.964691,82.6041081 C121.708469,82.6041081 121.708469,82.3504285 121.708469,82.1064904 C121.964691,81.1112551 122.467296,80.3599578 123.472506,80.1062782 L123.472506,79.6086606 C123.472506,79.354981 123.216284,79.354981 122.969901,79.354981 C122.713679,79.354981 122.467296,79.1013014 122.211074,79.1013014 C121.954852,78.8476218 122.211074,78.6036837 122.467296,78.6036837 C122.723518,78.6036837 122.969901,78.3500041 123.226123,78.3500041 C123.482345,78.3500041 123.728728,78.0963245 123.984951,77.8523864 C124.241173,77.5987068 124.241173,76.8571511 124.743778,76.8571511 C124.743778,76.1058538 125,75.6082362 125,74.8569389 C125,73.8617036 124.241173,73.1104063 123.482345,72.8567267 L122.220913,72.8567267 C121.718308,72.8567267 121.462086,72.359109 121.462086,71.8614914 C121.205864,71.6078118 120.959481,71.6078118 120.703259,71.1101941 L120.703259,70.3588968 C120.703259,70.1052172 120.703259,69.6075995 120.959481,69.3636615 C121.215703,69.1099819 121.462086,68.8660438 121.718308,68.8660438 C121.718308,68.6123642 121.215703,68.3684261 120.959481,68.3684261 C119.698048,68.1147465 118.692838,67.8708085 117.431507,67.6171289 C117.175285,67.6171289 116.672679,67.3634493 116.426297,67.3634493 C116.170074,67.1097697 115.923691,66.612152 116.170074,66.3682139 C115.913852,66.3682139 115.913852,66.1145343 115.913852,65.8705963 L115.913852,65.119299 C115.913852,64.6216813 115.411247,64.3680017 115.155025,64.1240637 C114.898803,63.8703841 114.396198,63.626446 114.149815,63.3727664 L113.893593,63.1190868 L113.893593,62.6214691 C113.63737,61.6262338 111.873333,61.6262338 111.873333,60.6212569 C111.873333,59.8699597 111.873333,58.8747243 112.129555,58.1234271 L112.129555,57.8697475 C112.129555,57.6160679 111.873333,57.3721298 111.62695,57.1184502 L111.62695,56.6208325 C111.62695,56.6208325 111.62695,56.3671529 111.883172,56.3671529 C112.139394,55.6158556 111.124345,54.8645584 111.380567,54.1230026 C111.380567,53.869323 111.380567,53.3717054 111.636789,53.1277673 C111.893011,52.8740877 112.139394,52.6301496 112.139394,52.132532 C112.395616,51.6349143 112.395616,51.1372966 112.641999,50.3859994 L112.641999,49.1370844 C112.641999,47.8881695 111.636789,47.1368722 111.124345,46.1416869 C110.62174,45.3903896 109.60669,44.8927719 108.60148,44.3951543 C107.59627,43.8975366 106.581221,43.3999189 106.334838,42.394942 C106.334838,42.1412624 106.078615,41.8973244 106.078615,41.6436448 C105.57601,40.8923475 104.817183,40.8923475 104.314578,40.1410502 C104.058356,39.6434326 103.811973,39.1458149 103.555751,38.6384557 C103.299529,38.140838 103.053146,37.6432204 102.796924,37.3895408 C102.294318,37.1358612 102.038096,36.6382435 101.791713,36.1406258 C101.535491,35.6430082 101.289108,34.8917109 100.786503,34.3940932 C100.530281,34.1404136 100.530281,33.642796 100.027676,33.3988579 C99.7714537,33.1451783 99.2688486,33.1451783 99.0224656,33.6525375 L99.0224656,33.9062171 C98.7662435,34.1598967 98.5198605,34.1598967 98.2636384,33.9062171 C98.0074162,33.6525375 98.0074162,33.4085994 97.7610332,33.4085994 C97.2584281,32.9109818 96.2433787,32.9109818 95.4943907,32.6573022 C95.2381685,32.6573022 94.9917856,32.4036226 94.7355634,32.4036226 C93.2179089,31.6523253 91.453821,31.6523253 89.946157,31.9060049 C89.6899349,31.9060049 89.4435519,31.9060049 89.4435519,32.1596845 C88.9409468,32.6573022 89.1873298,33.4085994 89.6997741,33.9062171 L89.9559962,34.1598967 C89.9559962,34.4135763 89.6997741,34.4135763 89.4533911,34.4135763 C89.1971689,34.4135763 88.6945638,34.4135763 88.4481809,34.6672559 C88.1919587,34.9209355 87.9455758,35.1648736 87.9455758,35.4185532 C87.9455758,35.6722328 87.9455758,36.1698504 87.6893536,36.4137885 C87.4331315,36.6674681 86.9305264,36.4137885 86.6841434,36.6674681 L86.6841434,36.9211477 L86.6841434,38.4237422 C86.6841434,38.6774219 86.4279213,38.9213599 86.1815383,38.9213599 L85.9253161,38.9213599 L85.669094,38.9213599 L85.4128719,38.6676803 C85.4128719,38.6676803 84.9102667,38.4140007 84.9102667,38.6676803 L84.6540446,38.6676803 C84.3978225,38.9213599 84.1514395,39.165298 83.6488344,39.165298 C83.1462293,39.4189776 82.387402,39.9165953 81.8847969,40.1605333 C79.982784,39.9653779 79.7265618,40.2093159 79.7265618,40.4629955 L79.7265618,40.9606132 L79.4703397,40.9606132 C79.2141175,40.7069336 78.9677346,40.7069336 78.4651295,40.4629955 L78.2089073,40.4629955 L78.2089073,40.2093159 C78.2089073,39.7116983 78.4651295,39.4580187 78.4651295,38.960401 C78.2089073,38.4627833 77.9625244,38.4627833 77.4599192,38.4627833 L76.1984869,38.4627833 C75.9422647,38.4627833 75.6958818,38.2091037 75.4396596,37.9651657 C74.6808324,37.7114861 73.9220051,37.467548 73.4194,36.9699303 C72.9167949,36.7162507 72.6605728,36.2186331 72.4141898,35.7210154 C72.1579677,35.2233977 71.9115847,34.9697181 71.4089796,34.7257801 C71.4089796,34.7257801 71.1527574,34.7257801 71.1527574,34.4721005 C70.8965353,34.4721005 70.6501523,34.4721005 70.3939302,34.7257801 C69.8913251,34.9794597 69.6351029,35.4770773 69.1324978,35.974695 C68.6298927,36.4723127 68.3736706,37.2236099 67.6148433,37.4772895 C66.8560161,37.7309691 66.353411,37.2236099 65.5945837,37.2236099 C65.3383616,37.4772895 65.3383616,37.9749072 65.3383616,38.2188453 C65.5945837,38.7164629 64.8357565,39.4677602 64.3331514,39.7214398 C63.8305462,39.9751194 63.071719,40.2190575 62.5691139,40.7166751 C62.0665088,41.2142928 61.8102866,41.9655901 61.3076815,42.2192697 C61.0514594,42.2192697 60.8050764,42.2192697 60.5488543,42.4729493 C60.0462492,42.4729493 59.790027,42.9705669 59.543644,43.2242465 C59.0410389,43.4779261 58.7848168,43.9755438 58.2822117,44.2194819 C57.7796066,44.4731615 57.5233844,44.9707791 57.0207793,45.4683968 C56.7645572,45.7220764 56.5181742,46.2196941 56.2619521,46.4636321 C55.759347,46.7173118 55.2567419,46.7173118 54.7442976,46.4636321 C54.4880754,46.2099525 54.2416925,45.9660145 53.9854703,45.9660145 C53.4828652,45.7123349 52.9802601,45.4683968 52.2214328,45.4683968 C52.2214328,45.2147172 52.2214328,44.7170995 52.477655,44.4731615 C52.7338771,43.9755438 52.7338771,43.7218642 52.9802601,43.2242465 C52.9802601,42.9705669 53.2364822,42.7266289 53.2364822,42.4729493 L53.2364822,41.9753316 C53.2364822,41.721652 53.4927044,41.721652 53.4927044,41.721652 C53.7489265,41.4679724 53.4927044,41.2240343 53.4927044,40.9703547 C53.7489265,39.9751194 54.7541367,39.2238221 55.2567419,38.4725249 C55.512964,38.2188453 55.759347,37.9749072 56.0155691,37.9749072 C55.759347,37.4772895 55.759347,37.2236099 55.759347,36.7259923 C55.759347,36.4723127 56.0155691,36.2283746 56.0155691,35.7307569 C56.0155691,35.2331393 55.759347,34.9794597 55.512964,35.2331393 C55.512964,34.7355216 56.0155691,34.2379039 55.7691861,33.7305447 C55.512964,33.2329271 55.0103589,33.2329271 54.5077538,32.9792475 C54.0051487,32.7255679 54.0051487,31.9840121 54.0051487,31.4766529 C54.0051487,31.2229733 54.5077538,31.2229733 54.5077538,30.9790352 L54.5077538,30.7253556 L54.7639759,30.7253556 C55.266581,30.7253556 55.7691861,30.227738 55.5228032,29.7301203 L55.5228032,29.4764407 L55.7790253,29.4764407 C55.7790253,29.4764407 56.0352474,29.4764407 56.0352474,29.2227611 C56.2914696,28.9690815 56.5378526,28.7251434 56.7940747,28.4714638 L57.0502968,28.2177842 C57.0502968,27.9641046 56.7940747,27.9641046 56.7940747,27.7201666 L56.7940747,27.2225489 C56.7940747,26.7249312 57.0502968,25.973634 56.7940747,25.4760163 C56.5378526,25.2223367 57.0502968,24.9783986 57.0502968,24.480781 C57.306519,24.2271014 57.306519,23.9831633 57.306519,23.7294837 C57.5627411,23.4758041 58.0653462,23.231866 58.0653462,22.7342484 C58.0653462,22.4805688 58.0653462,21.9829511 57.8091241,21.739013 C57.552902,21.4853334 57.306519,21.2413954 57.0502968,20.9877158 L56.7940747,20.7340362 L56.7940747,20.2364185 C56.7940747,19.7388008 56.5378526,18.9875036 56.7940747,18.4898859 C56.7940747,18.2362063 56.7940747,17.7385886 56.5378526,17.4946506 C56.2816304,17.240971 56.0352474,16.7433533 56.0352474,16.4994152 C56.0352474,16.2457356 56.0352474,15.748118 56.2914696,15.5041799 C56.5476917,15.5041799 56.5476917,15.5041799 56.7940747,15.2505003 C57.0502968,14.9968207 57.0502968,14.7528826 57.0502968,14.499203 C57.0502968,14.2455234 57.0502968,14.0015853 56.7940747,13.7479057 C56.7940747,13.7479057 56.7940747,13.4942261 56.5378526,13.4942261 C57.7795813,12.9868669 57.2769762,12.9868669 57.0207541,12.9868669 C56.764532,13.2405465 56.518149,13.2405465 56.2619268,13.4844846 C55.5030996,13.4844846 55.0004945,12.7331873 54.2416672,12.9868669 C53.4926792,12.7331873 52.4776298,12.4892493 51.9750246,12.9868669 C51.7188025,13.2405465 51.7188025,13.7381642 51.2161974,13.9821023 C50.7135923,14.4797199 50.2109872,14.4797199 49.6985429,13.9821023 C49.4423208,13.7284227 49.4423208,13.7284227 49.1959378,13.4844846 C48.9397156,13.230805 48.4371105,13.4844846 48.1907276,13.7381642 C47.9345054,13.9918438 47.6881225,14.2357819 47.4319003,14.2357819 C46.9292952,14.2357819 46.6730731,14.2357819 46.170468,13.9821023 C45.9142458,13.7284227 45.6678628,13.230805 45.4116407,12.9868669 C45.4116407,12.7331873 45.1554186,12.4892493 45.1554186,12.2355697 C45.1554186,11.9818901 44.8991964,11.4842724 44.6528134,11.2403343 C44.3965913,10.9866547 44.3965913,10.4890371 44.6528134,10.245099 L44.9090356,9.9914194 C44.9090356,9.7377398 44.9090356,9.7377398 45.1652577,9.49380173 C45.4214799,9.24012213 45.6678628,8.99618407 45.924085,8.74250447 C45.924085,8.74250447 46.1803071,8.74250447 46.1803071,8.48882486 L46.1803071,7.9912072 C46.1803071,7.49358953 46.4365293,6.74229226 46.6829122,6.24467459 C46.6829122,5.99099499 46.6829122,5.49337732 46.9391344,5.24943926 C47.1953565,4.75182159 47.1953565,4.49814199 46.9391344,4.00052432 C46.4365293,4.00052432 45.9339242,3.74684472 45.677702,3.50290666 C44.9188748,3.00528899 44.6724918,1.75637405 44.1600475,0.751297269 C44.1600475,0.497617667 43.9038254,0.253679602 43.6574424,0.253679602 C43.4012203,0.253679602 43.1548373,0 42.8986151,0.253679602 C42.39601,0.253679602 42.1397879,1.00497687 41.8934049,1.24891494 C41.6371828,1.24891494 41.6371828,1.50259454 41.3907998,1.50259454 C41.1345777,1.75627414 41.3907998,2.00021221 41.1345777,2.25389181 C40.8783555,2.50757141 40.6319726,2.50757141 40.3757504,2.25389181 C40.1195283,2.00021221 40.1195283,1.75627414 40.1195283,1.50259454 C40.6221334,1.24891494 39.8633061,0.751297269 39.360701,0.497617667 C39.1044789,0.243938065 38.6018738,0 38.3554908,0 C37.8528857,0 37.5966636,0 37.0940585,0.253679602 C36.8378363,0.243913087 36.8378363,0.497617667 36.5816142,0.751297269 L35.8227869,1.50259454 L35.0639597,1.50259454 C34.8077375,1.50259454 34.8077375,1.75627414 34.5613546,1.75627414 L34.0587494,1.75627414 C32.7973171,1.50259454 31.7921069,1.00497687 30.5307754,0.507359204 C31.2896027,1.24891494 31.5359856,2.24412529 31.7922078,2.99542256 C32.0484299,3.24910216 32.0484299,3.74671983 32.0484299,3.9906579 C31.7922078,4.98589323 30.5307754,5.7371905 29.2692421,5.7371905 C28.2640319,5.7371905 27.5052047,4.98589323 26.4900544,4.98589323 C25.4848441,4.98589323 24.7260169,5.98112856 24.4697947,6.98610543 C24.4697947,7.4837231 24.4697947,7.98134077 24.2135726,8.73263804 C24.2135726,9.2302557 24.2135726,9.48393531 23.9573505,9.98155297 C24.223437,9.99131949 23.7208319,10.4889122 23.4646098,10.4889122 C22.7057825,10.4889122 22.2031774,9.99129451 21.4443501,9.99129451 C21.188128,9.99129451 21.188128,9.99129451 20.941745,10.2449741 C20.1829178,10.4889122 19.4339297,10.4889122 18.6751025,10.9865298 C17.6698922,11.7378271 16.4084599,11.7378271 15.1471284,11.7378271 C14.6445233,11.7378271 14.1419182,11.7378271 13.6294739,11.9915067 C13.3732518,11.9915067 13.1268688,12.2451863 12.6242637,12.2451863 C12.3680416,12.2451863 12.3680416,11.9915067 12.3680416,11.9915067 C12.3680416,10.9865298 11.6092143,10.7425918 11.1066092,10.4889122 C10.8503871,10.2352326 10.3477819,10.2352326 10.3477819,9.99129451 C10.3477819,9.99129451 10.3477819,9.73761491 10.0915598,9.73761491 C9.5889547,9.99129451 9.5889547,10.4889122 9.5889547,10.9865298 C9.5889547,11.4841475 9.84517684,11.9817652 9.5889547,12.4891244 C9.33273256,12.4891244 9.08634959,12.4891244 9.08634959,12.742804 C8.83012745,12.9964836 8.58374448,13.4941013 8.08113937,13.4941013 L7.57853426,13.4941013 C7.32231211,13.4941013 7.32231211,13.9917189 7.07592915,14.2453985 C6.819707,14.4990781 7.07592915,14.7430162 6.819707,14.9966958 C6.819707,15.2503754 6.56348486,15.2503754 6.31710189,15.4943135 C6.06087975,15.4943135 6.06087975,15.7479931 6.06087975,15.7479931 L6.06087975,16.996908 L6.06087975,17.4945257 C6.06087975,17.7482053 6.06087975,17.7482053 5.80465761,17.9921433 L5.80465761,18.2458229 L5.80465761,18.7434406 C6.06087975,18.9971202 6.30726272,19.2410583 6.30726272,19.7386759 C6.30726272,20.2362936 6.30726272,20.9875909 6.05104058,21.2412705 C5.79481844,21.4949501 5.04583036,21.7388881 5.04583036,22.2365058 L5.04583036,22.9878031 C5.04583036,23.2414827 4.78960822,23.4854207 4.54322525,23.4854207 L4.28700311,23.4854207 C4.03078097,23.4854207 4.03078097,23.7391003 4.28700311,23.9830384 C4.54322525,24.236718 4.54322525,24.236718 4.78960822,24.4806561 C5.29221333,24.9782737 5.54843547,25.4758914 5.29221333,25.9832506 C5.29221333,26.4808683 5.29221333,26.9784859 5.54843547,27.2321655 C5.54843547,27.4858452 5.80465761,27.4858452 5.80465761,27.7297832 C6.06087975,27.9834628 6.06087975,28.4810805 5.80465761,28.9786982 C5.54843547,29.2323778 5.3020525,29.4763158 4.79944739,29.7299954 L4.29684228,29.7299954 C3.29163206,29.7299954 2.53280481,30.7252308 1.5176545,30.9789104 C1.01504939,30.9789104 0.256222141,30.7252308 0,29.983675 L0,30.7349723 C0.50260511,31.23259 0.50260511,31.7302076 0.758827251,32.4815049 C1.01504939,32.9791226 1.01504939,33.4767402 1.26143236,33.9840994 C1.26143236,34.237779 1.5176545,34.4817171 1.76403747,34.4817171 C2.02025961,34.7353967 2.26664258,34.7353967 2.52286472,34.4817171 C2.52286472,33.7304198 3.28169197,33.4864818 4.04051923,33.4864818 C4.29674137,33.4864818 4.54312434,33.7401614 4.54312434,33.9840994 C4.54312434,34.237779 4.04051923,34.237779 3.78429708,34.4817171 L3.78429708,35.2330144 C4.04051923,35.486694 4.28690219,35.730632 4.54312434,35.9843116 C4.79934648,36.2379912 5.04572945,36.7356089 4.79934648,36.979547 C5.05556862,37.4771646 5.55817373,37.9747823 5.55817373,38.7260796 C5.55817373,39.4773768 4.79934648,39.9749945 4.55296351,40.7262918 C4.55296351,41.2239094 4.80918565,41.4775891 5.05556862,41.9752067 C5.31179076,42.4728244 5.55817373,42.9704421 6.06077884,43.4778013 C6.56338395,44.4730366 7.3222112,45.2243339 8.32742142,45.9756311 C9.08624867,46.4732488 9.84507592,47.2245461 10.0914589,47.9758433 C10.347681,47.9758433 10.594064,48.2295229 10.8502861,48.473461 C11.1065083,48.7271406 11.1065083,48.9710787 11.1065083,49.2247583 L11.1065083,49.7223759 C11.1065083,49.9760555 11.3627304,49.9760555 11.6091134,49.9760555 C12.6143236,50.4736732 13.3731509,51.4786501 13.875756,52.4738854 C14.1319781,52.727565 14.1319781,53.2251827 14.6345832,53.4691207 C14.8908054,53.7228003 15.1371883,53.7228003 15.6397934,53.9667384 C16.6450037,54.4643561 17.157448,55.2156533 17.157448,56.2108887 L17.157448,56.7085063 C17.157448,56.7085063 17.157448,56.962186 17.4136701,56.962186 C17.6698922,57.2158656 17.4136701,57.4598036 17.157448,57.7134832 C16.9012258,57.9671628 16.6548428,58.2111009 16.6548428,58.4647805 C16.3986207,58.9623982 17.4136701,59.2160778 17.6600531,59.7136954 C17.6600531,59.967375 17.6600531,59.967375 17.9162752,60.2113131 L18.1724973,60.2113131 C18.4287195,60.4649927 18.4287195,60.9626104 18.6751025,61.2065484 C18.6751025,61.460228 18.9313246,61.460228 18.9313246,61.460228 C19.1875467,61.9578457 19.4339297,62.4554634 19.4339297,62.9628226 C19.9365348,63.4604402 19.6901518,64.4654171 20.192757,64.9630348 L20.4489791,64.9630348 C20.7052012,64.9630348 20.7052012,64.7093552 20.7052012,64.7093552 L21.4640285,63.9580579 C21.9666336,63.4604402 22.4692387,62.9628226 22.4692387,62.2115253 C22.9718438,62.709143 23.4744489,63.2067606 23.4744489,63.7141198 L23.4744489,63.9677994 C23.4744489,63.9677994 23.4744489,64.221479 23.2182268,64.221479 C22.9620046,64.4751586 23.2182268,64.9727763 23.2182268,65.2167144 C23.2182268,65.470394 22.7156217,65.714332 22.7156217,65.9680116 C22.4593995,66.4656293 22.4593995,67.2169266 21.9567944,67.4706062 C21.7005723,67.7242858 21.1979672,67.4706062 20.9515842,67.4706062 C20.6953621,67.4706062 20.192757,67.4706062 19.946374,67.7242858 C19.6901518,67.9779654 19.6901518,68.475583 19.4437689,68.475583 L18.6849416,68.475583 C18.4287195,68.475583 18.4287195,68.7292627 18.6849416,68.9732007 C18.6849416,69.2268803 18.9411638,69.2268803 18.9411638,69.4708184 C19.1973859,69.9684361 18.6849416,70.4660537 18.6849416,70.7197333 L18.6849416,71.9686483 C18.6849416,72.2223279 18.6849416,72.4662659 18.4287195,72.7199455 L18.4287195,75.4715549 C18.4287195,75.7252345 18.6849416,75.9691726 18.6849416,76.2228522 C18.9411638,77.2180875 18.9411638,78.4670025 18.9411638,79.4720293 L18.6849416,79.4720293 C18.6849416,79.4720293 18.6849416,79.2183497 18.4287195,79.2183497 C18.1724973,78.9646701 17.9261144,78.720732 17.6698922,78.720732 L17.6698922,79.2183497 L17.1672871,79.2183497 L16.4084599,79.2183497 L16.4084599,79.9696469 C16.4084599,80.2233265 16.1522377,80.4672646 15.9058548,80.7209442 C15.6496326,80.7209442 15.1470275,80.4672646 14.9006445,80.4672646 C14.6444224,80.4672646 14.6444224,80.7209442 14.3980394,80.9648823 C14.1418173,81.2185619 14.1418173,81.4624999 13.8954343,81.2185619 L13.3928292,81.2185619 L13.3928292,81.9698592 C13.3928292,82.2235388 13.1366071,82.7211564 12.8902241,82.9650945 L12.634002,83.2187741 C12.8902241,83.2187741 12.8902241,83.4724537 12.8902241,83.4724537 C13.1464462,83.7261333 13.1464462,84.223751 13.1464462,84.7213686 L13.1464462,84.9750482 L13.4026684,85.2287278 C13.6588905,85.4824074 13.6588905,85.7263455 13.6588905,86.2239632 L13.6588905,87.2191985 C13.6588905,87.4728781 14.1614956,87.9704958 13.9151127,88.2144338 C14.1713348,88.7120515 14.6739399,89.2096692 15.176545,89.7170284 C15.4327672,89.970708 15.9353723,90.4683256 16.1817552,90.7122637 C17.1869655,91.9611786 17.6994098,93.4638731 18.70462,94.712788 C19.2072251,95.2104057 19.7098302,95.7080234 20.2222745,95.961703 C20.9811017,95.961703 21.4837068,96.7130002 21.739929,97.2106179 C22.4987562,97.9619152 23.2575835,98.2058532 24.0065716,98.9571505 L24.2627937,99.2108301 L24.2627937,99.4645097 C24.5190158,100.713425 25.7804482,101.211042 26.2830533,102.459907 C26.5392755,103.211205 26.7856584,104.20644 27.2882635,104.704058 C27.2882635,105.455355 27.0320414,106.70427 27.2882635,107.455667 C27.2882635,107.709347 27.5444857,107.953285 27.5444857,108.206964 C27.8007078,108.958261 27.8007078,109.953497 27.8007078,110.704794 C27.8007078,111.202412 27.5444857,111.700029 27.5444857,112.451327 L27.2882635,112.451327 L26.7856584,112.451327 C26.5294363,112.451327 26.2830533,112.451327 26.2830533,112.705006 C26.0268312,112.958686 26.0268312,113.202624 26.2830533,113.202624 C26.2830533,113.700242 26.0268312,114.197859 26.0268312,114.949157 C26.5294363,114.949157 27.0320414,115.446774 27.0320414,115.944392 C27.0320414,116.44201 27.0320414,116.939627 27.2882635,117.446986 C27.2882635,117.700666 27.5444857,117.944604 27.5444857,118.198284 C27.8007078,118.949581 28.3033129,119.700878 28.805918,120.198496 C29.3085231,120.696114 30.3235725,121.193731 30.5699555,121.945029 C30.8261776,122.442646 30.5699555,122.940264 30.5699555,123.447623 L30.5699555,124.19892 C30.5699555,124.4526 30.8261776,124.696538 30.8261776,124.950218 L30.8261776,125.945453 C30.8261776,126.199133 31.0823998,126.199133 31.0823998,126.199133 C31.5850049,126.69675 31.5850049,127.448047 31.3386219,128.199345 C31.5948441,127.945665 32.0974492,127.945665 32.6000543,128.199345 L32.6000543,129.44826 L32.6000543,129.701939 C32.6000543,129.955619 33.1026594,129.955619 33.1026594,129.955619 L33.1026594,131.955831 L33.1026594,132.209511 L33.3588815,132.209511 C33.6151037,132.209511 33.8614867,132.46319 33.8614867,132.707128 L33.8614867,133.458426 C33.8614867,133.956043 33.6052645,134.453661 33.3588815,134.707341 C33.1026594,134.96102 32.6000543,135.458638 32.0974492,135.204958 C31.841227,135.458638 31.5948441,135.702576 31.3386219,135.956255 L31.0823998,136.209935 L31.0823998,136.707553 L31.0823998,137.20517 L31.0823998,137.45885 C31.0823998,137.45885 31.0823998,137.71253 30.8261776,137.71253 C30.5699555,137.966209 30.5699555,137.966209 30.3235725,138.210147 C30.3235725,138.463827 30.0673504,138.463827 30.0673504,138.707765 C30.0673504,139.205383 29.5647453,139.703 29.3085231,139.95668 C28.5496959,140.707977 28.3033129,141.703212 27.7908686,142.708289 C27.2882635,143.703525 26.7856584,144.708501 25.770609,144.95244 C25.770609,144.95244 25.5143869,144.95244 25.5143869,145.206119 C25.2581647,145.459799 25.2581647,145.703737 25.0117818,145.957416 L24.5091767,145.957416 C24.2529545,145.957416 24.0065716,146.455034 24.0065716,146.708714 C24.0065716,147.206331 24.0065716,147.460011 24.2627937,147.957629 C24.0065716,147.957629 24.0065716,148.211308 24.0065716,148.211308 L23.2477443,148.211308 C22.9915222,148.211308 22.7451392,148.464988 22.4889171,148.708926 C21.9863119,148.962605 21.7300898,149.460223 21.2274847,149.704161 C20.9712626,149.704161 20.9712626,149.957841 20.7248796,149.957841 L20.4686574,150.21152 C20.2124353,150.4652 20.4686574,150.709138 20.4686574,150.962818 C20.4686574,151.216497 20.4686574,151.216497 20.7248796,151.460435 C20.7248796,151.460435 20.9811017,151.460435 20.9811017,151.714115 C20.9811017,151.967795 21.2373239,151.967795 20.9811017,151.967795 C20.9811017,153.21671 20.7248796,154.465624 20.4784966,155.714539 C20.4784966,155.968219 20.4784966,156.212157 20.2222745,156.465837 C19.9660523,156.719516 19.7196694,157.217134 19.7196694,157.461072 C19.9758915,158.212369 19.4634472,158.709987 19.2170643,159.461284 C18.9608421,160.212581 18.458237,160.45652 18.211854,161.207817 C18.211854,161.461496 18.211854,161.705434 17.9556319,161.959114 C17.6994098,162.212794 17.4530268,162.456732 16.9504217,162.456732 L16.9504217,162.954349 C17.2066438,162.954349 17.4530268,162.954349 17.4530268,163.208029 C17.4530268,163.461709 17.1968046,163.705647 17.1968046,163.705647 C17.1968046,163.705647 16.9405825,163.959326 16.9405825,164.203264 L17.6994098,164.203264 L17.6994098,164.700882 C17.4431876,164.700882 17.4431876,164.954562 17.1968046,164.954562 C16.9405825,165.208241 16.6941995,165.452179 16.6941995,165.705859 C16.6941995,165.959538 16.9504217,166.457156 16.9504217,166.701094 C16.9504217,166.701094 17.2066438,166.954774 16.9504217,166.954774 L16.9504217,167.208453 C16.6941995,167.462133 16.4478166,167.959751 16.4478166,168.457368 C16.1915944,168.711048 16.1915944,168.954986 15.9452115,169.208666 C15.6889893,169.462345 15.6889893,169.706283 15.4426063,169.959963 C15.4426063,170.213642 15.1863842,170.457581 15.1863842,170.71126 C14.9301621,171.208878 14.9301621,171.960175 14.6837791,172.457793 L14.6837791,172.711472 C14.6837791,172.965152 14.9400012,172.965152 14.9400012,172.965152 C14.9400012,173.218832 14.9400012,173.716449 15.1962234,173.716449 C15.1962234,173.716449 15.4524455,173.716449 15.4524455,173.970129 C15.4524455,174.223808 14.9498404,174.223808 14.9498404,174.467746 L15.2060625,174.721426 C15.4622847,174.975106 15.4622847,175.219044 15.4622847,175.472723 C15.4622847,175.726403 15.2060625,175.970341 14.9596796,175.970341 L14.7034574,175.970341 L14.7034574,176.224021 C14.4472353,176.4777 14.4472353,176.721638 14.2008523,177.219256 C14.2008523,177.472936 13.9446302,177.472936 13.9446302,177.716874 C13.9446302,177.970553 13.688408,178.468171 13.688408,178.712109 C13.1858029,178.712109 12.9295808,179.463406 13.1858029,179.707344 L13.1858029,179.961024 L13.1858029,180.214704 C13.1858029,180.468383 12.9295808,180.712321 12.9295808,180.966001 C12.6733586,181.463618 12.4269757,182.214916 12.6733586,182.966213 C12.9295808,183.463831 13.1759638,183.71751 13.1759638,184.215128 C13.1759638,185.210363 13.6785689,186.21534 13.934791,187.210526 C14.1910132,186.956846 14.4373961,187.210526 14.6936183,187.464205 C14.9498404,187.717885 15.1962234,187.961823 15.4524455,187.961823 C15.9550506,188.215502 16.4576557,187.708143 16.4576557,187.210526 C16.4576557,186.712908 16.2014336,186.21529 15.9550506,185.961611 C16.9602608,185.961611 17.9753102,184.966375 18.98047,184.712696 L18.98047,185.463993 C18.98047,185.717673 18.98047,186.21529 19.4830751,186.21529 C19.7392973,186.21529 19.9856802,185.961611 19.9856802,185.961611 C20.2419024,185.961611 19.9856802,186.21529 20.2419024,186.459228 C20.2419024,186.956846 20.7445075,187.210526 21.0007296,187.708143 L21.0007296,188.45944 L21.0007296,189.210738 C21.0007296,189.464417 21.5033347,189.708355 21.7595569,189.464417 C22.015779,189.210738 22.5183841,189.718097 22.7647671,189.962035 C23.0209892,189.708355 23.2673722,189.708355 23.5235943,189.464417 C23.7798165,189.210738 24.0261994,189.464417 24.2824216,189.718097 C24.5386437,189.971777 24.2824216,190.713332 24.7850267,190.713332 L25.0412488,190.713332 C25.297471,190.967012 25.5438539,191.46463 25.8000761,191.21095 C26.0562982,191.21095 26.0562982,190.95727 26.3026812,191.21095 L26.3026812,191.708568 C26.3026812,191.962247 26.0464591,191.962247 25.8000761,192.206185 C25.5438539,192.703803 25.5438539,193.201421 25.5438539,193.70878 C25.8000761,193.962459 26.3026812,194.206397 26.5490642,193.962459 C26.5490642,193.70878 26.8052863,193.70878 27.0516693,193.70878 C27.3078914,193.70878 27.5542744,193.70878 27.8104965,193.962459 C28.0667187,193.962459 28.0667187,194.216139 28.3131016,194.216139 C28.3131016,194.216139 28.3131016,194.469819 28.5693238,194.469819 C28.5693238,194.469819 28.8255459,194.469819 28.8255459,194.723498 C29.0817681,194.977178 29.0817681,195.221116 29.328151,195.474795 C29.328151,195.474795 29.5843732,195.474795 29.5843732,195.728475 C29.8405953,195.982155 29.8405953,196.226093 29.8405953,196.72371 C29.8405953,197.475008 30.3432004,197.718946 30.5994226,198.470243 C30.8556447,198.967861 30.5994226,199.719158 30.8556447,199.972838 C31.1118668,200.470455 31.8608549,200.470455 32.3732992,200.470455 C32.3732992,199.972838 32.6295214,199.47522 32.8759043,199.47522 C32.8759043,199.728899 33.1321265,199.972838 33.1321265,200.226517 C33.6347316,200.226517 33.8909537,199.47522 34.1373367,199.47522 C34.3935588,199.972838 33.8811145,200.470455 33.6347316,200.977814 C33.3785094,201.475432 33.6347316,202.226729 34.1373367,202.480409 C34.3935588,202.480409 34.6399418,202.734089 34.8961639,202.734089 C35.1523861,202.734089 35.398769,202.987768 35.1523861,203.231706 C35.4086082,203.231706 35.6549912,202.978027 35.9112133,202.978027 C35.9112133,203.475644 35.6549912,203.729324 35.4086082,203.973262 C35.1523861,204.47088 35.1523861,204.968497 35.1523861,205.475856 C35.4086082,205.475856 35.9112133,205.729536 35.6549912,205.973474 C35.6549912,206.227154 35.1523861,206.471092 35.1523861,206.968709 C35.9112133,207.222389 36.6700406,207.720007 37.1726457,208.471304 C37.4288678,208.471304 37.6752508,208.471304 37.9314729,208.724984 C38.1876951,208.978663 38.1876951,209.222601 38.434078,209.476281 C38.6903002,209.72996 38.6903002,209.973899 38.9366832,209.973899 C39.4392883,210.969134 39.9418934,211.720431 40.9569428,212.471728 C40.9569428,212.471728 40.9569428,212.218049 41.2131649,212.218049 C41.71577,211.964369 42.2183751,212.471728 41.9719922,212.969346 L42.2282143,212.969346 C41.8832882,212.559552 41.8832882,211.564317 41.8832882,210.315402 L41.8832882,210.061722 L42.1395104,210.061722 C42.6421155,209.808043 43.1447206,210.315402 43.4009427,210.81302 C43.6571649,211.310637 43.9035479,211.808255 44.15977,212.315614 C44.6623751,213.066911 45.6774245,213.066911 46.4264126,213.310849 C46.9290177,213.310849 47.4316228,213.564529 48.19045,213.808467 C48.6930552,214.062147 49.4518824,214.062147 49.7081046,213.808467 L49.9643267,213.554787 C50.2205488,213.554787 50.4669318,213.808467 50.7231539,214.052405 C50.9793761,214.052405 50.9793761,214.052405 51.2257591,214.306085 C51.4819812,214.559764 51.4819812,214.803702 51.4819812,215.057382 C51.4819812,215.311062 51.7382033,215.555 51.7382033,216.052617 C51.7382033,216.306297 51.7382033,216.803915 51.4819812,217.047853 C51.9845863,217.301532 52.4871914,217.301532 52.7434136,217.301532 C52.9996357,217.301532 53.7486238,217.047853 54.0048459,216.803915 C54.2610681,217.057594 54.507451,217.057594 54.7636732,217.057594 L55.5225004,217.057594 C55.7787226,217.057594 55.7787226,217.555212 55.7787226,217.555212 C55.5225004,217.808891 55.2761175,217.808891 55.2761175,217.808891 L55.2761175,218.306509 C55.7787226,218.560189 55.7787226,219.057806 55.7787226,219.555424 L55.7787226,220.804339 L55.7787226,221.058019 C55.7787226,221.311698 55.5225004,221.311698 55.5225004,221.555636 C55.0198953,222.053254 54.7636732,222.306934 54.5172902,223.058231 C54.2610681,223.555848 54.2610681,224.307146 54.7735123,224.560825 L55.0297345,224.814505 L55.2859566,224.814505 C55.7885617,224.814505 55.7885617,225.565802 56.0447839,225.80974 C56.301006,226.06342 56.8036111,226.06342 57.0499941,225.80974 C57.3062162,225.556061 57.5525992,225.556061 57.8088213,225.312123 L58.0650435,225.058443 C58.0650435,224.804763 58.0650435,224.307146 58.3212656,224.063208 L58.5774878,223.809528 C59.8389201,222.814293 61.3566756,222.306934 62.8643395,222.306934 L63.3669446,222.306934 L63.6231668,222.560613 C63.8793889,223.058231 64.381994,223.809528 65.1408213,223.809528 L65.6434264,223.809528 C65.8996485,223.809528 66.1460315,224.307146 66.4022536,224.063208 C66.6584758,223.809528 67.1610809,223.809528 67.4074638,223.809528 C67.4074638,223.809528 67.663686,223.809528 67.663686,223.555848 C67.9199081,223.302169 67.9199081,223.058231 67.9199081,223.058231 C67.9199081,222.560613 68.4225132,222.306934 68.4225132,221.809316 L68.4225132,220.814081 L68.6787354,220.560401 C68.9349575,220.306721 69.1813405,220.062783 69.4375626,220.062783 C69.6937848,219.809104 69.9401677,219.565166 70.1963899,219.565166 L70.452612,219.311486 L70.452612,219.057806 L70.452612,217.057594 L70.452612,216.803915 C70.452612,216.550235 70.1963899,216.550235 70.1963899,216.306297 C69.4375626,215.808679 68.9349575,215.311062 68.4323524,214.559764 C68.1761303,214.306085 67.9297473,214.306085 67.6735252,214.062147 C67.417303,213.808467 66.9146979,213.564529 66.6683149,213.310849 L65.6631047,212.315614 C65.4068826,211.817996 64.9042775,211.320379 64.6578945,210.569081 C64.4016724,210.071464 64.1552894,209.573846 63.6526843,209.066487 C63.3964621,208.812807 63.3964621,208.568869 63.1500792,208.31519 C62.3912519,207.066275 60.8834366,206.568657 59.6221051,206.812595 C59.6221051,206.812595 59.8783273,207.066275 59.6221051,207.066275 L58.6168949,207.066275 L56.3502523,207.066275 C56.0940302,207.066275 55.5914251,207.319954 55.3450421,207.319954 C55.08882,207.319954 54.5862149,207.573634 54.3398319,207.319954 C54.0836098,207.066275 53.8372268,207.066275 53.8372268,206.822337 C53.5810046,206.568657 53.3346217,206.324719 53.0783995,206.071039 C52.8221774,205.81736 52.3195723,205.81736 52.0731893,206.071039 C51.8169672,205.81736 51.5705842,205.319742 51.3143621,205.075804 C51.0581399,204.822124 51.0581399,204.822124 50.811757,204.578186 C50.5555348,204.578186 50.5555348,204.324507 50.3091518,204.324507 C49.8065467,204.070827 49.8065467,203.57321 49.5503246,203.075592 C49.5503246,202.821912 49.2941025,202.577974 49.0477195,202.577974 C48.7914973,202.324295 48.7914973,202.324295 48.7914973,202.080357 C48.2888922,201.329059 48.0326701,200.333824 47.530065,199.582527 C46.2686326,197.582314 46.5248548,195.084435 45.5098054,193.084172 C44.1498299,191.581578 44.406052,189.834995 43.9034469,187.834733 L43.9035983,187.834933 Z" id="Fill-1"></path>
            <path d="M14.49415,175.59766 C14.18947,175.59766 14.18947,175.90234 13.89649,175.90234 L13.89649,177.40234 L14.20117,177.40234 L14.79883,176.80468 C14.79883,176.80468 15.10351,176.80468 15.10351,176.5 C15.09178,176.19532 14.7871,175.59766 14.49415,175.59766 Z" id="Fill-2"></path>
            <path d="M13.34766,173.29298 C13.04298,173.89064 12.75,174.4883 12.75,175.09766 L12.75,175.40234 C13.05468,175.40234 13.05468,175.70702 13.34766,175.70702 C13.65234,175.70702 13.94532,175.40234 14.25,175.10936 L14.25,174.5117 L14.25,174.20702 L13.94532,173.90234 C13.94532,173.59766 13.65234,173.29298 13.34766,173.29298 Z" id="Fill-3"></path>
            <path d="M40.668935,165.85936 L40.668935,164.95702 L40.668935,164.65234 C40.668935,164.65234 40.668935,164.34766 40.364255,164.34766 C40.059575,164.04298 40.059575,163.75 40.059575,163.44532 C40.059575,163.44532 39.754895,163.14064 39.461915,163.14064 C39.157235,163.14064 38.864255,163.14064 38.559575,163.44532 C38.254895,163.75 38.254895,164.04298 38.559575,164.34766 C38.864255,164.34766 38.864255,164.65234 38.864255,164.65234 C38.864255,164.95702 38.864255,165.25 39.168935,165.25 C39.473615,165.25 39.766595,165.25 40.071275,165.55468 C40.364255,165.85936 40.364255,165.85936 40.668935,165.85936 Z" id="Fill-4"></path>
            <path d="M40.54883,167.14649 C40.24415,167.14649 39.95117,167.45117 39.64649,167.45117 L39.34181,167.45117 C39.03713,167.45117 38.74415,167.45117 38.74415,167.14649 C38.43947,167.14649 38.14649,167.14649 38.14649,167.45117 L38.14649,168.04883 L38.14649,168.95117 C38.14649,169.25585 38.14649,169.54883 38.45117,169.85351 L39.04883,169.85351 C39.35351,169.85351 39.64649,169.54883 39.64649,169.54883 C39.64649,169.54883 39.64649,169.24415 39.95117,169.24415 C39.95117,169.24415 40.25585,168.93947 40.54883,168.93947 C40.85351,168.63479 40.85351,168.34181 40.85351,168.03713 C40.85351,167.74415 40.85351,167.14649 40.54883,167.14649 Z" id="Fill-5"></path>
            <path d="M79.109345,135.542558 C79.109345,135.265968 78.804665,135.265968 78.804665,135 L78.499985,135 L78.195305,135 C77.890625,135.27659 77.890625,135.542558 77.890625,135.819147 L77.890625,136.904263 L77.890625,137.180853 C78.195305,137.180853 78.488285,137.457442 78.488285,137.72341 C78.488285,137.72341 78.488285,138 78.792965,138 L79.097645,138 L79.097645,136.638295 L79.097645,136.095737 C79.109375,135.808499 79.109375,135.542558 79.109375,135.542558 L79.109345,135.542558 Z" id="Fill-6"></path>
            <path d="M74.4951534,128.479976 C74,128.23529 73.7475767,128 73.2524233,128 L73,128.244686 C73,128.244686 73,128.489372 73.2524233,128.489372 C73.5048466,128.734058 73.5048466,129.214034 73.5048466,129.69401 C73.5048466,130.173986 73.5048466,130.653962 74,130.898648 C74.2524233,131.143334 74.7475767,130.898648 74.9903067,130.653962 C74.9903067,130.653962 74.9903067,130.409276 75.24273,130.409276 L75.4951534,130.653962 C75.4951534,130.653962 75.4951534,130.898648 75.7475767,130.898648 C76,130.898648 76,130.898648 76,130.653962 C76,130.409276 76,130.409276 75.7475767,130.173986 C75.4951534,129.9293 75.2524233,129.449324 75.2524233,129.214034 C74.9902819,128.959928 74.7475518,128.715242 74.4951285,128.479952 L74.4951534,128.479976 Z" id="Fill-7"></path>
            <path d="M35.408175,211.2905 C35.408175,210.720664 35.408175,209.860332 35.103495,209.290496 C35.103495,209.290496 34.798815,209.290496 34.798815,209 L34.798815,209.569836 L34.798815,209.860332 L34.494135,209.860332 C34.189455,209.860332 34.189455,210.150828 33.896475,210.430168 C33.896475,210.720664 33.896475,210.720664 33.591795,211.000004 C33.591795,211.2905 33.591795,211.56984 33.896475,211.860336 C34.201155,212.150832 34.201155,212.72066 34.494135,213 C34.798815,213 35.091795,213 35.091795,212.709504 C35.396475,212.709504 35.396475,212.419017 35.396475,212.139677 C35.408205,211.860336 35.408205,211.56984 35.408205,211.2905 L35.408175,211.2905 Z" id="Fill-8"></path>
            <path d="M27.95117,212.19532 L27.04883,212.19532 L26.74415,212.5 L27.04883,212.80468 L27.35351,212.80468 C27.35351,212.80468 27.65819,212.5 27.95117,212.5 L28.25585,212.5 L28.25585,212.19532 C28.25585,212.5 28.25585,212.19532 27.95117,212.19532 Z" id="Fill-9"></path>
            <path d="M30.65819,201.90234 L30.35351,201.90234 L30.04883,202.20702 C30.04883,202.5117 30.04883,202.80468 29.74415,203.10936 C30.04883,203.10936 30.34181,203.10936 30.34181,202.80468 C30.34181,202.80468 30.34181,202.5 30.64649,202.5 L30.95117,202.5 C30.95117,202.5 31.25585,202.5 31.25585,202.19532 L31.25585,201.89064 C30.96287,202.19532 30.65819,201.90234 30.65819,201.90234 Z" id="Fill-10"></path>
            <path d="M15.9153667,189.740236 C15.9153667,189.519528 15.6106867,189.307296 15.3177067,189.086588 C15.0130267,188.86588 14.7200467,188.86588 14.4153667,188.43294 C14.1106867,188.212232 14.1106867,188 13.8177067,188 C13.5130267,188 13.5130267,188.220708 13.5130267,188.220708 L13.5130267,188.653648 C13.8177067,189.307296 13.5130267,189.960944 13.2083467,190.606116 C13.2083467,190.826824 12.9036667,191.039056 13.2083467,191.259764 L13.5130267,191.480472 L13.5130267,191.913412 L13.5130267,192.56706 C13.5130267,192.787768 13.8177067,193 14.1106867,193 L14.4153667,193 L14.4153667,192.779292 C14.7200467,192.558584 15.0130267,192.558584 15.3177067,192.346352 C15.6223867,192.346352 15.6223867,192.125644 15.6223867,191.913412 C15.9270667,191.692704 15.9270667,191.480472 15.9270667,191.047532 C15.9270667,190.826824 15.6223867,190.614592 15.6223867,190.393884 C15.9153667,190.606116 15.9153667,190.173176 15.9153667,189.740236 Z" id="Fill-11"></path>
            <path d="M18.5677067,188.834633 C18.2630267,188.834633 18.2630267,189.139313 17.9700467,189.432293 C17.9700467,189.736973 17.6653667,189.736973 17.9700467,190.029953 C18.2747267,190.334633 18.5677067,190.029953 18.5677067,190.029953 C18.8723867,189.725273 19.1653667,189.725273 19.1653667,189.432293 L18.5677067,188.834633 Z" id="Fill-12"></path>
            <path d="M18.2095075,190.250813 C17.9048275,189.996748 17.6118475,189.752439 17.3071675,189.254065 C17.3071675,189.254065 17.0024875,189 16.7095075,189 C16.7095075,189.254065 16.7095075,189.498374 17.0141875,189.752439 C17.3188675,190.006504 17.3188675,190.006504 17.3188675,190.250813 L17.3188675,190.749187 C17.3188675,191.003252 17.3188675,191.501626 17.6235475,191.745935 C17.6235475,191.745935 17.9282275,191.745935 17.9282275,192 C17.9047975,191.501626 18.5024575,190.749187 18.2094775,190.250813 L18.2095075,190.250813 Z" id="Fill-13"></path>
            <path d="M26.5787833,195.89649 L25.9811233,195.89649 L25.9811233,196.79883 C26.2858033,197.10351 26.5787833,197.10351 26.8834633,197.10351 C26.8834633,197.10351 27.1881433,196.79883 26.8834633,196.50585 L26.5787833,196.20117 C26.8717633,196.18944 26.5787833,196.18944 26.5787833,195.89649 Z" id="Fill-14"></path>
            <path d="M26.40234,198.491273 C26.40234,198.186593 26.09766,197.893613 26.09766,197.588933 C26.09766,197.588933 25.79298,197.588933 25.79298,197.284253 C25.4883,196.979573 25.4883,196.686593 25.19532,196.686593 C24.89064,196.381913 24.59766,196.381913 24.59766,196.381913 C24.59766,197.284253 24.90234,197.881913 25.5,198.479573 C25.5,198.784253 26.10936,198.491273 26.40234,198.491273 Z" id="Fill-15"></path>
        </g>
    </g>
</svg>