<?xml version="1.0" encoding="UTF-8"?>
<svg width="379px" height="240px" viewBox="0 0 379 240" version="1.1" xmlns="http://www.w3.org/2000/svg" xmlns:xlink="http://www.w3.org/1999/xlink">
    <!-- Generator: Sketch 53.2 (72643) - https://sketchapp.com -->
    <title>country-japan</title>
    <desc>Created with Sketch.</desc>
    <g id="country-japan" stroke="none" stroke-width="1" fill="none" fill-rule="evenodd">
        <path d="M132.533881,206.759126 C131.763793,208.202901 129.772045,208.431785 128.692282,207.208104 L120.584205,198.03495 C120.20358,197.612385 120,197.066566 120,196.503146 L120,186.185573 C120,185.375645 120.42488,184.627356 121.124154,184.204791 L131.551512,177.892683 C131.737394,177.787053 131.940997,177.699002 132.153414,177.637386 L148.918401,173.086079 C149.670791,172.874797 150.476296,173.059666 151.069361,173.561471 L159.186276,180.436998 C159.974083,181.11486 160.221919,182.224099 159.788178,183.174769 L153.414973,196.925824 C152.866163,198.123091 151.423337,198.624896 150.228483,198.035062 L142.722263,194.320096 L137.420209,197.594919 L132.533881,206.759126 Z M251.447027,22.7104196 L252.974288,14.5664497 C253.142025,13.638767 253.848275,12.9073305 254.766399,12.7021557 L275.591829,8.05472199 C277.021979,7.74251821 278.390385,8.80401563 278.443269,10.2758171 L278.990618,26.8848207 L284.825933,33.806647 C285.046644,34.0831593 285.214359,34.395363 285.302657,34.7432583 L289.928647,52.7438431 C290.061128,53.2790561 290.008018,53.8410092 289.77856,54.3405307 L285.15257,64.2149571 C285.037808,64.4558007 284.878907,64.6788099 284.69352,64.8750333 L280.173523,69.4153696 L280.173523,80.057061 C280.173523,81.6269857 278.663912,82.7598433 277.163206,82.3049191 L272.978593,81.0471982 L269.994718,85.168279 L272.581286,94.5254866 C272.669584,94.8465961 272.687235,95.1944914 272.63426,95.5245295 L270.321378,110.04639 L270.206615,110.51022 L264.176941,126.486001 L267.867065,135.495199 C268.264328,136.458574 267.981828,137.573574 267.160816,138.233605 L261.952198,142.425931 L259.851101,149.285417 C259.630389,149.990091 259.091877,150.560973 258.394464,150.810745 L250.281523,153.709682 C248.754262,154.253801 247.156398,153.120966 247.156398,151.488587 L247.156398,141.069996 L245.708598,141.069996 L237.392483,147.956199 L237.392483,154.976217 C237.392483,155.529265 237.198259,156.064455 236.845134,156.48371 L231.071517,163.450294 C229.764967,165.029147 227.2137,164.288782 226.948828,162.255005 L225.933592,154.432099 L220.707346,161.086524 C220.265946,161.648477 219.586184,161.978515 218.871098,161.978515 L206.158609,161.978515 C205.699558,161.978515 205.249321,161.844723 204.860872,161.586045 L194.620369,154.717654 L191.583384,158.981455 L197.604245,162.870529 C199.096205,163.833881 199.02558,166.046001 197.480645,166.91123 L187.504788,172.477326 L176.822681,186.606648 C175.984018,187.721649 174.368549,187.855463 173.353132,186.892089 L162.953524,177.017662 C162.485637,176.571667 162.220788,175.956188 162.220788,175.305017 L162.220788,166.590166 C162.220788,166.063881 162.397362,165.546526 162.723999,165.136199 L165.813868,161.211273 L154.981698,159.159661 L142.91376,164.128159 L142.551798,164.244116 L122.847327,168.766641 L114.60195,175.403026 C114.187037,175.733065 113.674989,175.920382 113.136477,175.920382 L102.886934,175.920382 L101.739284,180.505247 L105.632583,180.505247 C106.577194,180.505247 107.424693,181.076129 107.795469,181.950286 L113.569086,195.892358 C113.869236,196.614889 113.789797,197.444449 113.357211,198.104525 L105.544398,209.88798 L102.737028,226.238493 C102.613429,226.943166 102.189679,227.549739 101.562891,227.897612 L91.1632839,233.70462 C90.6424221,233.998989 90.0156343,234.079255 89.4329842,233.918701 L78.4595657,231.019764 C77.2236179,230.689726 76.4732308,229.432005 76.7734037,228.192073 L80.3399067,213.349149 L74.7427954,211.190503 C73.383271,210.664219 72.8270855,209.040769 73.5774952,207.783025 L76.6497366,202.636184 L72.1209265,202.636184 C71.2028022,202.636184 70.3641395,202.092065 69.9845277,201.253577 L64.2109108,188.479985 C63.7076996,187.364984 64.1314583,186.044832 65.1996599,185.447233 L79.8455773,177.213977 L88.1352481,173.565587 L91.2780014,164.110416 C91.534014,163.334382 92.1696385,162.754572 92.9553494,162.558325 L104.39659,159.81992 L120.092954,142.91657 L120.446079,142.604366 L128.532578,136.797358 C129.327103,136.235404 130.386477,136.217547 131.198698,136.75276 L133.961998,138.617054 L156.695319,136.387054 L167.545117,134.085715 C169.001754,133.78244 170.370115,134.89744 170.370115,136.395959 L170.370115,138.688392 L174.139792,138.688392 L178.147672,135.459257 L176.717523,128.751397 C176.523299,127.859405 176.867609,126.9317 177.600323,126.378584 L184.141888,121.44571 L188.79432,113.123396 L188.79432,109.671389 C188.79432,109.457308 188.829644,109.252156 188.882596,109.046981 L191.769291,98.5927674 C192.051791,97.5669615 192.978752,96.862288 194.029289,96.862288 L202.698416,96.862288 C204.393414,96.862288 205.523413,98.6195304 204.834815,100.171575 L200.915074,109.046958 L202.459986,110.402802 L204.38451,108.146039 C204.614035,107.869526 204.896535,107.655446 205.223173,107.521631 L214.422043,103.472025 L221.237293,100.314364 L227.222672,89.3694202 C227.434547,88.9858562 227.75237,88.6647466 228.13196,88.450666 L237.33083,83.3127308 L237.33083,75.409673 C237.33083,74.7495968 237.604493,74.1162606 238.090054,73.670265 L244.419856,67.8365392 L247.059534,50.8706204 L244.561106,46.3480957 C244.207982,45.7147824 244.163844,44.9654887 244.446344,44.2964839 L247.024097,38.0791256 L244.349164,28.4097599 C244.049013,27.3215223 244.552224,26.179759 245.558624,25.6713546 L251.447027,22.7104196 Z" id="Fill-1" fill="#E6F4F4"></path>
    </g>
</svg>