<?xml version="1.0" encoding="UTF-8"?>
<svg width="379px" height="240px" viewBox="0 0 379 240" version="1.1" xmlns="http://www.w3.org/2000/svg" xmlns:xlink="http://www.w3.org/1999/xlink">
    <!-- Generator: Sketch 53.2 (72643) - https://sketchapp.com -->
    <title>country-germany</title>
    <desc>Created with Sketch.</desc>
    <g id="country-germany" stroke="none" stroke-width="1" fill="none" fill-rule="evenodd">
        <path d="M261.382626,116.372619 C259.125765,111.783885 257.525153,110.284225 255.576563,105.894072 C254.254267,104.543285 253.140751,103.043499 252.22609,101.384923 C252.027235,99.607046 255.874858,95.7831938 254.194633,93.7966153 C248.060242,86.5459725 253.906315,79.3055002 244.312212,73.9122689 C238.426485,70.6047797 245.395898,67.2377923 246.101778,63.2252241 C246.946854,58.4379081 245.992412,53.8392573 244.481212,49.2505228 C243.367696,45.8736191 235.085938,44.5725411 235.672601,41.5630514 C236.805995,35.6930717 228.04699,31.9487539 229.140654,35.6732389 C226.903671,33.4782134 221.246527,25.8898547 218.47279,26.8733547 C217.389104,27.2507868 207.655779,28.2638834 210.867032,31.5714235 C203.261273,30.9159009 219.82479,25.3637788 219.347568,25.6617783 C218.979714,24.3308495 217.647465,24.3507331 215.340948,25.7213782 C211.940843,23.724985 209.862959,24.8075979 209.097369,28.969115 C206.055116,33.3493515 195.456736,33.6671837 194.601811,38.1862493 C195.138691,37.5307267 195.715326,36.8553205 196.252206,36.2593978 C195.178446,38.1663911 194.283663,40.1527154 193.547954,42.2188791 C192.374779,41.9308468 181.85591,39.4178873 181.676984,39.0802223 C182.233742,40.0734607 186.697859,29.8928371 186.976047,28.0155929 C184.132573,27.5487863 171.605456,27.7275606 171.217825,29.3961797 C172.440707,23.4567855 168.264908,27.5090446 165.322172,25.6218586 C175.850815,24.8173362 162.399289,12.7595701 161.872182,13.5938161 C155.737792,16.2158048 152.377392,13.2263258 144.910854,12.441687 C143.389703,16.6729238 148.738549,19.4240795 150.528065,22.4137364 C154.047538,28.2638834 142.087233,27.5885535 144.135338,30.7668757 C143.588532,29.922637 155.280423,39.3880111 147.585329,38.7325139 C148.579526,40.9473976 149.981386,42.8742491 151.075024,44.4138284 C147.326738,45.0991509 145.378149,40.7190924 142.83297,44.4734029 C141.152745,46.9564607 141.550429,50.6314657 142.693774,53.2137889 C134.720237,50.1348846 140.556231,53.2435888 137.404638,56.0941116 C135.515631,57.05755 134.372312,56.2828276 133.9745,53.760028 C138.209932,54.0182604 133.03001,47.7608813 131.309952,47.750965 C126.607225,47.7311068 116.128468,52.5581137 115.88973,52.5085319 C115.720705,57.8122617 115.223606,57.5244328 120.413277,58.7858454 C115.581509,60.4445227 118.5541,80.3786035 112.598814,78.412112 C105.46035,76.0482285 110.242538,88.4436597 113.821696,83.7755943 C118.743054,88.4238269 111.147222,93.0423105 108.293821,96.2206327 C115.114138,99.091039 101.413948,100.382201 102.408095,102.209863 C97.0095156,96.8364644 93.2513042,102.895186 96.4427042,107.960592 C98.6896138,111.516245 95.6274579,121.448629 97.2679022,120.932215 C96.6614369,121.548021 90.2686598,125.034285 91.5710279,126.245861 C94.5636494,129.046853 92.8336658,129.1361 93.49979,132.225175 C93.6886932,133.099214 96.9696327,136.605411 96.1841904,136.923244 C97.6456831,138.810379 98.1328304,143.101139 100.588623,146.617126 C91.6804961,145.78283 94.9016747,158.61542 99.683888,161.58499 C100.379842,164.485145 101.841334,163.015235 99.4154479,167.325802 C96.9696836,171.646287 101.006185,172.093286 102.060143,175.371026 C103.054341,178.44993 110.958344,183.465831 111.992196,181.60842 C114.756006,184.389579 117.957586,179.900059 119.309586,182.601633 C121.198592,186.38587 130.156375,187.190367 133.775365,187.895446 C127.452122,192.017348 113.433785,220.382984 119.77688,226.72183 C123.097576,230.039246 125.135755,229.562497 130.931891,228.748008 C132.651872,228.509634 139.511944,228.638755 139.492092,228.469917 C142.812787,224.68567 137.662744,228.231543 137.036401,226.384139 C134.80937,219.809081 145.338012,226.443739 145.974307,226.672172 C154.763064,229.721337 148.549264,222.838352 149.016559,222.123103 C152.34718,223.275232 159.117866,230.655001 162.517971,229.770919 C164.844417,229.165054 165.430928,231.131648 167.479034,230.277467 C168.682038,232.839958 172.638875,235.412365 172.628949,235.412365 C172.290924,236.415519 171.962825,237.428616 171.624799,238.441687 C178.753337,237.806023 175.532158,231.161295 177.59019,229.045804 C177.739312,230.644907 192.831486,233.753789 192.692264,234.498533 C195.84396,233.833069 198.577991,229.373552 200.814949,228.549223 C206.929233,226.294587 209.126486,229.403403 213.173066,223.781729 C213.163114,228.241307 220.361161,224.834542 222.558414,225.440407 C226.227035,226.443561 231.058803,236.782959 228.205657,223.871104 C228.106242,223.444013 224.566814,216.729795 223.622298,213.283223 C223.025759,211.127913 236.218899,202.367593 237.044046,197.768942 C243.496584,203.251421 243.208215,195.107034 241.458404,190.78655 C239.191617,185.18482 233.703498,186.287317 229.607542,180.894085 C224.010184,176.216104 220.420972,173.405195 216.404425,167.783633 C214.475663,165.072143 215.340617,163.443317 215.459935,160.195326 C215.619008,155.78534 208.619766,153.510933 207.903807,147.849451 C211.095207,147.283303 210.439035,151.017857 212.497092,152.030852 C210.926233,145.594876 251.769205,131.361841 250.496615,128.15377 C250.088979,127.120815 246.07233,126.832783 248.547975,124.349699 C251.580301,121.320377 255.179439,130.428177 256.362438,130.199846 C261.01528,129.256291 261.492501,119.661801 261.383313,116.374145 C260.687359,114.953842 261.492679,119.800885 261.383313,116.374145 L261.382626,116.372619 Z" id="Fill-1" fill="#E6F4F4"></path>
    </g>
</svg>