<?xml version="1.0" encoding="UTF-8"?>
<svg width="379px" height="240px" viewBox="0 0 379 240" version="1.1" xmlns="http://www.w3.org/2000/svg" xmlns:xlink="http://www.w3.org/1999/xlink">
    <!-- Generator: Sketch 53.2 (72643) - https://sketchapp.com -->
    <title>country-bulgaria</title>
    <desc>Created with Sketch.</desc>
    <g id="country-bulgaria" stroke="none" stroke-width="1" fill="none" fill-rule="evenodd">
        <polygon id="Path" fill="#E6F4F4" fill-rule="nonzero" points="40.5750861 22.9944035 55.0292662 24.3202748 61.9348483 30.0953327 61.1687015 38.1564935 57.3174457 43.8973796 63.0943294 53.5167809 76.1838106 45.0592256 90.3985699 45.8212598 96.1754535 51.9927123 101.559003 50.4686438 120.018352 57.3645414 135.399433 50.0688321 145.790299 53.1169692 154.62835 49.2692086 165.419391 53.1169692 174.657616 53.1169692 194.649259 55.4440783 201.192289 50.8308663 214.644322 46.6208832 219.258304 38.921945 250.810555 24.3202748 264.659343 22 281.199905 23.5548233 298.633165 30.7548512 304.215091 36.7315236 314.445203 32.8803459 328.293991 39.4550273 330.616373 44.8268564 343.302259 45.4556201 344 47.9433373 342.009386 68.1218683 335.138007 74.5564447 325.438042 73.363844 310.922296 86.2671688 313.343867 109.661279 309.694409 120.145231 294.747706 131.428806 296.775943 137.070593 305.644776 138.300783 316.172454 153.664487 324.240937 166.537057 324.27514 167.299092 312.416966 164.346636 304.711035 170.518088 290.102941 158.97139 274.656874 158.97139 268.510598 165.874122 260.04194 166.670328 251.573282 175.893335 251.474093 176.494761 245.033672 176.494761 232.344365 186.114162 231.578219 198.39214 235.795446 207.615147 228.889864 213.383371 206.175664 211.862719 195.80874 216.838154 186.577355 211.462908 176.183069 211.462908 168.877312 217.237966 158.87978 216.475931 157.350907 207.615147 143.50212 208.011542 130.416059 205.68785 121.184674 214.552051 107.698438 218 90.0291777 217.63436 84.6182659 214.917691 84.286497 215.245742 82.3266662 204.563593 80.4010383 191.885803 66.186279 166.902697 44.6315597 149.980752 45.3977065 149.980752 48.8487874 140.388688 41.939785 129.604024 40.780304 120.777412 59.6398282 103.48641 63.0943294 92.7427515 55.7885724 78.8689436 40.414332 63.1430165 35 41.6078595 43.4686583 33.146887"></polygon>
    </g>
</svg>