<?xml version="1.0" encoding="UTF-8"?>
<svg width="392px" height="516px" viewBox="0 0 392 516" version="1.1" xmlns="http://www.w3.org/2000/svg" xmlns:xlink="http://www.w3.org/1999/xlink">
    <!-- Generator: Sketch 53.2 (72643) - https://sketchapp.com -->
    <title>Croods - Standing(3)</title>
    <desc>Created with Sketch.</desc>
    <g id="Page-1" stroke="none" stroke-width="1" fill="none" fill-rule="evenodd">
        <g id="Desktop-HD-Copy-15" transform="translate(-805.000000, -242.000000)" fill-rule="nonzero">
            <g id="Croods---Standing(3)" transform="translate(805.000000, 242.000000)">
                <g id="Lower-Body" transform="translate(0.000000, 198.000000)">
                    <g id="Lower-Body/Climb">
                        <path d="M268.960352,213.547249 L348.396476,213.547249 C372.239606,213.547249 391.568282,232.901168 391.568282,256.775437 L391.568282,317.2949 L391.568282,317.2949 L225.788546,317.2949 L225.788546,256.775437 C225.788546,232.901168 245.117222,213.547249 268.960352,213.547249 Z" id="Rectangle" fill="#B2DEDE"></path>
                        <g id="shoe-2" transform="translate(273.927441, 138.330131)">
                            <polyline id="SKIN" fill="#FFFFFF" points="15.7596904 6.41653144 3.23555419 60.0872523 36.6335392 58.8532989 61.0857744 0.864634746"></polyline>
                            <path d="M3.23708502,60.951816 C2.9775775,60.951816 2.73147788,60.8315829 2.56712312,60.6232982 C2.39628068,60.4065214 2.33270133,60.1200179 2.39628068,59.8478174 L14.9196807,6.23057903 C15.032134,5.7509877 15.4979499,5.45599206 15.963766,5.57175551 C16.4278519,5.68751895 16.7133101,6.17068599 16.6012894,6.65072425 L4.3456146,59.1223965 L36.0578651,57.9518001 L60.2911093,0.536716946 C60.4818471,0.0839433961 60.9900492,-0.122553525 61.4299146,0.0750041354 C61.8680497,0.272114833 62.0678704,0.799084248 61.8767001,1.2518578 L37.4259022,59.1827366 C37.2926884,59.4978454 36.9968498,59.7065771 36.6638152,59.7186451 L3.2677934,60.951816 C3.25784562,60.951816 3.2470328,60.951816 3.23708502,60.951816" id="Fill-2" fill="#009192"></path>
                            <path d="M2.81719325,54.9446277 C2.92836753,54.4865723 3.35927558,54.196966 3.8044036,54.2798396 C4.22798621,54.3595602 4.76446673,54.4672053 5.39574703,54.5946679 C9.26616318,55.3729568 17.3194037,56.9930408 24.9512163,56.9993465 L24.9706071,56.9993465 C29.4667017,56.9993465 33.420714,55.7139088 36.1044094,53.3785915 C36.3177089,53.1930276 36.60297,53.1272693 36.8727184,53.1993329 C49.9714615,56.7637879 59.435495,59.3391673 66.4489544,64.2282447 C67.6813515,65.0880559 72.1270299,68.8389757 71.3582899,71.4918239 C71.0023599,72.7187099 69.7363519,73.3407104 67.5947389,73.3407104 C59.7763433,73.3407104 42.9317166,73.3862007 28.0701287,73.4267367 C16.0447777,73.4596156 5.65989368,73.4879906 1.74983401,73.4879906 C1.33659318,73.4879906 0.963857721,73.2920674 0.699711081,72.9367028 C-0.839923389,70.8666704 1.66753057,59.6643552 2.81719325,54.9446277" id="Fill-4" fill="#FF7841"></path>
                            <path d="M2.24785463,77.3785275 L69.8443993,77.3785275 C70.9675889,77.3785275 71.878726,76.4649499 71.878726,75.3377861 L71.878726,74.6637359 C71.878726,73.5365721 70.9675889,72.6234268 69.8443993,72.6234268 L2.24785463,72.6234268 C1.12466483,72.6234268 0.213527753,73.5365721 0.213527753,74.6637359 L0.213527753,75.3377861 C0.213527753,76.4649499 1.12466483,77.3785275 2.24785463,77.3785275" id="Fill-6" fill="#009192"></path>
                            <path d="M50.7647572,61.8163798 C51.1026474,61.8163798 51.4265124,61.620946 51.5812198,61.2860417 C52.9995099,58.222061 55.7243106,58.9718794 56.0307497,59.0685031 C56.5059219,59.2167183 57.0112699,58.9434608 57.1591769,58.4555321 C57.3066587,57.9667294 57.0452716,57.4486331 56.5717999,57.2938602 C55.0264284,56.7893176 51.652623,56.8076805 49.9491442,60.4868186 C49.7345096,60.9507003 49.9257684,61.505085 50.3767144,61.7258768 C50.5020948,61.7875241 50.6342761,61.8163798 50.7647572,61.8163798" id="Fill-8" fill="#009192"></path>
                            <path d="M42.5617412,59.2226885 C42.8996513,59.2226885 43.2239599,59.0272413 43.378676,58.6923141 C44.7970485,55.6281233 47.5220072,56.3779932 47.8280387,56.4746237 C48.3036634,56.6232859 48.8090407,56.3495724 48.9565312,55.8616104 C49.1040216,55.3727744 48.8426193,54.8546426 48.36912,54.6998589 C46.8219591,54.1957193 43.4488086,54.2145205 41.7465064,57.8930361 C41.5318591,58.3569498 41.7231289,58.9113725 42.1741008,59.1321795 C42.2994889,59.1938307 42.4312526,59.2226885 42.5617412,59.2226885" id="Fill-10" fill="#009192"></path>
                        </g>
                        <g id="shoe-1" transform="translate(-0.000216, 224.354225)">
                            <polyline id="SKIN" fill="#FFFFFF" points="63.2429612 0.864634746 32.3790705 75.2171181 65.2248835 72.9503447 103.180833 18.0597552"></polyline>
                            <path d="M32.3795926,76.5139637 C32.1004771,76.5139637 31.8373481,76.3742178 31.6748908,76.1359328 C31.5007676,75.8819715 31.4670664,75.5523142 31.5854528,75.265656 L62.4488849,0.54365217 C62.6364021,0.088581881 63.144081,-0.121932917 63.5830614,0.0724573432 C64.0220418,0.267743411 64.2255455,0.793582501 64.0375962,1.24865279 L33.7293708,74.626497 L64.7591486,72.4743194 L102.476464,17.6567137 C102.753852,17.2536002 103.293504,17.1590925 103.681932,17.4475426 C104.070361,17.7346489 104.160663,18.2940808 103.883708,18.6967463 L65.9283227,73.8601338 C65.7779635,74.0787107 65.5407586,74.2157691 65.2823823,74.2336855 L32.4374896,76.5117245 C32.4180466,76.513068 32.3986035,76.5139637 32.3795926,76.5139637" id="Fill-14" fill="#009192"></path>
                            <path d="M68.6300307,70.0744936 C68.5188564,69.6164382 68.0879487,69.3268318 67.6428206,69.4097054 C67.218807,69.489426 66.6827574,69.5970711 66.0510463,69.7245337 C62.1810617,70.5028226 54.1278219,72.1229066 46.4960102,72.1292123 L46.4761883,72.1292123 C41.9805251,72.1292123 38.0265132,70.8437746 35.3423872,68.5084573 C35.1295187,68.3228934 34.8438267,68.2571351 34.5740782,68.3291987 C21.4757675,71.8936537 12.011735,74.4690331 4.99827621,79.3581105 C3.76544842,80.2179217 -0.67979859,83.9688416 0.088941297,86.6216898 C0.444871311,87.8485758 1.71087904,88.4705762 3.85206093,88.4705762 C11.6708867,88.4705762 28.5155117,88.5160665 43.377098,88.5566025 C55.4020166,88.5894814 65.7873305,88.6178564 69.6973898,88.6178564 C70.1101999,88.6178564 70.4833662,88.4219333 70.7475129,88.0665686 C72.2871473,85.9965362 69.7796933,74.794221 68.6300307,70.0744936" id="Fill-16" fill="#FF7841"></path>
                            <path d="M69.6315061,92.5083933 L2.03455497,92.5083933 C0.910927416,92.5083933 0.000215859031,91.595248 0.000215859031,90.4680842 L0.000215859031,89.7936017 C0.000215859031,88.6664379 0.910927416,87.7532926 2.03455497,87.7532926 L69.6315061,87.7532926 C70.7547027,87.7532926 71.6654141,88.6664379 71.6654141,89.7936017 L71.6654141,90.4680842 C71.6654141,91.595248 70.7547027,92.5083933 69.6315061,92.5083933" id="Fill-18" fill="#009192"></path>
                            <path d="M21.114554,76.9462456 C20.776646,76.9462456 20.4527644,76.7508118 20.2980492,76.4159075 C18.8796856,73.3519268 16.1547444,74.1017452 15.8482894,74.1983689 C15.373093,74.3465841 14.8672936,74.0733266 14.7198042,73.5853979 C14.5723147,73.0965952 14.8332902,72.5784989 15.3072115,72.423726 C16.8526626,71.9191834 20.2266423,71.9375463 21.9297837,75.6166844 C22.1444296,76.0805661 21.953161,76.6349508 21.5026169,76.8557426 C21.3772297,76.9173899 21.2450418,76.9462456 21.114554,76.9462456" id="Fill-21" fill="#009192"></path>
                            <path d="M29.3171926,74.7848362 C28.9792829,74.7848362 28.6553996,74.589389 28.5006837,74.2544618 C27.081888,71.190271 24.356933,71.9401409 24.0513266,72.0367714 C23.5757027,72.1854336 23.0699007,71.9117201 22.9224106,71.4237581 C22.7749204,70.9349221 23.0363223,70.4167903 23.5098209,70.2620066 C25.0569799,69.757867 28.4301265,69.7766682 30.1324264,73.4551838 C30.3470735,73.9190975 30.1558038,74.4735202 29.7052575,74.6943272 C29.5798696,74.7559784 29.4476811,74.7848362 29.3171926,74.7848362" id="Fill-23" fill="#009192"></path>
                        </g>
                        <g id="pant" transform="translate(49.220910, -0.000071)" fill="#009192">
                            <path d="M100.09643,1.26987888 C100.09643,1.26987888 79.8640829,59.3935955 72.5748399,76.9587861 C53.7532582,122.312888 0.42666696,247.36143 0.42666696,247.36143 C0.42666696,247.36143 57.4633206,270.505548 87.2427407,255.743204 C103.081672,225.365127 156.231594,87.8494269 161.533411,74.1046376 L166.069372,59.0822176 C166.211485,58.611582 166.696139,58.3479372 167.15142,58.4960421 C167.607132,58.6428092 167.861122,59.1428875 167.719008,59.6135228 L163.675477,73.004555 L233.13516,73.5880539 C237.334197,64.9520026 239.328965,60.335759 239.355747,60.2733051 C239.550126,59.8227437 240.059833,59.6206606 240.496108,59.8205136 C240.931951,60.0203662 241.128491,60.5476567 240.934975,60.9977715 C240.908625,61.0588871 239.020549,65.4279912 235.059952,73.6041136 L235.22064,73.6054519 C235.22064,73.6054519 206.704689,151.722035 207.538362,155.561619 C212.557249,160.060092 256.553609,157.407581 285.846215,151.722482 C296.56691,117.892482 311.793761,54.3566799 312.934987,36.4417469 C315.912885,-10.3055258 198.186965,1.26987888 198.186965,1.26987888 L100.09643,1.26987888 Z" id="Fill-25"></path>
                        </g>
                    </g>
                </g>
                <g id="Upper-Body" transform="translate(95.000000, 58.000000)">
                    <g id="Upper-Body/On-Macbook">
                        <g id="T-Shirt" transform="translate(-0.000029, 13.436583)">
                            <path d="M56.2625738,75.2980542 C56.2643026,75.4438841 56.2681922,75.5836378 56.2694888,75.7307697 C56.2945557,78.2068401 56.1406968,82.1668166 55.8727402,86.9223474 C51.9718107,86.8976084 48.3561253,86.6272155 46.5517402,85.8446817 C48.7973894,82.6876378 52.4930295,78.8652448 56.2625738,75.2980542 Z M161.979232,133.196435 C161.486538,92.4465234 163.204053,48.7131744 146.633098,22.0302068 C128.291469,-7.5042565 70.4906371,-2.41062599 50.0649969,15.1584063 C39.9033912,22.2485177 24.3856788,35.7503711 10.9658072,58.6730102 C1.0311001,75.6422301 -5.0847932,108.558125 10.0089428,119.178101 C23.3302755,125.831591 40.8187656,126.997796 54.0765666,126.287743 C53.8189825,128.938723 53.576525,131.288494 53.3621597,133.196435 L161.979232,133.196435 Z" id="Fill-1" fill="#FF7841"></path>
                            <path d="M48.0574834,85.3613598 C49.9418234,82.926521 52.5652049,80.161829 55.3441742,77.4622395 C55.3095991,79.6844096 55.1885865,82.6096882 55.0070675,85.9820049 C52.2324201,85.9386032 49.7343731,85.7606559 48.0574834,85.3613598 Z M54.8212266,132.274322 C54.9854581,130.776961 55.1626552,129.053911 55.348496,127.165935 C67.0564707,126.432445 73.9239391,124.323119 74.6543369,124.140832 C75.0951687,124.027987 75.3890566,123.61133 75.3458378,123.155612 L71.7413894,86.1295709 C71.6895268,85.6217703 71.248695,85.2485152 70.738713,85.3005973 C67.8257655,85.5740284 62.0819861,85.9776647 56.8481886,85.9950254 C57.0815702,81.6591897 57.2112266,78.0481633 57.1896172,75.721829 L57.1896172,75.6957879 C63.4520223,69.7974888 69.8484056,64.6413598 69.9521308,64.5588964 C70.3497438,64.2420636 70.4102501,63.66048 70.0947528,63.2611838 C69.7792555,62.8618876 69.2001235,62.796785 68.8025105,63.117958 C68.4092194,63.4347908 62.9117872,67.8617703 57.1463984,73.2001867 C56.5413351,73.7557293 55.9362718,74.3242923 55.3355304,74.8971955 C51.839129,78.2304507 48.4248432,81.7676941 46.1774653,84.8014771 C41.483903,83.5645269 37.8146263,81.0949668 37.7714075,81.0689257 C37.3521851,80.7824741 36.7816969,80.8953187 36.4964527,81.3163158 C36.2112086,81.7373128 36.3235775,82.3102161 36.7427999,82.5966677 C36.9243189,82.7225328 40.9998524,85.4742043 46.2725467,86.7285152 C48.0531615,87.4663451 51.3205033,87.7658172 54.9076642,87.83526 C55.5127275,87.8439404 56.1264346,87.8482806 56.7444635,87.8482806 C62.1468143,87.8396002 67.8127998,87.4055826 69.9996715,87.2189551 L73.4355666,122.539307 C68.6123478,123.693794 63.4044816,124.82224 55.530015,125.290979 C54.916308,125.3257 54.298279,125.360421 53.6716064,125.386462 C40.3731797,125.989747 23.0251507,124.626932 10.4787312,118.381418 C1.80471673,112.222709 1.4546444,98.8245856 2.01648889,91.3768436 C2.85493373,80.3267556 6.58903863,67.9746149 11.7580079,59.1423568 C22.3509374,41.0481634 34.3355124,28.8305681 43.8782248,21.0442925 C46.2206841,19.1259347 48.4161995,17.481008 50.4085865,16.0834714 C53.4166154,13.4446444 57.3279174,11.066228 61.8658921,9.04370597 C72.2859463,4.39103735 86.020883,1.60898457 99.7644635,1.86071477 C121.144807,2.25567078 137.943957,9.78587606 145.852999,22.5199523 C160.49553,46.0957879 160.728912,83.6209492 160.95365,119.913501 C160.975259,123.975905 161.00119,128.164175 161.048731,132.274322 L54.8212266,132.274322 Z M147.41363,21.5434127 C139.171371,8.26681447 121.814699,0.42411653 99.7990385,0.0161399904 C88.4973206,-0.192188456 76.7461271,1.62200509 66.7150422,5.12452708 C59.6919861,7.5767265 53.8315159,10.7537353 49.591751,14.3560813 C47.8024924,15.6103922 45.8403586,17.060011 43.7485684,18.7309787 C34.7936318,25.8705681 21.6983334,38.5178409 10.1718777,58.2048788 C-0.343257951,76.1732073 -5.84501201,109.149864 9.48037678,119.935201 C9.51927371,119.961242 9.55817063,119.982943 9.60138944,120.004644 C21.0803045,125.738017 34.2922936,127.413325 45.8014617,127.413325 C47.8500331,127.413325 51.5711724,127.361242 53.4900874,127.265759 C53.2739933,129.479248 53.0665431,131.449688 52.8807022,133.094615 C52.850449,133.355025 52.9325648,133.615436 53.1097619,133.810744 C53.2826371,134.006052 53.5333062,134.118896 53.792619,134.118896 L161.977935,134.118896 C162.224283,134.118896 162.461986,134.019072 162.634861,133.845465 C162.803415,133.667518 162.902818,133.433149 162.899199,133.185759 C162.846633,128.78482 162.81638,124.266697 162.790449,119.90048 C162.565711,83.3561985 162.33233,45.5619463 147.41363,21.5434127 Z" id="Fill-3" fill="#009192"></path>
                        </g>
                        <polygon id="Tie" fill="#FFBC9D" points="100.623754 33.9005935 105.910711 42.1599484 99.4486347 90.2408516 114.429137 108.824183 126.765946 92.0107754 111.198099 42.1599484 114.723025 33.6054616 105.634542 28.5543648"></polygon>
                        <g id="Neck" transform="translate(82.582104, -0.000047)">
                            <path d="M32.3519583,2.49009267 L33.2707901,13.0089431 C33.4207594,19.2379636 23.8356924,30.1213889 23.8356924,30.1213889 C23.8356924,30.1213889 5.25074127,18.3430194 5.10552608,12.3019284 L6.187725,0.922855137" id="Fill-6" fill="#FFFFFF"></path>
                            <path d="M23.8352603,31.0443707 C23.6667069,31.0443707 23.4964248,30.9979308 23.345159,30.9020129 C21.4003127,29.6694029 4.33925664,18.6761713 4.18643493,12.3243238 C4.18582986,12.2874323 4.18712643,12.2505408 4.19058393,12.2140833 L5.27278286,0.835009976 C5.32162011,0.327643407 5.7710957,-0.042139584 6.27545917,0.00386628114 C6.78068702,0.0524762519 7.15107219,0.502986515 7.10309932,1.01035308 L6.02608666,12.329532 C6.08745737,13.6068457 7.37364905,16.6267402 15.0834519,22.7442182 C18.6338769,25.5609924 22.2141228,27.9619777 23.6597919,28.9094381 C24.4857033,27.9250862 26.1872277,25.8300833 27.8610921,23.3648633 C30.8436219,18.9717372 32.3964736,15.4093208 32.3528226,13.0595496 L31.4361518,2.57108036 C31.3920686,2.06284575 31.7659113,1.61537361 32.2715713,1.5706698 C32.7772313,1.52770206 33.2232494,1.90139121 33.2677648,2.40919179 L34.1865966,12.9284762 C34.1883254,12.948007 34.1896219,12.9675378 34.1896219,12.9870686 C34.3465062,19.5029748 24.9252386,30.2774616 24.524168,30.732746 C24.3443778,30.9371683 24.0911156,31.0443707 23.8352603,31.0443707" id="Fill-8" fill="#009192"></path>
                            <path d="M32.8831174,12.7119883 C31.1932621,18.7934428 28.414725,24.6704751 23.9337991,29.2259238 C16.0100632,24.0107683 9.3089872,18.4896305 4.7969438,12.4194604 C-6.28781569,17.1155308 9.88509389,41.6301466 9.88509389,41.6301466 C9.88509389,41.6301466 22.7262657,30.5370909 23.9337991,29.4394604 C25.1413326,30.5370909 40.0946075,37.6467331 40.0946075,37.6467331 C40.0946075,37.6467331 39.783432,13.5604927 32.8831174,12.7119883" id="Fill-13" fill="#FFFFFF"></path>
                            <path d="M25.2326971,29.1976692 C27.2933698,30.3959918 33.3301727,33.3907132 39.1413735,36.1701619 C38.8708237,27.6955343 37.1995525,15.7071003 33.5108273,13.8564493 C31.6606302,20.0945842 28.8795,25.2476751 25.2326971,29.1976692 M4.52181288,13.5808481 C3.35015102,14.244895 2.57783095,15.2366252 2.16941323,16.5942323 C1.19958321,19.820285 2.3405597,25.0601795 5.46873693,31.7479566 C7.22428485,35.5013408 9.15832644,38.739112 10.0892595,40.2360387 C12.563104,38.098068 20.038661,31.634678 22.5626393,29.4224903 C14.482019,24.0176692 8.56579661,18.8233466 4.52181288,13.5808481 M9.88483458,42.5532586 C9.84291234,42.5532586 9.8009901,42.5506545 9.75863567,42.5445783 C9.49759408,42.5081208 9.26464471,42.3609889 9.11856514,42.1400739 C8.65439516,41.4365314 -2.21988876,24.8062792 0.409543425,16.0608246 C1.04658863,13.9436868 2.40236259,12.4324375 4.43969715,11.5691765 C4.8290986,11.4046839 5.28030294,11.5270768 5.53313295,11.8673466 C9.49154344,17.1923085 15.4717297,22.4851531 23.8012903,28.032332 C27.4623554,24.1023026 30.2179865,18.8693525 31.9977369,12.4636868 C32.1200462,12.024461 32.5461836,11.7397455 32.9947948,11.7957337 C40.4759702,12.715851 40.9807659,35.086854 41.0132656,37.6345372 C41.0175019,37.9531062 40.8580245,38.2512762 40.5913644,38.4231472 C40.3234078,38.5954522 39.9871655,38.6171531 39.701057,38.4808716 C37.4359594,37.4036399 26.9895416,32.4150416 24.0121981,30.6012821 C21.3244205,32.9653759 10.9640082,41.9156868 10.4842794,42.3301736 C10.3165905,42.4751355 10.1035217,42.5532586 9.88483458,42.5532586" id="Fill-15" fill="#009192"></path>
                        </g>
                        <g id="Macbook" transform="translate(78.210611, 46.743955)">
                            <path d="M96.735358,78.2225572 L4.75406872,78.2225572 C2.12852622,78.2225572 1.13686838e-13,75.5992168 1.13686838e-13,72.3633196 C1.13686838e-13,69.1274225 2.12852622,66.5040821 4.75406872,66.5040821 L96.735358,66.5040821 C99.3609005,66.5040821 101.489427,69.1274225 101.489427,72.3633196 C101.489427,75.5992168 99.3609005,78.2225572 96.735358,78.2225572" id="Fill-19" fill="#009192"></path>
                            <path d="M154.694976,78.2225572 L63.6437552,78.2225572 C60.345728,78.2225572 57.6726448,75.5377243 57.6726448,72.2257361 L57.6726448,5.99682111 C57.6726448,2.68526686 60.345728,-3.26849658e-13 63.6437552,-3.26849658e-13 L154.694976,-3.26849658e-13 C157.992571,-3.26849658e-13 160.666086,2.68526686 160.666086,5.99682111 L160.666086,72.2257361 C160.666086,75.5377243 157.992571,78.2225572 154.694976,78.2225572" id="Fill-23" fill="#FF976A"></path>
                            <path d="M120.367229,39.7522358 C120.367229,44.9291977 116.430427,48.1982182 111.094201,48.1982182 C105.757975,48.1982182 101.432205,44.001268 101.432205,38.8243062 C101.432205,33.6473443 107.155672,24.8858311 111.395004,31.321444 C114.339502,35.7905232 120.367229,34.5752739 120.367229,39.7522358" id="Fill-43" fill="#FFFFFF"></path>
                            <path d="M108.044423,29.9652258 C107.750103,29.9652258 107.523637,30.0338006 107.386633,30.0750323 C104.793072,30.858868 102.351642,35.668217 102.351642,38.824393 C102.351642,43.4840059 106.273316,47.2751496 111.094374,47.2751496 C116.090901,47.2751496 119.448137,44.251783 119.448137,39.7523226 C119.448137,37.5288504 118.221156,36.8565572 115.869188,35.766739 C114.082955,34.9381994 112.057722,33.9998534 110.628476,31.8306334 C109.605486,30.2772845 108.671528,29.9652258 108.044423,29.9652258 M111.094374,49.1210264 C105.260268,49.1210264 100.513114,44.5022111 100.513114,38.824393 C100.513114,34.929085 103.343081,29.3688856 106.85677,28.3077126 C107.994289,27.9635367 110.198016,27.8311613 112.161447,30.8119941 C113.302423,32.5437243 114.999193,33.3301642 116.639779,34.090563 C118.924325,35.149132 121.286665,36.2441584 121.286665,39.7523226 C121.286665,45.2686862 117.094873,49.1210264 111.094374,49.1210264" id="Fill-45" fill="#009192"></path>
                        </g>
                        <g id="Hand" transform="translate(70.003663, 94.336364)">
                            <path d="M0.919176747,6.67038049 C7.83634674,5.26503151 24.0909399,3.12706082 38.5428766,1.34411654 C65.5308603,-1.98610047 67.518061,15.7513306 60.52958,13.368574 C55.8727536,11.7805037 52.8910881,12.1511547 49.3385022,11.9462984 C53.2519651,12.5717177 55.0299868,15.1424039 54.0074299,16.7743101 C52.5734299,19.0624509 42.8358006,14.9492661 32.1771786,20.4994831 C22.7148531,25.4268849 10.8469688,33.0169846 3.74136481,34.138052 L0.919176747,6.67038049 Z" id="Fill-47" fill="#FFFFFF"></path>
                            <path d="M1.91947602,7.41359221 L4.55279791,33.0423312 C9.65477802,31.8956567 16.9743151,27.8206655 24.0673856,23.8715394 C26.761646,22.3711406 29.3068015,20.9545072 31.7542825,19.6802315 C38.5206189,16.1568767 44.8919353,16.4029646 49.1074977,16.5648532 C50.8241487,16.6308239 52.9595899,16.7128532 53.2297075,16.2827418 C53.4198702,15.9789295 53.421599,15.6147887 53.2344615,15.2007359 C52.8537038,14.3570057 51.5666478,13.2368063 49.1939353,12.8579089 C48.7103169,12.7806538 48.3719136,12.3362198 48.4246405,11.847516 C48.4773675,11.3583781 48.9017762,10.9933693 49.3910131,11.0250526 C50.1793241,11.0701905 50.9576948,11.0871171 51.7105664,11.1036098 C54.354693,11.1613342 57.0891469,11.2203605 60.8249805,12.4946362 C61.3142174,12.661299 62.2079823,12.8553048 62.6928973,12.2784954 C63.1670076,11.7147066 63.2564706,10.4248063 62.3890691,8.81503503 C60.0729733,4.51609075 52.6216188,0.537017421 38.6550294,2.26006727 C20.2792572,4.52737521 7.93250858,6.25953943 1.91947602,7.41359221 M3.74158091,35.0609471 C3.54018127,35.0609471 3.34267132,34.9941083 3.1806008,34.8691113 C2.98092991,34.714601 2.85300224,34.4845717 2.82750315,34.2324075 L0.00488289326,6.76516993 C-0.0435221701,6.29252477 0.272839494,5.85980922 0.737009478,5.76562741 C6.44837477,4.60506436 19.1305013,2.80953355 38.4307238,0.428079007 C45.4200691,-0.435181992 51.3440709,0.00881801005 56.0397943,1.74532241 C59.7691451,3.12506434 62.5973838,5.32336348 64.0054525,7.9361494 C65.1485899,10.0571934 65.1835971,12.1773693 64.0975085,13.4694397 C63.2296749,14.5015336 61.8224706,14.784513 60.2341794,14.2424251 C57.7478015,13.3947887 55.7718377,13.1269998 53.8866333,13.0224016 C54.3291939,13.4468708 54.6758087,13.9229881 54.9087581,14.438601 C55.347429,15.4103664 55.3024814,16.4407242 54.7851523,17.2657916 C53.950165,18.5986597 51.9958105,18.5231406 49.037051,18.409428 C45.0142445,18.2549177 38.9355194,18.0196802 32.6005068,21.3186479 C30.1754995,22.5816391 27.6415809,23.9921963 24.9585574,25.4860849 C17.2707961,29.7659324 9.32112884,34.1920438 3.88420297,35.0496626 C3.83666228,35.0570409 3.78912159,35.0609471 3.74158091,35.0609471" id="Fill-49" fill="#009192"></path>
                        </g>
                        <g id="Finger" transform="translate(176.764955, 118.890329)">
                            <path d="M24.9381659,4.09502321 C24.6624299,3.07247776 23.8758476,1.450554 22.2369905,1.09596163 C20.0401786,0.621146378 19.0301551,2.43186779 18.9294552,4.39536337 C18.8335095,4.03165664 18.7137934,3.65145723 18.5646885,3.25085899 C17.3355457,-0.0520149134 13.4471496,0.462295938 12.9229055,2.90321089 C12.7197771,3.84763318 12.6726686,4.76775047 12.7392256,5.61104666 C12.0710628,3.48219037 10.3254552,1.76434872 8.37023643,2.30209652 C6.90641546,2.70486485 6.08612251,4.14059506 6.13884945,6.09107012 C5.6375113,5.07156279 4.70657821,4.28034872 3.62308272,4.15187952 C1.92976988,3.95136339 0.193238235,5.82631939 1.2265999,9.08405546 C1.98465776,11.4737563 4.89544439,11.1378267 5.98758363,9.52979153 C6.26980244,9.11400267 6.43100859,8.66305839 6.49626898,8.20516983 C6.60345162,8.56453639 6.73008273,8.93128126 6.88739918,9.30627246 C7.88013517,11.6716684 11.9729561,11.4642079 12.7902238,8.99681792 C12.9786578,8.42695282 13.0491044,7.81585604 13.022741,7.20172114 C13.3278657,8.27721675 13.8270429,9.10141616 14.3854299,9.48855985 C16.2274155,10.7650056 19.1014661,9.94080619 19.2181569,6.65355692 C19.5094516,7.54285897 20.0056035,8.25681792 20.6746306,8.5128883 C23.552571,9.61442496 25.9153431,7.71820208 24.9381659,4.09502321" id="Fill-1" fill="#FFFFFF"></path>
                            <path d="M23.5230093,7.5286232 C22.9218357,8.04727422 22.0185627,8.0984883 21.0448429,7.66794285 C20.4211956,7.39277569 19.6579514,4.94448244 20.2491847,3.11119213 C20.5504198,2.17545019 21.0608339,1.94151471 21.5608755,1.94021265 C21.7255391,1.94021265 21.8889062,1.96495166 22.0431974,1.99837101 C23.4348429,2.2991452 23.9599514,3.99789007 24.0515753,4.3364238 C24.4258502,5.72571411 24.2283402,6.91926249 23.5230093,7.5286232 M17.4088448,8.73085194 C16.7182082,9.27163786 15.6896006,9.27120384 14.9073402,8.72911587 C14.5455988,8.4782537 14.1756458,7.87844138 13.9275699,7.05120384 C13.8947236,6.51519211 13.8005066,5.97440619 13.6462155,5.4492449 C13.5986748,4.72877569 13.6423258,3.93278743 13.8216838,3.0981716 C14.0040672,2.24836515 14.7768194,1.89550884 15.3827471,1.85123905 C15.4186187,1.84863494 15.4627019,1.84646172 15.5132679,1.84646172 C16.0042335,1.84559682 17.1270581,2.02441207 17.7040292,3.5742889 C18.5926079,5.9622537 18.4823999,7.89015985 17.4088448,8.73085194 M11.9178954,8.7052449 C11.60672,9.64445897 10.593239,10.0138079 9.82005452,10.0437552 C9.08014855,10.0728343 8.09303101,9.8028754 7.73431491,8.94786073 C6.97236736,7.13062906 6.84011781,5.377632 7.38208164,4.25786661 C7.65133481,3.70145606 8.06537097,3.34295752 8.61295325,3.19235342 C9.55166573,2.93498098 10.3062661,3.47403084 10.7764867,3.971415 C11.2536223,4.4774795 11.6093131,5.12980795 11.8349153,5.82336807 C11.8841847,6.34679329 11.9740798,6.84330941 12.0972534,7.30553815 C12.11238,7.79554402 12.0609496,8.27383141 11.9178954,8.7052449 M5.13427152,9.18700443 C4.94367658,9.66529182 4.34423173,9.97908654 3.6605102,9.95868771 C3.29790442,9.94523317 2.42013046,9.80634754 2.10204004,8.80376689 C1.67590261,7.46091645 1.76190803,6.28906895 2.33715035,5.58856455 C2.61677603,5.24872877 2.98759339,5.06123317 3.37224076,5.06036513 C3.41978145,5.06036513 3.46775433,5.06296924 3.51529501,5.06861147 C4.18043245,5.14760267 4.60484114,5.64368478 4.84211238,6.04558507 C5.37716121,6.94920971 5.49990262,8.26992525 5.13427152,9.18700443 M25.8252751,3.85379623 L25.8252751,3.85336221 C25.6286296,3.12464667 24.802286,0.706734648 22.4308701,0.193725849 C20.8469008,-0.148280016 19.5473113,0.441983914 18.8238285,1.7835323 C17.9780364,0.581303563 16.6685066,-0.0918577286 15.249201,0.0101364063 C13.6673927,0.125585087 12.3924379,1.18024784 12.0453909,2.63984902 C10.9191088,1.48536221 9.49721003,1.03528597 8.12760605,1.41201324 C7.06183029,1.70497512 6.23246139,2.41025371 5.72896229,3.4510279 C5.64252468,3.63027717 5.57078146,3.82081089 5.50595325,4.01525078 C4.98948851,3.5842713 4.38701835,3.31301031 3.73009248,3.23532116 C2.68030767,3.11119213 1.62879411,3.55128597 0.919573496,4.41367892 C-0.0610612224,5.60766132 -0.268511494,7.41187246 0.350814004,9.36408361 C0.810229915,10.8128343 2.0527706,11.7472742 3.59352105,11.8032625 C3.64322268,11.8054326 3.69292431,11.8058666 3.74262594,11.8058666 C4.89397495,11.8036965 5.92474349,11.2815733 6.51597676,10.4491276 C7.23211238,11.3514502 8.39340171,11.8948402 9.71114312,11.8922454 C9.77121727,11.8922454 9.83129141,11.8905 9.89179774,11.8883299 C11.4476748,11.8275675 12.7662806,11.0480719 13.4141305,9.85495751 C13.5589135,10.0059956 13.7088827,10.1409751 13.8636061,10.2486115 C14.5801739,10.7446936 15.3974415,10.9916496 16.2030401,10.9894795 C17.0367308,10.9877434 17.8583203,10.7195206 18.5390165,10.186547 C18.8437091,9.94783727 19.2707109,9.52510414 19.6078176,8.86452936 C19.8187254,9.07459387 20.0495138,9.24516279 20.3045048,9.35757334 C20.9787182,9.65574343 21.65855,9.80244138 22.3038068,9.80113933 C23.2118339,9.79896924 24.0541684,9.50470531 24.7210346,8.92789592 C25.9769731,7.84371997 26.3897127,5.94662906 25.8252751,3.85379623" id="Fill-3" fill="#009192"></path>
                        </g>
                    </g>
                </g>
                <g id="Head" transform="translate(148.000000, 0.000000)">
                    <g id="Head/Curly-Hair-Long">
                        <g id="Curly-Hair-Long" transform="translate(0.088586, 0.216599)">
                            <path d="M70.9673822,35.6217968 C68.3828628,14.085871 53.2955096,12.7345718 43.1168903,14.5941778 C35.005197,16.075801 24.6279011,22.8132465 25.5462954,36.368237 C21.4848461,35.0437819 18.5189194,37.5242668 17.9918446,40.7485941 C17.39366,44.4076232 19.3054373,50.5969288 25.3187439,49.5309567 C25.8979659,59.4871009 34.9112458,73.94137 54.5836751,72.4948174 C69.4801092,71.3994034 73.3200405,55.2240787 70.9673822,35.6217968" id="SKIN" fill="#FFFFFF"></path>
                            <path d="M33.5620551,4.62465479 C34.4946715,-0.595663994 47.2853922,-1.93440711 50.0836721,3.41969941 C63.5992823,-1.70882976 73.2607392,11.1083799 70.8688628,20.2860442 C76.997669,22.695089 76.6559108,35.2737323 75.2289734,35.2737323 C79.3636874,36.3236844 78.6293166,43.9036894 76.0137674,44.1426889 C80.0553922,47.4865159 79.424023,58.9961563 75.7526004,60.1184144 C86.712997,82.3808638 57.4795264,88.8070039 59.3145912,72.4385746 C52.0368224,74.652783 42.9688095,73.240435 36.8447439,69.5060691 C37.0171314,72.2255534 35.8224724,75.2976718 35.1824976,77.0155001 C31.3721307,87.2433329 8.09981944,87.2433329 2.92819471,77.7179938 C-2.24343,68.1926547 -0.0828113889,60.7747969 5.65036559,57.1369833 C-2.34582817,51.3776169 -0.837006661,38.4941628 6.91482783,36.9943549 C3.53991172,27.8370402 6.44938161,18.0510532 16.5465479,18.8676346 C16.4952626,7.92042212 25.6188705,3.09324006 33.5620551,4.62465479 Z M47.0466355,19.3322113 C47.0466355,21.096131 42.1646219,27.1304333 34.9820971,26.4887718 C34.9820971,26.4887718 36.2388019,30.0547124 33.7249613,34.2151207 C28.3938782,41.129218 25.2861627,34.9944666 21.0169865,37.5134859 C17.7967882,39.5501766 18.2217233,44.7882471 20.7135845,47.4795883 C21.8409987,48.5992487 23.3412008,49.0023437 25.1685082,48.6780492 C25.4094197,48.6356181 25.6598126,48.6979658 25.8537485,48.8516701 C26.8553198,53.6688939 28.1646028,60.2950662 34.3097859,65.5197147 C41.5578179,72.1510826 57.9389391,75.2390243 65.3024707,66.2622581 C70.6275203,60.5171798 72.1397896,45.1610342 69.4815745,31.9558835 C68.0899764,28.6804657 65.174042,27.0122325 64.6271427,24.3447046 C58.5504837,26.3601797 50.3120855,25.9990828 47.0466355,19.3322113 Z M22.8907954,39.9724522 C24.9150555,38.6293793 26.0075612,40.8773594 23.9518404,42.4672251 C23.433816,42.8677223 22.9722485,44.1198713 22.3270883,44.0038354 C20.788099,43.7267346 21.834922,40.7621894 22.8907954,39.9724522 Z" id="Combined-Shape" fill="#009192"></path>
                        </g>
                    </g>
                </g>
                <g id="Face" transform="translate(183.000000, 35.000000)" fill="#009192">
                    <g id="Face/Normal-Face">
                        <path d="M24.9627857,22.1027143 C25.0900714,21.7782857 25.4560714,21.6192857 25.7800714,21.7465714 C26.0817857,21.8648571 26.2399286,22.1922857 26.1580714,22.4982857 C25.6737857,24.285 24.6820714,26.0044286 23.2172143,27.2695714 C21.7669286,28.548 19.8885,29.3472857 17.9727857,29.5705714 C17.0149286,29.6961429 16.0497857,29.6862857 15.1026429,29.5872857 C14.1503571,29.4861429 13.2362143,29.2954286 12.3083571,29.0087143 C11.3895,28.7194286 10.5032143,28.3148571 9.68978571,27.8044286 C8.86992857,27.3038571 8.11478571,26.7055714 7.45221429,26.0258571 C6.99878571,25.5604286 7.00821429,24.8164286 7.47321429,24.3625714 C7.90778571,23.9395714 8.58621429,23.9198571 9.04307143,24.2982857 L9.04307143,24.2982857 L9.05164286,24.3055714 C10.2825,25.332 11.6200714,26.1827143 13.0926429,26.7372857 C14.5716429,27.288 16.2019286,27.5785714 17.7597857,27.4675714 C19.3210714,27.3552857 20.8480714,26.8508571 22.1085,25.9067143 C23.3680714,24.9668571 24.3550714,23.6331429 24.9627857,22.1027143 Z M15.7119009,6.97585003 L15.7657286,6.98185714 C16.0211571,7.02428571 16.1981571,7.25528571 16.1784429,7.50857143 L16.1784429,7.50857143 L16.1780143,7.51928571 C16.0777286,8.75871429 16.1158714,10.035 16.2324429,11.2834286 C16.2933,11.907 16.3773,12.5284286 16.5024429,13.1207143 C16.5654429,13.4155714 16.6395857,13.7048571 16.7300143,13.9602857 C16.7758714,14.0837143 16.8251571,14.2037143 16.8740143,14.2885714 C16.8791571,14.2997143 16.8860143,14.3082857 16.8924429,14.3177143 C17.6214429,14.6481429 18.3590143,15.0291429 19.0395857,15.732 C19.3914429,16.0907143 19.6875857,16.6127143 19.8024429,17.1475714 C19.8671571,17.4162857 19.8787286,17.6734286 19.8825857,17.9267143 C19.8800143,18.1864286 19.8483,18.4675714 19.7553,18.7564286 C19.6635857,19.044 19.5015857,19.3362857 19.2834429,19.5724286 C19.0644429,19.8077143 18.8034429,19.9782857 18.5497286,20.0957143 C18.0375857,20.3275714 17.5571571,20.379 17.1105857,20.4012857 C16.6627286,20.4192857 16.2388714,20.3948571 15.8265857,20.3571429 L15.8265857,20.3571429 L15.5193,20.3262857 C15.5060143,20.3275714 15.3165857,20.3022857 15.2724429,20.2855714 C15.2060143,20.2688571 15.1550143,20.2542857 15.1018714,20.2358571 C14.8953,20.1672857 14.7135857,20.085 14.5305857,19.977 C14.2293,19.7995714 14.1290143,19.4121429 14.3064429,19.1112857 C14.4294429,18.9025714 14.6531571,18.7911429 14.8785857,18.8001429 L14.8785857,18.8001429 L14.8974429,18.8014286 C15.0920143,18.81 15.2887286,18.8421429 15.4640143,18.8764286 L15.4640143,18.8764286 L15.5814429,18.8982857 C15.6337286,18.9051429 15.5424429,18.8922857 15.6277286,18.8987143 L15.6277286,18.8987143 L15.9123,18.9077143 C16.2890143,18.9171429 16.6584429,18.9111429 16.9995857,18.873 C17.3390143,18.8357143 17.6535857,18.7581429 17.8605857,18.6527143 C18.0688714,18.537 18.1314429,18.4474286 18.1837286,18.273 C18.2351571,18.1084286 18.2231571,17.7668571 18.1623,17.5345714 C18.0993,17.2984286 17.9874429,17.1085714 17.7903,16.8994286 C17.3960143,16.4841429 16.7364429,16.1198571 16.0863,15.7577143 L16.0863,15.7577143 L16.0095857,15.7161429 C15.6230143,15.4371429 15.5373,15.1924286 15.4301571,14.9884286 C15.3388714,14.7818571 15.2844429,14.5958571 15.2330143,14.4124286 C15.1395857,14.049 15.0847286,13.7048571 15.0410143,13.3637143 C14.9565857,12.6831429 14.9248714,12.0175714 14.9163,11.3532857 C14.9055857,10.0255714 14.9758714,8.71157143 15.1953,7.38985714 C15.2398714,7.11942857 15.4953,6.93685714 15.7657286,6.98185714 L15.7119009,6.97585003 Z M4.15088571,6.2646 C5.03417143,6.15831429 5.96888571,6.07431429 6.90017143,6.32202857 C7.81688571,6.5706 8.72245714,7.12731429 9.2226,7.95617143 C9.41117143,8.26774286 9.31088571,8.67317143 8.99931429,8.86131429 C8.81417143,8.97317143 8.59645714,8.98302857 8.41088571,8.90845714 L8.41088571,8.90845714 L8.3496,8.88317143 C7.91545714,8.70445714 7.51731429,8.5716 7.11445714,8.47045714 C7.11617143,8.47774286 7.11831429,8.48331429 7.1196,8.4906 C7.18002857,8.79188571 6.9126,9.43302857 6.71417143,9.71288571 C6.05202857,10.6463143 4.55074286,10.4924571 4.07974286,9.4686 C3.88088571,9.03531429 3.91002857,8.63288571 4.07545714,8.2956 C3.83845714,8.34445714 3.60274286,8.40231429 3.37174286,8.46231429 L3.37174286,8.46231429 L2.8776,8.58788571 C2.74431429,8.62217143 2.64145714,8.64145714 2.51502857,8.70488571 C2.2686,8.8116 2.00288571,9.0066 1.73074286,9.2496 C1.59102857,9.36788571 1.45645714,9.50545714 1.30088571,9.6456 C1.14188571,9.7866 0.998742857,9.94174286 0.748457143,10.1123143 C0.529457143,10.2610286 0.2316,10.2040286 0.0828857143,9.98545714 C-0.00411428571,9.85731429 -0.0208285714,9.7026 0.0241714286,9.56631429 L0.0241714286,9.56631429 L0.0828857143,9.39145714 C0.119742857,9.28088571 0.204171429,9.10217143 0.280457143,8.91874286 C0.3576,8.73188571 0.452742857,8.54074286 0.559885714,8.34274286 C0.779742857,7.95402857 1.06088571,7.54645714 1.48002857,7.20102857 C1.67974286,7.03002857 1.93988571,6.87231429 2.17945714,6.75788571 C2.39802857,6.65631429 2.61145714,6.57488571 2.82917143,6.51231429 C3.26417143,6.38545714 3.70731429,6.32374286 4.15088571,6.2646 Z M26.1044464,6.29515714 L26.2802143,6.29558571 C26.4092143,6.30801429 26.5407857,6.31358571 26.6659286,6.3363 C27.1733571,6.41172857 27.6405,6.5853 28.0532143,6.81758571 C28.8717857,7.2903 29.5232143,7.97858571 29.8682143,8.82415714 C29.9929286,9.12972857 29.8459286,9.47858571 29.5403571,9.6033 C29.3260714,9.69072857 29.0912143,9.64487143 28.9266429,9.50472857 L28.9266429,9.50472857 L28.8820714,9.46658571 C28.3840714,9.04015714 27.8235,8.71444286 27.2603571,8.54687143 C27.0679286,8.48515714 26.8802143,8.45601429 26.6980714,8.43758571 C26.7520714,8.59444286 26.7837857,8.76415714 26.7842143,8.94415714 C26.7859286,9.51715714 26.1465,10.0983 25.5696429,10.2333 C24.6516429,10.4480143 23.8510714,9.86301429 23.6895,9.11944286 C23.6886429,9.11987143 23.6882143,9.1203 23.6873571,9.1203 C23.3633571,9.2523 23.0389286,9.39972857 22.7093571,9.54972857 L22.7093571,9.54972857 L22.2079286,9.78115714 L21.9413571,9.90287143 C21.8290714,9.94658571 21.7875,9.98044286 21.4956429,10.0794429 C20.9796429,10.2380143 20.4323571,9.94872857 20.2737857,9.43272857 C20.1152143,8.91672857 20.4049286,8.36987143 20.9209286,8.2113 C20.8065,8.24087143 20.9307857,8.1813 20.9873571,8.13587143 L20.9873571,8.13587143 L21.2217857,7.98287143 C21.3833571,7.87744286 21.5543571,7.77458571 21.7270714,7.67301429 C22.0733571,7.47158571 22.4312143,7.27958571 22.8070714,7.10901429 C23.5532143,6.76487143 24.3636429,6.48887143 25.2469286,6.35644286 C25.4749286,6.3363 25.6922143,6.2973 25.9296429,6.29858571 C26.0466429,6.29558571 26.1619286,6.29344286 26.2802143,6.29558571 L26.1044464,6.29515714 Z M27.7978286,0.440914286 C28.2272571,0.363771429 28.6382571,0.6492 28.7154,1.07905714 C28.7651143,1.35162857 28.6635429,1.62077143 28.4758286,1.7982 C28.0125429,2.22805714 27.5364,2.48091429 27.0032571,2.69134286 C26.4748286,2.89277143 25.9116857,2.99905714 25.3451143,3.07362857 C24.7776857,3.14305714 24.1926857,3.12977143 23.6196857,3.04748571 C23.0449714,2.97077143 22.4839714,2.77491429 21.9735429,2.51862857 C21.6739714,2.36777143 21.5526857,2.00305714 21.7031143,1.70348571 C21.8154,1.47891429 22.0485429,1.35462857 22.2842571,1.3692 L22.2842571,1.3692 L22.3549714,1.37434286 C22.8225429,1.40391429 23.2644,1.44377143 23.7139714,1.40177143 C24.1601143,1.36748571 24.6024,1.31477143 25.0412571,1.20505714 C25.4826857,1.11248571 25.9125429,0.963771429 26.3479714,0.827057143 C26.7769714,0.695914286 27.2428286,0.5412 27.6675429,0.464485714 L27.6675429,0.464485714 L27.7978286,0.440914286 Z M3.09368631,0.483822129 L3.15831429,0.488828571 L3.2706,0.502542857 C3.71331429,0.556971429 4.19502857,0.686828571 4.64417143,0.802114286 C5.09931429,0.922542857 5.55017143,1.06011429 6.01088571,1.14925714 C6.46945714,1.2534 6.93274286,1.32025714 7.3986,1.36954286 C7.86831429,1.4304 8.33331429,1.42482857 8.81888571,1.43982857 L8.81888571,1.43982857 L8.87245714,1.44154286 C9.20031429,1.45182857 9.45745714,1.72568571 9.4476,2.05311429 C9.43945714,2.30211429 9.27917143,2.51082857 9.05888571,2.59182857 C8.53388571,2.78554286 7.97717143,2.92868571 7.41617143,2.97797143 C6.8556,3.03582857 6.28945714,3.03497143 5.73317143,2.97582857 C5.17817143,2.9094 4.62317143,2.82325714 4.09345714,2.65011429 C3.55817143,2.46968571 3.07131429,2.24682857 2.58488571,1.86111429 C2.25102857,1.59625714 2.19488571,1.10982857 2.46017143,0.775971429 C2.63331429,0.5574 2.90031429,0.457971429 3.15831429,0.488828571 L3.09368631,0.483822129 Z" id="Normal-Face"></path>
                    </g>
                </g>
            </g>
        </g>
    </g>
</svg>