<?xml version="1.0" encoding="UTF-8"?>
<svg width="394px" height="517px" viewBox="0 0 394 517" version="1.1" xmlns="http://www.w3.org/2000/svg" xmlns:xlink="http://www.w3.org/1999/xlink">
    <!-- Generator: Sketch 53.2 (72643) - https://sketchapp.com -->
    <title>Croods - Standing(2)</title>
    <desc>Created with Sketch.</desc>
    <g id="Page-1" stroke="none" stroke-width="1" fill="none" fill-rule="evenodd">
        <g id="Desktop-HD-Copy-14" transform="translate(-838.000000, -241.000000)" fill-rule="nonzero">
            <g id="Croods---Standing(2)" transform="translate(838.000000, 241.000000)">
                <g id="Lower-Body" transform="translate(0.000000, 199.000000)">
                    <g id="Lower-Body/Climb">
                        <path d="M270.332599,213.481339 L350.174009,213.481339 C374.138788,213.481339 393.566079,232.829285 393.566079,256.696185 L393.566079,317.19697 L393.566079,317.19697 L226.940529,317.19697 L226.940529,256.696185 C226.940529,232.829285 246.36782,213.481339 270.332599,213.481339 Z" id="Rectangle" fill-opacity="0.3" fill="#009192"></path>
                        <g id="shoe-2" transform="translate(275.325030, 138.287436)">
                            <polyline id="SKIN" fill="#FFFFFF" points="15.840097 6.41455103 3.25206211 60.0687068 36.820445 58.8351343 61.3974366 0.864367883"></polyline>
                            <path d="M3.25360076,60.9330037 C2.99276923,60.9330037 2.74541399,60.8128077 2.58022069,60.6045873 C2.4085066,60.3878774 2.34460287,60.1014624 2.4085066,59.8293458 L14.9958015,6.22865601 C15.1088285,5.74921271 15.5770211,5.45430812 16.0452137,5.57003583 C16.5116674,5.68576355 16.7985821,6.16878146 16.6859899,6.64867156 L4.36778611,59.1041489 L36.2418338,57.9339137 L60.598717,0.536551293 C60.7904279,0.0839174877 61.3012229,-0.1225157 61.7433325,0.074980986 C62.1837031,0.272030847 62.3845432,0.798837617 62.1923975,1.25147142 L37.6168507,59.1644703 C37.4829572,59.4794819 37.1856093,59.6881491 36.8508755,59.7002134 L3.28446582,60.9330037 C3.27446728,60.9330037 3.2635993,60.9330037 3.25360076,60.9330037" id="Fill-2" fill="#009192"></path>
                            <path d="M2.83156669,54.9276695 C2.94330818,54.4697555 3.37641474,54.1802385 3.82381382,54.2630866 C4.24955757,54.3427825 4.78877524,54.4503944 5.42327635,54.5778177 C9.31343952,55.3558664 17.4077681,56.9754504 25.0785184,56.9817541 L25.0980082,56.9817541 C29.6170421,56.9817541 33.5912279,55.6967131 36.2886155,53.3621167 C36.5030033,53.17661 36.7897198,53.110872 37.0608446,53.1829133 C50.2264179,56.7462682 59.7387374,59.3208527 66.7879797,64.2084211 C68.0266645,65.067967 72.495025,68.8177291 71.7223628,71.4697586 C71.3646169,72.6962659 70.0921496,73.3180744 67.93961,73.3180744 C60.0813247,73.3180744 43.1507559,73.3635507 28.2133437,73.4040741 C16.1266388,73.4369429 5.68877069,73.4653091 1.75876173,73.4653091 C1.34341254,73.4653091 0.968775362,73.2694464 0.703281035,72.9141915 C-0.844208713,70.844798 1.67603838,59.6459403 2.83156669,54.9276695" id="Fill-4" fill="#FF6C31"></path>
                            <path d="M2.25932328,77.3546452 L70.2007482,77.3546452 C71.3296684,77.3546452 72.2454542,76.4413496 72.2454542,75.3145337 L72.2454542,74.6406915 C72.2454542,73.5138757 71.3296684,72.6010122 70.2007482,72.6010122 L2.25932328,72.6010122 C1.13040292,72.6010122 0.214617181,73.5138757 0.214617181,74.6406915 L0.214617181,75.3145337 C0.214617181,76.4413496 1.13040292,77.3546452 2.25932328,77.3546452" id="Fill-6" fill="#009192"></path>
                            <path d="M51.0237611,61.7973007 C51.3633752,61.7973007 51.6888925,61.6019272 51.8443893,61.2671262 C53.2699156,58.2040912 56.0086183,58.9536782 56.3166208,59.0502721 C56.7942174,59.1984415 57.3021437,58.9252684 57.4508054,58.4374903 C57.5990396,57.9488384 57.3363189,57.430902 56.8604315,57.2761769 C55.3071755,56.77179 51.9161568,56.7901473 50.2039868,60.4681499 C49.9882571,60.9318884 50.1804917,61.4861019 50.6337384,61.7068256 C50.7597585,61.7684539 50.8926142,61.7973007 51.0237611,61.7973007" id="Fill-8" fill="#009192"></path>
                            <path d="M42.7788929,59.2044099 C43.1185271,59.2044099 43.4444903,59.0090231 43.5999957,58.6741992 C45.0256049,55.6109541 47.7644664,56.3605926 48.0720593,56.4571933 C48.5501106,56.6058096 49.0580665,56.3321805 49.2063094,55.8443692 C49.3545523,55.355684 49.0918164,54.8377122 48.6159013,54.6829763 C47.0608466,54.1789922 43.6704862,54.1977876 41.9594988,57.8751679 C41.7437563,58.3389384 41.936002,58.89319 42.3892748,59.1139288 C42.5153026,59.175561 42.6477386,59.2044099 42.7788929,59.2044099" id="Fill-10" fill="#009192"></path>
                        </g>
                        <g id="shoe-1" transform="translate(-0.000217, 224.284980)">
                            <polyline id="SKIN" fill="#FFFFFF" points="63.5656294 0.864367883 32.5442698 75.1939029 65.5576635 72.9278292 103.707265 18.0541812"></polyline>
                            <path d="M32.5447946,76.4903483 C32.264255,76.4903483 31.9997835,76.3506455 31.8364973,76.112434 C31.6614858,75.8585511 31.6276126,75.5289956 31.7466031,75.2424259 L62.7675017,0.543484376 C62.9559756,0.0885545409 63.4662446,-0.121895284 63.9074648,0.0724349799 C64.3486849,0.267660774 64.5532269,0.793337568 64.3643186,1.2482674 L33.9014595,74.6034641 L65.0895524,72.4519508 L102.999303,17.651264 C103.278106,17.248275 103.820511,17.1537965 104.210922,17.4421575 C104.601332,17.7291753 104.692095,18.2884345 104.413727,18.6909757 L66.2646917,73.8373375 C66.1135654,74.0558469 65.8751502,74.192863 65.6154556,74.2107738 L32.602987,76.4881098 C32.5834447,76.4894529 32.5639025,76.4903483 32.5447946,76.4903483" id="Fill-14" fill="#009192"></path>
                            <path d="M68.980184,70.0528656 C68.8684424,69.5949516 68.4353362,69.3054346 67.987937,69.3882827 C67.5617601,69.4679786 67.0229755,69.5755905 66.3880415,69.7030138 C62.4983121,70.4810625 54.4039843,72.1006465 46.7332347,72.1069502 L46.7133117,72.1069502 C42.1947114,72.1069502 38.220526,70.8219092 35.5227055,68.4873128 C35.3087509,68.3018061 35.0216013,68.2360681 34.7504766,68.3081094 C21.5853378,71.8714643 12.0730193,74.4460488 5.02377762,79.3336172 C3.78465989,80.1931631 -0.68326695,83.9429252 0.0893950792,86.5949547 C0.447141062,87.821462 1.71960801,88.4432705 3.8717143,88.4432705 C11.7304321,88.4432705 28.660999,88.4887468 43.5984098,88.5292702 C55.68468,88.562139 66.1229801,88.5905052 70.0529887,88.5905052 C70.467905,88.5905052 70.8429752,88.3946425 71.1084696,88.0393876 C72.6559592,85.9699941 70.1357122,74.7711364 68.980184,70.0528656" id="Fill-16" fill="#FF6C31"></path>
                            <path d="M69.9867689,92.4798413 L2.04493535,92.4798413 C0.915575004,92.4798413 0.000216960352,91.5669778 0.000216960352,90.440162 L0.000216960352,89.7658876 C0.000216960352,88.6390718 0.915575004,87.7262083 2.04493535,87.7262083 L69.9867689,87.7262083 C71.1156961,87.7262083 72.031054,88.6390718 72.031054,89.7658876 L72.031054,90.440162 C72.031054,91.5669778 71.1156961,92.4798413 69.9867689,92.4798413" id="Fill-18" fill="#009192"></path>
                            <path d="M21.2222813,76.9224968 C20.8826493,76.9224968 20.5571152,76.7271233 20.4016107,76.3923223 C18.9760106,73.3292873 16.2371665,74.0788743 15.929148,74.1754682 C15.4515271,74.3236376 14.9431471,74.0504645 14.7949052,73.5626864 C14.6466633,73.0740345 14.9089703,72.5560981 15.3853096,72.401373 C16.9386455,71.8969861 20.3298394,71.9153434 22.0416703,75.593346 C22.2574114,76.0570845 22.0651669,76.611298 21.6123242,76.8320217 C21.4862972,76.89365 21.3534348,76.9224968 21.2222813,76.9224968" id="Fill-21" fill="#009192"></path>
                            <path d="M29.4667701,74.7617545 C29.1271364,74.7617545 28.8016006,74.5663676 28.6460954,74.2315437 C27.2200609,71.1682987 24.481203,71.9179371 24.1740374,72.0145379 C23.6959869,72.1631542 23.1876043,71.8895251 23.0393617,71.4017138 C22.891119,70.9130286 23.1538546,70.3950568 23.629769,70.2403208 C25.1848216,69.7363368 28.5751782,69.7551322 30.2861633,73.4325125 C30.5019055,73.896283 30.3096599,74.4505345 29.856815,74.6712734 C29.7307873,74.7329055 29.5979243,74.7617545 29.4667701,74.7617545" id="Fill-23" fill="#009192"></path>
                        </g>
                        <g id="pant" transform="translate(49.472037, -0.000071)">
                            <path d="M100.607126,1.26948694 C100.607126,1.26948694 80.2715527,59.3752641 72.9451196,76.9350334 C54.0275095,122.275137 0.428843833,247.285084 0.428843833,247.285084 C0.428843833,247.285084 57.7565008,270.422058 87.6878568,255.664271 C103.607599,225.29557 157.028693,87.8223129 162.357561,74.0817658 L166.916665,59.0639824 C167.059503,58.593492 167.546629,58.3299285 168.004233,58.4779878 C168.462271,58.6247095 168.717556,59.1246336 168.574718,59.5951235 L164.510556,72.9820228 L234.324625,73.5653415 C238.545085,64.9319556 240.550032,60.3171369 240.576949,60.2547022 C240.772321,59.8042799 241.284628,59.6022592 241.723129,59.8020505 C242.161196,60.0018414 242.358738,60.5289691 242.164235,60.978945 C242.137751,61.0400417 240.240042,65.4077973 236.259238,73.5813963 L236.420745,73.5827342 C236.420745,73.5827342 207.759304,151.675208 208.597231,155.513606 C213.641725,160.010691 257.862556,157.358998 287.304614,151.675654 C298.080007,117.856096 313.384546,54.3399031 314.531594,36.4304995 C317.524686,-10.3023451 199.198123,1.26948694 199.198123,1.26948694 L100.607126,1.26948694 Z" id="Fill-25" fill="#009192"></path>
                            <path d="M20.5372682,247.444584 C20.7749129,247.01719 21.3058121,246.868628 21.7228851,247.114 C22.1390893,247.358927 22.2837615,247.904099 22.0448134,248.331494 C21.5708272,249.182267 21.115957,249.965228 20.6932361,250.658962 C20.5281447,250.929764 20.245317,251.078326 19.9555382,251.078326 C19.7982669,251.078326 19.6388233,251.034605 19.495889,250.942256 C19.0888083,250.680823 18.9654242,250.130743 19.2195781,249.712717 C19.6305688,249.038166 20.0737089,248.275281 20.5372682,247.444584 Z M25.0936173,238.490231 C25.3038915,238.048114 25.8243639,237.864754 26.2557739,238.080682 C26.6867493,238.297056 26.8653087,238.831967 26.6541655,239.27453 C25.8460865,240.971169 25.0675502,242.559397 24.3402791,243.994603 C24.1851801,244.299757 23.8823677,244.474641 23.568694,244.474641 C23.4335797,244.474641 23.2962931,244.442519 23.1685646,244.373815 C22.7428025,244.146288 22.5772766,243.607807 22.7988467,243.170152 C23.5191665,241.748776 24.2916205,240.173931 25.0936173,238.490231 Z M29.4409085,228.983299 C29.6394526,228.534491 30.1542771,228.3373 30.5913349,228.539844 C31.0283927,228.743726 31.2217234,229.272838 31.0231793,229.721201 C30.2820057,231.396871 29.5586447,233.008299 28.8726465,234.510424 C28.7249331,234.833869 28.4116939,235.023921 28.0849867,235.023921 C27.9616026,235.023921 27.8360462,234.997154 27.7170066,234.939603 C27.2825555,234.730367 27.0953071,234.19947 27.2990647,233.753338 C27.9820218,232.257013 28.7027761,230.652277 29.4409085,228.983299 Z M33.588135,219.376701 C33.778859,218.924324 34.2906424,218.716872 34.7311758,218.913171 C35.1712747,219.109468 35.3732944,219.635011 35.182136,220.086943 C34.4835386,221.739861 33.7966715,223.349057 33.1228379,224.911857 C32.9790345,225.245117 32.6610164,225.443646 32.3277924,225.443646 C32.2104906,225.443646 32.0910166,225.418662 31.976756,225.366911 C31.5375259,225.16749 31.3394162,224.640163 31.5340503,224.18957 C32.2061461,222.63034 32.8912755,221.025158 33.588135,219.376701 Z M37.6060688,209.709786 C37.7924484,209.256517 38.301625,209.042373 38.7438962,209.233318 C39.1866018,209.424262 39.3942695,209.947575 39.2083244,210.401737 C38.5336219,212.049747 37.8667395,213.666974 37.2089806,215.249403 C37.0682184,215.588464 36.7471591,215.7919 36.4095906,215.7919 C36.2957644,215.7919 36.1802004,215.768701 36.0689809,215.720072 C35.6275787,215.526451 35.4225178,215.002692 35.6110695,214.548977 C36.2670906,212.969671 36.9326697,211.355566 37.6060688,209.709786 Z M41.5312908,200.001873 C41.7133258,199.545926 42.2207647,199.328214 42.6647737,199.514696 C43.1087827,199.702072 43.3207948,200.223154 43.1387598,200.678654 C42.4810009,202.32488 41.8293243,203.947461 41.18373,205.544166 C41.0447057,205.887241 40.721474,206.094693 40.3808644,206.094693 C40.2696449,206.094693 40.1571221,206.072386 40.0480749,206.026434 C39.6049348,205.837274 39.3946605,205.314854 39.5784333,204.8598 C40.2231586,203.26488 40.8744008,201.644975 41.5312908,200.001873 Z M45.3841332,190.26255 C45.5635616,189.805266 46.0696971,189.583538 46.5145752,189.767791 C46.9594528,189.951597 47.1753752,190.47134 46.9963812,190.928625 C46.3516557,192.573513 45.7112751,194.200555 45.0756728,195.807075 C44.9388208,196.153273 44.6138515,196.363847 44.2706354,196.363847 C44.1615881,196.363847 44.0508029,196.342433 43.9439278,196.29782 C43.4994846,196.112675 43.2853002,195.59204 43.4655973,195.135201 C44.100765,193.530465 44.7407112,191.905207 45.3841332,190.26255 Z M49.1778034,180.499182 C49.3546252,180.041005 49.8590229,179.816155 50.3056384,179.998176 C50.75182,180.179306 50.9703485,180.697711 50.7935271,181.156334 C50.1600975,182.799883 49.5292744,184.430048 48.9014927,186.045491 C48.7659441,186.394812 48.4396713,186.607171 48.0942826,186.607171 C47.9874075,186.607171 47.8783602,186.587095 47.7723542,186.543374 C47.3270418,186.360906 47.1098163,185.842055 47.2875068,185.383878 C47.9144198,183.77022 48.5448081,182.141393 49.1778034,180.499182 Z M52.9224675,170.715827 C53.0971171,170.256311 53.6010804,170.031015 54.0476959,170.209022 C54.4947462,170.387921 54.7158817,170.905879 54.5412325,171.364949 C53.9164917,173.007606 53.2939231,174.64134 52.6730928,176.262582 C52.5388473,176.614134 52.2112715,176.829169 51.8645792,176.829169 C51.7585733,176.829169 51.6512638,176.809093 51.5469957,176.766711 C51.1003798,176.58692 50.8801134,176.068961 51.0560661,175.609891 C51.6760277,173.989541 52.2981615,172.357592 52.9224675,170.715827 Z M56.6238172,160.914538 C56.7962941,160.454576 57.298954,160.226156 57.746873,160.402825 C58.1947919,160.579939 58.4176653,161.09656 58.2451884,161.556075 C57.6287025,163.199178 57.0130853,164.834697 56.3983368,166.462185 C56.2649604,166.815967 55.9365154,167.032341 55.5880858,167.032341 C55.4838172,167.032341 55.3773769,167.012711 55.2739775,166.972113 C54.8264929,166.793661 54.6044886,166.276594 54.7782687,165.817525 C55.3921484,164.190482 56.0077652,162.555856 56.6238172,160.914538 Z M60.286587,151.098437 C60.4573265,150.638029 60.9591172,150.407379 61.4079053,150.582262 C61.8562587,150.758038 62.0813047,151.27332 61.9105652,151.733728 C61.3010302,153.376385 60.6919301,155.01458 60.0828295,156.647422 C59.9503219,157.002543 59.6205738,157.220701 59.271275,157.220701 C59.1678756,157.220701 59.0627384,157.201518 58.9606425,157.16092 C58.5122891,156.985144 58.2881122,156.46897 58.4597205,156.008562 C59.0683863,154.377504 59.6774868,152.740201 60.286587,151.098437 Z M63.9141233,141.267925 C64.0831245,140.806625 64.5840469,140.573299 65.0337038,140.747736 C65.4829263,140.921727 65.7097097,141.436117 65.5402737,141.896971 C64.9372554,143.539628 64.3338031,145.180054 63.7294818,146.816911 C63.5978428,147.17337 63.26766,147.393313 62.9166238,147.393313 C62.8145274,147.393313 62.7106937,147.374576 62.6090321,147.335316 C62.1602444,147.160433 61.9343297,146.645596 62.1046345,146.184742 C62.7080871,144.548332 63.3115398,142.908798 63.9141233,141.267925 Z M67.5172433,131.401724 C67.6849415,130.940424 68.18456,130.70442 68.635086,130.877519 C69.0847428,131.050172 69.3132641,131.56367 69.1455659,132.025416 C68.5481955,133.669857 67.9490877,135.314299 67.3482416,136.95874 C67.2174722,137.316983 66.8864202,137.538265 66.5345149,137.538265 C66.4332877,137.538265 66.3298883,137.519527 66.2295302,137.48116 C65.7803078,137.307615 65.5526556,136.793671 65.7212225,136.332371 C66.3216338,134.688822 66.9203077,133.044827 67.5172433,131.401724 Z M71.0756582,121.559479 C71.2420529,121.096841 71.7421062,120.860391 72.191763,121.031706 C72.6418542,121.202574 72.8721134,121.715625 72.7057186,122.177818 C72.1166032,123.815567 71.5248807,125.45644 70.9314204,127.09865 C70.8010853,127.457786 70.469599,127.680406 70.1168245,127.680406 C70.0160321,127.680406 69.9139362,127.662114 69.8140125,127.624193 C69.3643557,127.452879 69.1349652,126.938935 69.3022291,126.477189 C69.8952546,124.83587 70.4869771,123.196336 71.0756582,121.559479 Z M74.6083538,111.691493 C74.773445,111.228855 75.2734982,110.991959 75.7227207,111.160596 C76.173681,111.32968 76.4052433,111.84184 76.2401521,112.304924 C75.6558153,113.945797 75.0675686,115.592469 74.4767148,117.24271 C74.3472485,117.603184 74.0148934,117.827142 73.6612502,117.827142 C73.5613265,117.827142 73.4600993,117.809297 73.3610448,117.771822 C72.9109532,117.601846 72.6802597,117.08924 72.8457856,116.626602 C73.4362046,114.977253 74.024017,113.331473 74.6083538,111.691493 Z M78.11029,101.813112 C78.2736438,101.349135 78.77109,101.110455 79.2233539,101.277754 C79.6747481,101.445946 79.9080486,101.957213 79.7442605,102.420743 C79.166006,104.060277 78.5829728,105.708734 77.9964639,107.364329 C77.8678663,107.726587 77.5346425,107.951884 77.1796958,107.951884 C77.0810752,107.951884 76.9807171,107.934485 76.8825313,107.897902 C76.4320053,107.729264 76.1991396,107.217105 76.3633621,106.75402 C76.949871,105.099318 77.5324699,103.4522 78.11029,101.813112 Z M81.5812933,91.9224623 C81.7433436,91.4584857 82.2420933,91.2166822 82.6926193,91.3835356 C83.1444484,91.5499425 83.3794863,92.0607632 83.217436,92.5247403 C82.6452643,94.1629356 82.0678785,95.813623 81.4848453,97.4741249 C81.3571168,97.8381685 81.0234583,98.0648031 80.6672085,98.0648031 C80.569457,98.0648031 80.4699677,98.047404 80.3726506,98.0112673 C79.9212559,97.8439679 79.687521,97.3331473 79.8500061,96.8696166 C80.432605,95.2095607 81.0095559,93.5602116 81.5812933,91.9224623 Z M85.0195825,82.018786 C85.1803297,81.5543625 85.6764729,81.3094363 86.1291706,81.4758437 C86.5814345,81.6404659 86.8177755,82.1503946 86.6578978,82.6148176 C86.0926766,84.2516746 85.5205049,85.9045923 84.9418161,87.5713405 C84.8153907,87.9362761 84.480429,88.1642495 84.1233101,88.1642495 C84.0264274,88.1642495 83.9282415,88.1472963 83.8317935,88.112052 C83.3795297,87.946537 83.1436231,87.4361623 83.3052386,86.9717393 C83.883493,85.3058839 84.4547965,83.6547505 85.0195825,82.018786 Z M88.4222906,72.1020376 C88.5808651,71.6376141 89.0765736,71.3935803 89.5292717,71.5546338 C89.9819695,71.7174717 90.2209179,72.226508 90.0623433,72.6918234 C89.505377,74.3260036 88.9392871,75.9811521 88.3645084,77.6554841 C88.2389521,78.0222044 87.9035557,78.2519622 87.5451337,78.2519622 C87.4491201,78.2519622 87.351803,78.2354554 87.2566581,78.2006571 C86.8039603,78.0369268 86.5663154,77.5274445 86.7257591,77.0625751 C87.2996687,75.3895815 87.8653243,73.7353254 88.4222906,72.1020376 Z M91.7842466,62.1692284 C91.9406489,61.703467 92.4346199,61.4554176 92.8890555,61.6169171 C93.3426224,61.7775247 93.5837431,62.2856686 93.4269059,62.75143 C92.8794976,64.3820411 92.3199247,66.0403127 91.7499247,67.7235673 C91.6252376,68.0920724 91.2889725,68.3231685 90.929247,68.3231685 C90.8345365,68.3231685 90.7385228,68.3071077 90.6442471,68.2732018 C90.1906802,68.1117018 89.950863,67.6031119 90.1085689,67.1377965 C90.6781341,65.4554339 91.2368382,63.7985011 91.7842466,62.1692284 Z M95.0974138,52.2187521 C95.2512096,51.7520987 95.7434428,51.5018187 96.1991819,51.6597495 C96.6536175,51.8176799 96.8973447,52.3244854 96.7435489,52.7911392 C96.2078707,54.4155045 95.6569867,56.0773452 95.0922003,57.7739838 C94.9683819,58.1447192 94.631248,58.3780461 94.2697847,58.3780461 C94.176812,58.3780461 94.0816671,58.3624313 93.9886948,58.3298637 C93.5346935,58.1701486 93.2922699,57.662897 93.4478031,57.1966892 C94.0121551,55.5018354 94.56217,53.841333 95.0974138,52.2187521 Z M127.170721,15.7361127 C127.314524,15.2658899 127.801544,15.0040107 128.25989,15.1516802 C128.717801,15.2989037 128.972824,15.7994634 128.829455,16.2696862 C128.727794,16.6025004 126.284875,24.5083995 121.401645,32.1073601 C115.650816,41.0563151 108.923342,45.6974227 101.787917,45.6974227 C100.908588,45.6974227 100.023611,45.6224726 99.133421,45.481049 C98.8857837,46.2448264 98.6351056,47.0161881 98.3792138,47.8013798 C98.2575676,48.1747919 97.9186955,48.4107955 97.5554948,48.4107955 C97.4638256,48.4107955 97.3708528,48.3960731 97.279618,48.3643979 C96.824748,48.2078055 96.579283,47.7023383 96.7313409,47.2352385 C97.2900451,45.5207548 97.8291989,43.8557913 98.3470646,42.2448098 C98.4978191,41.7768177 98.9900523,41.5234149 99.4444879,41.6773304 C99.900227,41.8316919 100.147864,42.3362668 99.9975441,42.8042589 C99.8963169,43.1183356 99.7911797,43.4440117 99.688215,43.7616573 C117.628437,46.2720405 127.076445,16.0457281 127.170721,15.7361127 Z M101.503395,32.2382552 C101.648502,31.7689246 102.135521,31.5088299 102.593867,31.6569456 C103.051344,31.8055074 103.305063,32.3069594 103.159957,32.7767361 C102.670765,34.3663032 102.147251,36.0419737 101.593761,37.7970556 C101.474287,38.174483 101.133677,38.4145018 100.767,38.4145018 C100.678372,38.4145018 100.588006,38.4002256 100.498944,38.370781 C100.042336,38.21865 99.7925265,37.7154136 99.9402401,37.2465291 C100.492862,35.4959085 101.014637,33.8246993 101.503395,32.2382552 Z M104.479211,22.1780308 C104.61085,21.704239 105.092656,21.4289758 105.553174,21.5645998 C106.014561,21.7002238 106.281749,22.1940915 106.15011,22.6678834 C105.734775,24.1628706 105.242107,25.8684319 104.687313,27.7377236 C104.572618,28.122289 104.228533,28.3698921 103.856208,28.3698921 C103.772359,28.3698921 103.686772,28.3574004 103.602489,28.3310787 C103.143274,28.1874243 102.884776,27.6886491 103.024669,27.2170879 C103.576856,25.3580573 104.066482,23.662757 104.479211,22.1780308 Z M107.129836,13.8291492 L107.19427,13.8334058 C107.671731,13.8824803 108.020161,14.3201354 107.971937,14.8104341 C107.908942,15.4528637 107.745154,16.3491422 107.471015,17.5514671 C107.377174,17.9632466 107.020055,18.2407405 106.626007,18.2407405 C106.559971,18.2407405 106.4935,18.2331562 106.427029,18.2170955 C105.959559,18.1051164 105.669346,17.6246326 105.778828,17.1450411 C106.032113,16.0341733 106.188081,15.1883076 106.242822,14.6315353 C106.291046,14.1412366 106.719415,13.7838852 107.19427,13.8334058 L107.129836,13.8291492 Z" id="Combined-Shape" fill="#FFFFFF" style="mix-blend-mode: overlay;"></path>
                        </g>
                    </g>
                </g>
                <g id="Upper-Body" transform="translate(95.000000, 58.000000)">
                    <g id="Upper-Body/On-Macbook">
                        <g id="T-Shirt" transform="translate(-0.000029, 13.436583)">
                            <path d="M56.5436465,75.2980542 C56.5453839,75.4438841 56.5492931,75.5836378 56.5505961,75.7307697 C56.5757882,78.2068401 56.4211606,82.1668166 56.1518654,86.9223474 C52.2314479,86.8976084 48.5976996,86.6272155 46.7843002,85.8446817 C49.041168,82.6876378 52.7552706,78.8652448 56.5436465,75.2980542 Z M162.788437,133.196435 C162.293281,92.4465234 164.019377,48.7131744 147.365638,22.0302068 C128.932379,-7.5042565 70.8427894,-2.41062599 50.3151083,15.1584063 C40.1027379,22.2485177 24.5075031,35.7503711 11.0205894,58.6730102 C1.0362512,75.6422301 -5.11019546,108.558125 10.0589448,119.178101 C23.4468273,125.831591 41.0226852,126.997796 54.3467186,126.287743 C54.0878477,128.938723 53.8441789,131.288494 53.6287427,133.196435 L162.788437,133.196435 Z" id="Fill-1" fill="#FF6C31"></path>
                            <path d="M48.2975657,85.3613598 C50.1913193,82.926521 52.8278066,80.161829 55.6206588,77.4622395 C55.5859111,79.6844096 55.4642938,82.6096882 55.281868,85.9820049 C52.4933593,85.9386032 49.9828327,85.7606559 48.2975657,85.3613598 Z M55.0950988,132.274322 C55.2601507,130.776961 55.438233,129.053911 55.6250023,127.165935 C67.3914669,126.432445 74.2932433,124.323119 75.02729,124.140832 C75.4703241,124.027987 75.7656801,123.61133 75.7222454,123.155612 L72.0997901,86.1295709 C72.0476684,85.6217703 71.6046343,85.2485152 71.0921047,85.3005973 C68.1646048,85.5740284 62.3921311,85.9776647 57.1321869,85.9950254 C57.3667344,81.6591897 57.4970386,78.0481633 57.4753212,75.721829 L57.4753212,75.6957879 C63.7690116,69.7974888 70.1973495,64.6413598 70.3015929,64.5588964 C70.7011922,64.2420636 70.7620008,63.66048 70.4449274,63.2611838 C70.127854,62.8618876 69.5458288,62.796785 69.1462294,63.117958 C68.7509735,63.4347908 63.2260776,67.8617703 57.4318865,73.2001867 C56.8238005,73.7557293 56.2157144,74.3242923 55.6119719,74.8971955 C52.0981033,78.2304507 48.6667608,81.7676941 46.4081555,84.8014771 C41.6911455,83.5645269 38.0035381,81.0949668 37.9601034,81.0689257 C37.5387866,80.7824741 36.9654484,80.8953187 36.6787792,81.3163158 C36.3921101,81.7373128 36.5050404,82.3102161 36.9263571,82.5966677 C37.1087829,82.7225328 41.2046766,85.4742043 46.5037119,86.7285152 C48.2932222,87.4663451 51.5768868,87.7658172 55.1819682,87.83526 C55.7900542,87.8439404 56.4068272,87.8482806 57.0279436,87.8482806 C62.4572831,87.8396002 68.1515744,87.4055826 70.349371,87.2189551 L73.802431,122.539307 C68.9551167,123.693794 63.7212334,124.82224 55.8074281,125.290979 C55.1906551,125.3257 54.5695387,125.360421 53.9397353,125.386462 C40.5748733,125.989747 23.1401782,124.626932 10.5310801,118.381418 C1.81373261,112.222709 1.46191141,98.8245856 2.02656272,91.3768436 C2.86919622,80.3267556 6.6219557,67.9746149 11.8167477,59.1423568 C22.4625967,41.0481634 34.5070434,28.8305681 44.0974286,21.0442925 C46.4515903,19.1259347 48.6580738,17.481008 50.6604142,16.0834714 C53.6834705,13.4446444 57.6143123,11.066228 62.1749575,9.04370597 C72.6470675,4.39103735 86.4506203,1.60898457 100.26286,1.86071477 C121.750014,2.25567078 138.633088,9.78587606 146.581641,22.5199523 C161.297323,46.0957879 161.531871,83.6209492 161.757731,119.913501 C161.779448,123.975905 161.805509,128.164175 161.853287,132.274322 L55.0950988,132.274322 Z M148.150069,21.5434127 C139.866634,8.26681447 122.423252,0.42411653 100.297608,0.0161399904 C88.9394295,-0.192188456 77.1295302,1.62200509 67.0483326,5.12452708 C59.9901913,7.5767265 54.1004438,10.7537353 49.8394981,14.3560813 C48.0413009,15.6103922 46.0693648,17.060011 43.9671245,18.7309787 C34.9674514,25.8705681 21.8067324,38.5178409 10.2226937,58.2048788 C-0.344972775,76.1732073 -5.87421212,109.149864 9.5277382,119.935201 C9.56682945,119.961242 9.60592069,119.982943 9.64935541,120.004644 C21.185616,125.738017 34.4636087,127.413325 46.0302735,127.413325 C48.0890791,127.413325 51.8288081,127.361242 53.7573095,127.265759 C53.5401359,129.479248 53.3316493,131.449688 53.14488,133.094615 C53.1144757,133.355025 53.1970017,133.615436 53.375084,133.810744 C53.5488229,134.006052 53.8007442,134.118896 54.0613525,134.118896 L162.787134,134.118896 C163.034712,134.118896 163.273603,134.019072 163.447341,133.845465 C163.616737,133.667518 163.716637,133.433149 163.713,133.185759 C163.660172,128.78482 163.629767,124.266697 163.603706,119.90048 C163.377846,83.3561985 163.143298,45.5619463 148.150069,21.5434127 Z" id="Fill-3" fill="#009192"></path>
                        </g>
                        <polygon id="Tie" fill="#FFBC9D" points="101.126443 33.9005935 106.439812 42.1599484 99.9454534 90.2408516 115.000795 108.824183 127.399234 92.0107754 111.753615 42.1599484 115.296151 33.6054616 106.162264 28.5543648"></polygon>
                        <g id="Neck" transform="translate(82.994662, -0.000047)">
                            <path d="M32.51358,2.49009267 L33.437002,13.0089431 C33.5877205,19.2379636 23.9547692,30.1213889 23.9547692,30.1213889 C23.9547692,30.1213889 5.27697257,18.3430194 5.13103192,12.3019284 L6.21863721,0.922855137" id="Fill-6" fill="#FFFFFF"></path>
                            <path d="M23.9543348,31.0443707 C23.7849394,31.0443707 23.6138067,30.9979308 23.4617851,30.9020129 C21.5072229,29.6694029 4.36093441,18.6761713 4.20734923,12.3243238 C4.20674115,12.2874323 4.20804419,12.2505408 4.21151896,12.2140833 L5.29912427,0.835009976 C5.3482055,0.327643407 5.79992655,-0.042139584 6.30680969,0.00386628114 C6.81456152,0.0524762519 7.18679703,0.502986515 7.1385845,1.01035308 L6.05619137,12.329532 C6.11786867,13.6068457 7.41048582,16.6267402 15.1588048,22.7442182 C18.7269667,25.5609924 22.3250986,27.9619777 23.7779899,28.9094381 C24.6080273,27.9250862 26.3180521,25.8300833 28.0002786,23.3648633 C30.9977084,18.9717372 32.5583177,15.4093208 32.5144487,13.0595496 L31.5931983,2.57108036 C31.5488949,2.06284575 31.9246052,1.61537361 32.4327914,1.5706698 C32.9409776,1.52770206 33.3892239,1.90139121 33.4339616,2.40919179 L34.3573837,12.9284762 C34.3591211,12.948007 34.3604241,12.9675378 34.3604241,12.9870686 C34.5180921,19.5029748 25.0497584,30.2774616 24.6466842,30.732746 C24.4659958,30.9371683 24.2114683,31.0443707 23.9543348,31.0443707" id="Fill-8" fill="#009192"></path>
                            <path d="M33.0473926,12.7119883 C31.3490952,18.7934428 28.5566773,24.6704751 24.053366,29.2259238 C16.0900451,24.0107683 9.35549241,18.4896305 4.82090805,12.4194604 C-6.31922793,17.1155308 9.93447717,41.6301466 9.93447717,41.6301466 C9.93447717,41.6301466 22.8398,30.5370909 24.053366,29.4394604 C25.266932,30.5370909 40.2949094,37.6467331 40.2949094,37.6467331 C40.2949094,37.6467331 39.9821794,13.5604927 33.0473926,12.7119883" id="Fill-13" fill="#FFFFFF"></path>
                            <path d="M25.3587529,29.1976692 C27.4297202,30.3959918 33.4966813,33.3907132 39.3369133,36.1701619 C39.0650119,27.6955343 37.3853915,15.7071003 33.6782385,13.8564493 C31.8187983,20.0945842 29.0237743,25.2476751 25.3587529,29.1976692 M4.54440265,13.5808481 C3.36688748,14.244895 2.5907091,15.2366252 2.18025103,16.5942323 C1.205576,19.820285 2.35225251,25.0601795 5.49605728,31.7479566 C7.26037544,35.5013408 9.20407899,38.739112 10.1396628,40.2360387 C12.6258659,38.098068 20.1387688,31.634678 22.6753562,29.4224903 C14.5543673,24.0176692 8.60858903,18.8233466 4.54440265,13.5808481 M9.93421657,42.5532586 C9.89208489,42.5532586 9.84995322,42.5506545 9.80738719,42.5445783 C9.54504151,42.5081208 9.31092839,42.3609889 9.16411905,42.1400739 C8.6976302,41.4365314 -2.23097873,24.8062792 0.411589394,16.0608246 C1.05181711,13.9436868 2.41436415,12.4324375 4.46187669,11.5691765 C4.85322348,11.4046839 5.30668191,11.5270768 5.560775,11.8673466 C9.53896065,17.1923085 15.5490223,22.4851531 23.9201951,28.032332 C27.5995499,24.1023026 30.3689474,18.8693525 32.157589,12.4636868 C32.2805093,12.024461 32.7087756,11.7397455 33.1596279,11.7957337 C40.6781773,12.715851 41.1854948,35.086854 41.2181569,37.6345372 C41.2224143,37.9531062 41.0621402,38.2512762 40.794148,38.4231472 C40.5248528,38.5954522 40.1869307,38.6171531 39.8993928,38.4808716 C37.6229794,37.4036399 27.1243741,32.4150416 24.1321566,30.6012821 C21.4309516,32.9653759 11.0187814,41.9156868 10.5366561,42.3301736 C10.3681294,42.4751355 10.1539962,42.5532586 9.93421657,42.5532586" id="Fill-15" fill="#009192"></path>
                        </g>
                        <g id="Macbook" transform="translate(78.601330, 46.743955)">
                            <path d="M97.218622,78.2225572 L4.77781877,78.2225572 C2.13915977,78.2225572 1.13686838e-13,75.5992168 1.13686838e-13,72.3633196 C1.13686838e-13,69.1274225 2.13915977,66.5040821 4.77781877,66.5040821 L97.218622,66.5040821 C99.857281,66.5040821 101.996441,69.1274225 101.996441,72.3633196 C101.996441,75.5992168 99.857281,78.2225572 97.218622,78.2225572" id="Fill-19" fill="#009192"></path>
                            <path d="M155.46779,78.2225572 L63.9617023,78.2225572 C60.6471991,78.2225572 57.9607619,75.5377243 57.9607619,72.2257361 L57.9607619,5.99682111 C57.9607619,2.68526686 60.6471991,-3.26849658e-13 63.9617023,-3.26849658e-13 L155.46779,-3.26849658e-13 C158.781859,-3.26849658e-13 161.468731,2.68526686 161.468731,5.99682111 L161.468731,72.2257361 C161.468731,75.5377243 158.781859,78.2225572 155.46779,78.2225572" id="Fill-23" fill="#FF976A"></path>
                            <path d="M120.968551,39.7522358 C120.968551,44.9291977 117.012083,48.1982182 111.649198,48.1982182 C106.286314,48.1982182 101.938933,44.001268 101.938933,38.8243062 C101.938933,33.6473443 107.690993,24.8858311 111.951504,31.321444 C114.910711,35.7905232 120.968551,34.5752739 120.968551,39.7522358" id="Fill-43" fill="#FFFFFF"></path>
                            <path d="M108.584184,29.9652258 C108.288394,29.9652258 108.060796,30.0338006 107.923108,30.0750323 C105.31659,30.858868 102.862963,35.668217 102.862963,38.824393 C102.862963,43.4840059 106.804229,47.2751496 111.649372,47.2751496 C116.67086,47.2751496 120.044868,44.251783 120.044868,39.7523226 C120.044868,37.5288504 118.811757,36.8565572 116.448039,35.766739 C114.652883,34.9381994 112.617532,33.9998534 111.181146,31.8306334 C110.153046,30.2772845 109.214422,29.9652258 108.584184,29.9652258 M111.649372,49.1210264 C105.78612,49.1210264 101.01525,44.5022111 101.01525,38.824393 C101.01525,34.929085 103.859356,29.3688856 107.390598,28.3077126 C108.5338,27.9635367 110.748536,27.8311613 112.721775,30.8119941 C113.868452,32.5437243 115.573699,33.3301642 117.22248,34.090563 C119.51844,35.149132 121.892581,36.2441584 121.892581,39.7523226 C121.892581,45.2686862 117.679848,49.1210264 111.649372,49.1210264" id="Fill-45" fill="#009192"></path>
                        </g>
                        <g id="Hand" transform="translate(70.353382, 94.336364)">
                            <path d="M0.923768708,6.67038049 C7.87549503,5.26503151 24.2112917,3.12706082 38.7354265,1.34411654 C65.8582349,-1.98610047 67.8553631,15.7513306 60.8319695,13.368574 C56.1518789,11.7805037 53.1553178,12.1511547 49.5849841,11.9462984 C53.5179977,12.5717177 55.3049019,15.1424039 54.2772365,16.7743101 C52.8360726,19.0624509 43.0497968,14.9492661 32.3379271,20.4994831 C22.8283304,25.4268849 10.9011573,33.0169846 3.76005567,34.138052 L0.923768708,6.67038049 Z" id="Fill-47" fill="#FFFFFF"></path>
                            <path d="M1.92906521,7.41359222 L4.57554247,33.0423312 C9.7030107,31.8956567 17.0591142,27.8206655 24.1876198,23.8715394 C26.89534,22.3711406 29.4532105,20.9545072 31.9129184,19.6802315 C38.7130576,16.1568767 45.1162034,16.4029646 49.3528256,16.5648532 C51.0780525,16.6308239 53.2241618,16.7128532 53.4956288,16.2827418 C53.6867416,15.9789295 53.6884789,15.6147887 53.5004066,15.2007359 C53.1177468,14.3570057 51.8242609,13.2368063 49.439695,12.8579089 C48.9536605,12.7806538 48.6135667,12.3362198 48.6665571,11.847516 C48.7195474,11.3583781 49.1460763,10.9933693 49.6377573,11.0250526 C50.4300065,11.0701905 51.2122658,11.0871171 51.9688985,11.1036098 C54.6262345,11.1613342 57.3743489,11.2203605 61.1288458,12.4946362 C61.6205268,12.661299 62.5187567,12.8553048 63.0060942,12.2784954 C63.4825731,11.7147066 63.5724829,10.4248063 62.7007482,8.81503503 C60.3730817,4.51609075 52.8845023,0.537017422 38.8481395,2.26006728 C20.380567,4.52737521 7.97213727,6.25953943 1.92906521,7.41359222 M3.76027284,35.0609471 C3.55786706,35.0609471 3.35937041,34.9941083 3.19649023,34.8691113 C2.99582184,34.714601 2.86725508,34.4845717 2.8416286,34.2324075 L0.00490728689,6.76516993 C-0.0437395952,6.29252477 0.274202527,5.85980922 0.740691379,5.76562741 C6.48058912,4.60506436 19.2260722,2.80953355 38.6227134,0.428079008 C45.6469756,-0.435181991 51.6005721,0.00881801109 56.319754,1.74532241 C60.0677357,3.12506434 62.9101035,5.32336348 64.3252066,7.9361494 C65.4740548,10.0571934 65.5092369,12.1773693 64.4177225,13.4694397 C63.5455534,14.5015336 62.1313191,14.784513 60.5350932,14.2424251 C58.036294,13.3947887 56.0504588,13.1269998 54.1558365,13.0224016 C54.600608,13.4468708 54.9489544,13.9229881 55.1830675,14.438601 C55.6239299,15.4103664 55.5787578,16.4407242 55.0588442,17.2657916 C54.2196855,18.5986597 52.2555677,18.5231406 49.282027,18.409428 C45.2391236,18.2549177 39.1300308,18.0196802 32.7633702,21.3186479 C30.3262482,22.5816391 27.7796708,23.9921963 25.0832437,25.4860849 C17.3570764,29.7659324 9.3676947,34.1920438 3.9036074,35.0496626 C3.85582922,35.0570409 3.80805103,35.0609471 3.76027284,35.0609471" id="Fill-49" fill="#009192"></path>
                        </g>
                        <g id="Finger" transform="translate(177.648025, 118.890329)">
                            <path d="M25.0627503,4.09502321 C24.7856368,3.07247776 23.995125,1.450554 22.3480805,1.09596163 C20.1402939,0.621146378 19.1252246,2.43186779 19.0240217,4.39536337 C18.9275967,4.03165664 18.8072825,3.65145723 18.6574327,3.25085899 C17.4221494,-0.0520149134 13.514328,0.462295938 12.9874649,2.90321089 C12.7833217,3.84763318 12.7359779,4.76775047 12.8028673,5.61104666 C12.1313666,3.48219037 10.3770384,1.76434872 8.41205189,2.30209652 C6.94091806,2.70486485 6.11652715,4.14059506 6.1695175,6.09107012 C5.66567479,5.07156279 4.73009101,4.28034872 3.64118267,4.15187952 C1.93941049,3.95136339 0.194203602,5.82631939 1.23272766,9.08405546 C1.99457258,11.4737563 4.91990072,11.1378267 6.01749599,9.52979153 C6.30112469,9.11400267 6.46313618,8.66305839 6.5287226,8.20516983 C6.6364407,8.56453639 6.76370442,8.93128126 6.92180678,9.30627246 C7.91950221,11.6716684 12.0327698,11.4642079 12.8541203,8.99681792 C13.0434957,8.42695282 13.1142943,7.81585604 13.0877991,7.20172114 C13.3944482,8.27721675 13.8961191,9.10141616 14.4572957,9.48855985 C16.3084833,10.7650056 19.1968919,9.94080619 19.3141656,6.65355692 C19.6069156,7.54285897 20.1055462,8.25681792 20.7779156,8.5128883 C23.6702333,9.61442496 26.0448092,7.71820208 25.0627503,4.09502321" id="Fill-1" fill="#FFFFFF"></path>
                            <path d="M23.640524,7.5286232 C23.0363471,8.04727422 22.1285615,8.0984883 21.1499773,7.66794285 C20.5232144,7.39277569 19.7561573,4.94448244 20.3503442,3.11119213 C20.6530842,2.17545019 21.1660482,1.94151471 21.6685878,1.94021265 C21.8340741,1.94021265 21.9982573,1.96495166 22.1533193,1.99837101 C23.5519171,2.2991452 24.0796489,3.99789007 24.1717305,4.3364238 C24.5478752,5.72571411 24.3493785,6.91926249 23.640524,7.5286232 M17.4958147,8.73085194 C16.8017279,9.27163786 15.7679817,9.27120384 14.9818133,8.72911587 C14.6182647,8.4782537 14.2464636,7.87844138 13.9971483,7.05120384 C13.9641379,6.51519211 13.8694502,5.97440619 13.7143883,5.4492449 C13.6666101,4.72877569 13.7104792,3.93278743 13.8907332,3.0981716 C14.0740277,2.24836515 14.8506405,1.89550884 15.4595952,1.85123905 C15.495646,1.84863494 15.5399494,1.84646172 15.590768,1.84646172 C16.0841864,1.84559682 17.2126203,2.02441207 17.7924738,3.5742889 C18.6854915,5.9622537 18.574733,7.89015985 17.4958147,8.73085194 M11.977434,8.7052449 C11.664704,9.64445897 10.6461599,10.0138079 9.86911288,10.0437552 C9.12551054,10.0728343 8.13346162,9.8028754 7.77295348,8.94786073 C7.00719943,7.13062906 6.8742892,5.377632 7.41896054,4.25786661 C7.68955882,3.70145606 8.1056634,3.34295752 8.65598126,3.19235342 C9.59938329,2.93498098 10.3577534,3.47403084 10.8303231,3.971415 C11.3098424,4.4774795 11.6673101,5.12980795 11.8940393,5.82336807 C11.9435549,6.34679329 12.0338991,6.84330941 12.1576881,7.30553815 C12.1728902,7.79554402 12.1212029,8.27383141 11.977434,8.7052449 M5.15992096,9.18700443 C4.96837386,9.66529182 4.36593435,9.97908654 3.67879713,9.95868771 C3.31437986,9.94523317 2.43222078,9.80634754 2.11254127,8.80376689 C1.68427497,7.46091645 1.77071005,6.28906895 2.34882613,5.58856455 C2.62984874,5.24872877 3.0025186,5.06123317 3.38908758,5.06036513 C3.43686576,5.06036513 3.4850783,5.06296924 3.53285649,5.06861147 C4.20131677,5.14760267 4.62784569,5.64368478 4.86630228,6.04558507 C5.40402406,6.94920971 5.52737866,8.26992525 5.15992096,9.18700443 M25.9542913,3.85379623 L25.9542913,3.85336221 C25.7566633,3.12464667 24.9261916,0.706734648 22.5429287,0.193725849 C20.9510463,-0.148280016 19.6449644,0.441983914 18.9178673,1.7835323 C18.0678499,0.581303563 16.751778,-0.0918577286 15.3253819,0.0101364063 C13.7356713,0.125585087 12.4543472,1.18024784 12.1055664,2.63984902 C10.9736577,1.48536221 9.54465555,1.03528597 8.1682094,1.41201324 C7.0971093,1.70497512 6.26359709,2.41025371 5.75758265,3.4510279 C5.67071322,3.63027717 5.59861159,3.82081089 5.53345952,4.01525078 C5.01441466,3.5842713 4.40893472,3.31301031 3.74872703,3.23532116 C2.69369777,3.11119213 1.63693113,3.55128597 0.924167438,4.41367892 C-0.0613662679,5.60766132 -0.269852905,7.41187246 0.352566576,9.36408361 C0.814277607,10.8128343 2.06302569,11.7472742 3.61147332,11.8032625 C3.66142325,11.8054326 3.71137317,11.8058666 3.76132309,11.8058666 C4.91842394,11.8036965 5.95434192,11.2815733 6.54852883,10.4491276 C7.26824208,11.3514502 8.4353329,11.8948402 9.75965739,11.8922454 C9.82003165,11.8922454 9.8804059,11.8905 9.94121451,11.8883299 C11.5048643,11.8275675 12.8300575,11.0480719 13.4811439,9.85495751 C13.6266502,10.0059956 13.7773686,10.1409751 13.9328649,10.2486115 C14.6530125,10.7446936 15.474363,10.9916496 16.2839861,10.9894795 C17.1218418,10.9877434 17.9475357,10.7195206 18.6316325,10.186547 C18.9378472,9.94783727 19.3669822,9.52510414 19.705773,8.86452936 C19.9177344,9.07459387 20.1496758,9.24516279 20.4059407,9.35757334 C21.0835222,9.65574343 21.7667503,9.80244138 22.4152306,9.80113933 C23.327794,9.79896924 24.1743366,9.50470531 24.8445343,8.92789592 C26.1067471,7.84371997 26.5215487,5.94662906 25.9542913,3.85379623" id="Fill-3" fill="#009192"></path>
                        </g>
                    </g>
                </g>
                <g id="Head" transform="translate(155.000000, 0.000000)">
                    <g id="Head/Long-Hair-1">
                        <g id="Long-Hair" transform="translate(0.300218, -0.000014)">
                            <path d="M48.6619218,18.5681961 C35.5375637,17.2835848 26.563965,21.5909233 21.3644458,26.7727415 C16.1649265,31.9545597 12.6985804,34.977287 12.6985804,44.0454688 C12.6985804,53.1136506 26.1306717,66.9318324 26.9972583,68.227287 C27.8638448,69.5227415 40.4293496,77.727287 54.2947343,73.4091052 C63.5383239,70.5303171 68.7378431,65.0606205 69.893292,57.0000142 C71.3376027,43.1818324 71.3376027,34.6894082 69.893292,31.5227415 C67.7268256,26.7727415 61.7862796,19.8528073 48.6619218,18.5681961 Z" id="SKIN" fill="#FFFFFF"></path>
                            <path d="M33.7951097,8.23642789 C44.6612384,-7.33407211 74.5623736,0.400223338 65.9459036,21.1387233 C71.1519223,24.5759961 75.7326987,30.6685188 74.5580407,43.8458824 C72.7858712,63.7224733 79.2987023,62.9581552 81.7247113,69.7765643 C84.1840839,75.650587 81.9742882,83.4945643 77.2188946,87.8870188 C79.8706494,94.8867915 75.6018441,117.487292 61.2823682,113.03611 C52.9800358,110.455564 48.6558557,105.206901 47.7953352,98.8863779 C46.1869506,87.0675143 51.2616814,77.727287 54.3150124,74.0602006 C46.8056068,76.9810188 36.9630035,75.5681961 32.1967775,72.1136506 C32.1967775,76.4318324 30.8968977,79.0227415 28.7304314,81.1818324 C26.563965,83.3409233 19.6312727,84.6363779 11.8319939,81.1818324 C4.032715,77.727287 -7.66620326,61.3181961 7.02971789,44.2215643 C14.0399697,37.731337 11.9605953,38.4654279 11.9605953,26.6422461 C11.9605953,14.4153143 23.7968675,6.88224607 33.7951097,8.23642789 Z M61.8400166,26.6167688 C57.2999697,30.240587 48.558278,32.2740188 29.1497726,29.7340643 C23.9090905,28.6830188 20.8179763,35.7022233 20.3647515,38.880837 C19.858665,40.4889279 17.7350947,38.7923143 16.7181554,39.0656552 C10.7031782,39.251337 11.3474853,50.3214279 19.4695677,49.6149733 C19.9288585,49.6149733 20.3101566,49.9690643 20.3361542,50.4267915 C20.4912732,55.4881324 24.5061686,64.0014279 30.774189,68.6624733 C39.4929162,75.6717461 55.6209583,76.0906097 62.3049403,65.6699733 C68.3589139,57.8493143 66.8155232,37.8198597 61.8400166,26.6167688 Z M16.960453,42.3338711 C17.5072691,42.3338711 17.9505281,43.1098483 17.9505281,44.0667574 C17.9505281,45.0236665 17.5072691,45.7996438 16.960453,45.7996438 C16.4136369,45.7996438 15.9703779,45.0236665 15.9703779,44.0667574 C15.9703779,43.1098483 16.4136369,42.3338711 16.960453,42.3338711 Z" id="ink" fill="#009192"></path>
                        </g>
                    </g>
                </g>
                <g id="Face" transform="translate(184.000000, 34.000000)" fill="#009192">
                    <g id="Face/Normal-Face-2">
                        <path d="M10.7367171,25.5389118 C11.1910886,25.1299412 11.8925743,25.1652353 12.3031029,25.6178824 C12.32746,25.6443529 12.3509314,25.6734706 12.3721886,25.7021471 C12.3912314,25.7272941 12.4749314,25.8247941 12.5426886,25.8905294 C12.6122171,25.9646471 12.6928171,26.0361176 12.7698743,26.1093529 C12.9306314,26.2527353 13.1011314,26.3912647 13.2796029,26.5218529 C13.63566,26.7843529 14.0249314,27.0124412 14.4328029,27.2047941 C15.2454457,27.6009706 16.1426743,27.8387647 17.0664743,27.9437647 C18.9357743,28.1833235 20.9219886,27.9931765 22.6278743,27.1496471 L22.6278743,27.1496471 L22.63496,27.1461176 C22.9285743,27.0005294 23.2850743,27.1200882 23.4312171,27.4130294 C23.5667314,27.6856765 23.4697457,28.0143529 23.21776,28.1753824 C22.2899743,28.7639118 21.2572314,29.1799412 20.1908314,29.4367059 C19.1200029,29.6855294 18.0301314,29.8130294 16.9221029,29.7578824 C15.80876,29.7027353 14.6825743,29.4825882 13.6241457,29.0493529 C13.0936029,28.8384706 12.57856,28.5799412 12.0900886,28.2671471 C11.8456314,28.1114118 11.6078171,27.9424412 11.3748743,27.7602353 C11.2597314,27.6653824 11.1441457,27.5736176 11.0307743,27.4690588 C10.9112029,27.3618529 10.81776,27.2753824 10.6676314,27.1095 L10.6676314,27.1095 L10.6578886,27.0989118 C10.24736,26.6462647 10.2823457,25.9478824 10.7367171,25.5389118 Z M17.9572814,7.75032353 C18.2836671,7.75782353 18.5462814,8.01326471 18.5666529,8.33223529 L18.5666529,8.33223529 L18.5670957,8.34061765 C18.6543386,9.77002941 18.7548671,11.2104706 18.8890529,12.6262059 C18.9616814,13.329 19.04361,14.0445882 19.1786814,14.6851765 C19.2034814,14.7994412 19.2318243,14.9062059 19.26061,14.9997353 C19.5989529,15.1378235 19.9377386,15.2975294 20.2738671,15.4965 C20.6325814,15.7166471 20.9979386,15.9800294 21.31281,16.3457647 C21.6329957,16.7017941 21.88321,17.1795882 21.9930386,17.6688529 C22.1015386,18.1656176 22.10331,18.6059118 22.0266957,19.0872353 C21.9496386,19.5628235 21.7419386,20.0631176 21.4084671,20.4588529 C21.0785386,20.8576765 20.6542814,21.1400294 20.2313529,21.3204706 C19.8044386,21.5009118 19.3770814,21.5900294 18.95991,21.6394412 C18.5427386,21.6857647 18.1335386,21.6888529 17.7331957,21.6592941 C17.5467529,21.6469412 17.30141,21.6235588 17.1229386,21.5807647 C16.9236529,21.5357647 16.7757386,21.4942941 16.5210957,21.3857647 C16.2066671,21.2520882 16.0605243,20.8898824 16.1951529,20.5766471 C16.2739814,20.3922353 16.4329671,20.2660588 16.6140957,20.2206176 L16.6140957,20.2206176 L16.8545671,20.1619412 C16.9524386,20.1381176 17.16501,20.1456176 17.3244386,20.154 C17.5046814,20.1659118 17.62071,20.1747353 17.7969671,20.1751765 C18.1211386,20.1782647 18.4399957,20.154 18.7415814,20.1015 C19.3456386,19.9956176 19.8642243,19.7472353 20.1082386,19.4167941 C20.23401,19.2513529 20.3101814,19.0585588 20.3402957,18.8203235 C20.3726243,18.5887059 20.35491,18.2913529 20.2937957,18.0862059 C20.1835243,17.6750294 19.8478386,17.3295882 19.3332386,16.9867941 C19.0816957,16.8187059 18.7991529,16.6625294 18.4966814,16.5244412 L18.4966814,16.5244412 L18.3846386,16.4710588 L18.31511,16.4384118 C18.2464671,16.4053235 18.1592243,16.3484118 18.11981,16.314 C18.0772957,16.2778235 18.0343386,16.2372353 17.9980243,16.1970882 L17.9980243,16.1970882 L17.9249529,16.1044412 C17.7677386,15.8715 17.7451529,15.7554706 17.69821,15.6257647 C17.6251386,15.3848824 17.5888243,15.1845882 17.5560529,14.9856176 C17.4355957,14.2020882 17.3966243,13.4750294 17.3589814,12.7373824 C17.2872386,11.2687059 17.2850243,9.81944118 17.3186814,8.35826471 C17.3266529,8.01458824 17.6122957,7.74238235 17.9572814,7.75032353 Z M2.98964,10.0511912 C3.17032571,8.80619118 4.23274,7.92869118 5.36246857,8.09148529 C6.49219714,8.25427941 7.26144,9.39560294 7.08075429,10.6406029 C6.90006857,11.8860441 5.83765429,12.7631029 4.70748286,12.60075 C3.57819714,12.4379559 2.80895429,11.2961912 2.98964,10.0511912 Z M26.5545114,7.32979412 C27.68424,7.167 28.7462114,8.0445 28.9268971,9.2895 C29.1080257,10.5349412 28.3387829,11.6762647 27.2094971,11.8390588 C26.0793257,12.0018529 25.0169114,11.1243529 24.8362257,9.87935294 C24.65554,8.63435294 25.42434,7.49258824 26.5545114,7.32979412 Z M8.96803429,1.13113235 C9.69919143,1.06495588 10.3462057,1.60186765 10.4126343,2.33069118 C10.4790629,3.05907353 9.94010571,3.70363235 9.20850571,3.76936765 C9.17839143,3.77245588 9.14783429,3.77422059 9.11772,3.77466176 L9.11772,3.77466176 L9.09690571,3.77510294 C7.53406286,3.80554412 6.07352,3.60480882 4.75956286,3.60877941 C4.10192,3.60966176 3.47749143,3.67230882 2.87786286,3.83333824 C2.27867714,3.99657353 1.70207714,4.23701471 1.07764857,4.50172059 L1.07764857,4.50172059 L1.04576286,4.51495588 C0.66402,4.67730882 0.222491429,4.49995588 0.0599628571,4.11966176 C-0.0591657143,3.84083824 0.00549142857,3.52980882 0.198577143,3.31980882 C0.743291429,2.72995588 1.45274857,2.26760294 2.22509143,1.95877941 C2.99610571,1.64245588 3.81494857,1.46069118 4.60323429,1.36186765 C5.39284857,1.26304412 6.15367714,1.25025 6.87907714,1.22422059 C7.60492,1.20083824 8.29843429,1.19201471 8.96803429,1.13113235 Z M23.5935686,0.0588529412 C24.3809686,-0.0170294118 25.1971543,-0.0254117647 26.0301686,0.0681176471 C26.8591971,0.164294118 27.7178971,0.369441176 28.4822686,0.770911765 C29.2501829,1.164 29.9051686,1.71944118 30.4100257,2.34370588 C30.7023114,2.70502941 30.64474,3.23444118 30.28204,3.52561765 C29.97204,3.77444118 29.5398114,3.76914706 29.2382257,3.53797059 L29.2382257,3.53797059 L29.2262686,3.52870588 C28.1793543,2.72576471 27.1182686,2.24885294 25.87384,2.22547059 C25.2556114,2.214 24.61214,2.32032353 23.9637971,2.46547059 C23.3150114,2.6115 22.6600257,2.81444118 22.0099114,3.05355882 C21.2902686,3.31782353 20.4917971,2.95120588 20.2260829,2.23429412 C19.9608114,1.51738235 20.3288257,0.7215 21.0484686,0.457235294 C21.1250829,0.429441176 21.2101114,0.406941176 21.2871686,0.392823529 C22.0417971,0.259588235 22.8061686,0.135617647 23.5935686,0.0588529412 Z" id="Normal-face-2"></path>
                    </g>
                </g>
            </g>
        </g>
    </g>
</svg>