<?xml version="1.0" encoding="UTF-8"?>
<svg width="120px" height="120px" viewBox="0 0 120 120" version="1.1" xmlns="http://www.w3.org/2000/svg" xmlns:xlink="http://www.w3.org/1999/xlink">
    <!-- Generator: Sketch 53.2 (72643) - https://sketchapp.com -->
    <title>help</title>
    <desc>Created with Sketch.</desc>
    <g id="help" stroke="none" stroke-width="1" fill="none" fill-rule="evenodd" fill-opacity="0.2">
        <path d="M60.0000006,0 C26.8601008,0 0,26.860099 0,59.9999982 C0,93.1398973 26.8601008,120 60.0000006,120 C93.1399005,120 120,93.1398973 120,59.9999982 C120,26.860099 93.1399005,0 60.0000006,0 Z M66,88 L55,88 L55,79 L66,79 L66,88 Z M65.8539114,66.8127529 L65.8539114,72 L55.2653727,72 L55.2653727,56.8046471 L60.5002434,56.8046471 C64.8840582,56.8046471 68.4119482,53.2242706 68.4119482,48.7752353 C68.4119482,44.3262 64.8840582,40.7458235 60.5002434,40.7458235 C56.1164287,40.7458235 52.5885387,44.3262 52.5885387,48.7752353 L42,48.7752353 C42,38.4007412 50.2778341,30 60.5,30 C70.7224094,30 79,38.4009882 79,48.7752353 C79,57.3016059 73.522666,64.4671765 65.8531811,66.813 L65.8539114,66.8127529 Z" id="Fill-1" fill="#000000"></path>
    </g>
</svg>