<?xml version="1.0" encoding="UTF-8"?>
<svg width="515px" height="599px" viewBox="0 0 515 599" version="1.1" xmlns="http://www.w3.org/2000/svg" xmlns:xlink="http://www.w3.org/1999/xlink">
    <!-- Generator: Sketch 53.2 (72643) - https://sketchapp.com -->
    <title>noha-icon</title>
    <desc>Created with Sketch.</desc>
    <g id="Page-1" stroke="none" stroke-width="1" fill="none" fill-rule="evenodd">
        <g id="noha-icon">
            <g id="Group-28">
                <polygon id="Fill-1" fill="#FF4E00" points="257.5008 0.0004 -0.0002 171.6674 -0.0002 598.9634 515.0008 598.9634 515.0008 171.6674"></polygon>
                <polygon id="Fill-2" fill="#FFFFFF" points="66.7421 278.065 66.7421 211.361 84.0441 211.361 115.9451 252.164 115.9451 211.361 133.2471 211.361 133.2471 278.065 115.9451 278.065 84.0441 237.262 84.0441 278.065"></polygon>
                <g id="Group-27" transform="translate(67.000000, 208.963000)" fill="#FFFFFF">
                    <path d="M100.5429,22.9995 C96.9419,26.4995 95.2419,31.3995 95.2419,36.1005 C95.2419,42.0005 98.0429,46.1015 100.5429,48.5005 C103.7429,51.6015 108.2429,53.8015 114.0439,53.8015 C119.9439,53.8015 124.3449,51.7005 127.4439,48.6015 C130.5449,45.5005 132.8449,40.8995 132.8449,35.8005 C132.8449,30.6005 130.5449,25.9995 127.4439,22.9995 C123.7439,19.4995 118.6439,17.6985 114.0439,17.6985 C109.2429,17.6985 104.1439,19.3985 100.5429,22.9995 M140.3459,60.7015 C133.5449,67.2015 123.9439,70.6025 114.0439,70.6025 C104.1439,70.6025 94.5429,67.2015 87.7419,60.7015 C80.6419,53.9005 77.2409,44.6005 77.2409,35.8005 C77.2409,26.8995 80.6419,17.4985 87.7419,10.7985 C94.5429,4.2985 104.1439,0.8975 114.0439,0.8975 C123.9439,0.8975 133.5449,4.2985 140.3459,10.7985 C147.4449,17.4985 150.8459,26.8995 150.8459,35.8005 C150.8459,44.6005 147.4449,53.9005 140.3459,60.7015" id="Fill-3"></path>
                    <polygon id="Fill-5" points="157.5419 69.102 168.8429 2.398 185.9439 2.398 199.4439 38 213.7459 2.398 231.0469 2.398 241.0469 69.102 223.7459 69.102 218.8459 30.7 202.7449 69.102 195.8449 69.102 180.4429 30.7 174.7429 69.102"></polygon>
                    <path d="M288.1445,44.7006 L280.6445,23.0986 L273.3435,44.7006 L288.1445,44.7006 Z M292.7455,57.9016 L268.5425,57.9016 L264.0425,69.1016 L245.7425,69.1016 L271.3435,2.3976 L290.2455,2.3976 L315.3465,69.1016 L296.8445,69.1016 L292.7455,57.9016 Z" id="Fill-7"></path>
                    <path d="M340.3427,54.4008 L343.8427,54.4008 C348.0427,54.4008 353.9437,54.0018 358.4437,49.6008 C360.6437,47.5008 363.5437,43.2998 363.5437,35.8998 C363.5437,29.6998 361.6437,24.3988 358.3437,21.2988 C354.2427,17.4988 348.8427,17.0988 344.5427,17.0988 L340.3427,17.0988 L340.3427,54.4008 Z M323.0407,69.1018 L323.0407,2.3978 L345.7427,2.3978 C352.4437,2.3978 363.6437,3.2978 372.2437,11.5978 C380.0447,19.0988 381.5447,28.6998 381.5447,35.8998 C381.5447,44.7008 379.3447,52.5018 372.8447,59.0018 C367.5437,64.3018 358.6437,69.1018 347.2427,69.1018 L323.0407,69.1018 Z" id="Fill-9"></path>
                    <polygon id="Fill-11" points="23.6542 125.935 57.8352 125.935 57.8352 91.89 81.6262 91.89 81.6262 183.086 57.8352 183.086 57.8352 146.17 23.6542 146.17 23.6542 183.086 0.0012 183.086 0.0012 91.89 23.6542 91.89"></polygon>
                    <path d="M125.7851,120.0561 C120.8631,124.8421 118.5381,131.5411 118.5381,137.9671 C118.5381,146.0341 122.3671,151.6401 125.7851,154.9211 C130.1601,159.1601 136.3121,162.1671 144.2431,162.1671 C152.3091,162.1671 158.3251,159.2951 162.5641,155.0581 C166.8031,150.8191 169.9471,144.5301 169.9471,137.5571 C169.9471,130.4471 166.8031,124.1581 162.5641,120.0561 C157.5051,115.2711 150.5321,112.8091 144.2431,112.8091 C137.6811,112.8091 130.7071,115.1341 125.7851,120.0561 M180.2021,171.6011 C170.9041,180.4891 157.7781,185.1371 144.2431,185.1371 C130.7071,185.1371 117.5821,180.4891 108.2851,171.6011 C98.5771,162.3041 93.9291,149.5881 93.9291,137.5571 C93.9291,125.3881 98.5771,112.5361 108.2851,103.3751 C117.5821,94.4891 130.7071,89.8401 144.2431,89.8401 C157.7781,89.8401 170.9041,94.4891 180.2021,103.3751 C189.9081,112.5361 194.5561,125.3881 194.5561,137.5571 C194.5561,149.5881 189.9081,162.3041 180.2021,171.6011" id="Fill-13"></path>
                    <polygon id="Fill-15" points="200.9804 183.0863 216.4304 91.8903 239.8104 91.8903 258.2684 140.5653 277.8204 91.8903 301.4734 91.8903 315.1454 183.0863 291.4924 183.0863 284.7924 130.5833 262.7804 183.0863 253.3454 183.0863 232.2904 130.5833 224.4974 183.0863"></polygon>
                    <polygon id="Fill-17" points="382.0009 111.9897 353.8359 111.9897 353.8359 127.1657 380.4969 127.1657 380.4969 147.2637 353.8359 147.2637 353.8359 162.9877 382.0009 162.9877 382.0009 183.0867 330.1829 183.0867 330.1829 91.8897 382.0009 91.8897"></polygon>
                    <path d="M30.166,301.1723 L36.892,301.1723 C45.17,301.1723 52.068,300.3093 55.345,296.5153 C56.724,294.9633 57.76,292.3763 57.76,289.0993 C57.76,285.4783 56.552,282.5463 54.827,280.8203 C51.205,277.1993 43.79,277.0273 36.374,277.0273 L30.166,277.0273 L30.166,301.1723 Z M30.166,254.7783 L35.685,254.7783 C38.788,254.7783 43.963,254.4343 47.066,251.1563 C48.964,249.2603 49.825,246.1553 49.825,243.5683 C49.825,240.6373 48.792,237.7053 47.066,235.8083 C45.17,233.9103 41.547,232.3593 35.685,232.3593 L30.166,232.3593 L30.166,254.7783 Z M0.329,324.4543 L0.329,209.4223 L44.824,209.4223 C53.103,209.4223 62.933,210.6283 70.004,218.3903 C73.971,222.7003 77.076,229.7723 77.076,239.9473 C77.076,244.9483 76.213,249.2603 73.799,254.0893 C71.384,258.5733 68.798,261.1603 64.485,263.0573 C70.521,263.7473 76.558,266.5063 80.179,269.9553 C84.836,274.4403 87.94,281.8573 87.94,290.9963 C87.94,301.8613 83.802,309.2773 79.489,313.5893 C73.28,319.9703 62.416,324.4543 48.273,324.4543 L0.329,324.4543 Z" id="Fill-19"></path>
                    <path d="M162.2753,282.3735 L149.3403,245.1215 L136.7513,282.3735 L162.2753,282.3735 Z M170.2083,305.1385 L128.4723,305.1385 L120.7123,324.4545 L89.1513,324.4545 L133.3013,209.4225 L165.8963,209.4225 L209.1853,324.4545 L177.2793,324.4545 L170.2083,305.1385 Z" id="Fill-21"></path>
                    <path d="M225.746,289.9613 C232.128,295.9973 241.786,301.6893 252.134,301.6893 C258.169,301.6893 261.792,299.7923 263.688,297.7233 C265.413,295.9973 266.62,293.4103 266.62,290.4793 C266.62,288.2363 265.758,285.6493 263.343,283.5803 C260.412,280.9933 255.927,279.7863 248.512,277.5443 L240.75,275.1303 C235.921,273.5783 228.85,270.9903 224.193,265.8163 C218.331,259.4353 217.641,251.3293 217.641,245.4663 C217.641,231.3243 223.16,222.7003 228.161,217.6993 C234.024,211.8353 243.683,206.8343 257.652,206.8343 C269.034,206.8343 282.314,210.4553 293.179,216.1483 L281.279,239.4293 C272.311,232.3583 265.585,231.6693 261.618,231.6693 C258.686,231.6693 254.72,232.3583 251.788,235.1183 C250.064,236.8433 248.856,238.7393 248.856,241.3263 C248.856,243.3973 249.201,244.9483 250.408,246.5013 C251.27,247.5353 253.341,249.6053 260.412,251.6753 L269.552,254.4343 C276.795,256.6763 284.384,259.2633 290.419,265.8163 C296.284,272.0253 297.836,278.4073 297.836,286.3393 C297.836,296.8593 295.248,307.0343 286.97,315.3133 C277.141,325.1443 265.241,327.0403 252.995,327.0403 C245.752,327.0403 238.853,326.3513 230.402,323.2473 C228.506,322.5583 221.262,319.7983 212.984,314.1073 L225.746,289.9613 Z" id="Fill-23"></path>
                    <polygon id="Fill-25" points="382.0009 234.7738 346.4749 234.7738 346.4749 253.9168 380.1049 253.9168 380.1049 279.2688 346.4749 279.2688 346.4749 299.1028 382.0009 299.1028 382.0009 324.4548 316.6379 324.4548 316.6379 209.4218 382.0009 209.4218"></polygon>
                </g>
            </g>
        </g>
    </g>
</svg>