<?xml version="1.0" encoding="UTF-8"?>
<svg width="24px" height="24px" viewBox="0 0 24 24" version="1.1" xmlns="http://www.w3.org/2000/svg" xmlns:xlink="http://www.w3.org/1999/xlink">
    <!-- Generator: Sketch 53.2 (72643) - https://sketchapp.com -->
    <title>icon-download</title>
    <desc>Created with Sketch.</desc>
    <g id="icon-download" stroke="none" stroke-width="1" fill="none" fill-rule="evenodd">
        <path d="M12.0000557,3.00027419 C10.2144557,3.00027419 8.42656726,3.66647688 7.06386957,5.00529834 C5.90726491,6.14168434 5.24120908,7.57691148 5.06679048,9.0581205 C2.22362765,9.31196136 0,11.6565221 0,14.5161733 C0,17.545165 2.49853928,20 5.58139513,20 L19.2558139,20 C21.884093,20 24,17.9210813 24,15.3387473 C24,12.7564133 21.884093,10.6774945 19.2558139,10.6774945 L18.9244185,10.6774945 C19.1707841,8.66068016 18.5025488,6.55283425 16.9273395,5.00502415 C15.5646976,3.66620269 13.785572,3 12.0000836,3 L12.0000557,3.00027419 Z M12.4984266,9 C12.7959923,9 13.0367635,9.23854133 13.0367635,9.53333333 L13.0367635,15.2666667 L15.0975709,13.40832 C15.3068063,13.2197787 15.6632554,13.243736 15.8630322,13.4416533 C16.0701654,13.6468613 16.0312625,14.01248 15.8209746,14.2 L12.8601217,16.8666667 C12.7413081,16.9739573 12.6414223,17 12.4984131,17 C12.354365,16.9968747 12.2134714,16.9364587 12.1367046,16.8666667 L9.17585167,14.2 C8.9550501,14.009376 8.94348394,13.65 9.1337941,13.4416533 C9.32410427,13.2333067 9.69000378,13.2197787 9.89925533,13.40832 L11.9600628,15.2666667 L11.9600628,9.53333333 C11.9600628,9.23853333 12.200842,9 12.4983997,9 L12.4984266,9 Z" id="Fill-1" fill="#FF4E00"></path>
    </g>
</svg>