<?xml version="1.0" encoding="UTF-8"?>
<svg width="100px" height="100px" viewBox="0 0 100 100" version="1.1" xmlns="http://www.w3.org/2000/svg" xmlns:xlink="http://www.w3.org/1999/xlink">
    <!-- Generator: Sketch 53.2 (72643) - https://sketchapp.com -->
    <title>icon-immigration</title>
    <desc>Created with Sketch.</desc>
    <g id="icon-immigration" stroke="none" stroke-width="1" fill="none" fill-rule="evenodd">
        <g id="Group-8" transform="translate(2.000000, 1.000000)" fill="#333333">
            <path d="M94.79922,28.9995774 L68.09922,28.9995774 L68.09922,15.5459713 L70.18518,16.8866518 C70.386744,17.0179117 70.611744,17.0788496 70.832052,17.0788496 C71.225796,17.0788496 71.61486,16.8819716 71.844552,16.5257049 C72.200808,15.96788 72.041424,15.2272657 71.483616,14.8662948 L48.651216,0.189851731 C48.257472,-0.0632839104 47.751216,-0.0632839104 47.352816,0.189851731 L24.515616,14.8662948 C23.957808,15.2225615 23.798424,15.967892 24.15468,16.5257049 C24.510936,17.0835297 25.256244,17.2429185 25.81404,16.8866518 L27.9,15.5459713 L27.9,28.9995774 L1.2,28.9995774 C0.539064,28.9995774 0,29.5386577 0,30.1996137 L0,94.7999638 C0,95.4609197 0.539064,96 1.2,96 L94.8,96 C95.460936,96 96,95.4609197 96,94.7999638 L96,30.1996137 C96,29.5339656 95.460936,28.9995774 94.8,28.9995774 L94.79922,28.9995774 Z M74.35242,93.5999275 L21.75402,93.5999275 L21.75402,86.5966361 L74.35242,86.5966361 L74.35242,93.5999275 Z M57.30882,84.1965637 L38.68962,84.1965637 L38.68962,64.297563 L57.30882,64.297563 L57.30882,84.1965637 Z M47.99946,2.62170114 L65.69946,13.9986446 L65.69946,84.1959637 L59.70882,84.1959637 L59.70882,63.0969267 C59.70882,62.4359708 59.169756,61.8968905 58.50882,61.8968905 L37.48962,61.8968905 C36.828684,61.8968905 36.28962,62.4359708 36.28962,63.0969267 L36.28962,84.1959637 L30.29898,84.1959637 L30.29898,14.0034447 L47.99946,2.62170114 Z M2.39934,31.3985698 L27.89946,31.3985698 L27.89946,84.2001638 L20.55414,84.2001638 C19.893204,84.2001638 19.35414,84.7392441 19.35414,85.4002 L19.35414,93.5988475 L2.39934,93.5988475 L2.39934,31.3985698 Z M93.59958,93.5988475 L76.75266,93.5988475 L76.75266,85.3955199 C76.75266,84.7345639 76.213596,84.1954837 75.55266,84.1954837 L68.09958,84.1954837 L68.09958,31.3986898 L93.59958,31.3986898 L93.59958,93.5988475 Z" id="Fill-1"></path>
            <path d="M42.1591323,52 L53.8408677,52 C54.4792946,52 55,51.4792946 55,50.8408677 L55,39.1591323 C55,38.5207054 54.4792946,38 53.8408677,38 L42.1591323,38 C41.5207054,38 41,38.5207054 41,39.1591323 L41,50.8408677 C41,51.4838268 41.5161732,52 42.1591323,52 Z M43.3182646,40.3182646 L52.6818513,40.3182646 L52.6818513,49.6818513 L43.3182646,49.6818513 L43.3182646,40.3182646 Z" id="Fill-2"></path>
            <path d="M42.1591323,31 L53.8408677,31 C54.4792946,31 55,30.479467 55,29.8412514 L55,18.1587486 C55,17.520533 54.4792946,17 53.8408677,17 L42.1591323,17 C41.5207054,17 41,17.520533 41,18.1587486 L41,29.8366165 C41,30.4793627 41.5161732,30.9998841 42.1591323,30.9998841 L42.1591323,31 Z M43.3182646,19.3174971 L52.6818513,19.3174971 L52.6818513,28.6779838 L43.3182646,28.6779838 L43.3182646,19.3174971 Z" id="Fill-3"></path>
            <path d="M75.166903,52 L85.833097,52 C86.4758038,52 87,51.4792946 87,50.8408677 L87,39.1591323 C87,38.5207054 86.4758038,38 85.833097,38 L75.166903,38 C74.5241962,38 74,38.5207054 74,39.1591323 L74,50.8408677 C74,51.4838268 74.5241962,52 75.166903,52 Z M76.3338061,40.3182646 L84.6661939,40.3182646 L84.6661939,49.6818513 L76.3338061,49.6818513 L76.3338061,40.3182646 Z" id="Fill-4"></path>
            <path d="M75.166903,76 L85.833097,76 C86.4758038,76 87,75.479467 87,74.8412514 L87,63.1587486 C87,62.520533 86.4758038,62 85.833097,62 L75.166903,62 C74.5241962,62 74,62.520533 74,63.1587486 L74,74.8366165 C74,75.4793627 74.5241962,75.9998841 75.166903,75.9998841 L75.166903,76 Z M76.3338061,64.3174971 L84.6661939,64.3174971 L84.6661939,73.6779838 L76.3338061,73.6779838 L76.3338061,64.3174971 Z" id="Fill-5"></path>
            <path d="M10.166903,52 L20.833097,52 C21.4758038,52 22,51.4792946 22,50.8408677 L22,39.1591323 C22,38.5207054 21.4758038,38 20.833097,38 L10.166903,38 C9.52419618,38 9,38.5207054 9,39.1591323 L9,50.8408677 C9,51.4838268 9.52419618,52 10.166903,52 Z M11.3338061,40.3182646 L19.6661939,40.3182646 L19.6661939,49.6818513 L11.3338061,49.6818513 L11.3338061,40.3182646 Z" id="Fill-6"></path>
            <path d="M20.833097,76 C21.4758038,76 22,75.479467 22,74.8412514 L22,63.1587486 C22,62.520533 21.4758038,62 20.833097,62 L10.166903,62 C9.52419618,62 9,62.520533 9,63.1587486 L9,74.8366165 C9,75.474832 9.52419618,75.995365 10.166903,75.995365 L20.833097,76 Z M11.3338061,64.3174971 L19.6661939,64.3174971 L19.6661939,73.6779838 L11.3338061,73.6779838 L11.3338061,64.3174971 Z" id="Fill-7"></path>
        </g>
    </g>
</svg>