<?xml version="1.0" encoding="UTF-8"?>
<svg width="24px" height="24px" viewBox="0 0 24 24" version="1.1" xmlns="http://www.w3.org/2000/svg" xmlns:xlink="http://www.w3.org/1999/xlink">
    <!-- Generator: Sketch 53.2 (72643) - https://sketchapp.com -->
    <title>icon-upload-small</title>
    <desc>Created with Sketch.</desc>
    <g id="icon-upload-small" stroke="none" stroke-width="1" fill="none" fill-rule="evenodd">
        <path d="M12.0000557,3.00027419 C10.2144557,3.00027419 8.42656726,3.66647688 7.06386957,5.00529834 C5.90726491,6.14168434 5.24120908,7.57691148 5.06679048,9.0581205 C2.22362765,9.31196136 0,11.6565221 0,14.5161733 C0,17.545165 2.49853928,20 5.58139513,20 L19.2558139,20 C21.884093,20 24,17.9210813 24,15.3387473 C24,12.7564133 21.884093,10.6774945 19.2558139,10.6774945 L18.9244185,10.6774945 C19.1707841,8.66068016 18.5025488,6.55283425 16.9273395,5.00502415 C15.5646976,3.66620269 13.785572,3 12.0000836,3 L12.0000557,3.00027419 Z M11.5015734,17 C11.2040077,17 10.9632365,16.7614587 10.9632365,16.4666667 L10.9632365,10.7333333 L8.90242905,12.59168 C8.69319365,12.7802213 8.33674465,12.756264 8.13696782,12.5583467 C7.92983463,12.3531387 7.96873755,11.98752 8.17902539,11.8 L11.1398783,9.13333333 C11.2586919,9.02604267 11.3585777,9 11.5015869,9 C11.645635,9.00312533 11.7865286,9.06354133 11.8632954,9.13333333 L14.8241483,11.8 C15.0449499,11.990624 15.0565161,12.35 14.8662059,12.5583467 C14.6758957,12.7666933 14.3099962,12.7802213 14.1007447,12.59168 L12.0399372,10.7333333 L12.0399372,16.4666667 C12.0399372,16.7614667 11.799158,17 11.5016003,17 L11.5015734,17 Z" id="Fill-1" fill="#FF4E00"></path>
    </g>
</svg>