<?xml version="1.0" encoding="UTF-8"?>
<svg width="100px" height="100px" viewBox="0 0 100 100" version="1.1" xmlns="http://www.w3.org/2000/svg" xmlns:xlink="http://www.w3.org/1999/xlink">
    <!-- Generator: Sketch 53.2 (72643) - https://sketchapp.com -->
    <title>icon-health</title>
    <desc>Created with Sketch.</desc>
    <g id="icon-health" stroke="none" stroke-width="1" fill="none" fill-rule="evenodd">
        <g id="Group-5" transform="translate(12.000000, 4.000000)" fill="#333333">
            <path d="M33.5,43 C39.2013056,43 44.672035,40.7348299 48.7036781,36.7036781 C52.7353213,32.6725264 55,27.2015022 55,21.5 C55,15.7984978 52.7348299,10.327965 48.7036781,6.29632186 C44.6725264,2.26467872 39.2015022,0 33.5,0 C27.7984978,0 22.327965,2.26517015 18.2963219,6.29632186 C14.2646787,10.3274736 12,15.7984978 12,21.5 C12.007676,27.2013056 14.2728364,32.6641722 18.3040864,36.6958154 C22.3353364,40.7270654 27.7985961,42.9921372 33.4999017,42.9999017 L33.5,43 Z M33.5,3.07179363 C38.387409,3.07179363 43.0751033,5.0144913 46.5306009,8.46979228 C49.9859018,11.9250933 51.9285995,16.6128858 51.9285995,21.5003931 C51.9285995,26.3879005 49.9859018,31.0754965 46.5306009,34.530994 C43.0752999,37.986295 38.3875073,39.9289926 33.5,39.9289926 C28.6124927,39.9289926 23.9248967,37.986295 20.4693991,34.530994 C17.0140982,31.075693 15.0714005,26.3879005 15.0714005,21.5003931 C15.0752434,16.6129841 17.0217644,11.9291229 20.4732322,8.47372367 C23.9285332,5.0222558 28.6123944,3.07572502 33.4999017,3.07189191 L33.5,3.07179363 Z" id="Fill-1"></path>
            <path d="M73.9973755,60.6932477 C74.0012333,57.1009869 71.9122759,53.8278392 68.6478267,52.3125203 C65.3833775,50.797103 61.5331508,51.3125477 58.7812692,53.6317043 C56.0293877,55.9508609 54.8770724,59.6509367 55.8251499,63.1162809 C56.7732669,66.5854651 59.6561369,69.1855316 63.2058283,69.7854561 L63.2058283,76.0777216 C63.2058283,83.7238295 56.9929557,89.9233415 49.3314751,89.9233415 C41.6699946,89.9233415 35.457122,83.7233372 35.457122,76.0777216 L35.457122,60.4085962 C36.8099257,59.9239797 37.8620954,58.8393205 38.3014532,57.4739582 C45.5394611,56.7585781 52.2537521,53.3893912 57.140658,48.0124216 C62.0276626,42.6393904 64.737118,35.6437177 64.7486618,28.3851533 L64.7486618,26.8466961 L66.2903115,26.8466961 C66.6988461,26.8466961 67.0919692,26.6851605 67.3810594,26.3966986 C67.6701495,26.1082366 67.8319907,25.7159276 67.8319907,25.3082093 L67.8319907,14.5385163 C67.8319907,14.1308276 67.6701199,13.7385186 67.3810594,13.4500271 C67.0919988,13.1615355 66.6988757,13.0000295 66.2903115,13.0000295 L60.123713,13.0000295 C59.2719529,13.0000295 58.5820634,13.6884904 58.5820634,14.5384868 L58.5820634,25.3081798 C58.5820634,25.7158685 58.7439342,26.1081775 59.0329947,26.396669 C59.3220552,26.6851605 59.7151784,26.8466665 60.1237426,26.8466665 L61.6653922,26.8466665 L61.6653922,28.3851238 C61.6538286,34.8428042 59.2565709,41.0698883 54.9284081,45.8659365 C50.5963974,50.6659231 44.6454819,53.7004992 38.2095265,54.3851004 C37.519637,52.6196899 35.816097,51.4543024 33.9159953,51.4543024 C32.0158937,51.4543024 30.3124325,52.6196899 29.6224642,54.3851004 C23.1861141,53.7004894 17.2350013,50.6659231 12.9035825,45.8659365 C8.57541977,41.0697899 6.1781423,34.8431981 6.16659842,28.3851238 L6.16659842,26.8466665 L7.70824803,26.8466665 C8.11678271,26.8466665 8.50990582,26.685131 8.79899596,26.396669 C9.08808609,26.1082071 9.24992723,25.715898 9.24992723,25.3081798 L9.24992723,14.5384868 C9.24992723,14.1307981 9.08805649,13.738489 8.79899596,13.4499975 C8.50993542,13.161506 8.11681231,13 7.70824803,13 L1.54164961,13 C0.689889432,13 0,13.6884608 0,14.5384572 L0,25.3081502 C0,25.7158389 0.161870742,26.108148 0.450931276,26.3966395 C0.739991811,26.685131 1.13311493,26.846637 1.54167921,26.846637 L3.08332881,26.846637 L3.08332881,28.3850942 C3.09489242,35.6427724 5.80432803,42.6393313 10.6913326,48.0123625 C15.5783372,53.3892336 22.2924309,56.7584796 29.5305375,57.4738991 C29.9699051,58.8392615 31.022065,59.9239107 32.3748687,60.4085371 L32.3748687,76.0776625 C32.3748687,82.1237749 35.6084355,87.7118425 40.8539908,90.7355879 C46.0994474,93.754804 52.5665812,93.754804 57.8126298,90.7355879 C63.0580864,87.7125317 66.291752,82.1240703 66.291752,76.0776625 L66.291752,69.785397 C70.7355508,69.0315579 73.9923041,65.1930653 74,60.6930901 L73.9973755,60.6932477 Z M61.6641786,16.07848 L64.7474779,16.07848 L64.7474779,23.7707662 L61.6641786,23.7707662 L61.6641786,16.07848 Z M3.08149363,16.07848 L6.16479284,16.07848 L6.16479284,23.7707662 L3.08149363,23.7707662 L3.08149363,16.07848 Z M64.7474779,66.8470766 C62.2539028,66.8470766 60.003045,65.3471178 59.0511196,63.0470626 C58.0952968,60.747106 58.6233155,58.1009595 60.3885314,56.3432291 C62.1499093,54.5816586 64.8015466,54.0547924 67.1062758,55.0085866 C69.4110049,55.9585803 70.9141749,58.2047377 70.9141749,60.6931492 C70.9141749,62.3238647 70.2628243,63.8893003 69.1066216,65.0431678 C67.9504189,66.1970354 66.3817744,66.8469782 64.7475765,66.8469782 L64.7474779,66.8470766 Z" id="Fill-2"></path>
            <path d="M67,60 C67,64 61,64 61,60 C61,56 67,56 67,60" id="Fill-3"></path>
            <path d="M30.3333604,29.7777866 C28.5837428,29.7777866 27.1667004,28.3856037 27.1667004,26.6666799 L24.0000405,26.6666799 C24.0000405,28.3155167 24.6690012,29.8983482 25.8564632,31.0650381 C27.0439252,32.231728 28.6549799,32.8888933 30.3333604,32.8888933 L31.9166903,32.8888933 L31.9166903,36 L35.0833502,36 L35.0833502,32.8888933 L36.6666802,32.8888933 C40.165814,32.8888933 43,30.1044279 43,26.6666799 C43,23.2289319 40.165814,20.4444666 36.6666802,20.4444666 L35.0833502,20.4444666 L35.0833502,14.2222532 L36.6666802,14.2222532 C37.50584,14.2222532 38.3133433,14.5489144 38.9070541,15.1322494 C39.5008053,15.7155844 39.8332996,16.5089017 39.8332996,17.3333201 L42.9999595,17.3333201 C42.9999595,15.6844833 42.3309988,14.1016518 41.1435368,12.9349619 C39.9560748,11.768272 38.3450201,11.1111067 36.6666396,11.1111067 L35.0833097,11.1111067 L35.0833097,8 L31.9166498,8 L31.9166498,11.1111067 L30.3333198,11.1111067 C26.834186,11.1111067 24,13.8955721 24,17.3333201 C24,20.7710681 26.834186,23.5555334 30.3333198,23.5555334 L31.9166498,23.5555334 L31.9166498,29.7777468 L30.3333604,29.7777866 Z M30.3333604,20.4444666 C28.5837428,20.4444666 27.1667004,19.0522837 27.1667004,17.3333599 C27.1667004,15.6144361 28.5837428,14.2222532 30.3333604,14.2222532 L31.9166903,14.2222532 L31.9166903,20.4444666 L30.3333604,20.4444666 Z M35.0833502,23.5555733 L36.6666802,23.5555733 C38.4162978,23.5555733 39.8333401,24.9477562 39.8333401,26.6666799 C39.8333401,28.3856037 38.4162978,29.7777866 36.6666802,29.7777866 L35.0833502,29.7777866 L35.0833502,23.5555733 Z" id="Fill-4"></path>
        </g>
    </g>
</svg>