<?xml version="1.0" encoding="UTF-8"?>
<svg width="24px" height="24px" viewBox="0 0 24 24" version="1.1" xmlns="http://www.w3.org/2000/svg" xmlns:xlink="http://www.w3.org/1999/xlink">
    <!-- Generator: Sketch 53.2 (72643) - https://sketchapp.com -->
    <title>icon-directions-small</title>
    <desc>Created with Sketch.</desc>
    <g id="icon-directions-small" stroke="none" stroke-width="1" fill="none" fill-rule="evenodd">
        <g id="Group-3">
            <path d="M14.9535291,1.22829471 C14.1673261,0.441215931 13.1002079,0 11.9879253,0 C10.8756428,0 9.80857821,0.441215931 9.02232153,1.22829471 L1.18873696,9.06017932 C0.425585746,9.85879492 0,10.9204498 0,12.0251396 C0,13.1287295 0.425585746,14.1903844 1.18873696,14.9890268 L9.02339495,22.8230575 L9.02234568,22.8230575 C9.82532095,23.5786918 10.885113,24 11.9879495,24 C13.0907859,24 14.1505243,23.5786918 14.9535533,22.8230575 L22.788211,14.9890268 L22.7871644,14.9890268 C23.5639213,14.1977626 24,13.1329418 24,12.0251396 C24,10.916318 23.5639213,9.85149721 22.7871644,9.06017932 L14.9535291,1.22829471 Z" id="Fill-1" fill="#FF4E00"></path>
            <path d="M17.9277377,10.6108818 C17.8801937,10.4894814 17.8076287,10.3780965 17.7162946,10.2842404 L14.713569,7.28054944 C14.3207004,6.90133146 13.6963898,6.90757913 13.3097988,7.29306402 C12.9244571,7.67977922 12.9181794,8.30429063 13.2972883,8.69728554 L14.5922237,9.99138775 L9.00090851,9.99138775 C8.44789455,9.99138775 8,10.4394263 8,10.9926181 L8,15.9987697 C8,16.5519614 8.44789455,17 9.00090851,17 C9.55392248,17 10.001817,16.5519614 10.001817,15.9987697 L10.001817,11.9938484 L14.5922237,11.9938484 L13.2985374,13.2879506 L13.2972851,13.2879506 C12.9069148,13.679696 12.9069148,14.3129541 13.2972851,14.7046995 C13.6914028,15.0876661 14.3194609,15.0876661 14.7135786,14.7046995 L17.7163042,11.7010085 C17.9928048,11.409399 18.0753821,10.9851209 17.9277473,10.6109331 L17.9277377,10.6108818 Z" id="Fill-2" fill="#FFFFFF"></path>
        </g>
    </g>
</svg>