<?xml version="1.0" encoding="UTF-8"?>
<svg width="100px" height="100px" viewBox="0 0 100 100" version="1.1" xmlns="http://www.w3.org/2000/svg" xmlns:xlink="http://www.w3.org/1999/xlink">
    <!-- Generator: Sketch 53.2 (72643) - https://sketchapp.com -->
    <title>icon-hosue</title>
    <desc>Created with Sketch.</desc>
    <g id="icon-hosue" stroke="none" stroke-width="1" fill="none" fill-rule="evenodd">
        <g id="Group-3" fill="#333333">
            <path d="M99.043,40.352 L50.977,0.743 C50.41059,0.27425 49.5708,0.27425 49.0043,0.743 L31.1923,15.431 L31.1923,1.954 C31.1923,1.09462 30.48918,0.411 29.6493,0.411 L18.0873,0.411 C17.22792,0.411 16.5443,1.11412 16.5443,1.954 L16.5443,27.52 L0.9582964,40.352 C0.2942364,40.89888 0.1965764,41.8754 0.7434564,42.5395 C1.290326,43.20356 2.266856,43.30122 2.930956,42.75434 L9.083256,37.69574 L9.083256,93.43774 C9.083256,96.85574 11.85666,99.62914 15.27466,99.62914 L84.72766,99.62914 C88.14566,99.62914 90.91906,96.85574 90.91906,93.43774 L90.91906,37.67574 L97.05186,42.73434 C97.34483,42.96872 97.69639,43.0859 98.02842,43.0859 C98.47764,43.0859 98.92686,42.89059 99.21982,42.51949 C99.80576,41.87496 99.7081,40.89839 99.04404,40.35149 L99.043,40.352 Z M19.629,3.497 L28.086,3.497 L28.086,17.989 L19.629,24.9617 L19.629,3.497 Z M62.188,96.505005 L37.813,96.505005 L37.813,66.31001 L62.188,66.31001 L62.188,96.505005 Z M87.833,93.419105 C87.833,95.137905 86.4463,96.524605 84.7275,96.524605 L65.2935,96.524605 L65.2935,66.3096 L70.3521,66.3096 C71.21148,66.3096 71.8951,65.60648 71.8951,64.7666 C71.8951,63.90722 71.19198,63.2236 70.3521,63.2236 L29.6491,63.2236 C28.78972,63.2236 28.1061,63.92672 28.1061,64.7666 C28.1061,65.62598 28.80922,66.3096 29.6491,66.3096 L34.7077,66.3096 L34.7077,96.504604 L15.2737,96.504604 C13.5549,96.504604 12.1682,95.117904 12.1682,93.399104 L12.1682,35.11811 L19.0432,29.45401 L50.0002,3.94601 L87.8322,35.11801 L87.833,93.419105 Z" id="Fill-1"></path>
            <path d="M36.25,26.25 C35.39062,26.25 34.707,26.95312 34.707,27.793 L34.707,41.543 C34.707,42.40238 35.41012,43.086 36.25,43.086 L63.73,43.086 C64.58938,43.086 65.273,42.38287 65.273,41.543 L65.273,27.793 C65.273,26.93362 64.56987,26.25 63.73,26.25 L36.25,26.25 Z M48.457,40 L37.812,40 L37.812,29.355 L48.457,29.355 L48.457,40 Z M51.5429,29.355 L62.1879,29.355 L62.1879,40 L51.5429,40 L51.5429,29.355 Z" id="Fill-2"></path>
        </g>
    </g>
</svg>