<?xml version="1.0" encoding="UTF-8"?>
<svg width="100px" height="100px" viewBox="0 0 100 100" version="1.1" xmlns="http://www.w3.org/2000/svg" xmlns:xlink="http://www.w3.org/1999/xlink">
    <!-- Generator: Sketch 53.2 (72643) - https://sketchapp.com -->
    <title>icon-funds</title>
    <desc>Created with Sketch.</desc>
    <g id="icon-funds" stroke="none" stroke-width="1" fill="none" fill-rule="evenodd">
        <g id="Group-3" transform="translate(12.000000, 3.000000)" fill="#333333">
            <path d="M11.438,48.562 L11.438,68.874 C11.43019,74.0498 7.2388,78.2412 2.063,78.249 C1.19972,78.249 0.5005,78.94822 0.5005,79.8115 L0.5005,80.07322 C0.50831,87.69042 6.6841,93.866221 14.3015,93.87422 L61.7035,93.87422 C69.3207,93.866408 75.4925,87.69062 75.5005,80.07322 L75.5005,79.8115 C75.5005,79.39744 75.33644,78.999 75.04347,78.706 C74.7505,78.413 74.35206,78.24897 73.93797,78.24897 C68.76217,78.24116 64.57077,74.04977 64.56297,68.87397 L64.56297,48.56197 C64.55906,40.05807 60.48487,32.06997 53.60597,27.06997 C54.99267,25.84337 55.52787,23.91377 54.96927,22.14807 C54.41458,20.38247 52.86767,19.11287 51.02787,18.90587 L55.12167,5.26087 C55.16464,5.11634 55.18808,4.96399 55.18808,4.81165 C55.18808,2.18275 52.44198,0.12415 48.93808,0.12415 C46.96538,0.12415 45.23498,0.77649 44.09828,1.81165 C42.68808,0.76865 40.52018,0.12415 38.00058,0.12415 C35.48098,0.12415 33.31308,0.76868 31.90288,1.81165 C30.76618,0.77645 29.03568,0.12415 27.06308,0.12415 C23.55918,0.12415 20.81308,2.18275 20.81308,4.81165 C20.81308,4.96399 20.83651,5.11634 20.87948,5.26087 L24.97328,18.90587 C23.13348,19.1129 21.58658,20.38247 21.03188,22.14807 C20.47329,23.91367 21.00844,25.84337 22.39518,27.06997 C15.51628,32.06997 11.44218,40.05797 11.43818,48.56197 L11.438,48.562 Z M27.063,3.25 C28.9692,3.25 30.188,4.17578 30.188,4.8125 C30.188,5.67578 30.88722,6.375 31.7505,6.375 C32.61378,6.375 33.313,5.67578 33.313,4.8125 C33.313,4.50391 34.8208,3.25 38.0005,3.25 C41.1802,3.25 42.688,4.5039 42.688,4.8125 C42.688,5.67578 43.38722,6.375 44.2505,6.375 C45.11378,6.375 45.813,5.67578 45.813,4.8125 C45.813,4.17578 47.0318,3.25 48.938,3.25 C50.6958,3.25 51.8677,4.03516 52.0396,4.6562 L47.774,18.8752 L43.0318,18.8752 L44.2193,12.9299 C44.39118,12.08615 43.84039,11.2619 42.9927,11.094 C42.14895,10.92212 41.3247,11.47291 41.1568,12.3206 L39.8443,18.8753 L36.1568,18.8753 L34.8443,12.3206 C34.67633,11.47294 33.85211,10.9222 33.0084,11.094 C32.16074,11.26197 31.61,12.08619 31.7818,12.9299 L32.9693,18.8752 L28.2271,18.8752 L23.9615,4.6562 C24.13337,4.03511 25.3053,3.25 27.0631,3.25 L27.063,3.25 Z M25.5005,22 L50.5005,22 C51.36378,22 52.063,22.69922 52.063,23.5625 C52.063,24.42578 51.36378,25.125 50.5005,25.125 L25.5005,25.125 C24.63722,25.125 23.938,24.42578 23.938,23.5625 C23.938,22.69922 24.63722,22 25.5005,22 Z M26.30519,28.25 L49.69619,28.25 C56.95789,32.4375 61.43019,40.18 61.43819,48.562 L61.43819,68.874 C61.446,75.1435 66.09439,80.444 72.30919,81.269 C71.69591,86.6635 67.13339,90.741701 61.70019,90.749501 L14.29819,90.749501 C8.86849,90.741689 4.30599,86.6636 3.69319,81.269 C9.90799,80.44478 14.55619,75.144 14.56419,68.874 L14.56419,48.562 C14.572,40.1792 19.04469,32.437 26.30619,28.25 L26.30519,28.25 Z" id="Fill-1"></path>
            <path d="M38,40.75 C29.3828,40.75 22.375,48.4609 22.375,57.938 C22.375,67.4151 29.3828,75.126 38,75.126 C46.6172,75.126 53.625,67.4151 53.625,57.938 C53.625,48.4609 46.6172,40.75 38,40.75 Z M33.3125,62.625 C33.3125,61.76172 32.61328,61.0625 31.75,61.0625 C30.88672,61.0625 30.1875,61.76172 30.1875,62.625 C30.1875,65.6445 32.875,68.168 36.4375,68.75 L36.4375,71.8867 C30.2813,71.01951 25.4995,65.0976 25.4995,57.9377 C25.4995,50.7778 30.2807,44.8557 36.4375,43.9887 L36.4375,47.1254 C32.875,47.70743 30.1875,50.2309 30.1875,53.2504 C30.1875,56.6957 33.6914,59.5004 38,59.5004 C40.5391,59.5004 42.6875,60.9301 42.6875,62.6254 C42.6875,64.3207 40.5391,65.7504 38,65.7504 C35.4609,65.7504 33.3125,64.3207 33.3125,62.6254 L33.3125,62.625 Z M39.5625,71.8867 L39.5625,68.75 C43.125,68.16797 45.8125,65.6445 45.8125,62.625 C45.8125,59.1797 42.3086,56.375 38,56.375 C35.4609,56.375 33.3125,54.9453 33.3125,53.25 C33.3125,51.5547 35.4609,50.125 38,50.125 C40.5391,50.125 42.6875,51.5547 42.6875,53.25 C42.6875,54.11328 43.38672,54.8125 44.25,54.8125 C45.11328,54.8125 45.8125,54.11328 45.8125,53.25 C45.8125,50.2305 43.125,47.707 39.5625,47.125 L39.5625,43.9883 C45.7187,44.85549 50.5005,50.7774 50.5005,57.9373 C50.5005,65.0972 45.7193,71.0193 39.5625,71.8863 L39.5625,71.8867 Z" id="Fill-2"></path>
        </g>
    </g>
</svg>