<?xml version="1.0" encoding="UTF-8"?>
<svg width="100px" height="100px" viewBox="0 0 100 100" version="1.1" xmlns="http://www.w3.org/2000/svg" xmlns:xlink="http://www.w3.org/1999/xlink">
    <!-- Generator: Sketch 53.2 (72643) - https://sketchapp.com -->
    <title>icon-print</title>
    <desc>Created with Sketch.</desc>
    <g id="icon-print" stroke="none" stroke-width="1" fill="none" fill-rule="evenodd">
        <g id="Group-3" transform="translate(7.000000, 9.000000)" fill="#000000">
            <path d="M80.0594883,23.4283259 L64.3095137,23.4283259 L64.3095137,3.90345287 C64.3095137,1.7516183 62.5431021,0 60.3730943,0 L23.6228125,0 C21.4528046,0 19.686393,1.7516183 19.686393,3.90345287 L19.686393,23.4283259 L3.93641842,23.4283259 C1.76641055,23.4283259 0,25.1799442 0,27.3317788 L0,63.7783438 C0,65.9301783 1.76641055,67.6817966 3.93641842,67.6817966 L19.686393,67.6817966 L19.686393,78.0965502 C19.686393,80.2483847 21.4528046,82 23.6228125,82 L60.3771865,82 C62.5471944,82 64.3136059,80.2483847 64.3136059,78.0965502 L64.3136059,67.6817966 L80.0635806,67.6817966 C82.2335884,67.6817966 84,65.9301783 84,63.7783438 L83.9959998,27.3277208 C83.9959998,25.1798428 82.2295883,23.4282245 80.0595804,23.4282245 L80.0594883,23.4283259 Z M22.3129916,3.90345287 C22.3129916,3.18617806 22.9004518,2.6076449 23.6197433,2.6076449 L60.3741173,2.6076449 C61.0974499,2.6076449 61.680869,3.1901853 61.680869,3.90345287 L61.680869,23.4283259 L22.3136054,23.4283259 L22.3129916,3.90345287 Z M61.6843474,78.0880285 C61.6843474,78.8053033 61.0968872,79.3838364 60.3775957,79.3838364 L23.6232319,79.3838364 C22.8998994,79.3838364 22.3164802,78.801296 22.3164802,78.0880285 L22.3164802,52.0521591 C22.3164802,51.3348843 22.9039405,50.7563511 23.6232319,50.7563511 L60.3775957,50.7563511 C61.1009283,50.7563511 61.6843474,51.3388915 61.6843474,52.0521591 L61.6843474,78.0880285 Z M81.3700253,63.7745901 C81.3700253,64.4918649 80.7825651,65.0703981 80.0632736,65.0703981 L64.313299,65.0703981 L64.313299,52.0565214 C64.313299,49.9046868 62.5468875,48.1530685 60.3768796,48.1530685 L23.6225158,48.157025 C21.4525079,48.157025 19.6860963,49.9086433 19.6860963,52.0604779 L19.6860963,65.0743546 L3.93612173,65.0743546 C3.21278919,65.0743546 2.62937002,64.4918142 2.62937002,63.7785466 L2.62536987,27.3279237 C2.62536987,26.6106489 3.21283011,26.0321158 3.93212158,26.0321158 L80.0578514,26.0321158 C80.781184,26.0321158 81.3646031,26.6146562 81.3646031,27.3279237 L81.3700253,63.7745901 Z" id="Fill-1"></path>
            <path d="M12.665282,31 L7.33471804,31 C6.60044657,31 6,31.6701914 6,32.5 C6,33.3251984 6.59634438,34 7.33471804,34 L12.665282,34 C13.3995534,34 14,33.3298086 14,32.5 C14,31.6702381 13.4036556,31 12.665282,31 Z" id="Fill-2"></path>
        </g>
    </g>
</svg>