<?xml version="1.0" encoding="UTF-8"?>
<svg width="100px" height="100px" viewBox="0 0 100 100" version="1.1" xmlns="http://www.w3.org/2000/svg" xmlns:xlink="http://www.w3.org/1999/xlink">
    <!-- Generator: Sketch 53.2 (72643) - https://sketchapp.com -->
    <title>icon-application</title>
    <desc>Created with Sketch.</desc>
    <g id="icon-application" stroke="none" stroke-width="1" fill="none" fill-rule="evenodd">
        <g id="Group-10-Copy" transform="translate(8.000000, 2.000000)" fill="#333333">
            <path d="M6.84819474,45.834726 L6.84819474,90.3938304 C6.84819474,91.054759 7.39104234,91.593817 8.05661734,91.593817 L16.940457,91.593817 L17.7051589,95.0578185 C17.8278863,95.6203122 18.3282457,96 18.8852561,96 C18.9702203,96 19.0599094,95.9906281 19.1448736,95.9718723 L39.2916953,91.5891611 L77.2905441,91.5891611 C77.9561191,91.5891611 78.4989667,91.0501031 78.4989667,90.3891744 L78.4989667,83.0626559 L81.0480133,82.5095341 C81.3595568,82.4392268 81.6333491,82.2517289 81.8080024,81.9845399 C81.9826557,81.7173509 82.0393066,81.3892385 81.9732179,81.079858 L78.4895773,65.2784337 C78.4895773,65.254998 78.50374,65.2315623 78.50374,65.2081265 L78.499015,5.6071895 C78.499015,4.94626086 77.9561674,4.40720285 77.2905924,4.40720285 L65.0601472,4.40720285 L64.2954453,0.943201385 C64.1538303,0.296336581 63.5071429,-0.116158831 62.8557306,0.0291475528 L42.7137426,4.4118588 L8.05618231,4.40716685 C7.39060731,4.40716685 6.8477597,4.94622486 6.8477597,5.6071535 L6.8477597,12.2070801 L0.951986653,13.4914258 C0.640443221,13.561733 0.366650911,13.7492309 0.191997592,14.01642 C0.0173442728,14.283609 -0.0393065789,14.6117213 0.0267820534,14.9211019 L6.84819474,45.834726 Z M9.26503995,89.1938437 L9.26503995,56.7894042 L16.4117721,89.1890438 L9.26503995,89.1938437 Z M76.0823511,89.1938437 L50.3236148,89.1938437 L76.0823511,83.592306 L76.0823511,89.1938437 Z M76.0823511,6.80756015 L76.0823511,54.3846309 L65.5888926,6.80756015 L76.0823511,6.80756015 Z M9.26503995,6.80756015 L31.677654,6.80756015 L9.26503995,11.6825059 L9.26503995,6.80756015 Z M62.1951585,2.63100661 L79.3535511,80.4237413 L19.8061103,93.3703973 L2.65255145,15.5776626 L62.1951585,2.63100661 Z" id="Fill-1"></path>
            <path d="M38.2438926,18 C38.3316271,18 38.4242406,17.9899235 38.511975,17.9697575 L58.0191984,13.5497547 C58.6918501,13.3985549 59.1207894,12.7080988 58.9696905,12.012598 C58.8234581,11.3170972 58.1556854,10.8786192 57.4830337,11.029819 L37.9808016,15.4498217 C37.3081499,15.6010215 36.8792106,16.2914776 37.0303095,16.9869784 C37.1570384,17.5917645 37.6737122,18 38.2440174,18 L38.2438926,18 Z" id="Fill-2"></path>
            <path d="M38.0303026,24.9869784 C38.1570028,25.5917645 38.6735594,26 39.2486007,26 C39.3363152,26 39.4289077,25.9899235 39.5166222,25.9697575 L59.0194209,21.5497547 C59.69192,21.3985549 60.120762,20.7080988 59.9696974,20.012598 C59.8234981,19.3170972 59.1558769,18.8786192 58.4833778,19.029819 L38.9805791,23.4498217 C38.30808,23.6010215 37.879238,24.2914776 38.0303026,24.9869784 Z" id="Fill-3"></path>
            <path d="M20.1968242,53 C20.2809014,53 20.3696543,52.990716 20.4537315,52.9721362 L60.0600832,44.3492063 C60.7046954,44.209899 61.1157543,43.57375 60.9709539,42.9329531 C60.8308172,42.2921562 60.1908807,41.8881663 59.5462685,42.0274736 L19.9399168,50.6504035 C19.2953046,50.7897108 18.8842457,51.4258597 19.0290461,52.0666566 C19.1551679,52.6238739 19.6503041,53 20.1968242,53 Z" id="Fill-4"></path>
            <path d="M22.0274245,62.0666566 C22.1488754,62.6238739 22.6440307,63 23.1952477,63 C23.2793282,63 23.3680845,62.990716 23.452165,62.9721362 L63.0600469,54.3492063 C63.704684,54.209899 64.1157588,53.57375 63.9709528,52.9329531 C63.8308107,52.2921562 63.1861736,51.8881663 62.5462123,52.0274736 L22.9383304,60.6504035 C22.2983572,60.7897108 21.8872823,61.4258597 22.0274245,62.0666566 Z" id="Fill-5"></path>
            <path d="M25.0290461,72.0667754 C25.1504923,72.6239218 25.6456285,73 26.1968242,73 C26.2809014,73 26.3696543,72.9907172 26.4537315,72.9721397 L66.0600832,64.3503076 C66.7046954,64.211018 67.1157543,63.5749501 66.9709539,62.9342347 C66.8308172,62.2935194 66.1862051,61.8849454 65.5462685,62.0288705 L25.9399168,70.6507026 C25.2953046,70.7899921 24.8842457,71.4260601 25.0290461,72.0667754 Z" id="Fill-6"></path>
            <path d="M26.0276381,81.0666566 C26.1490884,81.6238739 26.6442412,82 27.1954554,82 C27.2795354,82 27.3682913,81.990716 27.4523713,81.9721362 L67.0600517,73.3492063 C67.7046855,73.209899 68.1157582,72.57375 67.970953,71.9329531 C67.8308116,71.2921562 67.1908535,70.8881663 66.5462197,71.0274736 L26.9385394,79.6504035 C26.2939056,79.7897108 25.8874967,80.4212237 26.0276381,81.0666566 Z" id="Fill-7"></path>
            <path d="M36.8107504,37.2076069 C36.982904,36.9423918 37.038744,36.6167035 36.9736013,36.3096086 L32.7302124,16.9348298 C32.5906243,16.2927439 31.9485356,15.8879413 31.3111041,16.0275288 L11.9362374,20.2708984 C11.2941486,20.4104859 10.8846988,21.0479145 11.0289323,21.6900003 L15.2723212,41.0647792 C15.3421093,41.3718622 15.5282228,41.6417345 15.7934391,41.8138873 C15.9888553,41.9395149 16.2121916,42 16.4355279,42 C16.519276,42 16.6076814,41.9906973 16.6914295,41.9720801 L36.0662963,37.7287105 C36.3687352,37.6589227 36.6385969,37.47281 36.8107504,37.207595 L36.8107504,37.2076069 Z M17.3382113,39.3897411 L13.6066496,22.3424132 L30.6540548,18.6108684 L34.3856165,35.6581963 L17.3382113,39.3897411 Z" id="Fill-8"></path>
            <path d="M28.4607255,32.295054 L25.1178124,30.1499133 L27.2625215,26.8063275 C27.6100767,26.2620331 27.4545853,25.539383 26.9104005,25.1871678 C26.3662157,24.834976 25.6391453,24.9950653 25.2915666,25.5393596 L23.1468575,28.8829454 L19.8039444,26.7378047 C19.2597596,26.3856129 18.5372548,26.5457022 18.1851105,27.0899966 C17.8375552,27.6342909 17.9930466,28.356941 18.5372314,28.7091562 L21.8801445,30.8542969 L19.7354354,34.1978828 C19.3878802,34.7421771 19.5433716,35.4648272 20.0875564,35.8170424 C20.2841977,35.9451186 20.5037025,36 20.71863,36 C21.1027577,36 21.4823197,35.8078975 21.706402,35.4602723 L23.8511111,32.1166865 L27.1940242,34.2618272 C27.3906655,34.3899033 27.6101704,34.4447847 27.8250979,34.4447847 C28.2092373,34.4447847 28.5887876,34.2526822 28.8128699,33.905057 C29.1649908,33.3653293 29.0049337,32.6426792 28.4607489,32.2950306 L28.4607255,32.295054 Z" id="Fill-9"></path>
        </g>
    </g>
</svg>