<?xml version="1.0" encoding="UTF-8"?>
<svg width="100px" height="100px" viewBox="0 0 100 100" version="1.1" xmlns="http://www.w3.org/2000/svg" xmlns:xlink="http://www.w3.org/1999/xlink">
    <!-- Generator: Sketch 53.2 (72643) - https://sketchapp.com -->
    <title>icon-upload</title>
    <desc>Created with Sketch.</desc>
    <g id="icon-upload" stroke="none" stroke-width="1" fill="none" fill-rule="evenodd">
        <g id="Group-3" transform="translate(8.000000, 16.000000)" fill="#333333">
            <path d="M16.6298204,57 L27.4084464,57 C28.4948522,57 29.3847651,56.1022373 29.3847651,55.0062487 C29.3847651,53.91026 28.4948522,53.0124974 27.4084464,53.0124974 L16.6298204,53.0124974 C9.64027778,53.0087531 3.95271342,47.4613076 3.95271342,40.649707 C3.95271342,34.5635944 8.4207885,29.4274343 14.5832579,28.4401348 C15.4917095,28.2905077 16.1851012,27.5311489 16.2444288,26.6034321 C16.3445452,25.1968894 16.5707302,23.7717689 16.9378205,22.3652262 C19.6965033,11.543236 29.3776174,3.98000453 40.4609496,3.98000453 C51.5366878,3.98000453 61.2066009,11.5398844 63.966043,22.3546925 C64.351672,23.8809369 64.5889821,25.3958815 64.6779734,26.8734791 C64.7076372,27.4719875 65.0042749,28.0218492 65.4900202,28.3697502 C65.9646405,28.717632 66.576426,28.8373337 67.1511911,28.6877066 C68.2079806,28.4071546 69.2980884,28.2687507 70.3844941,28.2687507 C77.3740368,28.2687507 83.0616011,33.8162057 83.0616011,40.639202 C83.0616011,47.4509941 77.3772642,52.9981619 70.3844941,52.9981619 L58.5151908,52.9981619 C57.428785,52.9981619 56.5388721,53.8959245 56.5388721,54.9919132 C56.5388721,56.0879019 57.428785,56.9856645 58.5151908,56.9856645 L70.3693063,56.9856645 C79.5465635,56.9856645 87,49.653984 87,40.6353715 C87,31.616759 79.5358371,24.2774176 70.3693063,24.2774176 C69.7055783,24.2774176 69.0455904,24.3185663 68.3929875,24.3971193 C68.2446687,23.390859 68.0481474,22.3808641 67.7885871,21.3633997 C64.5849004,8.79089199 53.3420958,0 40.4609021,0 C27.5683175,0 16.3255129,8.78687001 13.1113845,21.3777639 C12.825872,22.51493 12.5959754,23.6633001 12.4587817,24.8192353 C5.15038916,26.6634074 0,33.0973253 0,40.6495442 C0,49.6683482 7.4641629,56.9998372 16.6306937,56.9998372 L16.6298204,57 Z" id="Fill-1"></path>
            <path d="M36.2282605,63 L50.7851028,63 C51.8513624,63 52.724773,62.1244516 52.724773,61.0555821 L52.724773,47.4371858 L58.063524,47.4371858 C58.8386747,47.4371858 59.5373751,46.9811722 59.8394122,46.2588611 C60.1487439,45.5474769 60.0031755,44.7230325 59.4718531,44.157545 L44.9150108,28.5909952 C44.1762499,27.8030016 42.8188255,27.8030016 42.0800366,28.5909952 L27.5231943,44.157545 C26.999148,44.7230045 26.8535796,45.5474956 27.1556352,46.2588611 C27.4758857,46.9775393 28.1746608,47.4371858 28.9497835,47.4371858 L34.2885345,47.4371858 L34.2885345,61.0555821 C34.2885345,62.1244516 35.1619451,63 36.2282046,63 L36.2282605,63 Z M33.4333468,43.5446144 L43.5062159,32.7643958 L53.5790849,43.5446144 L50.7841712,43.5446144 C49.7179116,43.5446144 48.8445011,44.4201628 48.8445011,45.4890323 L48.8445011,59.1074286 L38.1707256,59.1074286 L38.1670829,45.4890323 C38.1670829,44.4201628 37.2936723,43.5446144 36.2274127,43.5446144 L33.4333468,43.5446144 Z" id="Fill-2"></path>
        </g>
    </g>
</svg>