<?xml version="1.0" encoding="UTF-8"?>
<svg width="100px" height="100px" viewBox="0 0 100 100" version="1.1" xmlns="http://www.w3.org/2000/svg" xmlns:xlink="http://www.w3.org/1999/xlink">
    <!-- Generator: Sketch 53.2 (72643) - https://sketchapp.com -->
    <title>icon-passport</title>
    <desc>Created with Sketch.</desc>
    <g id="icon-passport" stroke="none" stroke-width="1" fill="none" fill-rule="evenodd">
        <g id="Group-4" transform="translate(14.000000, 0.000000)" fill="#333333">
            <path d="M9,100 L63,100 C65.3849856,100 67.6755072,99.0580343 69.3629568,97.3838857 C71.0504064,95.7098286 72,93.4374857 72,91.0714286 L72,8.92857143 C72,6.56251429 71.0504986,4.29017143 69.3629568,2.61611429 C67.6755072,0.942057143 65.3849856,0 63,0 L9,0 C4.0275072,0 0,3.99554286 0,8.92857143 L0,91.0714286 C0,93.4374857 0.94950144,95.7098286 2.6370432,97.3838857 C4.3244928,99.0579429 6.6150144,100 9,100 Z M3.6,8.928 C3.6,5.96822857 6.0165504,3.57085714 9,3.57085714 L63,3.57085714 C65.9834496,3.57085714 68.4,5.96822857 68.4,8.928 L68.4,91.0708571 C68.4,94.0306286 65.9834496,96.4279954 63,96.4279954 L9,96.4279954 C6.0165504,96.4279954 3.6,94.0306286 3.6,91.0708571 L3.6,8.928 Z" id="Fill-1"></path>
            <path d="M37.499424,65 C42.1409032,65 46.6739728,63.6553797 50.5340239,61.1385901 C54.3981244,58.6173846 57.4081382,55.0391659 59.193367,50.8461019 C61.602211,45.1845426 61.602211,38.8152885 59.193367,33.1537292 C57.0014577,28.0052204 52.9745693,23.8121564 47.8584947,21.3527751 C42.74242,18.897923 36.8896926,18.3405991 31.3853335,19.7914303 C25.8851397,21.2421482 21.1080618,24.5993396 17.9446317,29.2436299 C14.7854825,33.8835042 13.4568002,39.487542 14.2024775,45.016734 C14.9481894,50.5455863 17.7231847,55.6233256 22.0121303,59.2985834 C26.2965637,62.9741809 31.8012699,65 37.5006967,65 L37.499424,65 Z M57.3856927,42.0004817 C57.3766566,43.7962151 57.1145184,45.5832296 56.6083372,47.3081935 L47.3163543,47.3081935 C46.8101731,45.5832296 46.5480465,43.7962151 46.5389988,42.0004817 C46.5435227,40.2047483 46.7966133,38.4177338 47.2982707,36.6927699 L56.6084182,36.6927699 C57.1145994,38.4177338 57.376726,40.2047483 57.3857736,42.0004817 L57.3856927,42.0004817 Z M43.5735985,47.3081935 L39.307214,47.3081935 L39.307214,36.6927699 L43.5916474,36.6927699 C42.7103483,40.178139 42.7103483,43.8228244 43.5916474,47.3081935 L43.5735985,47.3081935 Z M39.307214,50.846668 L44.7305841,50.846668 C45.8016982,53.3634576 47.3157527,55.6766575 49.2139033,57.6758673 C46.316927,59.7680399 42.8912083,61.0463067 39.307214,61.3735448 L39.307214,50.846668 Z M39.307214,33.1542954 L39.307214,22.6273053 C42.9047451,22.9501954 46.3440005,24.2373395 49.2501169,26.342647 C47.3429419,28.3330247 45.8107458,30.6375058 44.7306998,33.1541821 L39.307214,33.1542954 Z M35.691634,33.1542954 L30.2682639,33.1542954 C29.192626,30.6419218 27.6695586,28.333138 25.7668957,26.3427602 C28.6728965,24.2373395 32.1122676,22.9502407 35.7097987,22.6274185 L35.691634,33.1542954 Z M35.691634,36.6927699 L35.691634,47.3081935 L31.4252496,47.3081935 C32.3020248,43.8228244 32.3020248,40.178139 31.4252496,36.6927699 L35.691634,36.6927699 Z M35.691634,50.846668 L35.691634,61.3736581 C32.0986152,61.050768 28.6683842,59.7724559 25.7668957,57.6759805 C27.6695586,55.6811867 29.1926144,53.3678736 30.2682639,50.8467813 L35.691634,50.846668 Z M23.0365254,55.32281 C21.7484533,53.9870217 20.6592671,52.4787823 19.8005523,50.846668 L26.2543338,50.846668 C25.4046667,52.4787823 24.3199695,53.9870217 23.0365254,55.32281 Z M51.9611656,55.32281 C50.6776058,53.9870217 49.5929318,52.4787823 48.7433572,50.846668 L55.1790897,50.846668 C54.3294226,52.4787823 53.2447255,53.9870217 51.9612813,55.32281 L51.9611656,55.32281 Z M55.1971387,33.1544086 L48.7251926,33.1544086 C49.5838957,31.5222943 50.6730935,30.0140549 51.9611656,28.6782666 C53.2492377,30.0140549 54.338424,31.5222943 55.1971387,33.1544086 Z M23.0364097,28.6782666 C24.3199695,30.0140549 25.4046435,31.5222943 26.2542181,33.1544086 L19.8004366,33.1544086 C20.6591398,31.5222943 21.7483376,30.0140549 23.0364097,28.6782666 Z M18.3904183,36.6928831 L27.6824011,36.6928831 C28.7263955,40.1561721 28.7263955,43.8450177 27.6824011,47.3083067 L18.3904183,47.3083067 C17.364496,43.8406017 17.364496,40.1605882 18.3904183,36.6928831 Z" id="Fill-2"></path>
            <polygon id="Fill-3" points="17 83 58 83 58 87 17 87"></polygon>
        </g>
    </g>
</svg>