<?xml version="1.0" encoding="UTF-8"?>
<svg width="1283px" height="198px" viewBox="0 0 1283 198" version="1.1" xmlns="http://www.w3.org/2000/svg" xmlns:xlink="http://www.w3.org/1999/xlink">
    <!-- Generator: Sketch 53.2 (72643) - https://sketchapp.com -->
    <title>NN-Logo-cropped</title>
    <desc>Created with Sketch.</desc>
    <g id="NN-Logo-cropped" stroke="none" stroke-width="1" fill="none" fill-rule="evenodd">
        <g id="Group-15" transform="translate(0.000000, -1.000000)">
            <path d="M163.0479,130.1358 C150.8309,130.1358 140.9259,120.2308 140.9259,108.0128 C140.9259,95.7958 150.8309,85.8908 163.0479,85.8908 C175.2659,85.8908 185.1709,95.7958 185.1709,108.0128 C185.1709,120.2308 175.2659,130.1358 163.0479,130.1358 M163.0479,56.3948 C134.5399,56.3948 111.4299,79.5058 111.4299,108.0128 C111.4299,136.5218 134.5399,159.6318 163.0479,159.6318 C191.5569,159.6318 214.6669,136.5218 214.6669,108.0128 C214.6669,79.5058 191.5569,56.3948 163.0479,56.3948" id="Fill-1" fill="#009192"></path>
            <polygon id="Fill-3" fill="#FF4E00" points="111.43 198.96 214.667 198.96 214.667 171.922 111.43 171.922"></polygon>
            <polygon id="Fill-5" fill="#000000" points="0 58.853 0 154.716 31.954 154.716 31.954 85.891 61.45 85.891 61.45 154.716 93.405 154.716 93.405 58.853"></polygon>
            <polygon id="Fill-6" fill="#000000" points="1189.5957 58.853 1189.5957 154.716 1221.5497 154.716 1221.5497 85.891 1251.0457 85.891 1251.0457 154.716 1282.9997 154.716 1282.9997 58.853"></polygon>
            <polygon id="Fill-7" fill="#000000" points="712.8242 58.853 712.8242 154.716 744.7782 154.716 744.7782 85.891 774.2742 85.891 774.2742 154.716 806.2292 154.716 806.2292 58.853"></polygon>
            <polygon id="Fill-8" fill="#000000" points="235.9697 58.853 235.9697 154.716 267.9237 154.716 267.9237 85.891 297.4197 85.891 297.4197 154.716 329.3737 154.716 329.3737 85.891 358.8697 85.891 358.8697 154.716 390.8237 154.716 390.8237 58.853"></polygon>
            <path d="M436.0869,107.7158 C436.0869,110.8558 436.6499,113.7748 437.7809,116.4728 C438.9089,119.1728 440.4449,121.5278 442.3949,123.5348 C444.3389,125.5438 446.6599,127.1108 449.3599,128.2418 C452.0589,129.3718 454.9779,129.9368 458.1169,129.9368 C461.1299,129.9368 463.9839,129.3718 466.6869,128.2418 C469.3849,127.1108 471.7059,125.5438 473.6519,123.5348 C475.5999,121.5278 477.1669,119.2018 478.3619,116.5658 C479.5529,113.9308 480.1499,111.1048 480.1499,108.0928 C480.1499,105.0798 479.5529,102.2258 478.3619,99.5228 C477.1669,96.8248 475.5999,94.4728 473.6519,92.4618 C471.7059,90.4548 469.3849,88.8848 466.6869,87.7538 C463.9839,86.6238 461.1299,86.0588 458.1169,86.0588 C454.9779,86.0588 452.0589,86.6238 449.3599,87.7538 C446.6599,88.8848 444.3389,90.4548 442.3949,92.4618 C440.4449,94.4728 438.9089,96.7628 437.7809,99.3358 C436.6499,101.9088 436.0869,104.7028 436.0869,107.7158 L436.0869,107.7158 Z M479.0209,59.6958 L513.2929,59.6958 L513.2929,156.2998 L479.0209,156.2998 L479.0209,145.5658 C471.7369,154.7328 461.8839,159.3128 449.4569,159.3128 C442.4239,159.3128 435.9589,158.0238 430.0589,155.4528 C424.1559,152.8818 419.0099,149.2718 414.6169,144.6248 C410.2219,139.9818 406.8039,134.5208 404.3559,128.2418 C401.9069,121.9648 400.6829,115.1238 400.6829,107.7158 C400.6829,100.8118 401.8729,94.2518 404.2599,88.0368 C406.6439,81.8228 409.9729,76.3928 414.2399,71.7478 C418.5089,67.1058 423.5929,63.4328 429.4949,60.7308 C435.3929,58.0318 441.9239,56.6828 449.0799,56.6828 C461.1299,56.6828 471.1099,60.8908 479.0209,69.2998 L479.0209,59.6958 Z" id="Fill-9" fill="#000000"></path>
            <path d="M560.5596,107.7158 C560.5596,110.8558 561.1236,113.7748 562.2536,116.4728 C563.3826,119.1728 564.9186,121.5278 566.8686,123.5348 C568.8126,125.5438 571.1326,127.1108 573.8336,128.2418 C576.5326,129.3718 579.4516,129.9368 582.5906,129.9368 C585.6026,129.9368 588.4566,129.3718 591.1606,128.2418 C593.8586,127.1108 596.1786,125.5438 598.1256,123.5348 C600.0726,121.5278 601.6396,119.2018 602.8346,116.5658 C604.0266,113.9308 604.6236,111.1048 604.6236,108.0928 C604.6236,105.0798 604.0266,102.2258 602.8346,99.5228 C601.6396,96.8248 600.0726,94.4728 598.1256,92.4618 C596.1786,90.4548 593.8586,88.8848 591.1606,87.7538 C588.4566,86.6238 585.6026,86.0588 582.5906,86.0588 C579.5786,86.0588 576.7216,86.6238 574.0236,87.7538 C571.3206,88.8848 568.9986,90.4548 567.0546,92.4618 C565.1086,94.4728 563.5386,96.7628 562.3476,99.3358 C561.1526,101.9088 560.5596,104.7028 560.5596,107.7158 L560.5596,107.7158 Z M603.4936,-0.0002 L637.7666,-0.0002 L637.7666,156.2998 L603.4936,156.2998 L603.4936,145.5658 C596.2096,154.7328 586.3566,159.3128 573.9296,159.3128 C566.8966,159.3128 560.4326,157.9948 554.5326,155.3588 C548.6296,152.7208 543.4836,149.0818 539.0896,144.4368 C534.6956,139.7928 531.2776,134.3318 528.8286,128.0518 C526.3796,121.7778 525.1566,114.9988 525.1566,107.7158 C525.1566,100.8118 526.3156,94.2518 528.6386,88.0368 C530.9596,81.8228 534.2556,76.3928 538.5266,71.7478 C542.7916,67.1058 547.9096,63.4328 553.8736,60.7308 C559.8346,58.0318 566.3976,56.6828 573.5526,56.6828 C585.6026,56.6828 595.5836,60.8908 603.4936,69.2998 L603.4936,-0.0002 Z" id="Fill-10" fill="#000000"></path>
            <path d="M853.9492,107.7158 C853.9492,110.8558 854.5122,113.7748 855.6432,116.4728 C856.7712,119.1728 858.3082,121.5278 860.2582,123.5348 C862.2022,125.5438 864.5222,127.1108 867.2232,128.2418 C869.9212,129.3718 872.8402,129.9368 875.9802,129.9368 C878.9922,129.9368 881.8462,129.3718 884.5502,128.2418 C887.2472,127.1108 889.5682,125.5438 891.5152,123.5348 C893.4622,121.5278 895.0292,119.2018 896.2242,116.5658 C897.4162,113.9308 898.0132,111.1048 898.0132,108.0928 C898.0132,105.0798 897.4162,102.2258 896.2242,99.5228 C895.0292,96.8248 893.4622,94.4728 891.5152,92.4618 C889.5682,90.4548 887.2472,88.8848 884.5502,87.7538 C881.8462,86.6238 878.9922,86.0588 875.9802,86.0588 C872.8402,86.0588 869.9212,86.6238 867.2232,87.7538 C864.5222,88.8848 862.2022,90.4548 860.2582,92.4618 C858.3082,94.4728 856.7712,96.7628 855.6432,99.3358 C854.5122,101.9088 853.9492,104.7028 853.9492,107.7158 L853.9492,107.7158 Z M896.8832,59.6958 L931.1552,59.6958 L931.1552,156.2998 L896.8832,156.2998 L896.8832,145.5658 C889.5992,154.7328 879.7462,159.3128 867.3192,159.3128 C860.2862,159.3128 853.8222,158.0238 847.9222,155.4528 C842.0192,152.8818 836.8732,149.2718 832.4792,144.6248 C828.0852,139.9818 824.6672,134.5208 822.2182,128.2418 C819.7692,121.9648 818.5462,115.1238 818.5462,107.7158 C818.5462,100.8118 819.7362,94.2518 822.1222,88.0368 C824.5062,81.8228 827.8352,76.3928 832.1022,71.7478 C836.3712,67.1058 841.4552,63.4328 847.3572,60.7308 C853.2552,58.0318 859.7872,56.6828 866.9422,56.6828 C878.9922,56.6828 888.9732,60.8908 896.8832,69.2998 L896.8832,59.6958 Z" id="Fill-11" fill="#000000"></path>
            <polygon id="Fill-12" fill="#000000" points="992.3564 88.1309 992.3564 156.2999 958.2704 156.2999 958.2704 88.1309 946.9714 88.1309 946.9714 59.6959 958.2704 59.6959 958.2704 30.6959 992.3564 30.6959 992.3564 59.6959 1011.7524 59.6959 1011.7524 88.1309"></polygon>
            <path d="M1027.188,156.3 L1061.272,156.3 L1061.272,59.696 L1027.188,59.696 L1027.188,156.3 Z M1024.93,22.597 C1024.93,19.962 1025.43,17.484 1026.435,15.161 C1027.438,12.837 1028.818,10.799 1030.578,9.04 C1032.335,7.283 1034.373,5.902 1036.699,4.897 C1039.021,3.894 1041.5,3.389 1044.136,3.389 C1046.773,3.389 1049.251,3.894 1051.574,4.897 C1053.896,5.902 1055.936,7.283 1057.695,9.04 C1059.452,10.799 1060.833,12.837 1061.839,15.161 C1062.842,17.484 1063.344,19.962 1063.344,22.597 C1063.344,25.235 1062.842,27.715 1061.839,30.036 C1060.833,32.36 1059.452,34.4 1057.695,36.157 C1055.936,37.917 1053.896,39.297 1051.574,40.3 C1049.251,41.306 1046.773,41.806 1044.136,41.806 C1041.5,41.806 1039.021,41.306 1036.699,40.3 C1034.373,39.297 1032.335,37.917 1030.578,36.157 C1028.818,34.4 1027.438,32.36 1026.435,30.036 C1025.43,27.715 1024.93,25.235 1024.93,22.597 L1024.93,22.597 Z" id="Fill-13" fill="#000000"></path>
            <path d="M1126.6563,130.1358 C1114.4383,130.1358 1104.5343,120.2308 1104.5343,108.0128 C1104.5343,95.7958 1114.4383,85.8908 1126.6563,85.8908 C1138.8743,85.8908 1148.7783,95.7958 1148.7783,108.0128 C1148.7783,120.2308 1138.8743,130.1358 1126.6563,130.1358 M1126.6563,56.3948 C1098.1483,56.3948 1075.0383,79.5058 1075.0383,108.0128 C1075.0383,136.5218 1098.1483,159.6318 1126.6563,159.6318 C1155.1643,159.6318 1178.2743,136.5218 1178.2743,108.0128 C1178.2743,79.5058 1155.1643,56.3948 1126.6563,56.3948" id="Fill-14" fill="#000000"></path>
        </g>
    </g>
</svg>