<?xml version="1.0" encoding="UTF-8"?>
<svg width="23px" height="18px" viewBox="0 0 23 18" version="1.1" xmlns="http://www.w3.org/2000/svg" xmlns:xlink="http://www.w3.org/1999/xlink">
    <!-- Generator: Sketch 53.2 (72643) - https://sketchapp.com -->
    <title>Check Copy 6</title>
    <desc>Created with Sketch.</desc>
    <g id="Page-1" stroke="none" stroke-width="1" fill="none" fill-rule="evenodd">
        <g id="Desktop-HD-Copy-10" transform="translate(-200.000000, -1330.000000)" fill="#009192">
            <g id="Check" transform="translate(200.000000, 1330.000000)">
                <path d="M9.36623106,0.033 C12.2176561,0.033 14.7634686,1.25708182 16.4605811,3.15654545 L15.0354436,4.31563636 C13.6776673,2.80178182 11.6415061,1.8366 9.36738106,1.8366 C5.22680606,1.8366 1.90014356,4.99205455 1.90014356,8.92014545 C1.90014356,12.8482364 5.22651856,16.0036909 9.36738106,16.0036909 C14.0516186,16.0036909 17.5476186,11.9787818 16.7334186,7.66423636 L18.3292736,6.34429091 C20.1283911,11.9788364 15.6822611,17.7753818 9.36847356,17.7753818 C4.20928606,17.7753818 -2.55795385e-13,13.7823818 -2.55795385e-13,8.88829091 C-2.55795385e-13,3.9942 4.20928606,0.0012 9.36847356,0.0012 L9.36623106,0.033 Z M7.66931981,6.08618182 L10.2152761,9.14481818 L21.4502011,-8.52651283e-14 L22.9775448,1.70667273 L9.87501981,12.3643091 L5.80171981,7.50212727 L7.63453231,6.11719091 L7.66931981,6.08618182 Z" id="Fill-1"></path>
            </g>
        </g>
    </g>
</svg>