<?xml version="1.0" encoding="UTF-8"?>
<svg width="50px" height="50px" viewBox="0 0 50 50" version="1.1" xmlns="http://www.w3.org/2000/svg" xmlns:xlink="http://www.w3.org/1999/xlink">
    <!-- Generator: Sketch 53.2 (72643) - https://sketchapp.com -->
    <title>non</title>
    <desc>Created with Sketch.</desc>
    <g id="non" stroke="none" stroke-width="1" fill="none" fill-rule="evenodd">
        <path d="M34.8716,17.8714 L27.7739,24.973 L34.8755,32.0746 L32.0747,34.8715 L24.9731,27.7738 L17.8715,34.8715 L15.0746,32.0746 L22.1762,24.973 L15.0746,17.8714 L17.8754,15.0706 L24.977,22.1722 L32.0786,15.0706 L34.8716,17.8714 Z M42.6724,42.6724 C32.9732,52.3716 17.0474,52.4458 7.2744,42.6724 C-2.4248,32.9732 -2.4248,17.0704 7.2744,7.2744 C16.9736,-2.4248 32.8764,-2.4248 42.6724,7.2744 C52.3716,17.0752 52.3716,32.8724 42.6724,42.6724 Z M45.1784365,19.5492255 C42.290291,8.21564022 30.3895134,1.62439158 19.5931325,4.66027194 C8.39281696,7.66138743 1.74241696,19.1802181 4.74363246,30.3803604 C7.74484795,41.5805027 19.2635786,48.2310759 30.4637209,45.2298604 C41.5287623,42.2678465 48.2279123,30.6645783 45.1781449,19.5484105 L45.1784365,19.5492255 Z" id="Fill-1" fill="#009192" transform="translate(24.973400, 24.987326) rotate(135.000000) translate(-24.973400, -24.987326) "></path>
    </g>
</svg>