<?xml version="1.0" encoding="UTF-8"?>
<svg width="558px" height="393px" viewBox="0 0 558 393" version="1.1" xmlns="http://www.w3.org/2000/svg" xmlns:xlink="http://www.w3.org/1999/xlink">
    <!-- Generator: Sketch 53.2 (72643) - https://sketchapp.com -->
    <title>Group 3</title>
    <desc>Created with Sketch.</desc>
    <g id="Page-1" stroke="none" stroke-width="1" fill="none" fill-rule="evenodd">
        <g id="Desktop-HD-Copy-10" transform="translate(-715.000000, -175.000000)">
            <g id="Group-3" transform="translate(715.000000, 175.000000)">
                <g id="Croods---The-Feedback(2)" transform="translate(127.000000, 31.000000)" opacity="0.472260975">
                    <g id="Screen">
                        <g id="Screen/Stats">
                            <g id="Window">
                                <path d="M343.037304,241.34744 L6.89361735,241.34744 C3.46085205,241.34744 0.677660728,238.565389 0.677660728,235.134029 L0.677660728,6.89090258 C0.677660728,3.45927212 3.46085205,0.677220605 6.89361735,0.677220605 L343.037304,0.677220605 C346.470341,0.677220605 349.253261,3.45927212 349.253261,6.89090258 L349.253261,235.134029 C349.253261,238.565389 346.470341,241.34744 343.037304,241.34744 Z" id="Window-Bg" fill="#FFFFFF" fill-rule="nonzero"></path>
                                <path d="M343.037304,0.135227324 L6.89361735,0.135227324 C3.16134921,0.135227324 0.135445391,3.15998305 0.135445391,6.89090258 L0.135445391,235.134029 C0.135445391,238.864723 3.16139479,241.889433 6.89361735,241.889433 L343.037304,241.889433 C346.769709,241.889433 349.795476,238.864813 349.795476,235.134029 L349.795476,6.89090258 C349.795476,3.15989311 346.769755,0.135227324 343.037304,0.135227324 Z M6.89361735,1.21921389 L343.037304,1.21921389 C346.170824,1.21921389 348.711046,3.75854774 348.711046,6.89090258 L348.711046,235.134029 C348.711046,238.266151 346.170786,240.805447 343.037304,240.805447 L6.89361735,240.805447 C3.76030931,240.805447 1.21987607,238.266054 1.21987607,235.134029 L1.21987607,6.89090258 C1.21987607,3.75864498 3.76027106,1.21921389 6.89361735,1.21921389 Z" id="window-border" fill="#009192" fill-rule="nonzero"></path>
                                <path d="M79.4668087,118.742869 L79.4668087,128.845082 L23.3475213,128.845082 L23.3475213,118.742869 L79.4668087,118.742869 Z M112.270837,96.392692 L112.270837,106.494905 L23.3475213,106.494905 L23.3475213,96.392692 L112.270837,96.392692 Z M100.573896,72.9783113 L100.573896,83.0805241 L23.3475213,83.0805241 L23.3475213,72.9783113 L100.573896,72.9783113 Z M135.641944,51.0896417 L135.641944,61.1921254 L23.3475213,61.1921254 L23.3475213,51.0896417 L135.641944,51.0896417 Z M150.768125,25.2726047 L150.768125,35.3748175 L23.3475213,35.3748175 L23.3475213,25.2726047 L150.768125,25.2726047 Z" id="Info" fill="#E0E0E0" fill-rule="nonzero"></path>
                                <path d="M146.864988,136.087738 L146.864988,131.515483 C149.94188,130.966263 152.311361,129.833497 153.973431,128.117185 C155.635502,126.400873 156.466538,124.389355 156.466538,122.082632 C156.466538,119.995596 155.910225,118.347937 154.797599,117.139653 C153.684973,115.931369 152.373173,115.059483 150.8622,114.523993 C149.351227,113.988504 147.49685,113.514802 145.29907,113.102887 C143.595791,112.773355 142.373277,112.464419 141.631526,112.176078 C140.889775,111.887738 140.5189,111.455227 140.5189,110.878546 C140.5189,109.670263 141.768887,109.066121 144.268861,109.066121 C146.796308,109.066121 149.474852,109.780107 152.304493,111.208078 L152.304493,111.208078 L155.230287,104.164334 C152.95009,102.873667 150.161658,102.077298 146.864988,101.775227 L146.864988,101.775227 L146.864988,97.367738 L141.054609,97.367738 L141.054609,101.85761 C137.785412,102.324447 135.27857,103.422887 133.534082,105.152929 C131.789595,106.882972 130.917351,108.956277 130.917351,111.372844 C130.917351,113.45988 131.466796,115.114405 132.565686,116.336419 C133.664575,117.558433 134.955771,118.437185 136.439272,118.972674 C137.922773,119.508163 139.777149,120.009327 142.002401,120.476163 C143.733153,120.833156 144.976272,121.162688 145.731758,121.464759 C146.487245,121.76683 146.864988,122.219937 146.864988,122.824078 C146.864988,123.345837 146.57653,123.737156 145.999613,123.998036 C145.422696,124.258915 144.461167,124.389355 143.115027,124.389355 C141.549109,124.389355 139.914511,124.149071 138.211232,123.668504 C136.507952,123.187937 134.969507,122.549469 133.595895,121.7531 L133.595895,121.7531 L130.464059,128.838036 C131.70031,129.606944 133.25936,130.252277 135.141208,130.774036 C137.023057,131.295795 138.994191,131.611596 141.054609,131.72144 L141.054609,131.72144 L141.054609,136.087738 L146.864988,136.087738 Z" id="$" fill="#CFCFCF" fill-rule="nonzero"></path>
                                <g id="Pie-Chart" transform="translate(226.535019, 22.232185)">
                                    <path d="M69.5667699,29.7090094 L74.7828815,0.139481971 C81.7357088,1.36492878 88.038962,5.00251669 92.5770333,10.4088997 C97.1153757,15.8150116 99.6046863,22.6514439 99.6046863,29.7090094 L69.5667699,29.7090094 Z" id="Bg-2" stroke="#E0E0E0" stroke-width="4"></path>
                                    <path d="M63.7469558,34.3016437 L93.7848722,34.3016437 C93.7848722,50.7730905 80.2254222,64.3272585 63.7469558,64.3272585 C47.2687607,64.3272585 33.7090395,50.7730905 33.7090395,34.3016437 C33.7090395,17.8301969 47.2687607,4.27602889 63.7469558,4.27602889 C65.4956003,4.27602889 67.2409915,4.4286 68.9630674,4.73211624 L63.7469558,34.3016437 Z" id="Stork-4" stroke="#E0E0E0" stroke-width="4"></path>
                                    <path d="M26.7428737,13.3658253 C26.7428737,20.7475028 20.7562742,26.7316506 13.3715724,26.7316506 C5.98659954,26.7316506 0,20.7475028 0,13.3658253 C0,5.98414782 5.98659954,-1.13686838e-13 13.3715724,-1.13686838e-13 C20.7562742,-1.13686838e-13 26.7428737,5.98414782 26.7428737,13.3658253 Z" id="BG" stroke="#E0E0E0" stroke-width="4"></path>
                                    <path d="M69.5667699,29.7090094 L74.7828815,0.139481971 C81.7357088,1.36492878 88.038962,5.00251669 92.5770333,10.4088997 C97.1153757,15.8150116 99.6046863,22.6514439 99.6046863,29.7090094 L69.5667699,29.7090094 Z" id="Stork-3" fill="#F2F2F2" fill-rule="nonzero"></path>
                                    <path d="M63.7469558,34.3016437 L93.7848722,34.3016437 C93.7848722,50.7730905 80.2254222,64.3272585 63.7469558,64.3272585 C47.2687607,64.3272585 33.7090395,50.7730905 33.7090395,34.3016437 C33.7090395,17.8301969 47.2687607,4.27602889 63.7469558,4.27602889 C65.4956003,4.27602889 67.2409915,4.4286 68.9630674,4.73211624 L63.7469558,34.3016437 Z" id="Stoke-2" fill="#F2F2F2" fill-rule="nonzero"></path>
                                    <path d="M26.7428737,13.3658253 C26.7428737,20.7475028 20.7562742,26.7316506 13.3715724,26.7316506 C5.98659954,26.7316506 0,20.7475028 0,13.3658253 C0,5.98414782 5.98659954,-1.13686838e-13 13.3715724,-1.13686838e-13 C20.7562742,-1.13686838e-13 26.7428737,5.98414782 26.7428737,13.3658253 Z" id="Stroke" fill="#F2F2F2" fill-rule="nonzero"></path>
                                </g>
                                <path d="M249.420682,162.905295 L249.420682,221.07391 L234.553137,221.07391 L234.553137,162.905295 L249.420682,162.905295 Z M194.867041,106.233664 L194.867041,221.07391 L179.999225,221.07391 L179.999225,106.233664 L194.867041,106.233664 Z M223.748141,138.256253 L223.748141,221.07391 L208.880596,221.07391 L208.880596,138.256253 L223.748141,138.256253 Z M278.760496,180.25206 L278.760496,221.07391 L263.89268,221.07391 L263.89268,180.25206 L278.760496,180.25206 Z M307.661929,189.739924 L307.661929,221.07391 L292.794113,221.07391 L292.794113,189.739924 L307.661929,189.739924 Z M332.174942,182.434938 L332.174942,221.07391 L317.307126,221.07391 L317.307126,182.434938 L332.174942,182.434938 Z" id="Graph" fill="#E0E0E0" fill-rule="nonzero"></path>
                                <polygon id="Up" fill="#5AB8B8" fill-rule="nonzero" points="297.373528 124.721516 250.099129 150.090866 193.885225 64.1242278 199.610747 60.8202367 181.225039 48.8459792 182.407068 70.7487406 187.225194 67.9680441 247.524419 160.183323 294.80885 134.809095 325.11218 180.989632 331.53201 176.77726"></polygon>
                            </g>
                        </g>
                    </g>
                </g>
                <g id="Croods---Standing" transform="translate(481.500000, 196.500000) scale(-1, 1) translate(-481.500000, -196.500000) translate(405.000000, 0.000000)" fill-rule="nonzero">
                    <g id="Lower-Body" transform="translate(0.000000, 152.000000)">
                        <g id="Lower-Body/Jeans-2">
                            <g id="shoe-2" transform="translate(97.933364, 206.830385)">
                                <polygon id="SKIN" fill="#FFFFFF" points="0.793253323 0.96471753 3.4571262 19.1208166 29.6261836 21.8181032 25.5686038 3.11248361"></polygon>
                                <path d="M29.7119467,22.4761265 L3.32599452,19.8912756 C3.00548533,19.8596888 2.74762711,19.6142333 2.70080375,19.2960624 L0.00747136638,0.929341003 C-0.0485847681,0.547009436 0.216857515,0.191658241 0.600017681,0.135723331 C0.983837331,0.0820916225 1.33896943,0.344985701 1.39535531,0.726988236 L4.00921987,18.551799 L28.8846241,20.989245 L24.9155201,3.29440062 C24.8307764,2.91733352 25.0688501,2.54322768 25.4464046,2.45866726 C25.8259376,2.37410683 26.199865,2.61199472 26.2839492,2.98873279 L30.4647476,21.626903 C30.5142089,21.8460362 30.4548554,22.0753693 30.305812,22.2435031 C30.1719368,22.3941983 29.9803567,22.4797458 29.7805331,22.4797458 C29.7577809,22.4797458 29.7346989,22.4784297 29.7119467,22.4761265 Z" id="path-6" fill="#009192"></path>
                                <path d="M3.02761102,16.5057 C3.35174736,16.5639381 3.76227611,16.642576 4.2453481,16.7356912 C7.20709044,17.3042531 13.3696381,18.48777 19.209698,18.4923764 L19.2245364,18.4923764 C22.6650641,18.4923764 25.6907764,17.553328 27.7444094,15.8473132 C27.9076317,15.7117533 28.1259208,15.6637151 28.3323393,15.7163597 C38.3558356,18.3202943 45.5979584,20.2016815 50.9648386,23.77329 C51.9079007,24.4014061 55.3098485,27.1415587 54.7215889,29.0795388 C54.449222,29.9758135 53.4804401,30.4302024 51.8416225,30.4302024 C45.8587843,30.4302024 32.9688411,30.4634343 21.5963704,30.4930469 C12.3942613,30.517066 4.44747992,30.5377948 1.45540132,30.5377948 C1.13917877,30.5377948 0.85395197,30.3946673 0.651820144,30.1350635 C-0.526347905,28.6228467 1.3924206,20.4392403 2.27217217,16.9913466 C2.3572456,16.6567243 2.68698757,16.4451587 3.02761102,16.5057 Z" id="path-23" fill="#FF7841"></path>
                                <path d="M1.57598796,33.4353877 L53.291399,33.4353877 C54.1507066,33.4353877 54.8477811,32.7404787 54.8477811,31.8827004 L54.8477811,31.3697444 C54.8477811,30.5119661 54.1507066,29.816728 53.291399,29.816728 L1.57598796,29.816728 C0.716680389,29.816728 0.0196058708,30.5119661 0.0196058708,31.3697444 L0.0196058708,31.8827004 C0.0196058708,32.7404787 0.716680389,33.4353877 1.57598796,33.4353877" id="Fill-47" fill="#009192"></path>
                                <path d="M38.6043291,21.9161852 C38.866474,21.9161852 39.1177374,21.7691093 39.2377634,21.5170731 C40.3381124,19.2112387 42.4520881,19.7755232 42.6898321,19.8482386 C43.0584836,19.9597794 43.4505468,19.7541364 43.565297,19.3869401 C43.6797175,19.0190858 43.4769262,18.6291866 43.1095936,18.5127104 C41.9106518,18.1330111 39.2931601,18.1468303 37.9715543,20.9156083 C37.8050346,21.264708 37.9534185,21.6819166 38.3032747,21.8480762 C38.4005486,21.8944693 38.5030983,21.9161852 38.6043291,21.9161852" id="path-25" fill="#009192"></path>
                                <path d="M32.4113793,20.2308663 C32.6735242,20.2308663 32.9251173,20.0837904 33.0451433,19.8317543 C34.1454923,17.5259199 36.259468,18.0902044 36.4968823,18.1629198 C36.8658635,18.2747896 37.2579267,18.0688175 37.3723472,17.7016213 C37.4867676,17.333767 37.2839763,16.9438678 36.9166438,16.8273915 C35.716383,16.4480212 33.0995508,16.4621695 31.7789343,19.2302895 C31.6124146,19.5793891 31.7607984,19.9965978 32.1106547,20.1627573 C32.2079285,20.2091504 32.3101486,20.2308663 32.4113793,20.2308663" id="path-26" fill="#009192"></path>
                            </g>
                            <g id="shoe-1" transform="translate(0.000000, 206.959168)">
                                <polygon id="SKIN" fill="#FFFFFF" points="51.7605479 0.787848052 50.9769125 19.1337998 27.9288952 21.1051091 28.2807392 2.6845894"></polygon>
                                <path d="M27.8750669,21.8012145 C27.6976658,21.8012145 27.5261999,21.7340926 27.3956221,21.6120229 C27.2508654,21.4767921 27.1704084,21.2866134 27.173918,21.088538 L27.5100426,2.66324949 C27.5172969,2.27696958 27.8480281,1.96702437 28.2239339,1.9765662 C28.611051,1.98380484 28.9193597,2.3023048 28.9124352,2.68891374 L28.5902773,20.3396682 L50.3014776,18.5267191 L51.0757117,0.669663476 C51.0921988,0.284041624 51.4186434,-0.0170198054 51.8064199,0.000747754407 C52.193537,0.0175282275 52.4936022,0.34425391 52.4767854,0.730204791 L51.6761719,19.2028734 C51.6610037,19.5546053 51.3856692,19.8405314 51.0338345,19.869815 L27.9334313,21.7985823 C27.9139765,21.8002275 27.8945217,21.8012145 27.8750669,21.8012145" id="path-1" fill="#009192"></path>
                                <path d="M52.575609,16.9689318 C52.4905356,16.6343095 52.1607936,16.4227439 51.8201702,16.4832852 C51.4957041,16.5415233 51.0855051,16.6201612 50.6021034,16.7132764 C47.6406908,17.2818383 41.4781431,18.4653552 35.6380831,18.4699616 L35.622915,18.4699616 C32.1827171,18.4699616 29.1570048,17.5309132 27.1030421,15.8248984 C26.9401495,15.6893385 26.7215306,15.6413003 26.5151121,15.6939449 C16.4919456,18.2978795 9.24982274,20.1792667 3.88294248,23.7508752 C2.93955071,24.3789913 -0.462067419,27.1191439 0.126192251,29.057124 C0.398559116,29.9533987 1.36734102,30.4077876 3.00582885,30.4077876 C8.98899684,30.4077876 21.8789401,30.4410195 33.2514108,30.4706321 C42.4531901,30.4946512 50.4003013,30.51538 53.3923799,30.51538 C53.7082727,30.51538 53.9938292,30.3722525 54.1959611,30.1126487 C55.3741291,28.6004319 53.4553606,20.4168255 52.575609,16.9689318" id="path-2" fill="#FF7841"></path>
                                <path d="M53.2717932,33.412973 L1.55638208,33.412973 C0.696744777,33.412973 0,32.7180639 0,31.8602856 L0,31.3473296 C0,30.4895513 0.696744777,29.7943132 1.55638208,29.7943132 L53.2717932,29.7943132 C54.1311008,29.7943132 54.8278456,30.4895513 54.8278456,31.3473296 L54.8278456,31.8602856 C54.8278456,32.7180639 54.1311008,33.412973 53.2717932,33.412973" id="path-3" fill="#009192"></path>
                                <path d="M16.243452,21.8937704 C15.9813072,21.8937704 15.7300438,21.7466945 15.6100177,21.4946583 C14.5096688,19.1888239 12.395693,19.7531084 12.157949,19.8258238 C11.7892975,19.9373646 11.3969046,19.7317216 11.2824841,19.3645253 C11.1680637,18.996671 11.3705252,18.6067718 11.7381875,18.4902956 C12.9371293,18.1105963 15.554621,18.1244155 16.8758971,20.8931935 C17.0424168,21.2422932 16.8940329,21.6595018 16.5445064,21.8256614 C16.4472326,21.8720545 16.3446828,21.8937704 16.243452,21.8937704" id="path-4" fill="#009192"></path>
                                <path d="M22.436237,20.2084515 C22.1740921,20.2084515 21.9228287,20.0613756 21.8028027,19.8093395 C20.702124,17.5035051 18.5881482,18.0677896 18.3510637,18.140505 C17.9820825,18.2523748 17.5896895,18.0464027 17.4752691,17.6792065 C17.3608486,17.3113522 17.5636399,16.921453 17.9309725,16.8049767 C19.1312332,16.4256064 21.7480655,16.4397547 23.0686821,19.2078747 C23.2352018,19.5569743 23.0868179,19.9741829 22.7372914,20.1403425 C22.6400175,20.1867356 22.5374678,20.2084515 22.436237,20.2084515" id="path-5" fill="#009192"></path>
                            </g>
                            <g id="pant" transform="translate(3.956904, 0.000000)">
                                <path d="M17.2366018,0.970421929 L0,217.847179 C16.9945712,219.234365 35.0637716,219.033657 53.8003696,217.847179 C53.8003696,217.847179 56.769696,36.5762827 58.4005998,36.3923556 C61.4536807,36.0488494 76.4513346,217.847179 76.4513346,217.847179 C93.4023799,220.587331 110.0283,219.752585 126.556616,217.847179 C126.556616,217.847179 113.978279,57.2455482 92.4477769,0.160023788 C58.4184059,1.66895025 17.2366018,0.970421929 17.2366018,0.970421929" id="path-10" fill="#009192"></path>
                                <path d="M36.040764,8.03908107 C35.6361706,7.83014772 35.13859,7.98742353 34.9295336,8.39081294 C29.4650497,18.9075632 17.6688606,17.9129089 17.1551226,17.8632255 C16.6987597,17.8191356 16.298453,18.1498097 16.2539378,18.6018953 C16.2094226,19.053981 16.5408133,19.4563834 16.9938788,19.5008023 C17.0169607,19.5031055 17.425511,19.5389696 18.1176394,19.5389696 C21.4638609,19.5389696 31.4309713,18.6983008 36.3929285,9.14790841 C36.6026443,8.74484802 36.4450277,8.24834344 36.040764,8.03908107" id="path-21" fill="#FFFFFF"></path>
                                <path d="M96.5579116,16.3136311 C96.0725314,16.3616693 84.6258688,17.3645493 79.3249369,6.84121851 C79.1211564,6.43750007 78.6387439,6.28055329 78.2476699,6.48948663 C77.8556067,6.69841997 77.7026064,7.19492456 77.9057275,7.59831397 C82.7169925,17.1496935 92.3800809,17.9893752 95.6240823,17.9893752 C96.2944477,17.9893752 96.6907976,17.953182 96.71322,17.9512078 C97.1521066,17.9067889 97.4726158,17.5047156 97.4304088,17.052959 C97.3875424,16.6012023 96.9958089,16.2705283 96.5579116,16.3136311" id="path-22" fill="#FFFFFF"></path>
                            </g>
                        </g>
                    </g>
                    <g id="Upper-Body" transform="translate(11.000000, 42.000000)">
                        <g id="Upper-Body/Arms-Crossed">
                            <g id="T-Shirt" transform="translate(0.349094, 9.000314)">
                                <path d="M9.63026247,102.620855 C9.17335457,98.8885511 5.80866872,74.2991563 5.02478714,60.3915657 C-0.555804967,61.57344 -1.3268576,36.0747587 5.88893187,19.7436155 C17.3843266,-6.27281724 56.8461687,1.86120029 56.8461687,1.86120029 C56.8461687,1.86120029 68.6359714,1.30677339 80.2747872,10.8744371 C85.4770898,15.1512559 91.2063661,24.7014079 94.0560372,35.1876096 C93.1642609,38.0876125 83.7343266,51.0875686 80.2958398,53.2993289 C85.6106424,79.2288639 89.8165635,102.620855 89.8165635,102.620855 C89.8165635,102.620855 21.3003283,103.695677 9.63026247,102.620855 Z" id="Fill-1" fill="#FF7841"></path>
                                <path d="M89.0380766,102.315953 C88.2877477,98.0169973 84.3880766,76.5413803 79.6512345,53.4325499 C79.5963003,53.1645879 79.7117609,52.8903482 79.9410372,52.7429856 C83.2634056,50.6058979 92.235774,38.1782107 93.3680109,35.1658686 C90.6647214,25.3560149 85.2505766,15.8187488 79.8581424,11.3859769 C68.567353,2.10444766 56.9910372,2.51481608 56.8765635,2.52142426 C56.8213003,2.5227459 56.767353,2.51944181 56.7140635,2.5085383 C56.6160372,2.48871374 46.7913661,0.506918417 35.717353,1.70663479 C29.2469582,2.40776345 23.6226161,4.04130732 18.9995898,6.56266112 C13.2588003,9.69395059 9.04991872,14.2189067 6.49037924,20.011974 C3.68511609,26.3607898 1.83149766,34.8377721 1.40551082,43.2694885 C1.02524766,50.7902663 1.8768924,57.0118745 3.57524766,59.1195558 C4.13281345,59.8111025 4.59235293,59.8087897 4.88906345,59.7450207 C5.07722135,59.705702 5.27261609,59.7499768 5.42458977,59.8666113 C5.57722135,59.9839066 5.67097135,60.1616669 5.68182661,60.3542955 C6.3588003,72.3646756 9.14268187,91.6420791 10.1907082,99.7694885 C10.3061687,100.664237 10.3995898,101.390477 10.4663661,101.915828 C22.604524,102.811898 81.6446556,102.559465 89.0380766,102.315953 Z M9.81998451,103.188565 C9.51176082,103.160149 9.2650503,102.919942 9.22722135,102.611009 C9.16570819,102.109117 9.04728714,101.189588 8.88577398,99.9393189 C7.85485293,91.9427517 5.14597135,73.2491815 4.40616872,61.0785528 C3.83741872,61.0170967 3.17952398,60.7293101 2.55222135,59.9508657 C0.632484506,57.5682838 -0.310607598,51.1507429 0.0913660863,43.2027458 C0.525576611,34.6150762 2.41965556,25.9669418 5.28774766,19.4757196 C10.0887345,8.6102079 20.573274,2.01028099 35.6081424,0.389292686 C46.3453135,-0.769122519 55.9242609,1.00847982 56.8979451,1.19813479 C58.0620898,1.15782485 69.3699845,1.05638918 80.6913661,10.3630295 C86.3140635,14.9854564 91.9400503,24.8914594 94.6907082,35.0135499 C94.723603,35.1348101 94.7216293,35.2626786 94.6844582,35.3826172 C93.8341293,38.1474827 84.9137345,50.6508335 81.0272214,53.5911464 C86.2426819,79.0776025 90.4229451,102.59581 90.4647214,102.838331 C90.4972872,103.026664 90.4472872,103.219953 90.3268924,103.368307 C90.2068266,103.516331 90.0288661,103.605211 89.8387345,103.611819 C87.5913661,103.687483 44.529524,103.479655 21.8285371,103.479655 C16.354524,103.479655 12.0693266,103.395731 9.81998451,103.188565 Z" id="Fill-3" fill="#009192"></path>
                            </g>
                            <g id="Neck" transform="translate(34.990067, -0.000076)">
                                <path d="M5.95220224,0.702427273 C5.95220224,0.702427273 5.50549171,12.0810647 0.824899602,13.7060179 C-0.448455661,20.1014214 8.18049171,24.4684419 14.7397022,24.1591787 C27.4373996,23.560477 23.4854259,13.1357314 22.6123996,13.1073162 C22.6377286,11.8005471 23.3390443,2.02637757 23.3390443,2.02637757 L5.95220224,0.702427273 Z" id="SKIN" fill="#FFFFFF"></path>
                                <path d="M1.44957065,14.2091983 C1.22226802,15.8817305 1.73838644,17.4667042 2.9873996,18.9257919 C5.41108382,21.7577305 10.3387154,23.6665053 14.7071364,23.4573562 C19.0712812,23.2515112 21.8768733,21.7924235 22.8199654,19.2380287 C23.7061496,16.8389264 22.7301628,14.2372831 22.3360838,13.7532334 C22.0824654,13.6435375 21.9071364,13.3878007 21.9127286,13.0937363 C21.934768,11.9749702 22.4295049,4.95079773 22.5916759,2.67394686 L6.60812329,1.4570492 C6.42226803,4.00120124 5.50911013,12.3103357 1.44957065,14.2091983 M14.072268,24.8774556 C9.49036013,24.8774556 4.47753118,22.8223094 1.92654434,19.842017 C0.314702233,17.9593445 -0.303389873,15.7895463 0.139044338,13.5685346 C0.187728548,13.3237012 0.361741707,13.1234732 0.596281181,13.0421925 C4.06174171,11.839172 5.13279434,3.70647609 5.25318908,0.674639846 C5.26075487,0.483993647 5.34496539,0.304581366 5.48674171,0.177704173 C5.62884697,0.0508269797 5.81733382,-0.0109595699 6.00516276,0.00159598563 L23.3920049,1.32554628 C23.7762154,1.35495271 24.0647022,1.69064862 24.0370707,2.07689716 C24.0304917,2.16809014 23.422597,10.6457334 23.3245707,12.7768738 C24.0860838,13.6012451 24.5693075,15.6216983 24.5797399,17.0527012 C24.5943075,19.0576252 23.909768,20.8071428 22.5995707,22.1119293 C20.9354259,23.7699235 18.3018733,24.6947393 14.772597,24.8612656 C14.5406891,24.8718387 14.3068075,24.8774556 14.072268,24.8774556" id="Fill-8" fill="#009192"></path>
                            </g>
                            <g id="Hand" transform="translate(0.000003, 34.456957)">
                                <path d="M94.3796684,9.62919971 L76.3332868,12.1693868 L78.32605,23.8675301 C78.32605,23.8675301 52.3549974,21.3408898 43.4342737,18.3744746 C38.9444711,16.8813547 33.1411816,18.5436442 30.8678262,23.2367787 C29.6651946,25.7194746 30.4401946,32.1796383 30.4401946,32.1796383 C30.4401946,32.1796383 38.8053263,32.0649863 41.1951289,32.0649863 C41.4395368,32.0649863 41.7553263,32.1475886 42.1323,32.295612 L30.1224315,32.4244716 L29.5204578,15.0132202 L1.24973412,15.3720447 C1.24973412,15.3720447 -4.12000273,52.8718548 17.3674973,58.7098577 C36.9461158,64.0294484 60.6013789,46.0257729 62.4503921,44.5865098 C71.6372342,49.3896706 82.5586158,53.1569981 92.8431553,50.520001 C105.850063,47.1851794 94.9112474,11.108112 94.3796684,9.62919971" id="SKIN" fill="#FFFFFF"></path>
                                <path d="M96.7594053,46.4622767 C95.78605,48.307613 94.4518395,49.4253879 92.6804579,49.8797007 C76.7821026,53.9562914 59.4972342,42.5684025 49.1692737,35.7649434 C45.7534842,33.5145253 43.6620368,32.1601772 42.2853921,31.645069 C42.2821026,31.6411041 42.2778263,31.6371392 42.2745368,31.6331743 L42.2524974,31.6335047 C41.8423,31.482838 41.4932868,31.4042006 41.1949316,31.4042006 C39.2015105,31.4042006 32.9913132,31.4844901 31.0304578,31.5109228 C30.8304578,29.4300047 30.6321025,25.2341363 31.4594052,23.5259199 C33.1899974,19.9541947 38.0640105,17.285148 43.2278263,19.001955 C52.0909842,21.9492064 77.0551289,24.4077825 78.2505237,24.524417 L82.54855,25.0996597 C82.5781553,25.1036246 82.6074316,25.105607 82.6363789,25.105607 C82.96105,25.105607 83.2436158,24.8640778 83.2876947,24.5320164 C83.3357211,24.1702181 83.0827605,23.8378263 82.7225632,23.7895866 L78.8932868,23.2767912 L77.0962474,12.7291333 L93.9255237,10.3604287 C94.4903263,12.1750368 96.2018395,18.1521421 97.3755237,24.9955807 C99.0946026,35.0162358 98.8811158,42.4392124 96.7594053,46.4622767 M24.9834183,59.0214668 C22.4672999,59.0214668 19.9672999,58.7316978 17.5393394,58.0722007 C8.91433938,55.7286072 3.65447095,47.8955925 1.9061157,34.7899054 C0.770589379,26.2769082 1.5742078,18.1855135 1.83012885,16.0256275 L28.885392,15.6820018 L29.4649973,32.4473029 C29.4774973,32.8061275 29.7742078,33.081689 30.129471,33.0853235 L42.02355,32.957455 C43.3751947,33.5293937 45.7640105,35.1018118 48.4475632,36.8698323 C51.99855,39.2091305 56.3594053,42.079727 61.2097342,44.6942563 C57.1446026,47.6900779 40.7242079,59.022458 24.9834183,59.0214668 M94.9982211,9.4048848 C94.8926289,9.11115088 94.5969053,8.93239942 94.2883526,8.97469182 L76.8554579,11.4286421 L74.6656553,0.530419876 C74.5932868,0.172586542 74.2452605,-0.0593608268 73.8906553,0.0133292315 C73.5340763,0.0856888808 73.3038132,0.433940343 73.3755237,0.791773677 L75.6863789,12.2913409 L77.5321026,23.1234813 C72.9663132,22.6552912 51.4811158,20.3539901 43.6409842,17.7473906 C41.2732211,16.9596947 38.5248658,17.0019871 36.1005237,17.8627035 C33.6038132,18.7498526 31.6087473,20.4349404 30.441971,22.626876 L30.1817736,15.0965164 C30.1847341,15.0681012 30.1890104,15.0403468 30.1886815,15.0112708 L29.9580894,1.56327952 C29.9521683,1.19850759 29.6676288,0.901139174 29.2890104,0.914025139 C28.9258525,0.920302917 28.6363788,1.22130584 28.6426288,1.58607777 L28.8617078,14.3606947 L1.24131306,14.7112591 C0.917299906,14.7155544 0.644602537,14.9560924 0.598549906,15.2782415 C0.584734116,15.3727386 -0.741252726,24.8604433 0.598549906,34.9392504 C2.39460254,48.4453937 8.13374727,56.8857007 17.1959183,59.3479112 C19.7449315,60.0404493 22.3587473,60.3391393 24.9725631,60.3391393 C33.3590763,60.3391393 41.73605,57.2650107 47.9008526,54.2738148 C55.2469053,50.7090282 60.8755237,46.6093089 62.5011816,45.3782036 C69.5814447,49.0559902 77.6153263,52.0617241 85.6699316,52.0617241 C88.1219053,52.0617241 90.5765105,51.783189 93.0061158,51.1603674 C95.1271684,50.6161832 96.7811158,49.2436627 97.9219053,47.0811335 C103.567958,36.3765311 95.0909842,9.66194328 94.9982211,9.4048848" id="Fill-13" fill="#009192"></path>
                            </g>
                        </g>
                    </g>
                    <g id="Head" transform="translate(25.000000, 0.000000)">
                        <g id="Head/Long-Hair-1">
                            <g id="Long-Hair" transform="translate(0.227959, -0.000011)">
                                <path d="M36.9495306,14.1704654 C26.9840617,13.1901042 20.1703098,16.4772836 16.2222579,20.4318291 C12.2742059,24.3863745 9.64217129,26.6931927 9.64217129,33.6136472 C9.64217129,40.5341018 19.8413055,51.0795563 20.4993141,52.0681927 C21.1573228,53.0568291 30.6984483,59.3181927 41.2265869,56.0227381 C48.2453458,53.8257683 52.1933978,49.6515261 53.0707428,43.5000109 C54.1674237,32.9545563 54.1674237,26.4734957 53.0707428,24.0568291 C51.4257211,20.4318291 46.9149994,15.1508266 36.9495306,14.1704654 Z" id="SKIN" fill="#FFFFFF"></path>
                                <path d="M25.6609973,6.28569497 C33.9117679,-5.59705503 56.6160276,0.3054336 50.0734475,16.1321836 C54.0264345,18.7553654 57.5046683,23.4049222 56.6127376,33.4613313 C55.2671099,48.6303086 60.2123739,48.0470131 62.0544692,53.2505359 C63.9218977,57.7333427 62.2439757,63.7195359 58.6331531,67.0716722 C60.6466596,72.4136041 57.405309,89.6613541 46.5323739,86.2643995 C40.228322,84.2950359 36.9449246,80.2894768 36.291522,75.46592 C35.0702579,66.4462609 38.9235566,59.3181927 41.2419843,56.5196268 C35.5400103,58.7486722 28.0664137,57.6704654 24.4473661,55.0341018 C24.4473661,58.3295563 23.4603531,60.3068291 21.8153315,61.9545563 C20.1703098,63.6022836 14.9062406,64.59092 8.98416263,61.9545563 C3.0620847,59.3181927 -5.82103217,46.7954654 5.33774185,33.7480359 C10.6607029,28.7949677 9.08181112,29.355195 9.08181112,20.3322404 C9.08181112,11.0011609 18.0692224,5.25224042 25.6609973,6.28569497 Z M46.9558025,20.3127972 C43.5084951,23.0783427 36.8708328,24.6301722 22.1337419,22.6917859 C18.1544345,21.8896722 15.8073176,27.2464336 15.4631791,29.6722177 C15.078902,30.899445 13.4664518,29.6046609 12.6942787,29.8132631 C8.12704056,29.9549677 8.61626999,38.403195 14.7834561,37.8640586 C15.1322007,37.8640586 15.4217245,38.1342859 15.4414648,38.4836041 C15.5592483,42.3462063 18.6078025,48.843195 23.3671791,52.4003086 C29.9874042,57.7494904 42.2336034,58.0691495 47.3088241,50.1165586 C51.9056726,44.1481609 50.7337592,28.8625245 46.9558025,20.3127972 Z M12.8782579,32.3074279 C13.2934613,32.3074279 13.6300328,32.8996211 13.6300328,33.6298938 C13.6300328,34.3601666 13.2934613,34.9523597 12.8782579,34.9523597 C12.4630544,34.9523597 12.126483,34.3601666 12.126483,33.6298938 C12.126483,32.8996211 12.4630544,32.3074279 12.8782579,32.3074279 Z" id="ink" fill="#009192"></path>
                            </g>
                        </g>
                    </g>
                    <g id="Face" transform="translate(48.000000, 26.000000)">
                        <g id="Face/Open-Mouth">
                            <g id="Open-Mouth" transform="translate(0.321646, 0.335306)">
                                <path d="M14.5888046,17.9302135 C15.4738621,17.8946522 18.5931264,17.1599425 19.0430575,17.9620845 C20.1141379,20.3087941 18.1055402,22.9601232 16.0872874,23.9115554 C12.9075172,25.4353232 6.66898851,23.9769748 7.33970115,19.3593748 C7.32811494,19.2117619 7.52572414,18.9685361 7.69050575,18.9708845 C9.94852874,18.616949 12.3262759,18.2365103 14.5888046,17.9302135 Z M12.4746759,5.95317092 C12.4840092,5.36808705 13.3532966,5.36104189 13.3819402,5.93539027 C13.5309517,7.61482253 13.566354,9.34558382 13.9075034,10.9850935 C17.4213425,12.5182548 16.2012506,16.4638806 12.5290667,16.163287 C11.6951816,16.1565774 11.6916414,14.8344354 12.5232736,14.8213516 C13.2194115,14.8035709 14.2621701,14.7089645 14.5682391,14.0772483 C14.9386759,13.1036741 13.9998713,12.4575322 13.1801471,12.117687 C12.8258023,11.9455838 12.7038253,11.4675193 12.652331,11.1843709 C12.3829517,9.44086124 12.4331586,7.70137737 12.4746759,5.95317092 Z M2.62514483,7.73324834 C3.33673103,6.71606124 4.53429425,5.99175156 5.7988,6.11621608 C6.44634023,6.17358382 7.10804138,6.47048705 7.59015632,6.98579027 C8.2496046,7.69533866 7.21650115,8.74439673 6.55351264,8.04088705 C6.3324092,7.77417737 6.0211908,7.59435802 5.65236322,7.53732576 C4.38206437,7.35280963 3.34735172,8.52800963 2.93668506,9.70488705 C2.82886897,10.0232612 2.48675402,10.1873129 2.18551264,10.0605 C1.32845517,9.59887414 2.29751264,8.32940318 2.62514483,7.73324834 Z M15.6700874,5.88013608 C16.7260414,4.04000705 19.1301793,3.23987802 21.0052138,4.18493608 C21.5925701,4.41507802 23.2893057,5.83316834 22.2339954,6.51185221 C21.9501333,6.63933608 21.6579034,6.49105221 21.504708,6.23943931 C20.6560184,5.20715543 18.8913747,4.97768447 17.732754,5.63053608 C17.3150069,5.86403285 16.9403862,6.19716834 16.5879724,6.58532318 C16.376846,6.84834253 15.9935356,6.87685866 15.7540874,6.6390006 C15.5500414,6.43737479 15.520754,6.11598124 15.6700874,5.88013608 Z M2.56537931,1.7446935 C3.17333333,1.67759673 5.60128736,1.58902899 5.34993103,2.61929995 C5.09793103,3.18157092 4.3062069,2.85715802 3.83793103,3.01483544 C2.75751724,3.1134677 1.73117241,3.59421608 0.666850575,3.75323543 C0.341149425,3.79718382 0.0424827586,3.55764834 -2.06057393e-13,3.21780318 C0.0289655172,2.18652576 1.79328736,1.86848705 2.56537931,1.7446935 Z M18.1583862,0.0435218887 C18.9845471,-0.15743295 21.9644552,0.329018663 21.1901103,1.68001221 C20.7694667,2.12352189 20.1370529,1.74945737 19.6285471,1.67732834 C18.6836276,1.40055415 17.7264782,1.36063157 16.7690069,1.61459286 C16.5218345,1.66457995 16.2823862,1.49650253 16.2344322,1.23885092 C16.1816506,0.486025116 17.5932368,0.153896082 18.1583862,0.0435218887 Z" id="face" fill="#009192"></path>
                                <path d="M5.70076782,14.4841903 C6.48766437,14.1017387 7.05571034,15.3749 6.27042299,15.7570161 C5.4832046,16.1398032 4.91548046,14.8663064 5.70076782,14.4841903 Z M2.65935632,15.6971993 C1.40675862,15.4761154 2.78905747,13.788967 3.22096552,14.8655348 C3.49163218,15.2915993 3.17429885,15.8941283 2.65935632,15.6971993 Z M19.4480598,11.6502909 C20.2426805,11.6432458 20.2545885,12.9304974 19.4583586,12.9375425 C18.6637379,12.9442522 18.6521517,11.6573361 19.4480598,11.6502909 Z M4.34708046,12.0938677 C4.8234023,11.8623838 5.16777011,12.6329903 4.69209195,12.8644741 C4.21544828,13.095958 3.8714023,12.3250161 4.34708046,12.0938677 Z M6.71121379,11.243047 C7.3610069,10.9273567 7.82992644,11.9784277 7.18142069,12.2937825 C6.53130575,12.6098083 6.06238621,11.5584019 6.71121379,11.243047 Z M21.644354,10.9458754 C21.5941471,9.87735931 23.376492,10.704998 22.4238483,11.40314 C22.0720782,11.7782109 21.5819172,11.4095141 21.644354,10.9458754 Z M17.3853287,9.38379543 C18.0415586,9.37775673 18.050892,10.4405696 17.3936966,10.4466083 C16.7377885,10.452647 16.7281333,9.38983414 17.3853287,9.38379543 Z M19.6633701,9.11547543 C20.1445195,9.11111414 20.1516,9.89077866 19.6698069,9.89480447 C19.1883356,9.89916576 19.181577,9.11983673 19.6633701,9.11547543 Z" id="dot" fill="#FF8A58"></path>
                            </g>
                        </g>
                    </g>
                </g>
                <g id="Group-2" transform="translate(115.000000, 199.500000) scale(-1, 1) translate(-115.000000, -199.500000) translate(0.000000, 9.000000)">
                    <path d="M220.367557,195.854118 L203.666396,195.854118 L203.666396,173.46569 C203.666396,169.33764 200.327736,166 196.198423,166 L173.402321,166 C169.273008,166 165.934348,169.33764 165.934348,173.46569 L165.934348,196.054471 L149.233187,196.054471 C144.121453,196.054471 140,200.182522 140,205.284836 L140,326.28606 C140,331.396231 144.129313,335.516429 149.233187,335.516429 L161.613267,335.516429 C161.812816,339.245345 163.777737,342 166.133976,342 C168.490215,342 170.455058,339.053637 170.654685,335.516429 L199.345315,335.516429 C199.544864,339.245345 201.509785,342 203.866024,342 C206.222263,342 208.187105,339.053637 208.386733,335.516429 L220.766813,335.516429 C225.878547,335.516429 230,331.388374 230,326.28606 L229.992317,205.284836 C229.792768,200.182325 225.671236,195.854904 220.367733,195.854904 L220.367557,195.854118 Z M170.536489,177.47466 C170.536489,173.351749 173.828545,170.018265 177.900217,170.018265 L190.493415,170.018265 C194.565087,170.018265 197.857143,173.351749 197.857143,177.47466 L197.857143,194.931507 L170.535714,194.931507 L170.536489,177.47466 Z M152.916438,270.474886 L148.035714,255.171306 L177.708562,245.561644 L182.589286,260.865223 L152.916438,270.474886 Z M197.857143,295.388128 L167.321429,295.388128 L167.321429,278.511416 L197.857143,278.511416 L197.857143,295.388128 Z M210.714286,238.328767 L180.178571,238.328767 L180.178571,221.452055 L210.714286,221.452055 L210.714286,238.328767 Z" id="Fill-1" fill-opacity="0.3" fill="#009192"></path>
                    <g id="Croods---Standing" transform="translate(95.000000, 190.500000) scale(-1, 1) translate(-95.000000, -190.500000) " fill-rule="nonzero">
                        <g id="Lower-Body" transform="translate(32.067511, 152.161017)">
                            <g id="Lower-Body/Half-Pant">
                                <g id="leg-2" transform="translate(75.264997, 85.704571)">
                                    <g id="Group">
                                        <path d="M0.660337949,0.661398311 L6.31050182,27.1615172 C0.421292554,65.4283698 10.0948698,90.4005152 13.2608243,127.068767 L34.1313501,129.50836 L30.4059672,5.48955798" id="SKIN" fill="#FFFFFF"></path>
                                        <path d="M34.1315053,130.170139 C34.1060485,130.170139 34.0805917,130.168584 34.0548245,130.165472 L13.1842987,127.726191 C12.8729188,127.689477 12.630148,127.439015 12.603139,127.126016 C11.5876617,115.365193 9.90254693,104.815923 8.27269197,94.6141875 C4.86986525,73.3140321 1.65548082,53.1943147 5.63977769,27.1808074 L0.0147601596,0.7995413 C-0.0616101873,0.442360779 0.16594861,0.0907806497 0.522343562,0.0142419665 C0.880290757,-0.0604299193 1.22985584,0.165763668 1.30591574,0.523255322 L6.95607961,27.0230631 C6.97315428,27.1017797 6.97532742,27.1826742 6.96290948,27.2623242 C2.98233799,53.1280434 6.18523582,73.1777559 9.57657594,94.4051063 C11.18501,104.47461 12.8477725,114.881693 13.8716318,126.474192 L33.4485184,128.762574 L29.7464192,5.50947049 C29.735243,5.14388938 30.0217871,4.83897918 30.3862537,4.82808953 C30.3930835,4.82808953 30.399603,4.82777839 30.4064328,4.82777839 C30.7618964,4.82777839 31.0552705,5.11122043 31.0658257,5.46933435 L34.7915205,129.488447 C34.797107,129.680727 34.7191844,129.865851 34.5776199,129.995905 C34.4553031,130.108535 34.2957326,130.170139 34.1315053,130.170139" id="Fill-3" fill="#009192"></path>
                                    </g>
                                    <g id="shoe-1" transform="translate(4.900731, 118.157702)">
                                        <path d="M24.303738,5.20239278 C24.303738,5.20239278 26.808437,1.6234315 29.2640851,0.258802787 C30.867552,-0.63259285 49.1694261,9.44624496 52.4642167,11.6714672 C55.3815018,13.6418715 55.313824,16.8823203 54.7599838,18.4544746 C54.5038637,19.1812809 53.5917659,19.5496623 52.0488365,19.5496623 C46.4157473,19.5496623 34.2800024,19.5767308 23.5732525,19.6009992 C14.9095644,19.6202894 5.87551119,19.6370906 3.05850091,19.6370906 C2.76078074,19.6370906 2.49224273,19.521038 2.30162731,19.3104011 C1.19270504,18.0839154 0.721133672,4.94010778 3.60116501,2.78084573 C6.24401364,0.799551695 24.303738,5.20239278 24.303738,5.20239278 Z" id="Fill-5" fill="#FF7841"></path>
                                        <path d="M34.7879816,21.7546608 L34.7879816,21.7546608 L53.4141582,22.9991922 L2.2404379,22.9991922 C1.11909769,22.9991922 0.201722178,22.1081077 0.156396688,20.9951855 C0.0551904559,20.5872903 -0.271090985,18.9967792 0.49137069,17.9781302 C0.761771389,17.6172161 1.28301453,17.183808 2.23174534,17.1704293 C2.64681507,17.1847414 40.8183286,18.5434586 53.3464804,17.1741629 C54.6010031,17.0378867 55.6596327,17.4591606 56.2504163,18.3315771 C56.8312656,19.1887481 56.8753493,20.3694973 56.3631091,21.3389873 C55.8064749,22.3931054 54.7313915,22.9982588 53.4141582,22.9991922 L34.7879816,21.7546608 Z" id="Fill-9" fill="#009192"></path>
                                    </g>
                                </g>
                                <g id="leg-1" transform="translate(31.580952, 156.704571) scale(-1, 1) translate(-31.580952, -156.704571) translate(0.580952, 85.704571)">
                                    <g id="leg-2">
                                        <path d="M0.660337949,0.661398311 L6.31050182,27.1615172 C0.421292554,65.4283698 10.0948698,90.4005152 13.2608243,127.068767 L34.1313501,129.50836 L30.4059672,5.48955798" id="SKIN" fill="#FFFFFF"></path>
                                        <path d="M34.1315053,130.170139 C34.1060485,130.170139 34.0805917,130.168584 34.0548245,130.165472 L13.1842987,127.726191 C12.8729188,127.689477 12.630148,127.439015 12.603139,127.126016 C11.5876617,115.365193 9.90254693,104.815923 8.27269197,94.6141875 C4.86986525,73.3140321 1.65548082,53.1943147 5.63977769,27.1808074 L0.0147601596,0.7995413 C-0.0616101873,0.442360779 0.16594861,0.0907806497 0.522343562,0.0142419665 C0.880290757,-0.0604299193 1.22985584,0.165763668 1.30591574,0.523255322 L6.95607961,27.0230631 C6.97315428,27.1017797 6.97532742,27.1826742 6.96290948,27.2623242 C2.98233799,53.1280434 6.18523582,73.1777559 9.57657594,94.4051063 C11.18501,104.47461 12.8477725,114.881693 13.8716318,126.474192 L33.4485184,128.762574 L29.7464192,5.50947049 C29.735243,5.14388938 30.0217871,4.83897918 30.3862537,4.82808953 C30.3930835,4.82808953 30.399603,4.82777839 30.4064328,4.82777839 C30.7618964,4.82777839 31.0552705,5.11122043 31.0658257,5.46933435 L34.7915205,129.488447 C34.797107,129.680727 34.7191844,129.865851 34.5776199,129.995905 C34.4553031,130.108535 34.2957326,130.170139 34.1315053,130.170139" id="Fill-3" fill="#009192"></path>
                                    </g>
                                    <g id="shoe-1" transform="translate(4.900731, 118.157702)">
                                        <path d="M24.303738,5.20239278 C24.303738,5.20239278 26.808437,1.6234315 29.2640851,0.258802787 C30.867552,-0.63259285 49.1694261,9.44624496 52.4642167,11.6714672 C55.3815018,13.6418715 55.313824,16.8823203 54.7599838,18.4544746 C54.5038637,19.1812809 53.5917659,19.5496623 52.0488365,19.5496623 C46.4157473,19.5496623 34.2800024,19.5767308 23.5732525,19.6009992 C14.9095644,19.6202894 5.87551119,19.6370906 3.05850091,19.6370906 C2.76078074,19.6370906 2.49224273,19.521038 2.30162731,19.3104011 C1.19270504,18.0839154 0.721133672,4.94010778 3.60116501,2.78084573 C6.24401364,0.799551695 24.303738,5.20239278 24.303738,5.20239278 Z" id="Fill-5" fill="#FF7841"></path>
                                        <path d="M53.4141582,22.9991922 L2.2404379,22.9991922 C1.11909769,22.9991922 0.201722178,22.1081077 0.156396688,20.9951855 C0.0551904559,20.5872903 -0.271090985,18.9967792 0.49137069,17.9781302 C0.761771389,17.6172161 1.28301453,17.183808 2.23174534,17.1704293 C2.64681507,17.1847414 40.8183286,18.5434586 53.3464804,17.1741629 C54.6010031,17.0378867 55.6596327,17.4591606 56.2504163,18.3315771 C56.8312656,19.1887481 56.8753493,20.3694973 56.3631091,21.3389873 C55.8064749,22.3931054 54.7313915,22.9982588 53.4141582,22.9991922 Z" id="Fill-9" fill="#009192"></path>
                                    </g>
                                </g>
                                <g id="pant" transform="translate(16.945013, 0.045737)">
                                    <polygon id="Path" fill="#009192" points="15.961061 0.328742978 -3.10448565e-05 102.458415 47.6128444 102.458415 50.9616531 47.0584092 55.5373545 102.458415 101.981081 102.458415 83.8179769 0.265271875"></polygon>
                                    <path d="M54.1903492,7.82268899 C55.522484,8.75297624 58.4906827,10.5675031 63.4423373,12.2936682 C65.2134464,12.9109557 66.1587622,12.8166825 66.4304047,12.5481748 C66.6138798,12.3667844 66.5269542,11.9937361 66.4586556,11.787455 C65.9228213,10.1667639 63.0288198,7.62169717 58.9886422,7.05854669 C57.5472295,6.85848827 55.9002999,7.18704456 54.1903492,7.82268899 M49.3464202,6.54051048 C48.4194208,6.54051048 47.3387494,7.06570275 46.4378276,7.50408895 C42.7112031,9.31581558 39.6532847,13.2637804 39.3726392,15.1638688 C40.1242352,14.8766931 41.8136963,13.7139897 43.3280644,12.6716946 C45.798614,10.9710424 48.7581202,8.93374443 51.7260085,7.51280067 C51.1970041,7.13072952 50.6090145,6.8388869 49.9477591,6.62762768 C49.7577646,6.56726791 49.555973,6.54051048 49.3464202,6.54051048 M48.1741665,21.5626271 C48.0993483,21.5626271 48.0232884,21.5489373 47.9494017,21.5200019 C47.6299501,21.3955488 47.4713109,21.0352569 47.5954903,20.7147901 C49.0828494,16.8772774 51.1864489,11.2877756 51.9945465,8.77755573 C49.1412137,10.1798315 46.278878,12.1502359 44.0309199,13.6974996 C40.6557231,16.0210398 39.4455946,16.8016721 38.6120402,16.3617303 C38.4242188,16.26279 38.1097344,16.0101501 38.1097344,15.4308208 C38.1097344,12.8250831 42.0390819,8.25920839 45.8957844,6.38401066 C47.1987371,5.75085529 48.8217622,4.9621335 50.3243332,5.4422115 C51.366509,5.77450139 52.2466307,6.27822549 53.0007103,6.94249414 C55.1465308,6.05420983 57.2613064,5.56044198 59.1593889,5.82614944 C63.5146718,6.43316965 66.8901791,9.13504739 67.6374288,11.3960499 C68.0074834,12.5161282 67.5862047,13.1542616 67.3021443,13.4345923 C66.5462021,14.1813112 65.1103774,14.192512 63.0344079,13.468817 C59.4661121,12.2252189 56.9042905,10.9449072 55.2042742,9.94897094 C56.4827014,12.5453746 57.224363,16.0813996 58.0051411,20.3787666 C58.0662995,20.716968 57.8427765,21.0408573 57.505319,21.1027728 C57.1706554,21.1634437 56.8446844,20.9403614 56.7832156,20.6018489 C55.757804,14.9554098 54.8224225,11.2591514 53.2127467,9.02583975 C52.172744,12.3222924 49.1523899,20.1351496 48.753153,21.1656216 C48.6575349,21.4117277 48.4228358,21.562316 48.1741665,21.5626271" id="Fill-14" fill="#FFFFFF"></path>
                                    <path d="M71.2177389,8.63757706 C71.1935239,8.63757706 71.1689985,8.63633253 71.1444731,8.6332212 C70.803911,8.59308506 70.5602089,8.283819 70.6002567,7.94281739 C70.7598273,6.58378907 70.3655576,5.43788675 70.3615218,5.42668597 C70.248208,5.10310779 70.4170921,4.74748294 70.7396481,4.63298605 C71.0625146,4.51880029 71.416426,4.68618977 71.5316024,5.0094568 C71.552092,5.06639412 72.0283201,6.4288449 71.8336689,8.0878053 C71.796415,8.40453855 71.5281875,8.63757706 71.2177389,8.63757706" id="Fill-16" fill="#FFFFFF"></path>
                                    <path d="M77.6198092,8.33920065 C77.5955942,8.33920065 77.5710688,8.33795612 77.5465434,8.33484479 C77.2059813,8.29470865 76.9622792,7.98544259 77.002327,7.64444098 C77.1618976,6.28541265 76.7676279,5.13951034 76.7635921,5.12830956 C76.6502783,4.80473138 76.8191624,4.44910653 77.1417184,4.33460964 C77.4648954,4.22042388 77.8184963,4.38781335 77.9336727,4.71108039 C77.9541623,4.76801771 78.4303904,6.13046849 78.2357392,7.78942889 C78.1984853,8.10616214 77.9302578,8.33920065 77.6198092,8.33920065" id="Fill-18" fill="#FFFFFF"></path>
                                    <path d="M33.6654459,9.02437743 C33.3549974,9.02437743 33.0867698,8.79133892 33.049516,8.47460567 C32.8548647,6.81564527 33.3310928,5.45319449 33.3515824,5.39625717 C33.4667588,5.07299013 33.8216015,4.90404499 34.145089,5.01947528 C34.4673346,5.13490557 34.6355977,5.4902193 34.5213526,5.81348634 C34.5176272,5.82468712 34.1233576,6.97058943 34.2829281,8.32961776 C34.322976,8.67061937 34.0792739,8.97988543 33.7387118,9.02002157 C33.7141863,9.0231329 33.6896609,9.02437743 33.6654459,9.02437743" id="Fill-20" fill="#FFFFFF"></path>
                                    <path d="M22.3777224,8.93595347 C22.0672738,8.93595347 21.7990463,8.70291496 21.7617924,8.38618171 C21.5671412,6.72722131 22.0433693,5.36477053 22.0638589,5.30783322 C22.1790353,4.98456618 22.5335676,4.81593217 22.8573654,4.93105132 C23.179611,5.04648161 23.3478741,5.40179534 23.2336291,5.72506238 C23.2299037,5.73626316 22.835634,6.88216548 22.9952046,8.2411938 C23.0352524,8.58219541 22.7915503,8.89146147 22.4509882,8.93159761 C22.4264628,8.93470894 22.4019374,8.93595347 22.3777224,8.93595347" id="Fill-22" fill="#FFFFFF"></path>
                                </g>
                            </g>
                        </g>
                        <g id="Upper-Body" transform="translate(0.000000, 35.423729)">
                            <g id="Upper-Body/Run">
                                <g id="hand-2" transform="translate(127.118010, 0.000074)">
                                    <path d="M26.1971717,74.0048014 C22.1709419,73.8442385 8.20708712,73.0771391 0.000654243433,67.7009213 C-0.100032482,67.6515412 11.4544664,42.5133517 11.4290623,42.4596237 L11.4522977,42.4385052 C11.5278902,42.4735992 17.8113616,45.4913745 22.0606512,45.4652869 C24.3473242,45.4180808 28.4624681,42.3021665 32.5438434,37.5278267 C38.0862604,31.1239441 41.1130582,24.7421119 42.9870706,18.0549927 C43.4043783,16.6117898 43.7333916,14.8853503 43.3706095,13.3182314 C42.3919346,10.0967245 44.1141423,9.67062713 46.4606077,11.4461362 C47.3540862,9.06067439 48.3708673,6.50191647 49.111302,3.84750404 C49.509092,2.15771136 50.8818393,-0.325578886 52.5461134,1.01296301 C53.407682,1.91205321 53.1709907,4.4878923 53.0052449,6.31153916 C54.107842,6.37675814 55.0437638,7.00907167 55.1205956,8.26127606 C55.1571526,8.49575381 54.8550924,9.19608142 54.7940608,9.43459654 C55.1367054,9.44950373 55.8315987,9.40819838 56.152557,9.49981552 C57.6204146,9.91349018 57.8490509,11.2343298 57.3000759,12.4942983 C58.240335,12.4446077 59.2980104,12.5884 59.7915302,13.5365597 C60.3507288,14.4167054 59.8940758,15.2912608 59.3996265,16.0223345 C59.6567649,16.1453189 60.4238429,16.1580521 60.6122045,16.4055736 C61.5004163,17.5251661 61.0933321,18.9770648 60.9316138,20.3292716 C55.5537034,43.4869779 45.9156602,72.3187355 26.1971717,74.0048014" id="Fill-1" fill="#FFFFFF"></path>
                                    <path d="M59.1390802,15.0663175 C58.2672881,16.0048496 56.6764378,17.2999122 55.4638598,16.5234958 L55.46355,16.5234958 C54.6022913,15.2625955 56.6956458,13.4367747 57.8862276,13.2234155 C58.7855924,13.0373861 59.8085695,14.1650533 59.1390802,15.0663175 M52.6015686,13.7451673 C51.6337368,12.183328 54.5146164,9.80407758 55.9827837,10.1705461 C56.629967,10.3221026 57.1138829,11.0432382 56.8263836,11.6715143 C56.3269774,12.5817849 53.5703298,14.6246918 52.6015686,13.7451673 M50.8260743,9.65189996 C50.5810183,8.81212797 51.3505747,8.02266777 51.507646,7.87235355 C52.5870077,6.79748267 54.2602662,6.68443644 54.4247728,8.31832714 C54.4560632,8.69628664 53.2345008,9.98948582 51.9138008,10.2348334 C51.1495111,10.3764518 50.9388435,10.0388659 50.8260743,9.65189996 M61.6153541,16.9682271 C61.5128085,16.4505126 61.0158808,15.7070163 60.3646701,15.6063927 C61.3359097,14.089275 59.8788953,11.8376674 58.1350012,11.8901532 C58.588866,10.351917 57.210852,8.75094636 55.6509823,8.82051327 C56.0308036,7.43724979 54.9808734,5.98752507 53.6719459,5.79714776 C53.8596879,3.61759161 53.9266059,1.60077234 53.0021468,0.592673275 C51.4416575,-0.778788674 49.4579741,0.22154623 48.5143071,3.68125776 C47.8677434,6.01112813 46.9352294,8.4347896 46.1563789,10.4957093 C45.2006295,9.77767942 43.3238289,9.29319558 42.664873,10.6814281 C42.0387565,12.3243253 43.231507,13.9507624 42.8637681,15.6343437 C41.2908865,23.3183816 38.0490837,30.0763101 32.0735589,37.1236864 C28.1182744,41.7501965 24.0582758,44.8658003 21.9825803,44.8449923 C19.03912,44.8331908 15.1495143,43.3595525 13.1196699,42.4952457 C12.7358211,42.3315771 12.3008545,42.5626387 12.2165874,42.972276 C12.1533872,43.2812897 12.3151055,43.5912351 12.6044637,43.7151512 C14.7405713,44.6282169 18.8535466,46.1819814 22.0606512,46.1652108 C28.7527557,45.9211055 41.4250322,28.9452267 43.6522226,18.2586312 C44.1048481,16.6554866 44.4202299,14.8529582 44.0326635,13.1861475 C43.922063,12.6128416 43.6116381,11.7438763 43.8250939,11.2367211 C43.9155571,11.0708786 43.9998241,11.0774005 44.2095623,11.0699469 C45.9416838,11.3131205 47.0953988,13.1088164 47.5164242,14.7023334 C47.8909788,16.1287657 47.7989667,17.6902944 47.527887,19.2061698 C47.4671652,19.543445 47.6905348,19.8667448 48.0272932,19.9279265 C48.8191555,20.0419044 48.7971594,19.0912601 48.8842147,18.5440418 C51.8667104,19.2027535 52.0640564,23.2351498 51.7777963,24.0954192 C51.6873331,24.4814534 52.0024051,24.8628292 52.3964775,24.8497854 C53.336117,25.0594178 53.6251653,21.3484579 51.7341137,18.9338029 C50.9763299,17.9794318 49.8573131,17.5151348 48.9985328,17.2862473 C49.1227647,15.2268804 48.6013624,13.0240317 47.2125052,11.4308252 C48.073764,9.14039683 49.0642115,6.61921746 49.7841991,4.03437194 C50.2867033,2.29768371 51.0977736,0.899202475 52.0321464,1.48679441 C52.6694159,2.18215295 52.4575091,4.5846959 52.3422615,5.8813113 C50.9335768,6.35958381 49.0756743,7.72545556 49.5614491,10.0227164 C49.8498778,11.0112498 50.5754418,11.562816 51.5513286,11.5811395 C50.4505903,13.4600672 51.7889492,15.8964619 54.0802693,15.0793612 C53.7645777,15.9911847 53.9331118,16.8865481 54.5471459,17.4725872 L54.5468361,17.4725872 C54.9777753,17.8915415 55.5698133,18.1036585 56.2520046,18.0865773 C55.8771401,19.4502751 57.3669939,20.679187 58.6272819,20.1630253 C59.1982531,19.9978039 59.0238327,19.0862911 58.4240496,19.1555474 C57.6321872,19.2676619 57.2666169,18.6657839 57.6628579,18.0816082 C58.1027815,17.4399777 59.1796647,16.8868587 59.9929037,16.9393444 C60.4492469,17.2781725 60.3835682,17.9517914 60.3637406,18.4834814 C57.5237554,37.2864233 47.7769705,59.5767173 39.3824858,67.0079541 C34.8478655,71.3785573 29.9120472,73.5497282 25.0992217,73.2866783 C22.4147587,73.1397803 9.41563764,72.223609 1.90100002,68.0520789 C1.56579067,67.8660495 1.14507506,68.0070467 0.985215521,68.3561235 C0.83991683,68.6738331 0.966937008,69.0471341 1.27240504,69.2157718 C9.07268316,73.5230195 22.2926954,74.4559614 25.0276567,74.6056545 C45.3769087,74.4217991 55.5753898,45.4608458 61.1797678,22.0407108 C61.585303,20.3521604 61.9920773,18.7322452 61.6153541,16.9682271" id="Fill-3" fill="#009192"></path>
                                </g>
                                <g id="hand-1" transform="translate(-0.000118, 40.777887)">
                                    <path d="M55.723591,5.40012479e-13 C32.7103231,12.2720378 17.1116259,46.1765897 8.29952364,63.3093048 C3.01145679,73.591232 1.46738712,81.7808723 0.918721914,84.4765901 C0.665610975,85.7204092 0.326683966,87.5623795 1.3732063,88.4124002 C2.1195273,89.0183155 3.13971619,88.7698623 3.50094918,87.8776045 C3.50094918,87.8776045 2.97985665,89.0462665 2.83765601,90.0596452 C2.7032005,91.0183642 3.09045714,91.9314299 3.77512688,92.2624939 C4.83063357,92.7730653 5.68507662,92.1761564 6.11725503,91.1661939 L5.74301021,92.3069049 C5.32725149,93.3895399 5.59554289,94.5491955 6.72292441,95.1585271 C7.562187,95.6119543 8.98791104,94.9280867 9.54958807,93.8348924 C9.75189093,93.441094 10.3411406,92.2457233 10.3411406,92.2457233 C10.0068607,93.1864294 10.4154939,94.7342932 11.3743413,94.9948585 C12.614492,95.3321338 13.5088999,94.3178234 13.8853134,93.4851944 C15.6217722,89.6441072 18.4208631,85.7508447 19.9457249,83.1467441 C19.9457249,83.1467441 21.0932437,86.151165 21.8968787,86.9691973 C22.6456782,87.7313277 24.4753883,88.0390992 24.9698376,85.2874794 C25.1207128,84.4492602 24.841888,81.3057055 25.7812177,77.4295242 C27.4591233,70.5057532 35.6571912,56.6765346 43.1052207,47.4905968 C54.8669793,32.9840326 65.942829,28.276154 65.942829,28.276154 L55.723591,5.40012479e-13 Z" id="Fill-6" fill="#FFFFFF"></path>
                                    <path d="M65.2541937,28.6662877 C65.1095147,28.3019931 64.6847716,28.1423619 64.3377896,28.3234222 C63.1084822,28.9644316 61.0987751,30.10918 58.5555833,31.903323 C54.6538952,34.6555639 48.7174059,39.5218314 42.5937941,47.0738786 C34.758508,56.7380889 26.7661507,70.567618 25.1409121,77.2736819 C24.450356,80.1240618 24.4020264,82.5790905 24.3732145,84.0458964 C24.3633008,84.5496353 24.354936,84.9850497 24.321477,85.1701473 C24.1572802,86.0847659 23.8195924,86.6652148 23.3709943,86.804038 C23.0128594,86.9152209 22.5946222,86.7378874 22.3662957,86.5058941 C21.8520189,85.9822789 20.9858033,84.0226039 20.5610602,82.910465 C20.470597,82.6735027 20.2524941,82.5095236 20.0000028,82.4887156 C19.745033,82.4675971 19.5058633,82.5936871 19.3776039,82.812326 C18.919092,83.5952643 18.3307717,84.5170259 17.7077533,85.4931366 C16.2838881,87.7233151 14.5118017,90.4988485 13.2852825,93.2125791 C13.2186743,93.3600982 12.6024716,94.6449121 11.5469649,94.357638 C11.3297913,94.2986304 11.1776769,94.0601153 11.1064217,93.923466 C10.8780952,93.4861882 10.8173734,92.873751 10.9617426,92.4672193 C10.970727,92.4417529 10.9753741,92.4156653 10.9809506,92.3895777 C11.1256296,91.9867729 11.2916853,91.574651 11.4611488,91.1656349 C11.6411457,90.7323945 11.8270289,90.2994647 12.0169395,89.8671561 C12.3955216,89.0034705 12.7868057,88.1397848 13.1833565,87.2838634 L13.1849055,87.2804472 C13.3082081,87.0130493 13.1653878,86.6832276 12.851555,86.6090022 C12.6405776,86.559001 12.4230943,86.6745318 12.3199291,86.8655302 C11.8700918,87.7006437 11.4295487,88.5360678 10.9967506,89.3808088 C10.7792673,89.8050428 10.5645722,90.2317612 10.3539046,90.6631382 C10.1550096,91.0721543 9.95983226,91.4821022 9.77456868,91.9137897 C9.76682355,91.9274547 9.75721958,91.9389456 9.75040387,91.9532317 C9.75040387,91.9532317 9.16487183,93.1411488 8.96380818,93.5324627 C8.72061101,94.0057661 8.2295696,94.4154034 7.71312414,94.5756558 C7.43894644,94.6610616 7.19172181,94.6613721 7.03557993,94.5772086 C5.91470432,93.9716038 6.23349398,92.8681608 6.35803572,92.5442399 C6.36175338,92.5339912 6.36547104,92.5237425 6.3688789,92.5131832 L6.74312372,91.3724722 C6.75024924,91.3510431 6.75272768,91.3293035 6.75768457,91.3072532 C7.19605908,90.2044314 7.68617108,89.0926031 8.17101639,87.9885389 L9.70765073,84.5660954 L9.71074879,84.5589523 C9.8337415,84.2841009 9.69278008,83.953037 9.38762185,83.8629727 C9.14845215,83.7918529 8.89441179,83.9241543 8.78319169,84.1480728 L7.12201561,87.4987754 C6.58016612,88.6149517 6.03924605,89.7215003 5.53023593,90.8761868 C5.52496924,90.8867461 5.51629469,90.8948208 5.51164761,90.9060012 C5.32979189,91.3311669 5.06273971,91.6361432 4.77957766,91.742357 C4.56581199,91.8224832 4.33097957,91.7976378 4.06144895,91.6675104 C3.64290197,91.4653316 3.39722636,90.8134524 3.49016796,90.151635 C3.59952923,89.372113 3.97036619,88.4581156 4.07477058,88.2109046 C4.08747259,88.1829536 4.09986481,88.154692 4.1113276,88.1258093 C4.12000215,88.1043802 4.12433943,88.08233 4.13053553,88.0605904 L5.83322552,83.5862579 L5.83477455,83.5822205 C5.94103777,83.3008472 5.78396648,82.9769263 5.47323175,82.9005269 C5.22972477,82.8405875 4.98064131,82.9837587 4.87809575,83.2132674 L2.96133029,87.4993966 C2.93778508,87.5332483 2.91671832,87.5692741 2.89936923,87.6080949 C2.89658098,87.6146168 2.88573779,87.638841 2.8686985,87.6785935 C2.77389807,87.8789089 2.61899542,88.0152476 2.42815535,88.0643172 C2.21469949,88.1202191 1.98730239,88.0609009 1.78778777,87.8990957 C1.02132943,87.2767204 1.37450749,85.5409638 1.56410834,84.608643 L1.62266154,84.3201267 C2.22244462,81.3523526 3.81515373,73.469552 8.88511763,63.6118587 C9.63236804,62.1596494 10.4279481,60.5866298 11.273097,58.9167134 C19.9064416,41.8523229 34.1615132,13.6761714 53.9624098,1.75880057 C54.2390659,1.59202632 54.3558625,1.25195594 54.2365875,0.951327501 C54.0869515,0.575231391 53.635875,0.418084709 53.2895126,0.626474874 C33.159293,12.7429188 18.7964091,41.1259077 10.0976956,58.3191833 C9.25440556,59.9863046 8.45975494,61.5565292 7.71405356,63.0065645 C2.56013241,73.0273052 0.940780052,81.0411649 0.331393006,84.0576979 L0.273149608,84.3446614 C0.0274739966,85.5518337 -0.429798642,87.7981616 0.958438954,88.9255182 C1.35251131,89.2454018 1.81938791,89.4062753 2.29277043,89.4056542 C2.24877807,89.5923047 2.21160144,89.7817503 2.18526798,89.9677796 C2.01053779,91.2134621 2.54681078,92.4020004 3.48892873,92.857291 C3.96478969,93.0877313 4.44870559,93.1604039 4.90628803,93.0734453 C4.8406093,94.1803045 5.38245879,95.1843662 6.41070262,95.7399698 C6.68178227,95.8862467 6.99499543,95.9601615 7.32989498,95.9601615 C7.57866864,95.9601615 7.83921491,95.9194773 8.10285923,95.8374877 C8.81974871,95.6148115 9.48583013,95.1169733 9.91862815,94.4961507 C9.92513406,94.5095051 9.93194978,94.5225489 9.9387655,94.5355927 C10.23401,95.1017555 10.682608,95.491206 11.2018417,95.6322032 C12.6997504,96.0399771 13.9306069,94.9846719 14.4854682,93.757934 C15.672952,91.1308514 17.343732,88.5140175 18.8174759,86.2049551 C19.1718932,85.6496621 19.5154673,85.1117608 19.8317785,84.6042951 C20.260549,85.5884805 20.8869754,86.8823008 21.4275856,87.4326248 C21.9359761,87.9500287 22.8545489,88.3469327 23.7598,88.0661806 C24.426501,87.8596538 25.2902382,87.2301354 25.6183221,85.4046251 C25.6700596,85.1157982 25.6784243,84.7005707 25.6908165,84.0716734 C25.7183892,82.6592167 25.76486,80.2948734 26.4213374,77.5854907 C28.00847,71.0365736 35.8827915,57.4455596 43.6164614,47.9071287 C49.6285433,40.4920414 55.4485459,35.7149065 59.2718532,33.0129774 C61.7629977,31.2529966 63.7494693,30.1228449 64.9456277,29.4982955 C65.2467584,29.3408383 65.3799747,28.9824445 65.2541937,28.6662877" id="Fill-8" fill="#009192"></path>
                                </g>
                                <path d="M120.381112,60.2448823 C120.295605,59.9125761 120.49481,59.5740586 120.826302,59.4883422 C121.157793,59.4016941 121.495791,59.6026307 121.580987,59.9346263 L123.999947,69.3392031 C125.794959,70.227734 129.050394,71.7600694 131.875818,72.6607125 C136.030307,73.9846577 140.9274,41.291626 140.9274,41.291626 C140.9274,41.291626 132.055505,37.1409039 120.070067,30.541675 C109.471008,24.7051975 79.5977208,23.1610606 65.2552839,32.2032061 C58.9055143,35.0337098 49.8390619,41.2357241 46.5312706,44.1466645 C46.5312706,44.1466645 51.2592094,64.3695169 58.629168,78.2400408 C61.3848862,76.9682707 63.8868739,75.3154355 66.4421481,73.7160177 L66.4418383,73.7191233 C69.110811,71.9038617 71.8089055,69.8053635 71.8448429,69.7774125 C72.1143735,69.5662272 72.5037988,69.614365 72.7144664,69.8854896 C72.9248242,70.1556826 72.8768044,70.5460647 72.6066542,70.7569394 C72.4427672,70.8852034 68.3095925,74.1912466 65.3689205,76.0888083 L62.8390504,121.104904 L136.178704,120.019629 L123.034284,70.5600402 L120.381112,60.2448823 Z" id="T-shirt" stroke="#009192" stroke-width="2" fill="#FF7841"></path>
                                <g id="neck" transform="translate(87.435292, 14.018478)">
                                    <path d="M1.20725667,0.621039959 C1.20725667,0.621039959 1.389732,13.1520903 0.72303097,15.023875 C0.0560201363,16.8959702 2.5505725,22.1156625 10.6101577,23.3246981 C19.1294939,24.6029901 19.309181,20.2339396 19.4938249,18.5693029 C18.5712247,11.909824 18.8519083,5.25251914 18.8519083,5.25251914" id="Fill-13" fill="#FFFFFF"></path>
                                    <path d="M13.4014725,24.1738803 C12.5237941,24.1738803 11.5621584,24.095928 10.5184243,23.9390919 C4.22132156,22.9943484 1.67131405,19.7622822 0.867369264,18.4162867 C0.0786049432,17.0960682 -0.193713925,15.7497622 0.139326784,14.8152674 C0.600936697,13.5192731 0.660419317,5.62218652 0.587615069,0.630139559 C0.582658184,0.286963506 0.855906468,0.00496906503 1.19824134,-1.42108547e-13 C1.53190166,0.0043479319 1.82187943,0.268950645 1.82683631,0.611816132 C1.84573443,1.90594701 1.99134293,13.3105724 1.30636339,15.2329794 C1.13968813,15.7010032 1.26794753,16.6693498 1.93031128,17.7780724 C2.64410272,18.9725114 4.92736787,21.8443205 10.701829,22.7104906 C13.8522393,23.1828623 16.1104102,22.9101849 17.4140709,21.8989802 C18.6179743,20.9651065 18.7635828,19.5830853 18.8599323,18.6684668 L18.8695363,18.578713 C17.9624263,11.9648875 18.2300981,5.29329653 18.2328863,5.22621415 C18.2474472,4.88365923 18.5315387,4.61532972 18.8782108,4.63210031 C19.2199261,4.64638637 19.4854292,4.93614498 19.4708684,5.2786999 C19.4683899,5.34485058 19.2038162,11.960229 20.1075183,18.4836797 C20.1146438,18.5346126 20.1152634,18.5864772 20.1096869,18.6377207 L20.0923378,18.7989047 C19.9882432,19.7861958 19.7946149,21.6231971 18.1721645,22.8813022 C17.0627517,23.7418822 15.4641563,24.1738803 13.4014725,24.1738803" id="Fill-15" fill="#009192"></path>
                                </g>
                            </g>
                        </g>
                        <g id="Head" transform="translate(58.523207, 0.000000)">
                            <g id="Head/Curly-Hair">
                                <g id="Curly-Hair" transform="translate(-0.000035, -0.000069)">
                                    <path d="M53.9775151,34.3513484 C49.8264109,19.4151288 40.9727334,18.6877408 33.6269648,20.0253871 C27.7723092,21.0917037 20.2831524,25.9391917 20.945973,35.6917983 C17.4626659,35.3821522 15.6337664,37.0372325 15.6337664,39.3882377 C15.6337664,41.739243 16.196744,44.0133039 20.5111428,44.0133039 C20.929488,51.176596 25.2382881,63.5446842 43.2143794,60.9348098 C57.0194602,58.9308325 57.8163378,48.162998 53.9775151,34.3513484" id="SKIN" fill="#FFFFFF"></path>
                                    <path d="M29.0828339,0.689731926 C30.6038065,-0.488730088 33.1294295,-0.10338578 34.2221036,1.43674538 C35.2180451,1.25513202 36.2357593,1.0314641 37.1614064,1.32927264 C39.1893697,0.888790141 41.241283,2.28873946 41.5740929,4.25658099 C43.1236809,4.3120307 44.690687,4.61264287 45.3276914,6.21227344 C47.8119466,5.26838237 50.6044397,7.40350757 50.2800278,10.0189892 C52.1633588,10.6463808 53.2467018,12.965923 52.4299178,14.8188155 C53.5222809,15.710995 54.8074871,16.5623661 54.5082692,18.0719687 C55.8566161,19.1700598 56.1592554,21.4310372 55.1135479,22.8443816 C56.3626738,24.1390388 54.4594364,25.6262124 54.3365766,26.7308453 C54.2927204,27.9423279 54.8734271,29.6522349 54.7141759,30.3870993 C54.4675233,31.5306717 54.3085833,32.284227 54.0619307,32.6991652 C54.239844,33.2343483 54.4115366,33.7879109 54.5707877,34.3567376 C56.6108816,42.1788844 58.0568941,49.2026177 54.3051619,55.3824563 C51.773629,59.8296473 44.2353283,61.8769252 38.4814488,61.729267 C30.7543485,61.8837785 24.3320498,58.1082143 21.5964765,51.6928702 C19.9613532,51.8928629 18.4294944,51.4776132 16.9844149,50.9735816 C15.0450972,53.3027808 10.8065915,52.0283721 10.5406546,49.0085437 C7.71550253,48.3431472 5.86918494,46.3771748 5.08910332,43.6274301 C3.18151138,42.9330627 2.1743725,40.4717811 3.14512002,38.6431868 L3.14512002,38.6431868 L3.1357889,38.6244959 C0.418877815,38.2796486 -0.932890417,34.7392783 0.879835137,32.7085107 C0.879835137,32.6072682 0.876724763,32.5088294 0.879835137,32.4072755 C-0.248608293,31.1235212 -0.179246969,28.8993027 1.01078185,27.6812782 C-0.774883454,25.8433385 -0.0887351059,22.421344 2.23720204,21.3805717 C2.21325217,19.5230066 2.75165778,17.7645032 3.94386388,16.3069236 C3.88414471,14.3135378 5.34415393,12.6151569 7.25485625,12.2422732 C7.29218073,12.1805932 7.32981624,12.1192247 7.36403035,12.0575447 C7.19078256,9.24549697 9.36648867,6.81630142 12.1508948,6.55649774 C12.6905446,5.11947811 14.1617512,4.0886743 15.801851,4.18586704 C16.8624883,2.82174198 18.284551,2.19746551 20.0363132,2.40555766 C21.0226126,1.01308471 23.2188472,0.495034924 24.7547495,1.36914658 C26.1080729,0.499707652 27.5515972,0.033057879 29.0828339,0.689731926 Z M40.9778344,24.8676729 C39.8325949,27.2629133 37.8323139,28.6005596 33.9039124,28.2466783 C28.7861043,27.788751 27.6128715,35.2822493 24.816957,36.5429513 C23.1911648,37.2747005 20.501314,36.3737986 20.4950933,36.4382822 C18.2410057,36.2691295 16.1107111,37.1662932 16.1234066,39.4948694 C16.1234066,41.4935509 16.4540963,43.4430131 20.3952503,43.4430131 C20.7162408,43.4458167 20.9992848,43.6925367 21.0163918,44.0236774 C21.3852821,54.3161397 29.550012,62.5585205 43.0807578,60.1551807 C47.9708866,59.4570751 51.2971198,57.6767657 53.2600764,54.7123871 C56.781019,50.6486712 55.2466719,37.5964957 51.5531036,29.7042579 C50.9416042,29.0647172 50.1021144,27.7024612 49.3251432,26.3342865 C48.3391548,26.6296029 47.1220658,26.0635798 46.123636,25.0795032 C45.1933233,25.925267 43.0123295,26.171364 40.9778344,24.8676729 Z M19.1000286,38.0959169 C20.0222543,38.0638308 20.0222543,40.5952034 19.1000286,40.5637403 C18.177803,40.5955149 18.177803,38.0641424 19.1000286,38.0959169 Z" id="ink" fill="#009192"></path>
                                </g>
                            </g>
                        </g>
                        <g id="Face" transform="translate(88.987342, 33.813559)">
                            <g id="Face/Open-Mouth">
                                <g id="Open-Mouth" transform="translate(0.301844, 0.312397)">
                                    <path d="M13.69063,16.7051518 C14.521198,16.6720202 17.4484217,15.9875088 17.8706523,16.7348453 C18.8757906,18.9212186 16.9908542,21.3913986 15.0968572,22.2778253 C12.1128528,23.6974833 6.25840545,22.338775 6.88782499,18.0366673 C6.8769521,17.8991399 7.06239528,17.6725322 7.21703195,17.6747201 C9.33603745,17.3449669 11.5673962,16.9905212 13.69063,16.7051518 Z M11.7066598,5.54642722 C11.7154185,5.00131854 12.5311873,4.99475473 12.5580675,5.52986141 C12.6979049,7.09454835 12.7311277,8.70705733 13.0512739,10.2345493 C16.3487799,11.6629591 15.2038041,15.3390045 11.7577019,15.0589487 C10.9751559,15.0526974 10.9718336,13.8208893 11.7522655,13.8086994 C12.405545,13.7921336 13.3841051,13.703991 13.6713306,13.1154362 C14.0189611,12.2083804 13.137955,11.6063853 12.368698,11.2897597 C12.0361687,11.1294153 11.9217014,10.684014 11.8733774,10.4202114 C11.6205827,8.79582502 11.6676986,7.17518943 11.7066598,5.54642722 Z M2.46352512,7.20488285 C3.1313018,6.25719392 4.25513582,5.58237188 5.44179099,5.6983325 C6.04946474,5.75178066 6.67042759,6.0283983 7.12286063,6.50849402 C7.74170931,7.16956331 6.77220992,8.14694566 6.15003898,7.49150249 C5.94254799,7.24301545 5.65049007,7.07548205 5.30436973,7.02234646 C4.11227812,6.85043719 3.14126861,7.94534297 2.75588506,9.04181156 C2.65470677,9.3384332 2.33365448,9.49127617 2.05095934,9.37312761 C1.24666748,8.94304187 2.15606394,7.76030608 2.46352512,7.20488285 Z M14.7053425,5.4783824 C15.6962856,3.76397811 17.9524104,3.018517 19.7120065,3.89900503 C20.2632016,4.11342278 21.855476,5.43462368 20.8651369,6.06693724 C20.5987511,6.18571091 20.3245126,6.04755837 20.1807488,5.81313664 C19.3843096,4.8513824 17.728308,4.63758978 16.641019,5.24583604 C16.2489909,5.46337941 15.8974341,5.77375379 15.566717,6.13538838 C15.3685888,6.38043724 15.0088774,6.40700503 14.784171,6.18539835 C14.5926873,5.9975484 14.565203,5.69811371 14.7053425,5.4783824 Z M2.40743913,1.62548928 C2.97796384,1.56297682 5.25643841,1.48046037 5.02055709,2.44033923 C4.78407173,2.96419367 4.04109089,2.66194591 3.60164491,2.8088502 C2.58774789,2.90074352 1.62459102,3.34864531 0.625795241,3.49679985 C0.320146214,3.53774551 0.0398672644,3.31457602 -2.06057393e-13,2.9979504 C0.0271822257,2.03713385 1.6828818,1.74082478 2.40743913,1.62548928 Z M17.0404467,0.0405483047 C17.8157442,-0.146676521 20.6121912,0.306538833 19.8855197,1.56522727 C19.4907733,1.97843465 18.8972948,1.62992767 18.4200957,1.56272677 C17.5333511,1.30486286 16.6351295,1.26766795 15.7366059,1.50427762 C15.504651,1.5508494 15.2799446,1.39425568 15.2349429,1.15420783 C15.1854108,0.452817997 16.5100913,0.143381306 17.0404467,0.0405483047 Z" id="face" fill="#009192"></path>
                                    <path d="M5.34979425,13.4945743 C6.08824472,13.1382532 6.62131837,14.3244272 5.88437803,14.6804357 C5.14562553,15.0370693 4.61285391,13.8505827 5.34979425,13.4945743 Z M2.49563035,14.6247058 C1.3201501,14.4187273 2.61734631,12.8468514 3.0226635,13.8498639 C3.2766663,14.246818 2.97886992,14.8081799 2.49563035,14.6247058 Z M18.2507202,10.8542979 C18.9964193,10.8477341 19.0075942,12.0470357 18.260385,12.0535995 C17.5146859,12.0598507 17.503813,10.8608617 18.2507202,10.8542979 Z M4.07944803,11.2675678 C4.52644463,11.0518998 4.8496111,11.7698554 4.40321854,11.9855234 C3.95591992,12.2011914 3.63305548,11.4829232 4.07944803,11.2675678 Z M6.2980311,10.4748785 C6.90781903,10.1807574 7.34786906,11.1600151 6.73928923,11.4538237 C6.12919927,11.7482574 5.68914924,10.7686871 6.2980311,10.4748785 Z M20.3117974,10.1980108 C20.2646815,9.20249985 21.9372945,9.97359107 21.0433013,10.6240332 C20.7131882,10.9734779 20.2532046,10.6299719 20.3117974,10.1980108 Z M16.3149833,8.74265817 C16.9308117,8.73703205 16.9395704,9.72722946 16.3228359,9.73285558 C15.7073095,9.7384817 15.6982488,8.74828429 16.3149833,8.74265817 Z M18.4527748,8.49267083 C18.9043017,8.48860752 18.9109463,9.21500234 18.4588152,9.21875309 C18.0069863,9.2228164 18.0006437,8.49673415 18.4527748,8.49267083 Z" id="dot" fill="#FFAA84"></path>
                                </g>
                            </g>
                        </g>
                    </g>
                </g>
            </g>
        </g>
    </g>
</svg>