<?xml version="1.0" encoding="UTF-8"?>
<svg width="406px" height="471px" viewBox="0 0 406 471" version="1.1" xmlns="http://www.w3.org/2000/svg" xmlns:xlink="http://www.w3.org/1999/xlink">
    <!-- Generator: Sketch 53.2 (72643) - https://sketchapp.com -->
    <title>Group 2</title>
    <desc>Created with Sketch.</desc>
    <g id="Page-1" stroke="none" stroke-width="1" fill="none" fill-rule="evenodd">
        <g id="Desktop-HD-Copy-11" transform="translate(-873.000000, -278.000000)" fill-rule="nonzero">
            <g id="Group-2" transform="translate(873.000000, 278.000000)">
                <g id="Croods---Living-Room" opacity="0.301269531" transform="translate(0.000000, 240.000000)">
                    <g id="sofa" transform="translate(0.000000, 14.244588)">
                        <path d="M22.9104753,118.309012 L16.1269081,148.897471 C15.3521444,152.391974 17.1976899,155.946365 20.2411953,156.820843 C21.5751044,157.204035 22.9825917,157.015604 24.2039408,156.290606 C25.6418826,155.436334 26.6956099,153.913302 27.0954171,152.112005 L33.8916535,121.46463 L22.9104753,118.309012 Z" id="Fill-6" fill="#009192"></path>
                        <path d="M50.2983942,118.309012 L43.5148269,148.897471 C42.7403069,152.391974 44.5858524,155.946609 47.6293579,156.820843 C48.9637542,157.204522 50.3707542,157.015604 51.5923469,156.290362 C53.0300451,155.436334 54.0837724,153.913302 54.4830924,152.112005 L61.2795724,121.46463 L50.2983942,118.309012 Z" id="Fill-8" fill="#009192"></path>
                        <path d="M237.664016,121.46463 L244.460495,152.112005 C244.860059,153.913302 245.913786,155.436334 247.351972,156.290606 C248.573077,157.015604 249.980321,157.204279 251.314473,156.820843 C254.357979,155.946609 256.203524,152.391974 255.428517,148.897471 L248.645193,118.309012 L237.664016,121.46463 Z" id="Fill-10" fill="#009192"></path>
                        <path d="M208.165232,121.46463 L214.961712,152.112005 C215.361275,153.913302 216.415003,155.436334 217.853188,156.290606 C219.074293,157.015604 220.481537,157.204279 221.81569,156.820843 C224.859439,155.946365 226.704984,152.391974 225.929977,148.897471 L219.14641,118.309012 L208.165232,121.46463 Z" id="Fill-12" fill="#009192"></path>
                        <path d="M240.645711,123.507797 L9.61752916,123.507797 L0.0513909661,11.7927889 C-0.526270852,5.48666564 3.83969279,-2.84217094e-14 9.43528916,-2.84217094e-14 L240.828195,-2.84217094e-14 C246.42379,-2.84217094e-14 250.78951,5.48666564 250.211848,11.7927889 L240.645711,123.507797 Z" id="Fill-14" fill="#009192"></path>
                        <path d="M250.484672,123.575549 L213.050433,123.575549 L213.050433,60.5264891 L242.674909,60.5264891 C257.398341,60.5264891 268.959618,73.1316755 267.678334,87.788184 L266.468192,108.938517 C265.744105,117.220492 258.804611,123.575549 250.484672,123.575549" id="Fill-16" fill="#009192"></path>
                        <path d="M66.6964859,115.003867 L14.5583041,115.003867 L14.5583041,59.2585938 L44.183024,59.2585938 C58.9062131,59.2585938 70.4674895,71.8637803 69.1864495,86.5202888 L66.6964859,115.003867 Z" id="Fill-38" fill="#009192"></path>
                        <path d="M66.6969731,122.794313 C66.6855222,122.794313 66.6740713,122.794313 66.6626204,122.793096 C66.3943768,122.774594 66.1916713,122.541854 66.2104313,122.273571 L68.7003949,86.486449 C69.2997404,79.6276909 66.976424,72.7913304 62.3268677,67.7219405 C57.6775549,62.6527941 51.0642895,59.7454968 44.183024,59.7454968 L14.5583041,59.7454968 C14.2893295,59.7454968 14.0710313,59.5273643 14.0710313,59.2585938 C14.0710313,58.98958 14.2893295,58.7716909 14.5583041,58.7716909 L44.183024,58.7716909 C51.3369186,58.7716909 58.2120931,61.7941408 63.0455949,67.0641347 C67.8790968,72.3341285 70.294264,79.4412071 69.6717731,86.5626493 L67.1825404,122.34125 C67.1647549,122.597848 66.9505986,122.794313 66.6969731,122.794313" id="Fill-39" fill="#FFFFFF"></path>
                        <path d="M219.451735,86.8885578 C205.184633,83.3833436 191.598982,78.8972635 178.806855,73.2689091 C175.958746,72.0158644 174.451611,68.8692542 175.239044,65.8614114 C178.560051,53.1768598 182.555444,41.2440863 187.233993,30.0725855 C188.446328,27.1774607 191.608728,25.6115809 194.652233,26.3862435 C209.331568,30.1234669 223.040255,34.5294515 235.334146,39.9085116 C238.255102,41.1866317 239.778317,44.4350046 238.881735,47.4925116 C235.656964,58.4904314 231.68496,70.294906 226.918702,82.957547 C225.786037,85.967094 222.576615,87.6561602 219.451735,86.8885578" id="pillow" fill="#009192"></path>
                        <path d="M233.068011,87.0071917 L79.1989782,87.0071917 C78.9300037,87.0071917 78.7117055,86.7890592 78.7117055,86.5202888 C78.7117055,86.2515183 78.9300037,86.0333858 79.1989782,86.0333858 L233.068011,86.0333858 C233.336985,86.0333858 233.555284,86.2515183 233.555284,86.5202888 C233.555284,86.7890592 233.336985,87.0071917 233.068011,87.0071917" id="Fill-41" fill="#FFFFFF"></path>
                    </g>
                    <g id="table" transform="translate(286.000000, 77.244588)">
                        <g id="Group" transform="translate(0.000000, 0.214387)">
                            <path d="M23.0605818,75.4595773 L23.0605818,94.2389716 C23.0605818,94.5092809 22.8436121,94.7286624 22.5757333,94.7286624 L13.5100364,94.7286624 C13.2424,94.7286624 13.0251879,94.5092809 13.0251879,94.2389716 L13.0251879,63.9871031 C13.0251879,63.7167938 13.2424,63.4974124 13.5100364,63.4974124 L106.266109,63.4974124 C106.533988,63.4974124 106.750958,63.7167938 106.750958,63.9871031 L106.750958,94.2389716 C106.750958,94.5092809 106.533988,94.7286624 106.266109,94.7286624 L97.2004121,94.7286624 C96.9327758,94.7286624 96.7155636,94.5092809 96.7155636,94.2389716 L96.7155636,75.4595773 L23.0605818,75.4595773 Z" id="leg" fill="#009192"></path>
                            <g id="door-2">
                                <polygon id="Fill-44" fill="#009192" points="1.10844667e-12 66.2742526 59.1066667 66.2742526 59.1066667 -5.68434189e-14 1.10844667e-12 -5.68434189e-14"></polygon>
                                <path d="M55.6665455,33.4338789 C55.6665455,34.9440851 54.4544242,36.1683119 52.9591515,36.1683119 C51.4636364,36.1683119 50.2515152,34.9440851 50.2515152,33.4338789 C50.2515152,31.9234278 51.4636364,30.699201 52.9591515,30.699201 C54.4544242,30.699201 55.6665455,31.9234278 55.6665455,33.4338789" id="Fill-45" fill="#FFFFFF"></path>
                            </g>
                            <g id="door" transform="translate(60.773818, 0.000000)">
                                <polygon id="Fill-46" fill="#009192" points="1.26476607e-12 66.2742526 59.1069091 66.2742526 59.1069091 -5.68434189e-14 1.26476607e-12 -5.68434189e-14"></polygon>
                                <path d="M3.4398303,33.4338789 C3.4398303,34.9440851 4.65219394,36.1683119 6.14746667,36.1683119 C7.64273939,36.1683119 8.85510303,34.9440851 8.85510303,33.4338789 C8.85510303,31.9234278 7.64273939,30.699201 6.14746667,30.699201 C4.65219394,30.699201 3.4398303,31.9234278 3.4398303,33.4338789" id="Fill-47" fill="#FFFFFF"></path>
                            </g>
                        </g>
                    </g>
                    <g id="Table-Object" transform="translate(290.000000, 0.244588)" fill="#009192">
                        <g id="Table-Object/Lamp">
                            <g id="lamp">
                                <path d="M40.3084727,30.8449997 C40.3084727,25.4453619 35.7686253,21.1074548 30.3019994,21.4496251 C25.4729307,21.7519285 21.6094803,25.7953588 21.5061521,30.638817 C21.4729307,32.1946034 21.8168696,33.6664981 22.4522284,34.9698759 C23.9970223,38.1369687 24.917694,41.5718789 24.917694,45.0965508 L24.917694,48.1897799 L36.8947322,48.1897799 L36.8947322,45.0945941 C36.8947322,41.6105229 37.7421215,38.1868635 39.3079231,35.0750461 C39.9479231,33.8034641 40.3084727,32.3663 40.3084727,30.8449997" id="Fill-42"></path>
                                <path d="M38.2648208,48.2728889 L38.2648208,48.0449384 L23.5475078,48.0449384 L23.5475078,48.2728889 C23.5475078,51.3986474 21.9802406,54.2541427 19.4805765,55.9344214 C15.0469887,58.9146536 12.1911719,63.6866938 12.1911719,69.4182294 C12.1911719,73.1935978 13.4337979,76.3621582 15.5462864,78.8361056 L46.2660421,78.8361056 C48.378775,76.3621582 49.6211566,73.1935978 49.6211566,69.4182294 C49.6211566,63.6866938 46.7653398,58.9146536 42.3317521,55.9344214 C39.8323322,54.2541427 38.2648208,51.3986474 38.2648208,48.2728889" id="Fill-43"></path>
                                <polygon id="Fill-48" points="0.118817739 47.3547523 61.6936574 47.3547523 49.7679169 0.978328173 12.0443139 0.978328173"></polygon>
                            </g>
                        </g>
                    </g>
                </g>
                <g id="Croods---Standing" transform="translate(142.000000, 236.000000) scale(-1, 1) translate(-142.000000, -236.000000) translate(50.000000, 0.000000)">
                    <g id="Lower-Body" transform="translate(0.000000, 182.000000)">
                        <g id="Lower-Body/Jeans-2">
                            <g id="shoe-2" transform="translate(117.011292, 247.854594)">
                                <polygon id="SKIN" fill="#FFFFFF" points="0.947783191 1.15606646 4.13059235 22.9133752 35.397518 26.1456608 30.5495007 3.72983573"></polygon>
                                <path d="M35.4999883,26.9342012 L3.97391553,23.8366526 C3.59096949,23.7988007 3.28287915,23.5046597 3.22693436,23.1233805 L0.00892682738,1.1136731 C-0.0580493333,0.655507175 0.259102486,0.229673099 0.716904242,0.162643661 C1.17549395,0.0983742583 1.59980763,0.413412617 1.66717777,0.871184249 L4.79023673,22.2314947 L34.511499,25.152401 L29.7691928,3.94783546 C29.6679406,3.49597819 29.9523923,3.04766953 30.4034965,2.9463368 C30.8569645,2.84500406 31.3037348,3.13007631 31.4041991,3.58153929 L36.3994387,25.9165366 C36.4585354,26.1791343 36.3876194,26.453955 36.2095416,26.6554376 C36.0495868,26.8360228 35.8206859,26.9385384 35.5819356,26.9385384 C35.5547512,26.9385384 35.5271727,26.9369612 35.4999883,26.9342012 Z" id="path-6" fill="#009192"></path>
                                <path d="M3.61740537,19.7795578 C4.00468516,19.8493473 4.49518704,19.9435828 5.07236396,20.0551671 C8.6110691,20.7365016 15.974113,22.1547657 22.951847,22.1602858 L22.969576,22.1602858 C27.0803364,22.1602858 30.6954731,21.0349798 33.1491645,18.9905819 C33.3441833,18.8281341 33.6049963,18.7705677 33.8516262,18.8336542 C45.8277516,21.9540717 54.4806776,24.2086265 60.893054,28.4886533 C62.0198294,29.2413545 66.0844944,32.5250083 65.3816387,34.8473812 C65.0562133,35.9214294 63.8987077,36.465945 61.9406399,36.465945 C54.7923137,36.465945 39.3913426,36.5057684 25.8034556,36.5412545 C14.8087278,36.5700378 5.31387211,36.5948781 1.73892106,36.5948781 C1.36109671,36.5948781 1.02030625,36.4233616 0.778798094,36.1122661 C-0.628883211,34.3001056 1.66367137,24.4933045 2.71480311,20.3615311 C2.81644929,19.9605373 3.2104267,19.7070083 3.61740537,19.7795578 Z" id="path-23" fill="#FF7841"></path>
                                <path d="M1.8829986,40.0672001 L63.6728404,40.0672001 C64.6995456,40.0672001 65.5324138,39.2344579 65.5324138,38.2065418 L65.5324138,37.5918424 C65.5324138,36.5639263 64.6995456,35.7307898 63.6728404,35.7307898 L1.8829986,35.7307898 C0.856293452,35.7307898 0.0234251963,36.5639263 0.0234251963,37.5918424 L0.0234251963,38.2065418 C0.0234251963,39.2344579 0.856293452,40.0672001 1.8829986,40.0672001" id="Fill-47" fill="#009192"></path>
                                <path d="M46.124653,26.2631971 C46.437865,26.2631971 46.7380758,26.0869491 46.8814836,25.7849223 C48.1961862,23.0217323 50.7219754,23.6979411 51.0060331,23.7850793 C51.4464999,23.9187439 51.914939,23.6723122 52.0520432,23.2322836 C52.1887533,22.7914665 51.9464572,22.3242319 51.5075664,22.1846529 C50.0750645,21.7296413 46.9476718,21.7462016 45.3686103,25.0641587 C45.1696517,25.4825013 45.3469415,25.982462 45.7649516,26.1815789 C45.8811749,26.2371739 46.0037019,26.2631971 46.124653,26.2631971" id="path-25" fill="#009192"></path>
                                <path d="M38.7252844,24.2436001 C39.0384965,24.2436001 39.3391012,24.0673521 39.4825089,23.7653254 C40.7972116,21.0021354 43.3230008,21.6783441 43.6066645,21.7654824 C44.0475252,21.8995413 44.5159644,21.6527152 44.6526745,21.2126867 C44.7893847,20.7718695 44.5470886,20.3046349 44.1081978,20.165056 C42.67412,19.7104387 39.5475152,19.7273932 37.9696357,23.0445618 C37.7706771,23.4629043 37.947967,23.9628651 38.365977,24.1619819 C38.4822003,24.2175769 38.6043333,24.2436001 38.7252844,24.2436001" id="path-26" fill="#009192"></path>
                            </g>
                            <g id="shoe-1" transform="translate(0.000000, 248.008921)">
                                <polygon id="SKIN" fill="#FFFFFF" points="61.8437715 0.944115434 60.9074798 22.9289336 33.3695891 25.2912464 33.7899741 3.21706994"></polygon>
                                <path d="M33.3052748,26.1254224 C33.0933149,26.1254224 32.8884467,26.0449871 32.7324316,25.8987052 C32.5594755,25.7366516 32.463345,25.5087516 32.4675383,25.2713885 L32.8691418,3.19149732 C32.8778093,2.72859991 33.2729686,2.35717796 33.7221029,2.36861239 C34.1846324,2.37728679 34.5530013,2.7589603 34.5447277,3.222252 L34.1598118,24.3739826 L60.1004668,22.2014402 L61.0255257,0.80248929 C61.0452246,0.340380458 61.4352622,-0.0203956345 61.8985797,0.000896069331 C62.3611092,0.0210049007 62.7196286,0.412535677 62.6995358,0.875038799 L61.7429586,23.0117078 C61.7248356,23.4332047 61.3958645,23.7758434 60.9754906,23.8109353 L33.3750088,26.1222681 C33.3517641,26.1242395 33.3285194,26.1254224 33.3052748,26.1254224" id="path-1" fill="#009192"></path>
                                <path d="M62.8176108,20.3346704 C62.7159646,19.9336766 62.3219872,19.6801476 61.9150085,19.7526971 C61.5273348,19.8224866 61.0372269,19.9167221 60.459656,20.0283064 C56.9213448,20.7096409 49.5583009,22.127905 42.5805669,22.1334251 L42.5624439,22.1334251 C38.4520775,22.1334251 34.8369408,21.0081191 32.3828555,18.9637212 C32.1882306,18.8012734 31.9270236,18.7437069 31.6803937,18.8067935 C19.7046622,21.927211 11.0517363,24.1817658 4.63935985,28.4617926 C3.51219046,29.2144937 -0.552080552,32.4981476 0.150775157,34.8205205 C0.476200502,35.8945687 1.63370615,36.4390843 3.59137992,36.4390843 C10.7401001,36.4390843 26.1410713,36.4789077 39.7289583,36.5143938 C50.7232921,36.5431771 60.2185418,36.5680174 63.7934928,36.5680174 C64.1709232,36.5680174 64.5121077,36.3965009 64.7536158,36.0854054 C66.1612971,34.2732449 63.8687425,24.4664438 62.8176108,20.3346704" id="path-2" fill="#FF7841"></path>
                                <path d="M63.6494153,40.0403396 L1.8595734,40.0403396 C0.832474279,40.0403396 0,39.2075972 0,38.1796811 L0,37.5649817 C0,36.5370656 0.832474279,35.7039291 1.8595734,35.7039291 L63.6494153,35.7039291 C64.6761205,35.7039291 65.5085947,36.5370656 65.5085947,37.5649817 L65.5085947,38.1796811 C65.5085947,39.2075972 64.6761205,40.0403396 63.6494153,40.0403396" id="path-3" fill="#009192"></path>
                                <path d="M19.4077609,26.2363364 C19.0945488,26.2363364 18.794338,26.0600884 18.6509302,25.7580616 C17.3362276,22.9948716 14.8104384,23.6710804 14.5263807,23.7582186 C14.0859139,23.8918832 13.6170808,23.6454515 13.4803706,23.2054229 C13.3436605,22.7646058 13.5855626,22.2973712 14.0248474,22.1577922 C15.4573493,21.7027806 18.584742,21.7193408 20.1634095,25.037298 C20.3623681,25.4556406 20.1850783,25.9556013 19.7674622,26.1547182 C19.6512389,26.2103132 19.5287119,26.2363364 19.4077609,26.2363364" id="path-4" fill="#009192"></path>
                                <path d="M26.8069325,24.2167394 C26.4937205,24.2167394 26.1935097,24.0404914 26.0501019,23.7384647 C24.7350053,20.9752747 22.2092161,21.6514834 21.9259463,21.7386217 C21.4850856,21.8726805 21.0162524,21.6258545 20.8795423,21.1858259 C20.7428321,20.7450088 20.9851282,20.2777742 21.4240191,20.1381953 C22.8580969,19.683578 25.9847016,19.7005325 27.5625812,23.0177011 C27.7615398,23.4360436 27.5842499,23.9360044 27.1666339,24.1351212 C27.0504105,24.1907162 26.9278836,24.2167394 26.8069325,24.2167394" id="path-5" fill="#009192"></path>
                            </g>
                            <g id="pant" transform="translate(4.727729, 0.000000)">
                                <path d="M20.5943814,1.16290231 L0,261.056537 C20.305202,262.718867 41.8943764,262.478349 64.2809611,261.056537 C64.2809611,261.056537 67.8287277,43.8310826 69.77734,43.610674 C73.4251769,43.1990344 91.3444517,261.056537 91.3444517,261.056537 C111.597649,264.340191 131.462384,263.339875 151.210502,261.056537 C151.210502,261.056537 136.181839,68.6000371 110.457084,0.191764043 C69.7986148,1.9999817 20.5943814,1.16290231 20.5943814,1.16290231" id="path-10" fill="#009192"></path>
                                <path d="M43.0616921,9.63360954 C42.5782818,9.38323488 41.9837699,9.57170588 41.7339882,10.0551064 C35.2049945,22.6578236 21.1108464,21.4658825 20.4970296,21.4063446 C19.9517649,21.3535096 19.4734763,21.7497719 19.4202893,22.2915275 C19.3671024,22.833283 19.7630497,23.3155007 20.3043747,23.36873 C20.3319531,23.37149 20.8200911,23.4144677 21.6470497,23.4144677 C25.6451325,23.4144677 37.5538878,22.4070547 43.48246,10.9623696 C43.7330296,10.4793633 43.5447084,9.8843785 43.0616921,9.63360954" id="path-21" fill="#FFFFFF"></path>
                                <path d="M115.367894,19.5493926 C114.78796,19.6069591 101.111428,20.8087574 94.7778467,8.19815441 C94.5343686,7.71435959 93.9579797,7.52628287 93.4907225,7.77665753 C93.0222833,8.0270322 92.8394778,8.62201703 93.0821679,9.10541757 C98.8306923,20.5512855 110.376201,21.5575157 114.25215,21.5575157 C115.053106,21.5575157 115.526667,21.5141437 115.553458,21.511778 C116.077842,21.4585487 116.460788,20.9767253 116.410359,20.435364 C116.359142,19.8940028 115.891096,19.4977405 115.367894,19.5493926" id="path-22" fill="#FFFFFF"></path>
                            </g>
                        </g>
                    </g>
                    <g id="Upper-Body" transform="translate(13.000000, 51.000000)">
                        <g id="Upper-Body/Arms-Crossed">
                            <g id="T-Shirt" transform="translate(0.418913, 10.752587)">
                                <path d="M11.556315,122.600137 C11.0080255,118.141189 6.97040246,88.7644788 6.02974457,72.1492157 C-0.666965961,73.5611893 -1.59222912,43.098163 7.06671825,23.5875052 C20.8611919,-7.4940737 68.2154025,2.22355787 68.2154025,2.22355787 C68.2154025,2.22355787 82.3631657,1.56118944 96.3297446,12.9915842 C102.572508,18.1010579 109.447639,29.5105316 112.867245,42.0382946 C111.797113,45.5028999 100.481192,61.0338209 96.3550078,63.6761893 C102.732771,94.6539525 107.779876,122.600137 107.779876,122.600137 C107.779876,122.600137 25.5603939,123.884216 11.556315,122.600137 Z" id="Fill-1" fill="#FF7841"></path>
                                <path d="M106.845692,122.235874 C105.945297,117.099952 101.265692,91.443242 95.5814814,63.8353472 C95.5155604,63.5152157 95.654113,63.1875841 95.9292446,63.0115314 C99.9160867,60.4583736 110.682929,45.6111367 112.041613,42.0123209 C108.797666,30.2925842 102.300692,18.8985052 95.8297709,13.6027158 C82.2808236,2.51416313 68.3892446,3.00442629 68.2518762,3.01232102 C68.1855604,3.01389997 68.1208236,3.0099526 68.0568762,2.99692629 C67.9392446,2.97324208 56.1496393,0.605610497 42.8608236,2.03889997 C35.0963498,2.87653155 28.3471393,4.82811051 22.7995077,7.84034736 C15.9105604,11.5812684 10.8599025,16.9871895 7.78845509,23.9081105 C4.4221393,31.4929789 2.1977972,41.6203472 1.68661299,51.6936367 C1.2302972,60.6786367 2.25227088,68.1115314 4.2902972,70.6295578 C4.95937614,71.455742 5.51082351,71.4529788 5.86687614,71.3767946 C6.09266562,71.3298209 6.3271393,71.3827157 6.50950772,71.5220578 C6.69266562,71.6621893 6.80516562,71.8745578 6.81819193,72.1046893 C7.63056035,86.4533736 10.9712182,109.4839 12.2288498,119.193637 C12.3674025,120.262584 12.4795077,121.130216 12.5596393,121.757847 C27.1254288,122.828374 97.9735867,122.526795 106.845692,122.235874 Z M11.7839814,123.278374 C11.414113,123.244426 11.1180604,122.957452 11.0726656,122.588374 C10.9988498,121.988768 10.8567446,120.890216 10.6629288,119.396531 C9.42582351,109.84311 6.17516562,87.5100841 5.28740246,72.9699525 C4.60490246,72.8965314 3.81542878,72.5527157 3.06266562,71.6227157 C0.758981407,68.7762683 -0.372729117,61.1092946 0.109639304,51.6138999 C0.630691934,41.3542946 2.90358667,31.0224526 6.3452972,23.2674526 C12.1064814,10.2865316 24.6879288,2.40166313 42.7297709,0.465084182 C55.6143762,-0.918863187 67.109113,1.20482102 68.2775341,1.43139997 C69.6745078,1.38324208 83.2439814,1.26205787 96.8296393,12.3806105 C103.576876,17.9029789 110.32806,29.7375842 113.62885,41.8303472 C113.668324,41.9752157 113.665955,42.1279788 113.62135,42.2712683 C112.600955,45.5744262 101.896481,60.5120578 97.2326657,64.0248209 C103.491218,94.473242 108.507534,122.570216 108.557666,122.859952 C108.596745,123.084952 108.536745,123.315874 108.392271,123.49311 C108.248192,123.669952 108.034639,123.776137 107.806481,123.784031 C105.109639,123.874426 53.4354288,123.626137 26.1942446,123.626137 C19.6254288,123.626137 14.4831919,123.525874 11.7839814,123.278374 Z" id="Fill-3" fill="#009192"></path>
                            </g>
                            <g id="Neck" transform="translate(41.988081, -0.000091)">
                                <path d="M7.14264268,0.839183025 C7.14264268,0.839183025 6.60659005,14.4331304 0.989879522,16.3744462 C-0.538146793,24.0149725 9.81659005,29.2322093 17.6876427,28.8627356 C32.9248795,28.1474725 28.1825111,15.6931304 27.1348795,15.659183 C27.1652743,14.0979988 28.0068532,2.42089355 28.0068532,2.42089355 L7.14264268,0.839183025 Z" id="SKIN" fill="#FFFFFF"></path>
                                <path d="M1.73948479,16.9755909 C1.46672163,18.9737488 2.08606373,20.8673014 3.58487952,22.6104593 C6.49330058,25.9937488 12.4064585,28.2741435 17.6485637,28.0242751 C22.8855374,27.7783541 26.2522479,26.0351962 27.3839585,22.9834856 C28.4473795,20.1173014 27.2761953,17.0091435 26.8033006,16.4308541 C26.4989585,16.2998014 26.2885637,15.9942751 26.2952743,15.6429593 C26.3217216,14.3063804 26.9154058,5.91466986 27.1100111,3.19453829 L7.92974795,1.7407225 C7.70672163,4.78019617 6.61093216,14.7070383 1.73948479,16.9755909 M16.8867216,29.7208541 C11.3884322,29.7208541 5.37303742,27.2655909 2.31185321,23.7050646 C0.377642679,21.4558541 -0.364067847,18.8636172 0.166853206,16.2101962 C0.225274258,15.9176962 0.434090049,15.6784856 0.715537417,15.5813804 C4.87409005,14.1441435 6.15935321,4.42809091 6.30382689,0.805985657 C6.31290584,0.578222499 6.41395847,0.363880393 6.58409005,0.212301445 C6.75461637,0.0607224979 6.98080058,-0.0130932915 7.20619532,0.00190670849 L28.0704058,1.58361724 C28.5314585,1.61874881 28.8776427,2.01980145 28.8444848,2.48124881 C28.8365901,2.59019618 28.1071164,12.7183541 27.9894848,15.2644067 C28.9033006,16.2492751 29.483169,18.6630909 29.4956879,20.3726962 C29.513169,22.7679593 28.6917216,24.8580909 27.1194848,26.4169067 C25.1225111,28.3976962 21.9622479,29.5025646 17.7271164,29.701512 C17.4488269,29.7141435 17.168169,29.7208541 16.8867216,29.7208541" id="Fill-8" fill="#009192"></path>
                            </g>
                            <g id="Hand" transform="translate(0.000003, 41.165391)">
                                <path d="M113.255602,11.5039112 L91.5999442,14.538648 L93.99126,28.5143059 C93.99126,28.5143059 62.8259968,25.4957533 52.1211284,21.9518059 C46.7333653,20.1679901 39.7694179,22.1539112 37.0413915,27.7607533 C35.5982336,30.7268059 36.5282336,38.4447006 36.5282336,38.4447006 C36.5282336,38.4447006 46.5663916,38.3077269 49.4341547,38.3077269 C49.7274442,38.3077269 50.1063916,38.4064112 50.55876,38.5832533 L36.1469178,38.7372006 L35.4245494,17.936148 L1.49968094,18.3648322 C1.49968094,18.3648322 -4.94400328,63.1654903 20.8409967,70.1400955 C44.3353389,76.4953587 72.7216547,54.9865429 74.9404705,53.2670692 C85.9646811,59.0053587 99.0703389,63.5061482 111.411786,60.3557534 C127.020076,56.3716745 113.893497,13.2707533 113.255602,11.5039112" id="SKIN" fill="#FFFFFF"></path>
                                <path d="M116.111286,55.5080297 C114.94326,57.712635 113.342207,59.0480297 111.216549,59.5907929 C92.1385232,64.4610561 71.3966811,50.8560561 59.0031284,42.7280297 C54.9041811,40.0394771 52.3944442,38.4214506 50.7424705,37.8060559 C50.7385232,37.8013191 50.7333916,37.7965822 50.7294442,37.7918454 L50.7029968,37.7922401 C50.21076,37.6122401 49.7919442,37.5182927 49.4339179,37.5182927 C47.0418126,37.5182927 39.5895758,37.6142138 37.2365494,37.6457927 C36.9965494,35.1597401 36.758523,30.1469769 37.7512862,28.1061875 C39.8279968,23.8390822 45.6768126,20.650398 51.8733916,22.7014506 C62.5091811,26.2225033 92.4661547,29.1597401 93.9006284,29.2990822 L99.05826,29.9863191 C99.0937863,29.9910559 99.1289179,29.9934243 99.1636547,29.9934243 C99.55326,29.9934243 99.8923389,29.7048717 99.9452337,29.3081612 C100.002865,28.8759243 99.6993126,28.4788191 99.2670758,28.4211875 L94.6719442,27.8085559 L92.5154968,15.2073717 L112.710628,12.3775033 C113.388392,14.545398 115.442207,21.6861875 116.850628,29.8619769 C118.913523,41.8335561 118.657339,50.7017139 116.111286,55.5080297 M29.980102,70.5123718 C26.9607599,70.5123718 23.9607599,70.1661876 21.0472073,69.3782929 C10.6972073,66.5784245 4.38536515,57.2203982 2.28733883,41.5631613 C0.924707255,31.3927664 1.88904936,21.7260559 2.19615462,19.1456612 L34.6624704,18.7351348 L35.3579967,38.7644769 C35.3729967,39.1931612 35.7290494,39.5223718 36.1553651,39.5267139 L50.42826,39.3739506 C52.0502337,40.0572403 54.9168126,41.9357929 58.1370758,44.0480297 C62.39826,46.8427666 67.6312863,50.2722403 73.4516811,53.3957929 C68.5735232,56.9748718 48.8690495,70.5135561 29.980102,70.5123718 M113.997865,11.2359243 C113.871155,10.8850033 113.516286,10.6714506 113.146023,10.7219769 L92.2265495,13.6536875 L89.5987863,0.633687462 C89.5119442,0.206187461 89.0943126,-0.070917802 88.6687863,0.0159243031 C88.2408916,0.102371672 87.9645758,0.518424304 88.0506284,0.945924304 L90.8236547,14.6843454 L93.0385232,27.625398 C87.5595758,27.0660559 61.7773389,24.3167138 52.3691811,21.2026348 C49.5278653,20.2615822 46.2298389,20.3121085 43.3206284,21.340398 C40.3245758,22.4002664 37.9304967,24.4134243 36.5303651,27.0321085 L36.2181283,18.0356612 C36.2216809,18.0017138 36.2268125,17.9685559 36.2264178,17.9338191 L35.9497073,1.86763483 C35.942602,1.43184536 35.6011546,1.0765822 35.1468125,1.09197694 C34.711023,1.09947694 34.3636546,1.4590822 34.3711546,1.89487167 L34.6340494,17.1565822 L1.48957568,17.575398 C1.10075989,17.5805296 0.773523044,17.867898 0.718259886,18.2527664 C0.701680939,18.3656612 -0.889503271,29.7005296 0.718259886,41.7415824 C2.87352304,57.8772403 9.76049672,67.9607929 20.635102,70.9023718 C23.6939178,71.7297403 26.8304967,72.0865824 29.9670757,72.0865824 C40.0308916,72.0865824 50.08326,68.4139508 57.4810232,64.8403982 C66.2962863,60.5815824 73.0506284,55.6836876 75.0014179,54.2128982 C83.4977337,58.6067139 93.1383916,62.197635 102.803918,62.197635 C105.746286,62.197635 108.691813,61.8648718 111.607339,61.1207929 C114.152602,60.4706613 116.137339,58.8309245 117.506286,56.2473718 C124.281549,43.4586876 114.109181,11.5430296 113.997865,11.2359243" id="Fill-13" fill="#009192"></path>
                            </g>
                        </g>
                    </g>
                    <g id="Head" transform="translate(30.000000, 0.000000)">
                        <g id="Head/Long-Hair-1">
                            <g id="Long-Hair" transform="translate(0.274263, -0.000013)">
                                <path d="M44.454904,16.9394069 C32.4651992,15.7674809 24.267404,19.6969827 19.517404,24.4242554 C14.767404,29.1515282 11.6007373,31.9091039 11.6007373,40.1818312 C11.6007373,48.4545585 23.8715707,61.0606191 24.6632373,62.2424372 C25.454904,63.4242554 36.9340707,70.9091039 49.6007374,66.96971 C58.0451817,64.3434472 62.7951817,59.3535485 63.8507374,52.000013 C65.1701817,39.3939524 65.1701817,31.6464776 63.8507374,28.7575888 C61.8715707,24.4242554 56.4446086,18.1113329 44.454904,16.9394069 Z" id="SKIN" fill="#FFFFFF"></path>
                                <path d="M30.8733873,7.51393421 C40.8000957,-6.69073245 68.1161582,0.365116027 60.2446165,19.2844494 C65.000554,22.4202069 69.185304,27.9782978 68.1121999,39.9997524 C66.4932415,58.1327827 72.4430124,57.43551 74.6592832,63.655813 C76.9060332,69.0145706 74.8872832,76.1704797 70.5430124,80.1776312 C72.9655124,86.5633888 69.0657624,107.181389 55.9842624,103.120661 C48.3996999,100.76648 44.4493624,95.9782251 43.6632374,90.2121342 C42.193904,79.430013 46.829904,70.9091039 49.6192624,67.5636918 C42.7590749,70.2282978 33.767404,68.9394069 29.4132373,65.7878918 C29.4132373,69.7272857 28.2257373,72.0909221 26.2465707,74.0606191 C24.267404,76.030316 17.9340707,77.2121342 10.8090707,74.0606191 C3.68407066,70.9091039 -7.00342933,55.9394069 6.42197067,40.3424797 C12.8261582,34.4215706 10.926554,35.0912675 10.926554,24.3052069 C10.926554,13.150813 21.7395332,6.27854027 30.8733873,7.51393421 Z M56.4936999,24.2819645 C52.3461582,27.5879039 44.3602207,29.4429645 26.6296582,27.125813 C21.842054,26.1669645 19.018179,32.5704494 18.6041373,35.4702372 C18.141804,36.9372675 16.2018248,35.3894797 15.272804,35.6388433 C9.77784567,35.8082372 10.3664498,45.9072675 17.7863457,45.2627827 C18.205929,45.2627827 18.5542623,45.585813 18.5780123,46.0033888 C18.7197207,50.6207524 22.3875123,58.3872675 28.1136373,62.6394494 C36.0785957,69.0338736 50.812304,69.4159948 56.918429,59.9094494 C62.4490124,52.774813 61.039054,34.5023282 56.4936999,24.2819645 Z M15.494154,38.6203736 C15.9936957,38.6203736 16.3986332,39.3282827 16.3986332,40.2012524 C16.3986332,41.0742221 15.9936957,41.7821312 15.494154,41.7821312 C14.9946123,41.7821312 14.5896748,41.0742221 14.5896748,40.2012524 C14.5896748,39.3282827 14.9946123,38.6203736 15.494154,38.6203736 Z" id="ink" fill="#009192"></path>
                            </g>
                        </g>
                    </g>
                    <g id="Face" transform="translate(57.000000, 31.000000)">
                        <g id="Face/Open-Mouth">
                            <g id="Open-Mouth" transform="translate(0.388656, 0.399788)">
                                <path d="M17.6281389,21.3783315 C18.6975833,21.3359315 22.4666944,20.4599315 23.0103611,21.4163315 C24.3045833,24.2143315 21.8775278,27.3755315 19.4388056,28.5099315 C15.5965833,30.3267315 8.05836111,28.5879315 8.86880556,23.0823315 C8.85480556,22.9063315 9.09358333,22.6163315 9.29269444,22.6191315 C12.0211389,22.1971315 14.89425,21.7435315 17.6281389,21.3783315 Z M15.0735667,7.09801148 C15.0848444,6.40041148 16.1352333,6.39201148 16.1698444,7.07681148 C16.3499,9.07921148 16.3926778,11.1428115 16.8049,13.0976115 C21.0507889,14.9256115 19.5765111,19.6300115 15.1392889,19.2716115 C14.1316778,19.2636115 14.1274,17.6872115 15.1322889,17.6716115 C15.9734556,17.6504115 17.2334556,17.5376115 17.6032889,16.7844115 C18.0509,15.6236115 16.9165111,14.8532115 15.9260111,14.4480115 C15.4978444,14.2428115 15.3504556,13.6728115 15.2882333,13.3352115 C14.9627333,11.2564115 15.0234,9.18241148 15.0735667,7.09801148 Z M3.17205,9.22041148 C4.03188333,8.00761148 5.47893889,7.14401148 7.00688333,7.29241148 C7.78932778,7.36081148 8.58888333,7.71481148 9.17143889,8.32921148 C9.96827222,9.17521148 8.71993889,10.4260115 7.91882778,9.58721148 C7.65166111,9.26921148 7.27560556,9.05481148 6.82993889,8.98681148 C5.29499444,8.76681148 4.04471667,10.1680115 3.54849444,11.5712115 C3.41821667,11.9508115 3.00482778,12.1464115 2.64082778,11.9952115 C1.60521667,11.4448115 2.77616111,9.93121148 3.17205,9.22041148 Z M18.9346889,7.01093148 C20.2106333,4.81693148 23.1156333,3.86293148 25.3813,4.98973148 C26.0910222,5.26413148 28.1412444,6.95493148 26.8660778,7.76413148 C26.5230778,7.91613148 26.1699667,7.73933148 25.9848556,7.43933148 C24.9593556,6.20853148 22.8270778,5.93493148 21.4270778,6.71333148 C20.9223,6.99173148 20.4696333,7.38893148 20.0438,7.85173148 C19.7886889,8.16533148 19.3255222,8.19933148 19.0361889,7.91573148 C18.7896333,7.67533148 18.7542444,7.29213148 18.9346889,7.01093148 Z M3.09983333,2.08021148 C3.83444444,2.00021148 6.76822222,1.89461148 6.4645,3.12301148 C6.16,3.79341148 5.20333333,3.40661148 4.6375,3.59461148 C3.332,3.71221148 2.09183333,4.28541148 0.805777778,4.47501148 C0.412222222,4.52741148 0.0513333333,4.24181148 -2.06057393e-13,3.83661148 C0.035,2.60701148 2.16688889,2.22781148 3.09983333,2.08021148 Z M21.9413833,0.0518914827 C22.9396611,-0.187708517 26.5403833,0.392291483 25.6047167,2.00309148 C25.0964389,2.53189148 24.3322722,2.08589148 23.7178278,1.99989148 C22.57605,1.66989148 21.4194944,1.62229148 20.26255,1.92509148 C19.9638833,1.98469148 19.67455,1.78429148 19.6166056,1.47709148 C19.5528278,0.579491484 21.2584944,0.183491483 21.9413833,0.0518914827 Z" id="face" fill="#009192"></path>
                                <path d="M6.88842778,17.2696115 C7.83926111,16.8136115 8.52565,18.3316115 7.57676111,18.7872115 C6.62553889,19.2436115 5.93953889,17.7252115 6.88842778,17.2696115 Z M3.21338889,18.7158915 C1.69983333,18.4522915 3.37011111,16.4406915 3.892,17.7242915 C4.21905556,18.2322915 3.83561111,18.9506915 3.21338889,18.7158915 Z M23.4997389,13.8907315 C24.4599056,13.8823315 24.4742944,15.4171315 23.5121833,15.4255315 C22.5520167,15.4335315 22.5380167,13.8991315 23.4997389,13.8907315 Z M5.25272222,14.4196115 C5.82827778,14.1436115 6.24438889,15.0624115 5.66961111,15.3384115 C5.09366667,15.6144115 4.67794444,14.6952115 5.25272222,14.4196115 Z M8.10938333,13.4051715 C8.89455,13.0287715 9.46116111,14.2819715 8.67755,14.6579715 C7.89199444,15.0347715 7.32538333,13.7811715 8.10938333,13.4051715 Z M26.1535944,13.0508515 C26.0929278,11.7768515 28.2465944,12.7636515 27.0954833,13.5960515 C26.6704278,14.0432515 26.07815,13.6036515 26.1535944,13.0508515 Z M21.0072722,11.1883715 C21.8002167,11.1811715 21.8114944,12.4483715 21.0173833,12.4555715 C20.2248278,12.4627715 20.2131611,11.1955715 21.0072722,11.1883715 Z M23.7599056,10.8684515 C24.3412944,10.8632515 24.34985,11.7928515 23.7676833,11.7976515 C23.1859056,11.8028515 23.1777389,10.8736515 23.7599056,10.8684515 Z" id="dot" fill="#FF8A58"></path>
                            </g>
                        </g>
                    </g>
                </g>
            </g>
        </g>
    </g>
</svg>