<?xml version="1.0" encoding="UTF-8"?>
<svg width="120px" height="120px" viewBox="0 0 120 120" version="1.1" xmlns="http://www.w3.org/2000/svg" xmlns:xlink="http://www.w3.org/1999/xlink">
    <!-- Generator: Sketch 53.2 (72643) - https://sketchapp.com -->
    <title>social-linkedin</title>
    <desc>Created with Sketch.</desc>
    <g id="social-linkedin" stroke="none" stroke-width="1" fill="none" fill-rule="evenodd">
        <path d="M60,120 C26.862915,120 0,93.137085 0,60 C0,26.862915 26.862915,0 60,0 C93.137085,0 120,26.862915 120,60 C120,93.137085 93.137085,120 60,120 Z M44,90 L44,46 L30,46 L30,90 L44,90 Z M37,40 C41.4156906,40 45,36.35859 45,31.9622536 C44.9999999,27.5648224 41.418278,24 37,24 C32.581722,24 29.0000001,27.5648224 29,31.9622536 C29,36.35859 32.5828221,40 37,40 Z M94.9851489,90 L95,90 L95,65.8855186 C95,54.0851272 92.4337225,45 78.4736479,45 C71.7624162,45 67.264005,48.6399217 65.4224632,52.0890411 L65.2293984,52.0890411 L65.2293984,46.1007828 L52,46.1007828 L52,90 L65.7788907,90 L65.7788907,68.2632094 C65.7788907,62.5391389 66.8778753,57.0058708 74.0494923,57.0058708 C81.1171513,57.0058708 81.2211093,63.537182 81.2211093,68.630137 L81.2211093,90 L94.9851489,90 Z" id="Oval-2" fill="#009192"></path>
    </g>
</svg>