<?xml version="1.0" encoding="UTF-8"?>
<svg width="120px" height="120px" viewBox="0 0 120 120" version="1.1" xmlns="http://www.w3.org/2000/svg" xmlns:xlink="http://www.w3.org/1999/xlink">
    <!-- Generator: Sketch 53.2 (72643) - https://sketchapp.com -->
    <title>social-facebook</title>
    <desc>Created with Sketch.</desc>
    <g id="social-facebook" stroke="none" stroke-width="1" fill="none" fill-rule="evenodd">
        <g id="facebook-brands" transform="translate(0.000000, -0.000000)" fill="#009192" fill-rule="nonzero">
            <path d="M120,60 C120,26.8548387 93.1451613,0 60,0 C26.8548387,0 0,26.8548387 0,60 C0,89.9467742 21.941129,114.769355 50.625,119.274194 L50.625,77.3443548 L35.3830645,77.3443548 L35.3830645,60 L50.625,60 L50.625,46.7806452 C50.625,31.7443548 59.5766129,23.4387097 73.2870968,23.4387097 C79.8532258,23.4387097 86.7193548,24.6096774 86.7193548,24.6096774 L86.7193548,39.3677419 L79.1516129,39.3677419 C71.7,39.3677419 69.375,43.9935484 69.375,48.7379032 L69.375,60 L86.0153226,60 L83.3540323,77.3443548 L69.375,77.3443548 L69.375,119.274194 C98.058871,114.769355 120,89.9467742 120,60 Z" id="Path"></path>
        </g>
    </g>
</svg>