<?xml version="1.0" encoding="UTF-8"?>
<svg width="120px" height="120px" viewBox="0 0 120 120" version="1.1" xmlns="http://www.w3.org/2000/svg" xmlns:xlink="http://www.w3.org/1999/xlink">
    <!-- Generator: Sketch 53.2 (72643) - https://sketchapp.com -->
    <title>social-mail</title>
    <desc>Created with Sketch.</desc>
    <g id="social-mail" stroke="none" stroke-width="1" fill="none" fill-rule="evenodd">
        <path d="M60,120 C26.862915,120 4.51194637e-13,93.137085 4.51194637e-13,60 C4.51194637e-13,26.862915 26.862915,0 60,0 C93.137085,0 120,26.862915 120,60 C120,93.137085 93.137085,120 60,120 Z M25,35 C24.21484,35 23.4688,35.16406 22.7812,35.4375 L57.0932,65.2495 C58.308,66.3081 59.7534,66.3042 60.9682,65.2495 L95.2182,35.4375 C94.5307,35.16406 93.7846,35 92.9994,35 L25,35 Z M19.0625,40.1562 C19.02344,40.42964 19,40.71479 19,40.99995 L19,80.99995 C19,81.82026 19.17188,82.60155 19.46875,83.31245 L43.21875,61.12445 L19.0625,40.1562 Z M98.9375,40.1562 L74.8435,61.1252 L98.5315,83.3442 C98.83619,82.62545 99.00025,81.8325 99.00025,81.0004 L99.00025,41.0004 C99.00025,40.71524 98.97681,40.43009 98.93775,40.15665 L98.9375,40.1562 Z M70.2815,65.0622 L64.9065,69.7497 C61.5627,72.6599 56.5003,72.6559 53.1565,69.7497 L47.7815,65.0935 L24.3755,86.9685 C24.57862,86.98803 24.79347,86.99975 25.0005,86.99975 L93.0005,86.99975 C93.19972,86.99975 93.40284,86.98803 93.59425,86.9685 L70.2815,65.0622 Z" id="Oval-2" fill="#009192"></path>
    </g>
</svg>