<?xml version="1.0" encoding="UTF-8"?>
<svg width="14px" height="27px" viewBox="0 0 14 27" version="1.1" xmlns="http://www.w3.org/2000/svg" xmlns:xlink="http://www.w3.org/1999/xlink">
    <!-- Generator: Sketch 53.2 (72643) - https://sketchapp.com -->
    <title>Group</title>
    <desc>Created with Sketch.</desc>
    <g id="Page-1" stroke="none" stroke-width="1" fill="none" fill-rule="evenodd">
        <g id="Group" fill="#979797" fill-rule="nonzero">
            <path d="M0.146446609,0.853553391 C-0.0488155365,0.658291245 -0.0488155365,0.341708755 0.146446609,0.146446609 C0.341708755,-0.0488155365 0.658291245,-0.0488155365 0.853553391,0.146446609 L13.8535534,13.1464466 C14.0488155,13.3417088 14.0488155,13.6582912 13.8535534,13.8535534 C13.6582912,14.0488155 13.3417088,14.0488155 13.1464466,13.8535534 L0.146446609,0.853553391 Z" id="Line"></path>
            <path d="M0.146446609,13.8535534 C-0.0488155365,13.6582912 -0.0488155365,13.3417088 0.146446609,13.1464466 C0.341708755,12.9511845 0.658291245,12.9511845 0.853553391,13.1464466 L13.8535534,26.1464466 C14.0488155,26.3417088 14.0488155,26.6582912 13.8535534,26.8535534 C13.6582912,27.0488155 13.3417088,27.0488155 13.1464466,26.8535534 L0.146446609,13.8535534 Z" id="Line-Copy" transform="translate(7.000000, 20.000000) scale(1, -1) translate(-7.000000, -20.000000) "></path>
        </g>
    </g>
</svg>