<?xml version="1.0" encoding="UTF-8"?>
<svg width="39px" height="39px" viewBox="0 0 39 39" version="1.1" xmlns="http://www.w3.org/2000/svg" xmlns:xlink="http://www.w3.org/1999/xlink">
    <!-- Generator: Sketch 53.2 (72643) - https://sketchapp.com -->
    <title>Group 8</title>
    <desc>Created with Sketch.</desc>
    <g id="Page-1" stroke="none" stroke-width="1" fill="none" fill-rule="evenodd">
        <g id="Group-8" fill-rule="nonzero">
            <g id="circle-copy-7" stroke="#FF4E00" stroke-width="3">
                <path d="M19.5,37.5 C29.4411248,37.5 37.5,29.4411239 37.5,19.5 C37.5,9.55887605 29.4411248,1.5 19.5,1.5 C9.5588752,1.5 1.5,9.55887605 1.5,19.5 C1.5,29.4411239 9.5588752,37.5 19.5,37.5 Z" id="Oval-Copy-8"></path>
            </g>
            <path d="M23.4289122,11.992 L23.4289122,22.48 L25.3009122,22.48 L25.3009122,24.976 L23.4289122,24.976 L23.4289122,28 L20.5009122,28 L20.5009122,24.976 L12.6769122,24.976 L12.6769122,23.584 L20.6209122,11.992 L23.4289122,11.992 Z M16.3729122,22.48 L20.5009122,22.48 L20.5009122,16.384 L16.3729122,22.48 Z" id="4" fill="#FF4E00"></path>
        </g>
    </g>
</svg>