<?xml version="1.0" encoding="UTF-8"?>
<svg width="39px" height="39px" viewBox="0 0 39 39" version="1.1" xmlns="http://www.w3.org/2000/svg" xmlns:xlink="http://www.w3.org/1999/xlink">
    <!-- Generator: Sketch 53.2 (72643) - https://sketchapp.com -->
    <title>Group 7</title>
    <desc>Created with Sketch.</desc>
    <g id="Page-1" stroke="none" stroke-width="1" fill="none" fill-rule="evenodd">
        <g id="Group-7" fill-rule="nonzero">
            <g id="circle-copy-5" stroke="#FF4E00" stroke-width="3">
                <path d="M19.5,37.5 C29.4411248,37.5 37.5,29.4411239 37.5,19.5 C37.5,9.55887605 29.4411248,1.5 19.5,1.5 C9.5588752,1.5 1.5,9.55887605 1.5,19.5 C1.5,29.4411239 9.5588752,37.5 19.5,37.5 Z" id="Oval-Copy-8"></path>
            </g>
            <path d="M17.3009122,16.168 L14.3729122,16.168 C14.6609122,13.264 16.8449122,11.632 19.5809122,11.632 C22.6529122,11.632 24.5969122,13.36 24.5969122,16.048 C24.5969122,16.888 24.4289122,18.472 22.7489122,19.408 C23.3969122,19.672 25.1969122,20.584 25.1969122,23.224 C25.1969122,26.512 22.6529122,28.36 19.4849122,28.36 C16.4129122,28.36 13.9889122,26.464 13.7249122,23.392 L16.8449122,23.392 C17.0369122,24.712 17.9729122,25.672 19.5089122,25.672 C21.3089122,25.672 22.0769122,24.352 22.0769122,23.128 C22.0769122,21.952 21.3569122,20.632 19.4129122,20.632 L19.0049122,20.632 L19.0049122,18.376 L19.4369122,18.376 C20.9729122,18.376 21.6209122,17.296 21.6209122,16.192 C21.6209122,14.92 20.7809122,14.08 19.5089122,14.08 C18.4049122,14.08 17.3729122,14.8 17.3009122,16.168 Z" id="3" fill="#FF4E00"></path>
        </g>
    </g>
</svg>