<?xml version="1.0" encoding="UTF-8"?>
<svg width="39px" height="39px" viewBox="0 0 39 39" version="1.1" xmlns="http://www.w3.org/2000/svg" xmlns:xlink="http://www.w3.org/1999/xlink">
    <!-- Generator: Sketch 53.2 (72643) - https://sketchapp.com -->
    <title>Group 2</title>
    <desc>Created with Sketch.</desc>
    <g id="Page-1" stroke="none" stroke-width="1" fill="none" fill-rule="evenodd">
        <g id="Group-2" fill-rule="nonzero">
            <g id="circle-copy-2" fill="#FF4E00">
                <path d="M19.5,39 C8.730447,39 0,30.26955 0,19.5 C0,8.73045 8.730447,0 19.5,0 C30.269553,0 39,8.73045 39,19.5 C39,30.26955 30.269553,39 19.5,39 Z" id="Oval-Copy-8"></path>
            </g>
            <path d="M13.5809122,27 L18.2849122,21.648 C18.5729122,21.312 20.4449122,19.176 21.0209122,18.312 C21.4529122,17.664 21.9569122,16.68 21.9569122,15.744 C21.9569122,14.304 20.9249122,13.32 19.5809122,13.32 C17.9489122,13.32 17.0849122,14.616 17.0369122,15.984 L13.8209122,15.984 C13.9649122,12.72 16.2689122,10.632 19.4369122,10.632 C23.1569122,10.632 25.0769122,13.176 25.0769122,15.72 C25.0769122,18.192 23.4209122,19.968 22.1729122,21.312 L19.4129122,24.312 L25.1969122,24.312 L25.1969122,27 L13.5809122,27 Z" id="2" fill="#FFFFFF"></path>
        </g>
    </g>
</svg>