<?xml version="1.0" encoding="UTF-8"?>
<svg width="39px" height="39px" viewBox="0 0 39 39" version="1.1" xmlns="http://www.w3.org/2000/svg" xmlns:xlink="http://www.w3.org/1999/xlink">
    <!-- Generator: Sketch 53.2 (72643) - https://sketchapp.com -->
    <title>circle copy 6</title>
    <desc>Created with Sketch.</desc>
    <g id="Page-1" stroke="none" stroke-width="1" fill="none" fill-rule="evenodd">
        <g id="circle-copy-6" fill-rule="nonzero">
            <g id="Group-4">
                <path d="M19.5,39 C8.730447,39 0,30.26955 0,19.5 C0,8.73045 8.730447,0 19.5,0 C30.269553,0 39,8.73045 39,19.5 C39,30.26955 30.269553,39 19.5,39 Z" id="Oval-Copy-8" fill="#FF4E00"></path>
                <path d="M23.4289122,10.992 L23.4289122,21.48 L25.3009122,21.48 L25.3009122,23.976 L23.4289122,23.976 L23.4289122,27 L20.5009122,27 L20.5009122,23.976 L12.6769122,23.976 L12.6769122,22.584 L20.6209122,10.992 L23.4289122,10.992 Z M16.3729122,21.48 L20.5009122,21.48 L20.5009122,15.384 L16.3729122,21.48 Z" id="4" fill="#FFFFFF"></path>
            </g>
        </g>
    </g>
</svg>