<?xml version="1.0" encoding="UTF-8"?>
<svg width="39px" height="39px" viewBox="0 0 39 39" version="1.1" xmlns="http://www.w3.org/2000/svg" xmlns:xlink="http://www.w3.org/1999/xlink">
    <!-- Generator: Sketch 53.2 (72643) - https://sketchapp.com -->
    <title>Group 6</title>
    <desc>Created with Sketch.</desc>
    <g id="Page-1" stroke="none" stroke-width="1" fill="none" fill-rule="evenodd">
        <g id="Group-6" fill-rule="nonzero">
            <g id="circle-copy-3" stroke="#FF4E00" stroke-width="3">
                <path d="M19.5,37.5 C29.4411248,37.5 37.5,29.4411239 37.5,19.5 C37.5,9.55887605 29.4411248,1.5 19.5,1.5 C9.5588752,1.5 1.5,9.55887605 1.5,19.5 C1.5,29.4411239 9.5588752,37.5 19.5,37.5 Z" id="Oval-Copy-8"></path>
            </g>
            <path d="M13.5809122,28 L18.2849122,22.648 C18.5729122,22.312 20.4449122,20.176 21.0209122,19.312 C21.4529122,18.664 21.9569122,17.68 21.9569122,16.744 C21.9569122,15.304 20.9249122,14.32 19.5809122,14.32 C17.9489122,14.32 17.0849122,15.616 17.0369122,16.984 L13.8209122,16.984 C13.9649122,13.72 16.2689122,11.632 19.4369122,11.632 C23.1569122,11.632 25.0769122,14.176 25.0769122,16.72 C25.0769122,19.192 23.4209122,20.968 22.1729122,22.312 L19.4129122,25.312 L25.1969122,25.312 L25.1969122,28 L13.5809122,28 Z" id="2" fill="#FF4E00"></path>
        </g>
    </g>
</svg>