<?xml version="1.0" encoding="UTF-8"?>
<svg width="330px" height="471px" viewBox="0 0 330 471" version="1.1" xmlns="http://www.w3.org/2000/svg" xmlns:xlink="http://www.w3.org/1999/xlink">
    <!-- Generator: Sketch 53.2 (72643) - https://sketchapp.com -->
    <title>Group 2</title>
    <desc>Created with Sketch.</desc>
    <g id="Page-1" stroke="none" stroke-width="1" fill="none" fill-rule="evenodd">
        <g id="Desktop-HD-Copy-12" transform="translate(-910.000000, -268.000000)">
            <g id="Group-2" transform="translate(910.000000, 268.000000)">
                <path d="M318.012959,243.148022 L297.229293,243.148022 L297.229293,215.289694 C297.229293,210.153086 293.074516,206 287.935815,206 L259.567333,206 C254.428633,206 250.273855,210.153086 250.273855,215.289694 L250.273855,243.397325 L229.490189,243.397325 C223.12892,243.397325 218,248.533933 218,254.882836 L218,405.446858 C218,411.805538 223.1387,416.932374 229.490189,416.932374 L244.89651,416.932374 C245.144838,421.572333 247.590073,425 250.522281,425 C253.45449,425 255.899627,421.333787 256.148053,416.932374 L291.851947,416.932374 C292.100275,421.572333 294.54551,425 297.477719,425 C300.409927,425 302.855064,421.333787 303.10349,416.932374 L318.509811,416.932374 C324.87108,416.932374 330,411.795761 330,405.446858 L329.99044,254.882836 C329.742111,248.533689 324.613094,243.149 318.013179,243.149 L318.012959,243.148022 Z M256.000964,220.278128 C256.000964,215.147915 260.097745,211 265.164714,211 L280.83625,211 C285.903219,211 290,215.147915 290,220.278128 L290,242 L256,242 L256.000964,220.278128 Z M234.073789,336 L228,316.957478 L264.926211,305 L271,324.042522 L234.073789,336 Z M290,367 L252,367 L252,346 L290,346 L290,367 Z M306,296 L268,296 L268,275 L306,275 L306,296 Z" id="Fill-1" fill-opacity="0.3" fill="#009192"></path>
                <g id="Group-3" opacity="0.3" transform="translate(0.000000, 316.000000)" fill="#009192">
                    <path d="M12.9449965,103.996599 C0.537320833,103.903802 0.173807687,102.339548 0.081807784,90.6603192 C0.081807784,72.3567283 -0.10225973,54.0542687 0.081807784,35.8434401 C0.265875355,20.1168319 0.813702454,20.9426429 18.8700291,21.0354052 C38.5782514,21.2209978 58.5546205,21.2209978 78.3469893,21.1326247 L78.3469893,37.0447575 L75.15638,37.0447575 L75.15638,47.5308598 L85.6440579,47.5308598 L85.6440579,37.133108 L82.4534486,37.133108 L82.4534486,21.1316065 C86.5600201,21.1316065 90.5701037,21.038799 94.677124,21.038799 C111.278659,20.9460027 111.734172,20.1196601 111.918172,35.8468339 C112.102285,54.1504248 111.918172,72.4528957 111.918172,90.6637243 C111.826138,102.24996 111.462379,103.814475 100.151132,104 C71.0499207,103.995581 41.9543195,103.995581 12.9451087,103.995581 L12.9449965,103.996599 Z" id="Fill-1"></path>
                    <path d="M43.6544225,18 L35,18 C35,-6.31839602 76,-5.67947794 76,18 L67.3455775,18 C66.8903146,2.21443392 43.6539742,2.30699803 43.6539742,18 L43.6544225,18 Z" id="Fill-2"></path>
                </g>
                <g id="Croods---Standing" transform="translate(161.500000, 236.000000) scale(-1, 1) translate(-161.500000, -236.000000) translate(43.000000, 0.000000)" fill-rule="nonzero">
                    <g id="Lower-Body" transform="translate(40.000000, 189.000000)">
                        <g id="Lower-Body/Half-Pant">
                            <g id="leg-2" transform="translate(93.883181, 106.454099)">
                                <g id="Group">
                                    <path d="M0.823684705,0.821526323 L7.87152069,33.7374635 C0.525507028,81.2689225 12.5920218,112.286956 16.5411334,157.832784 L42.5743682,160.863015 L37.9274432,6.81860886" id="SKIN" fill="#FFFFFF"></path>
                                    <path d="M42.5745618,161.685015 C42.5428079,161.685015 42.5110539,161.683083 42.4789126,161.679218 L16.4456779,158.649374 C16.0572724,158.603772 15.7544478,158.292671 15.7207576,157.903893 C14.4540833,143.295714 12.3521243,130.192409 10.3190947,117.52078 C6.07451613,91.0637451 2.0649945,66.0729383 7.0348806,33.761424 L0.0184113571,0.993114457 C-0.0768506021,0.549458652 0.206999056,0.112759123 0.651554864,0.0176900216 C1.09804689,-0.0750603208 1.53408334,0.205895925 1.62895805,0.649938189 L8.67679404,33.5654889 C8.69809244,33.6632632 8.70080315,33.7637427 8.6853134,33.8626764 C3.72007423,65.9906223 7.71526784,90.8944757 11.9455184,117.261079 C13.9518282,129.768463 16.0259057,142.695156 17.3030355,157.09426 L41.7226256,159.936671 L37.1047439,6.84334229 C37.0908031,6.38925207 37.4482291,6.0105215 37.9028533,5.99699541 C37.9113726,5.99699541 37.9195047,5.99660895 37.9280241,5.99660895 C38.3714182,5.99660895 38.7373637,6.3486738 38.75053,6.79348898 L43.397844,160.838282 C43.4048124,161.077114 43.3076142,161.307058 43.1310311,161.468598 C42.9784571,161.608496 42.7794138,161.685015 42.5745618,161.685015" id="Fill-3" fill="#009192"></path>
                                </g>
                                <g id="shoe-1" transform="translate(6.113017, 146.764303)">
                                    <path d="M30.3157153,6.46191945 C30.3157153,6.46191945 33.4399977,2.01647281 36.5030957,0.321460304 C38.5032096,-0.785746908 61.3323893,11.7332306 65.4422071,14.4971908 C69.0811365,16.9446404 68.9967174,20.9696189 68.3058745,22.9224 C67.9863985,23.82517 66.8486764,24.2827384 64.924075,24.2827384 C57.8975374,24.2827384 42.7597925,24.3163604 29.4045308,24.3465042 C18.5977198,24.3704647 7.32892712,24.3913336 3.81507746,24.3913336 C3.44371071,24.3913336 3.10874488,24.2471841 2.87097723,23.9855508 C1.4877426,22.4621264 0.89951937,6.13613387 4.49197951,3.45410312 C7.78858543,0.993127368 30.3157153,6.46191945 30.3157153,6.46191945 Z" id="Fill-5" fill="#FF8A58"></path>
                                    <path d="M2.79476766,27.7946528 L66.6264759,27.7946528 C71.0162709,27.7911747 71.1672959,21.6062727 66.6264759,22.1005547 C50.762649,23.8268704 2.79476766,22.1005547 2.79476766,22.1005547 C-0.094457852,22.14036 0.967364472,25.9709492 0.967364472,25.9709492 C0.967364472,26.9784498 1.78561049,27.7946528 2.79476766,27.7946528" id="Fill-7" fill="#FFFFFF"></path>
                                    <path d="M2.76676994,22.8729332 C2.20526652,22.8814353 1.9748565,23.0959205 1.85364921,23.2566877 C1.3595262,23.9113505 1.59342142,25.3234745 1.71424147,25.7663574 C1.73205468,25.832442 1.74173577,25.9023912 1.74173577,25.9711811 C1.74173577,26.5504843 2.21417313,27.0215787 2.79465149,27.0215787 L66.626747,27.0215787 C68.0649702,27.0204193 68.6915306,26.2447946 68.9366559,25.7818158 C69.3107333,25.0769132 69.2898221,24.2352038 68.8836035,23.637737 C68.4673164,23.0255848 67.7156764,22.7581546 66.7103916,22.8686821 C50.9728062,24.5814718 3.24695217,22.8899374 2.76676994,22.8729332 M66.6271342,28.5674177 L2.79465149,28.5674177 C1.39592711,28.5674177 0.251621875,27.460597 0.19508429,26.0782304 C0.0688428317,25.5715817 -0.338150335,23.5959994 0.612920281,22.3307301 C0.950209575,21.8824368 1.60039181,21.3440984 2.78380866,21.3274806 C3.30155354,21.3452577 50.9154941,23.0329275 66.5427151,21.3321181 C68.107567,21.1628487 69.4280682,21.6861152 70.164993,22.7697484 C70.889526,23.8344451 70.9445146,25.3010598 70.3055625,26.5052685 C69.6112344,27.8145941 68.2702094,28.5662584 66.6271342,28.5674177" id="Fill-9" fill="#009192"></path>
                                </g>
                            </g>
                            <g id="leg-1" transform="translate(39.061503, 194.454099) scale(-1, 1) translate(-39.061503, -194.454099) translate(0.061503, 106.454099)">
                                <g id="leg-2">
                                    <path d="M0.823684705,0.821526323 L7.87152069,33.7374635 C0.525507028,81.2689225 12.5920218,112.286956 16.5411334,157.832784 L42.5743682,160.863015 L37.9274432,6.81860886" id="SKIN" fill="#FFFFFF"></path>
                                    <path d="M42.5745618,161.685015 C42.5428079,161.685015 42.5110539,161.683083 42.4789126,161.679218 L16.4456779,158.649374 C16.0572724,158.603772 15.7544478,158.292671 15.7207576,157.903893 C14.4540833,143.295714 12.3521243,130.192409 10.3190947,117.52078 C6.07451613,91.0637451 2.0649945,66.0729383 7.0348806,33.761424 L0.0184113571,0.993114457 C-0.0768506021,0.549458652 0.206999056,0.112759123 0.651554864,0.0176900216 C1.09804689,-0.0750603208 1.53408334,0.205895925 1.62895805,0.649938189 L8.67679404,33.5654889 C8.69809244,33.6632632 8.70080315,33.7637427 8.6853134,33.8626764 C3.72007423,65.9906223 7.71526784,90.8944757 11.9455184,117.261079 C13.9518282,129.768463 16.0259057,142.695156 17.3030355,157.09426 L41.7226256,159.936671 L37.1047439,6.84334229 C37.0908031,6.38925207 37.4482291,6.0105215 37.9028533,5.99699541 C37.9113726,5.99699541 37.9195047,5.99660895 37.9280241,5.99660895 C38.3714182,5.99660895 38.7373637,6.3486738 38.75053,6.79348898 L43.397844,160.838282 C43.4048124,161.077114 43.3076142,161.307058 43.1310311,161.468598 C42.9784571,161.608496 42.7794138,161.685015 42.5745618,161.685015" id="Fill-3" fill="#009192"></path>
                                </g>
                                <g id="shoe-1" transform="translate(6.113017, 146.764303)">
                                    <path d="M30.3157153,6.46191945 C30.3157153,6.46191945 33.4399977,2.01647281 36.5030957,0.321460304 C38.5032096,-0.785746908 61.3323893,11.7332306 65.4422071,14.4971908 C69.0811365,16.9446404 68.9967174,20.9696189 68.3058745,22.9224 C67.9863985,23.82517 66.8486764,24.2827384 64.924075,24.2827384 C57.8975374,24.2827384 42.7597925,24.3163604 29.4045308,24.3465042 C18.5977198,24.3704647 7.32892712,24.3913336 3.81507746,24.3913336 C3.44371071,24.3913336 3.10874488,24.2471841 2.87097723,23.9855508 C1.4877426,22.4621264 0.89951937,6.13613387 4.49197951,3.45410312 C7.78858543,0.993127368 30.3157153,6.46191945 30.3157153,6.46191945 Z" id="Fill-5" fill="#FF8A58"></path>
                                    <path d="M2.79476766,27.7946528 L66.6264759,27.7946528 C71.0162709,27.7911747 71.1672959,21.6062727 66.6264759,22.1005547 C50.762649,23.8268704 2.79476766,22.1005547 2.79476766,22.1005547 C-0.094457852,22.14036 0.967364472,25.9709492 0.967364472,25.9709492 C0.967364472,26.9784498 1.78561049,27.7946528 2.79476766,27.7946528" id="Fill-7" fill="#FFFFFF"></path>
                                    <path d="M2.76676994,22.8729332 C2.20526652,22.8814353 1.9748565,23.0959205 1.85364921,23.2566877 C1.3595262,23.9113505 1.59342142,25.3234745 1.71424147,25.7663574 C1.73205468,25.832442 1.74173577,25.9023912 1.74173577,25.9711811 C1.74173577,26.5504843 2.21417313,27.0215787 2.79465149,27.0215787 L66.626747,27.0215787 C68.0649702,27.0204193 68.6915306,26.2447946 68.9366559,25.7818158 C69.3107333,25.0769132 69.2898221,24.2352038 68.8836035,23.637737 C68.4673164,23.0255848 67.7156764,22.7581546 66.7103916,22.8686821 C50.9728062,24.5814718 3.24695217,22.8899374 2.76676994,22.8729332 M66.6271342,28.5674177 L2.79465149,28.5674177 C1.39592711,28.5674177 0.251621875,27.460597 0.19508429,26.0782304 C0.0688428317,25.5715817 -0.338150335,23.5959994 0.612920281,22.3307301 C0.950209575,21.8824368 1.60039181,21.3440984 2.78380866,21.3274806 C3.30155354,21.3452577 50.9154941,23.0329275 66.5427151,21.3321181 C68.107567,21.1628487 69.4280682,21.6861152 70.164993,22.7697484 C70.889526,23.8344451 70.9445146,25.3010598 70.3055625,26.5052685 C69.6112344,27.8145941 68.2702094,28.5662584 66.6271342,28.5674177" id="Fill-9" fill="#009192"></path>
                                </g>
                            </g>
                            <g id="pant" transform="translate(21.136674, 0.056810)">
                                <polygon id="Path" fill="#009192" points="19.9093235 0.408333383 -3.87243736e-05 127.264136 59.3907585 127.264136 63.5679567 58.4514977 69.2755421 127.264136 127.207979 127.264136 104.551897 0.329495592"></polygon>
                                <path d="M67.5953303,9.71660317 C69.2569932,10.8721179 72.9594305,13.1259512 79.1359681,15.2700299 C81.3451936,16.0367661 82.5243508,15.9196688 82.8631891,15.586154 C83.0920501,15.360848 82.9836219,14.8974827 82.8984282,14.6412599 C82.2300456,12.628191 78.6201595,9.46695016 73.5805695,8.767458 C71.7825968,8.51896437 69.7282688,8.92706588 67.5953303,9.71660317 M61.5531663,8.1240025 C60.3968565,8.1240025 59.048861,8.77634657 57.9250797,9.32086837 C53.2766059,11.5712236 49.4622551,16.4750115 49.1121868,18.8351212 C50.0497039,18.4784189 52.1570843,17.0342187 54.0460592,15.7395785 C57.1277449,13.6271895 60.8193394,11.096651 64.5213895,9.33168925 C63.8615262,8.85711666 63.1280866,8.49461741 62.3032574,8.23221123 C62.0662642,8.15723804 61.8145558,8.1240025 61.5531663,8.1240025 M60.0909339,26.7830526 C59.9976082,26.7830526 59.9027335,26.7660484 59.8105695,26.7301077 C59.4120957,26.5755238 59.2142141,26.1280033 59.3691116,25.7299498 C61.2243964,20.9633551 63.8483599,14.0206055 64.8563554,10.9026482 C61.2971982,12.6444223 57.7268109,15.091872 54.922779,17.0137364 C50.7126651,19.8998179 49.2031891,20.8694454 48.1634396,20.3229913 C47.9291572,20.2000971 47.5368793,19.8862918 47.5368793,19.1667037 C47.5368793,15.9301032 52.4382232,10.2588062 57.2489522,7.92961324 C58.8742141,7.14316763 60.8987244,6.16349213 62.7729841,6.75979954 C64.0729613,7.17253857 65.1707973,7.79821692 66.1114123,8.62330851 C68.788041,7.51996589 71.4259453,6.90665425 73.7935535,7.23669089 C79.2261959,7.99067388 83.436697,11.3466904 84.3687927,14.1550935 C84.8303872,15.5463487 84.3048975,16.3389776 83.9505695,16.6871779 C83.007631,17.6146813 81.2166287,17.6285938 78.6271298,16.7296884 C74.1761503,15.1850088 70.980615,13.5947269 68.8600683,12.3576692 C70.454738,15.5826759 71.3798633,19.974791 72.3537813,25.3125733 C72.4300683,25.732655 72.1512528,26.1349596 71.7303189,26.2118651 C71.3128702,26.2872248 70.9062642,26.0101331 70.82959,25.5896649 C69.5505239,18.5761932 68.3837585,13.9850512 66.3758998,11.2110431 C65.0786333,15.3055842 61.311139,25.0099753 60.8131435,26.28993 C60.6938724,26.5956197 60.4011162,26.7826662 60.0909339,26.7830526" id="Fill-14" fill="#FFFFFF"></path>
                                <path d="M88.8347585,10.7287799 C88.8045535,10.7287799 88.7739613,10.7272341 88.743369,10.7233695 C88.3185626,10.6735162 88.0145763,10.2893752 88.0645308,9.86581528 C88.263574,8.17775905 87.7717745,6.75442775 87.7667403,6.7405152 C87.6253964,6.33859705 87.8360569,5.89687354 88.2384032,5.75465635 C88.6411367,5.61282562 89.0825945,5.82074097 89.226262,6.22227266 C89.25182,6.2929948 89.8458519,7.98530209 89.6030501,10.0459055 C89.5565809,10.4393216 89.2220023,10.7287799 88.8347585,10.7287799" id="Fill-16" fill="#FFFFFF"></path>
                                <path d="M96.8204989,10.358165 C96.7902938,10.358165 96.7597016,10.3566192 96.7291093,10.3527546 C96.304303,10.3029013 96.0003166,9.91876027 96.0502711,9.49520037 C96.2493144,7.80714414 95.7575148,6.38381284 95.7524806,6.36990029 C95.6111367,5.96798214 95.8217973,5.52625863 96.2241435,5.38404144 C96.6272642,5.24221071 97.0683349,5.45012606 97.2120023,5.85165775 C97.2375604,5.92237989 97.8315923,7.61468718 97.5887904,9.67529062 C97.5423212,10.0687067 97.2077426,10.358165 96.8204989,10.358165" id="Fill-18" fill="#FFFFFF"></path>
                                <path d="M41.9932141,11.2092267 C41.6059704,11.2092267 41.2713918,10.9197683 41.2249226,10.5263523 C40.9821207,8.46574886 41.5761526,6.77344157 41.6017107,6.70271944 C41.7453781,6.30118775 42.1879977,6.0913401 42.5915057,6.23471667 C42.9934647,6.37809324 43.2033508,6.81943028 43.0608451,7.22096197 C43.0561982,7.23487453 42.5643986,8.65820582 42.7634419,10.3462621 C42.8133964,10.769822 42.50941,11.153963 42.0846036,11.2038163 C42.0540114,11.2076809 42.0234191,11.2092267 41.9932141,11.2092267" id="Fill-20" fill="#FFFFFF"></path>
                                <path d="M27.9132642,11.0993948 C27.5260205,11.0993948 27.1914419,10.8099365 27.1449727,10.4165204 C26.9021708,8.355917 27.4962027,6.66360971 27.5217608,6.59288757 C27.6654282,6.19135588 28.1076606,5.98189469 28.5115558,6.1248848 C28.9135148,6.26826137 29.1234009,6.70959842 28.9808952,7.11113011 C28.9762483,7.12504266 28.4844487,8.54837396 28.683492,10.2364302 C28.7334465,10.6599901 28.4294601,11.0441311 28.0046538,11.0939844 C27.9740615,11.097849 27.9434692,11.0993948 27.9132642,11.0993948" id="Fill-22" fill="#FFFFFF"></path>
                            </g>
                        </g>
                    </g>
                    <g id="Upper-Body" transform="translate(0.000000, 44.000000)">
                        <g id="Upper-Body/Run">
                            <g id="hand-2" transform="translate(158.562992, 0.000092)">
                                <path d="M32.6775247,91.9217533 C27.6553328,91.7223173 10.2372613,90.769499 0.000816082598,84.0916706 C-0.12477736,84.0303354 14.2879396,52.806058 14.2562515,52.7393221 L14.2852346,52.7130907 C14.3795263,52.7566811 22.2173299,56.5050757 27.5177596,56.4726722 C30.3700833,56.4140372 35.5031839,52.5437436 40.5941625,46.613511 C47.5075985,38.6592148 51.2831305,30.7323075 53.6207143,22.4262014 C54.1412509,20.6335916 54.5516516,18.489172 54.0991287,16.5426454 C52.8783605,12.5411946 55.026588,12.0119369 57.9534949,14.217306 C59.0679918,11.2543114 60.3362923,8.07606467 61.2598872,4.77900502 C61.7560779,2.68010464 63.4683995,-0.404403248 65.5443625,1.25820668 C66.619056,2.37497136 66.3238148,5.57443464 66.1170686,7.83959602 C67.4924134,7.92060485 68.6598528,8.70600481 68.7556903,10.2613745 C68.8012903,10.5526205 68.42451,11.4225011 68.3483811,11.718762 C68.7757852,11.7372783 69.6425732,11.6859727 70.0429264,11.7997709 C71.8738856,12.3135983 72.1590793,13.9542201 71.4743052,15.5192337 C72.6471548,15.4575127 73.9664656,15.6361179 74.5820667,16.8138321 C75.2795933,17.9070656 74.7099787,18.9933555 74.0932183,19.901426 C74.4139647,20.0541855 75.3707935,20.0700015 75.6057498,20.3774494 C76.7136772,21.7681011 76.2058933,23.5715121 76.0041709,25.2510953 C69.2959353,54.0154042 57.2737445,89.827482 32.6775247,91.9217533" id="Fill-1" fill="#FFFFFF"></path>
                                <path d="M73.7682211,18.7139522 C72.6807752,19.8797079 70.6963988,21.488312 69.1838673,20.5239211 L69.1834808,20.5239211 C68.1091739,18.9577502 70.7203581,16.6898886 72.2054523,16.4248739 C73.3272916,16.1938059 74.6033209,17.5944872 73.7682211,18.7139522 M65.6135355,17.0729446 C64.4062927,15.1329759 67.9998109,12.1776964 69.8311566,12.6328889 C70.6384326,12.821138 71.242054,13.7168643 70.8834364,14.4972494 C70.2604929,15.6279013 66.8219377,18.1654067 65.6135355,17.0729446 M63.3988401,11.9886757 C63.093165,10.9455905 64.0530853,9.96499786 64.2490111,9.77829178 C65.5953728,8.443189 67.6825426,8.30277368 67.887743,10.3322379 C67.9267735,10.8017034 66.4030352,12.4079929 64.7556357,12.7127404 C63.8022849,12.8886453 63.5395048,12.4693282 63.3988401,11.9886757 M76.8570469,21.0763242 C76.7291349,20.4332683 76.1092829,19.5097676 75.2969832,19.3847825 C76.5084768,17.5003627 74.6910431,14.703629 72.5157647,14.7688219 C73.0819013,12.8581706 71.3630101,10.8695965 69.4172779,10.956006 C69.891055,9.23784711 68.5814052,7.4371364 66.9486904,7.20066775 C67.1828739,4.49342958 67.2663452,1.98832775 66.1132042,0.736162594 C64.1666991,-0.967337511 61.6923151,0.275183737 60.5152147,4.57250964 C59.7087115,7.46645388 58.545523,10.4768966 57.5740095,13.0367758 C56.3818379,12.1449071 54.0407761,11.5431271 53.2188153,13.2674581 C52.4378173,15.3081093 53.9256166,17.3283153 53.4669107,19.4195006 C51.5049479,28.9638846 47.4612255,37.357943 40.0075445,46.1115263 C35.0738476,51.8581388 30.0095335,55.7280467 27.4203764,55.702201 C23.7487971,55.6875423 18.8970258,53.8571283 16.365062,52.7835684 C15.8862611,52.5802748 15.3436974,52.8672775 15.2385854,53.3760901 C15.1597514,53.7599177 15.3614737,54.1449026 15.72241,54.2988194 C18.3869232,55.4329431 23.5173187,57.3628822 27.5177596,57.3420513 C35.8652795,57.0388468 51.672277,35.9530184 54.4504039,22.6791419 C55.0149948,20.6878675 55.4083921,18.4489376 54.9249539,16.3785832 C54.7869944,15.6664769 54.3997801,14.5871306 54.6660382,13.9571905 C54.7788791,13.7511966 54.8839912,13.7592975 55.145612,13.7500393 C57.3062056,14.0520865 58.7453132,16.2825298 59.270487,18.2618457 C59.7376946,20.0336247 59.6229216,21.9732077 59.2847854,23.8560845 C59.2090429,24.275016 59.4876671,24.6765883 59.9077288,24.7525823 C60.895473,24.8941549 60.8680356,23.7133547 60.9766257,23.033652 C64.6968966,23.8518412 64.9430598,28.8605019 64.585988,29.929047 C64.4731471,30.4085421 64.866158,30.882251 65.3577114,30.8660492 C66.529788,31.1264347 66.8903378,26.5170319 64.5314997,23.5177762 C63.5862642,22.3323469 62.190438,21.7556411 61.1192225,21.4713387 C61.2741855,18.9133882 60.6238047,16.1772183 58.8913881,14.1982882 C59.9656951,11.353335 61.2011481,8.22176485 62.0992378,5.01111462 C62.7260457,2.85396503 63.7377492,1.11690413 64.9032563,1.84675517 C65.6981662,2.71046367 65.4338403,5.6946749 65.2900841,7.30520772 C63.5329353,7.89927252 61.2154464,9.59582902 61.8213865,12.4492688 C62.1811634,13.6771314 63.086209,14.3622347 64.3034993,14.3849943 C62.9304732,16.7188203 64.5998999,19.745079 67.4580202,18.730154 C67.0642364,19.8627347 67.2744605,20.9748703 68.0403873,21.7027925 L68.0400009,21.7027925 C68.5775408,22.2231778 69.3160302,22.4866494 70.1669741,22.4654328 C69.6993801,24.159289 71.5577766,25.685727 73.12982,25.0445999 C73.8420314,24.8393775 73.624465,23.7071826 72.8763145,23.7932063 C71.8885704,23.9324643 71.4325696,23.1848685 71.9268281,22.4592607 C72.4755748,21.6622881 73.818845,20.975256 74.8332535,21.0404488 C75.4024817,21.461309 75.3205561,22.2980146 75.2958238,22.9584295 C71.7533159,46.3136626 59.5954842,74.0005542 49.1244691,83.2309324 C43.4681269,88.6596818 37.3113431,91.3565045 31.3079765,91.0297689 C27.9594621,90.8473061 11.7447691,89.7093248 2.37124739,84.5278453 C1.95311784,84.2967773 1.42833047,84.4719107 1.22892673,84.9055008 C1.04768573,85.3001296 1.20612669,85.7638087 1.58715787,85.9732744 C11.3169785,91.3233295 27.8072042,92.4821416 31.2187086,92.6680761 C56.601723,92.4397084 69.3229862,56.4671559 76.3137104,27.3768829 C76.8195621,25.2795255 77.3269596,23.2674203 76.8570469,21.0763242" id="Fill-3" fill="#009192"></path>
                            </g>
                            <g id="hand-1" transform="translate(-0.000147, 50.650428)">
                                <path d="M69.5078477,5.40012479e-13 C40.8018241,15.2431627 21.3445018,57.356185 10.3525637,78.6368206 C3.7563961,91.4080566 1.83037235,101.580452 1.1459847,104.928817 C0.830262111,106.473771 0.407495262,108.761692 1.71289418,109.817508 C2.64383142,110.570118 3.91638283,110.261513 4.36697345,109.153235 C4.36697345,109.153235 3.71697908,110.604836 3.53960249,111.863559 C3.37188694,113.054389 3.85493864,114.188513 4.70897406,114.599729 C6.02557977,115.233913 7.09138505,114.492489 7.63047075,113.238009 L7.16364958,114.654892 C6.64504528,115.999639 6.97970349,117.440053 8.38596361,118.196907 C9.43283325,118.760112 11.2112364,117.910676 11.9118546,116.552814 C12.1642008,116.063675 12.8992123,114.578898 12.8992123,114.578898 C12.482242,115.747354 12.9919582,117.669964 14.1879942,117.993614 C15.734919,118.412545 16.8505752,117.152665 17.3201014,116.118452 C19.4861053,111.347417 22.977603,106.511576 24.8796673,103.277008 C24.8796673,103.277008 26.3110461,107.008815 27.313475,108.024898 C28.2475038,108.971544 30.5298265,109.353828 31.1465869,105.936027 C31.3347838,104.894871 30.9869866,100.990245 32.1586768,96.1756195 C34.2516432,87.5755671 44.4776543,70.398222 53.7680911,58.9883202 C68.4393374,40.9696404 82.2550025,35.1219597 82.2550025,35.1219597 L69.5078477,5.40012479e-13 Z" id="Fill-6" fill="#FFFFFF"></path>
                                <path d="M81.3960206,35.6065469 C81.2155525,35.1540546 80.6857414,34.9557759 80.2529271,35.1806718 C78.7195277,35.976873 76.2126826,37.3987709 73.0403855,39.6272854 C68.173543,43.0458583 60.7685536,49.0902748 53.1301537,58.4707123 C43.3566652,70.4746789 33.3872512,87.6524098 31.3599798,95.982047 C30.498602,99.5225189 30.4383172,102.571923 30.4023781,104.39385 C30.390012,105.019547 30.3795781,105.560377 30.3378424,105.790288 C30.1330285,106.926341 29.7118074,107.647319 29.1522403,107.819753 C28.7055141,107.957853 28.1838183,107.737586 27.899011,107.449426 C27.2575183,106.799041 26.1770283,104.364919 25.6472172,102.983525 C25.5343763,102.689193 25.2623216,102.485514 24.9473719,102.459668 C24.6293306,102.433436 24.3309979,102.590053 24.1710112,102.861626 C23.599078,103.834118 22.8652258,104.979043 22.0880922,106.191475 C20.3120077,108.961591 18.1015632,112.409096 16.5716418,115.779835 C16.4885569,115.963069 15.719925,117.558943 14.4033193,117.202119 C14.1324239,117.128825 13.9426812,116.832564 13.8537997,116.662831 C13.5689924,116.119686 13.4932499,115.358975 13.6733316,114.85402 C13.6845384,114.822388 13.690335,114.789984 13.697291,114.757581 C13.8777591,114.257255 14.0848916,113.745356 14.2962751,113.237315 C14.5207975,112.699185 14.7526623,112.16144 14.9895509,111.624468 C15.4617822,110.551679 15.9498577,109.478891 16.4445026,108.415746 L16.4464348,108.411503 C16.6002385,108.079367 16.422089,107.669693 16.0306239,107.577498 C15.7674573,107.515391 15.4961755,107.658892 15.3674905,107.896132 C14.8063777,108.933431 14.2568581,109.971116 13.7169995,111.020373 C13.4457176,111.547316 13.1779138,112.077346 12.9151336,112.613161 C12.6670383,113.121202 12.4235802,113.630401 12.1924883,114.166602 C12.1828273,114.183575 12.1708476,114.197848 12.1623459,114.215593 C12.1623459,114.215593 11.4319717,115.691111 11.1811713,116.177164 C10.8778148,116.765057 10.2653052,117.273869 9.62110749,117.47292 C9.27910688,117.579003 8.97072667,117.579389 8.77596023,117.474849 C7.37781538,116.722624 7.77546355,115.352031 7.93081297,114.949687 C7.93545027,114.936957 7.94008756,114.924227 7.94433842,114.911112 L8.41115958,113.494229 C8.42004774,113.467611 8.42313927,113.440608 8.42932233,113.41322 C8.97613685,112.043399 9.58748709,110.662391 10.1922678,109.291027 L12.109017,105.039992 L12.1128814,105.03112 C12.2662986,104.689725 12.0904678,104.278509 11.709823,104.16664 C11.4114903,104.078302 11.0946084,104.242634 10.9558759,104.520764 L8.88377737,108.68269 C8.20789143,110.069098 7.53316481,111.443548 6.89824166,112.87779 C6.89167215,112.890906 6.88085179,112.900935 6.87505517,112.914823 C6.64821409,113.442923 6.31510164,113.821736 5.96189424,113.953664 C5.6952497,114.05319 5.40232715,114.022329 5.06612316,113.860697 C4.54404088,113.60957 4.23759288,112.799867 4.35352529,111.97782 C4.48993909,111.009572 4.9525094,109.874291 5.08274014,109.567229 C5.09858424,109.532511 5.11404189,109.497407 5.12834022,109.461532 C5.13916058,109.434914 5.14457076,109.407526 5.15229959,109.380523 L7.27618131,103.822931 L7.27811351,103.817916 C7.4106629,103.468421 7.21473713,103.066077 6.82713644,102.971181 C6.52339354,102.89673 6.21269468,103.074563 6.08478259,103.359637 L3.69386989,108.683461 C3.66450034,108.725508 3.63822233,108.770256 3.61658161,108.818476 C3.61310364,108.826577 3.59957819,108.856666 3.57832392,108.906042 C3.46007286,109.154855 3.26685218,109.324202 3.0288043,109.385152 C2.7625462,109.454588 2.47889825,109.380909 2.23003001,109.179929 C1.27397408,108.406874 1.71451723,106.250881 1.95101935,105.092841 L2.02405676,104.734473 C2.77220724,101.048185 4.75890228,91.2569173 11.0830152,79.0126245 C12.0151117,77.2088277 13.0074931,75.2549717 14.0617052,73.1807598 C24.8306666,51.9849906 42.6119927,16.9872444 67.3110059,2.18461544 C67.656098,1.97746428 67.8017864,1.55506106 67.6530065,1.1816489 C67.4663553,0.714497938 66.9036967,0.519305218 66.4716553,0.778147738 C41.3618549,15.8280465 23.4460472,51.0827064 12.5955466,72.4385645 C11.5436533,74.5093047 10.5524312,76.4596889 9.62226681,78.2607853 C3.19342832,90.7076002 1.17349933,100.661657 0.413369171,104.408509 L0.340718195,104.764948 C0.0342701959,106.264383 -0.536117254,109.054559 1.19552649,110.454854 C1.6870799,110.852183 2.26944703,111.052005 2.85992943,111.051234 C2.80505475,111.283073 2.75868179,111.518385 2.72583428,111.749453 C2.50788135,113.296721 3.17681134,114.773011 4.35197953,115.33853 C4.94555346,115.624761 5.54917486,115.715028 6.11994875,115.607016 C6.03802319,116.981852 6.71390913,118.229002 7.996508,118.91912 C8.33464419,119.100812 8.72533641,119.192622 9.14307952,119.192622 C9.45339193,119.192622 9.77838912,119.142088 10.1072507,119.040248 C11.001476,118.763661 11.832325,118.145293 12.3721835,117.374166 C12.3802988,117.390754 12.3888005,117.406955 12.3973022,117.423157 C12.7655808,118.126391 13.3251479,118.61013 13.9728237,118.785263 C15.8412676,119.291761 17.3765992,117.980961 18.0687156,116.457223 C19.5499454,113.19411 21.6340236,109.943727 23.4723252,107.075628 C23.9144141,106.385896 24.3429776,105.717766 24.7375342,105.08744 C25.2723691,106.309902 26.0537535,107.916963 26.7280937,108.600523 C27.3622439,109.243193 28.5080426,109.73619 29.6372242,109.387466 C30.468846,109.130938 31.5462445,108.34901 31.955486,106.081534 C32.0200217,105.722781 32.0304556,105.207025 32.0459132,104.425868 C32.0803065,102.671448 32.1382727,99.7346849 32.957142,96.3693463 C34.9368811,88.2349019 44.7590609,71.3534319 54.4057966,59.5056967 C61.9050777,50.2953777 69.1647651,44.3616733 73.9338379,41.0055929 C77.0412129,38.8195116 79.5190749,37.4157442 81.011125,36.6399882 C81.386746,36.4444097 81.5529158,35.9992468 81.3960206,35.6065469" id="Fill-8" fill="#009192"></path>
                            </g>
                            <path d="M150.159597,74.8304854 C150.052939,74.4177261 150.301421,73.9972517 150.714913,73.8907829 C151.128405,73.7831569 151.550013,74.0327413 151.656284,74.4451148 L154.673619,86.1265891 C156.91266,87.230238 160.973386,89.1335599 164.497731,90.2522534 C169.679909,91.8967328 175.788388,51.288546 175.788388,51.288546 C175.788388,51.288546 164.721867,46.1329122 149.77161,37.9359752 C136.550678,30.6864559 99.2876833,28.7684752 81.3973805,39.9997718 C73.4768784,43.5155553 62.1676719,51.2191099 58.0416375,54.8348043 C58.0416375,54.8348043 63.9391191,79.9537157 73.1321727,97.1823665 C76.5695686,95.6026942 79.690469,93.5496988 82.8778374,91.5630535 L82.8774509,91.5669111 C86.2066432,89.3121651 89.5721611,86.7056094 89.6169883,86.6708913 C89.9531922,86.408577 90.438949,86.4683692 90.7017292,86.8051345 C90.9641228,87.1407425 90.9042244,87.6256383 90.5672476,87.8875669 C90.3628201,88.0468842 85.2072286,92.1533379 81.5391272,94.5103093 L78.383447,150.425039 L169.865015,149.077013 L153.469081,87.6429973 L150.159597,74.8304854 Z" id="T-shirt" fill="#FF8A58"></path>
                            <g id="neck" transform="translate(109.064022, 17.412425)">
                                <path d="M1.50589385,0.771397002 C1.50589385,0.771397002 1.73350781,16.3362805 0.901886,18.6612342 C0.069877749,20.9865735 3.18150359,27.4699807 13.2347756,28.9717303 C23.8615266,30.5595035 24.0856626,25.1326829 24.3159816,23.0650288 C23.1651593,14.7932551 23.5152751,6.52418166 23.5152751,6.52418166" id="Fill-13" fill="#FFFFFF"></path>
                                <path d="M16.7165736,30.0265039 C15.6217852,30.0265039 14.4222713,29.929679 13.1203503,29.7348721 C5.26554321,28.5614012 2.08474436,24.5468347 1.08192903,22.8749667 C0.098049324,21.2351163 -0.241632632,19.5628625 0.173791831,18.4021216 C0.749589459,16.7923603 0.8237862,6.98334746 0.73297248,0.782699663 C0.726789419,0.356438881 1.0676307,0.00617210183 1.4946484,-1.42108547e-13 C1.91084575,0.0054005891 2.27255486,0.334065012 2.27873792,0.759940038 C2.30231085,2.36738681 2.48393829,16.533132 1.62951644,18.9209639 C1.42161099,19.5022988 1.58159771,20.7050871 2.40780934,22.0822373 C3.29817024,23.5658563 6.14624307,27.1329454 13.3491236,28.2088199 C17.2788458,28.7955553 20.0956169,28.4568612 21.7217621,27.2008385 C23.2234733,26.0408691 23.4051007,24.3242533 23.525284,23.1882008 L23.5372636,23.0767172 C22.4057633,14.8616497 22.7396487,6.57483147 22.7431267,6.4915081 C22.7612894,6.06601883 23.1156561,5.73272533 23.548084,5.75355618 C23.9743288,5.77130097 24.3055091,6.13121166 24.2873463,6.55670093 C24.2842548,6.63886703 23.9542339,14.8558633 25.0814833,22.9586758 C25.0903715,23.0219398 25.0911444,23.0863611 25.0841884,23.1500109 L25.0625477,23.3502185 C24.9327034,24.576538 24.6911776,26.8582869 22.6673841,28.4209859 C21.2835376,29.4899168 19.2895002,30.0265039 16.7165736,30.0265039" id="Fill-15" fill="#009192"></path>
                            </g>
                        </g>
                    </g>
                    <g id="Head" transform="translate(73.000000, 0.000000)">
                        <g id="Head/Curly-Hair">
                            <g id="Curly-Hair" transform="translate(-0.000043, -0.000085)">
                                <path d="M67.3298478,42.6679907 C62.1518915,24.1156337 51.1080937,23.2121413 41.9452139,24.8736387 C34.6423015,26.1981161 25.3005638,32.2192066 26.1273452,44.3329706 C21.782378,43.9483575 19.5010666,46.0041414 19.5010666,48.9243374 C19.5010666,51.8445334 20.203307,54.6691565 25.5849518,54.6691565 C26.1067824,63.5667193 31.4814436,78.9291866 53.9042522,75.6874479 C71.1242741,73.1982972 72.1182741,59.8235133 67.3298478,42.6679907" id="SKIN" fill="#FFFFFF"></path>
                                <path d="M36.2770086,0.856719656 C38.1742218,-0.607054214 41.3246041,-0.128416021 42.6875713,1.784589 C43.9298773,1.55900609 45.1993418,1.28118699 46.3539648,1.65109654 C48.8835823,1.10397091 51.4430741,2.84285533 51.8582107,5.28712165 C53.7911178,5.35599603 55.7457516,5.72938799 56.5403309,7.71629753 C59.6391123,6.54388547 63.1223801,9.19593572 62.7177189,12.4446392 C65.0669265,13.2239257 66.4182544,16.1050413 65.3994238,18.4065287 C66.762003,19.5147096 68.3651287,20.5722021 67.9918937,22.4472875 C69.673779,23.8112322 70.0512817,26.6196041 68.7468992,28.3751267 C70.3050194,29.9832272 67.9309812,31.8304533 67.7777298,33.2025237 C67.7230249,34.7073126 68.4473801,36.831197 68.2487353,37.7439759 C67.9410686,39.1644133 67.7428118,40.1004082 67.4351451,40.6158052 C67.6570686,41.280559 67.8712325,41.9681419 68.0698773,42.6746846 C70.614626,52.3906143 72.4183363,61.1148304 67.738544,68.7908404 C64.5807899,74.3147198 55.1777516,76.8576545 48.000544,76.6742474 C38.3620032,76.866167 30.3510305,72.1765188 26.9387627,64.2079861 C24.8991616,64.4563982 22.9883693,63.9406143 21.1858228,63.314554 C18.7667791,66.2076645 13.479801,64.6247148 13.1480797,60.8737701 C9.62407421,60.0472776 7.32103596,57.6053329 6.34798678,54.1898605 C3.96851683,53.3273831 2.71224359,50.2702123 3.92312339,47.9989057 L3.92312339,47.9989057 L3.91148405,47.9756896 C0.522494959,47.547353 -1.16365805,43.1498404 1.09747857,40.6274133 C1.09747857,40.5016595 1.09359878,40.3793881 1.09747857,40.2532474 C-0.310106134,38.6586895 -0.223587008,35.8959759 1.26081736,34.3830614 C-0.966565151,32.1001468 -0.110685369,27.8496694 2.79061518,26.5569206 C2.76074086,24.2496292 3.43233102,22.065383 4.91945126,20.2549156 C4.84495946,17.7789206 6.66612885,15.6693528 9.04947858,15.206192 C9.09603596,15.1295789 9.14298131,15.0533528 9.18565891,14.9767397 C8.96955508,11.4838804 11.6834622,8.46656387 15.1566425,8.14386035 C15.8297846,6.3589307 17.6649212,5.07856387 19.7107299,5.19928748 C21.0337354,3.50490056 22.8075715,2.72948347 24.9926644,2.98795584 C26.2229431,1.25835785 28.9624567,0.614885485 30.8782928,1.70062418 C32.5663857,0.620689505 34.3669922,0.0410613658 36.2770086,0.856719656 Z M51.1144566,30.8882674 C49.685921,33.8634081 47.1908336,35.5249056 42.2906697,35.0853478 C35.9068775,34.5165538 34.4434239,43.8242675 30.9558884,45.3901922 C28.9279267,46.2991017 25.5726917,45.1800866 25.5649321,45.2601821 C22.7532545,45.0500766 20.0959922,46.1644484 20.1118283,49.0567851 C20.1118283,51.539358 20.5243201,53.9607952 25.4403911,53.9607952 C25.8407846,53.9642776 26.1938447,54.2707298 26.2151835,54.6820414 C26.6753256,67.466363 36.8597518,77.7042675 53.7375768,74.7190665 C59.8373691,73.8519459 63.9864074,71.6406143 66.4349374,67.9585439 C70.82685,62.9109811 68.9129538,46.6988052 64.3057134,36.8958151 C63.5429484,36.1014382 62.4957954,34.4093729 61.526626,32.7099558 C60.2967353,33.0767699 58.7785768,32.3737096 57.533167,31.151383 C56.3727243,32.2019106 53.6522216,32.507589 51.1144566,30.8882674 Z M23.8247726,47.3191389 C24.9751278,47.2792846 24.9751278,50.4235158 23.8247726,50.3844354 C22.6744174,50.4239027 22.6744174,47.2796716 23.8247726,47.3191389 Z" id="ink" fill="#009192"></path>
                            </g>
                        </g>
                    </g>
                    <g id="Face" transform="translate(111.000000, 42.000000)">
                        <g id="Face/Open-Mouth">
                            <g id="Open-Mouth" transform="translate(0.376510, 0.388030)">
                                <path d="M17.0772595,20.749557 C18.1132839,20.7084041 21.7646102,19.8581688 22.2912873,20.7864394 C23.5450651,23.5021453 21.193855,26.5703688 18.8313429,27.6714041 C15.1091901,29.4347688 7.80653733,27.74711 8.59165538,22.4034394 C8.57809288,22.2326158 8.80940885,21.9511453 9.00229774,21.9538629 C11.6454783,21.5442747 14.4288047,21.1040158 17.0772595,20.749557 Z M14.6025177,6.88924644 C14.6134431,6.21216408 15.6310073,6.20401114 15.6645368,6.86866997 C15.8389656,8.81217585 15.8804066,10.8150817 16.2797469,12.7123876 C20.3929517,14.4866229 18.9647451,19.0526582 14.6661861,18.7047994 C13.6900628,18.6970347 13.6859187,17.1669994 14.6594049,17.1518582 C15.4742851,17.1312817 16.6949101,17.0217994 17.0531861,16.2907523 C17.4868094,15.1640935 16.3878701,14.4163523 15.4283233,14.02307 C15.0135368,13.8239053 14.8707538,13.27067 14.810476,12.9429994 C14.4951479,10.9253406 14.5539187,8.91234055 14.6025177,6.88924644 Z M3.07292344,8.94922291 C3.90588698,7.7720935 5.30772205,6.9338935 6.78791823,7.07792879 C7.54591128,7.14431702 8.32048073,7.48790526 8.88483142,8.08423467 C9.65676372,8.90535232 8.4474408,10.1193641 7.67136441,9.30523467 C7.4125467,8.99658761 7.04824288,8.7884935 6.6165033,8.7224935 C5.12952587,8.50896408 3.91831927,9.86895232 3.43760399,11.2308817 C3.3113974,11.599317 2.91092691,11.7891641 2.55830191,11.6424111 C1.55505365,11.1081994 2.68940608,9.63911702 3.07292344,8.94922291 Z M18.3429799,6.80472761 C19.579051,4.67525702 22.3932698,3.74931585 24.5881344,4.84297467 C25.2756778,5.10930408 27.2618306,6.75037467 26.0265128,7.53577467 C25.6942316,7.68330408 25.3521552,7.51170408 25.1728288,7.22052761 C24.1793757,6.02592761 22.1137316,5.76037467 20.7574816,6.51588055 C20.2684781,6.78609232 19.8299573,7.17160997 19.4174312,7.6207982 C19.1702924,7.92517467 18.7215997,7.95817467 18.441308,7.68291585 C18.2024573,7.44958644 18.1681743,7.07765702 18.3429799,6.80472761 Z M3.00296354,2.01902879 C3.71461806,1.94138173 6.55671528,1.83888762 6.26248437,3.0311582 C5.9675,3.68184056 5.04072917,3.30641703 4.49257812,3.48888762 C3.227875,3.60302879 2.02646354,4.15936997 0.780597222,4.3433935 C0.399340278,4.39425232 0.0497291667,4.11705232 -2.06057393e-13,3.72376997 C0.03390625,2.53033468 2.09917361,2.16228762 3.00296354,2.01902879 Z M21.2557151,0.0503652627 C22.2227967,-0.182187679 25.7109964,0.380753498 24.8045693,1.94417703 C24.3121752,2.45742409 23.5718887,2.02454173 22.9766457,1.94107115 C21.8705484,1.62077703 20.7501352,1.57457703 19.6293453,1.86847115 C19.340012,1.9263182 19.0597203,1.73181232 19.0035866,1.43364762 C18.9418019,0.562447617 20.5941665,0.178094674 21.2557151,0.0503652627 Z" id="face" fill="#009192"></path>
                                <path d="M6.67316441,16.7616817 C7.5942842,16.3190935 8.25922344,17.7924464 7.33998733,18.2346464 C6.4184908,18.6776229 5.7539283,17.2038817 6.67316441,16.7616817 Z M3.11297049,18.1654241 C1.64671354,17.909577 3.26479514,15.9571417 3.770375,17.2029888 C4.08721007,17.6960476 3.71574826,18.3933182 3.11297049,18.1654241 Z M22.765372,13.4821806 C23.6955335,13.4740276 23.7094727,14.9636864 22.7774276,14.9718394 C21.8472661,14.9796041 21.8337036,13.4903335 22.765372,13.4821806 Z M5.08857465,13.9955053 C5.6461441,13.7276229 6.04925174,14.6193994 5.49243576,14.8872817 C4.93448958,15.1551641 4.53175868,14.2629994 5.08857465,13.9955053 Z M7.8559651,13.0109017 C8.61659531,12.6455723 9.16549983,13.8619135 8.40637656,14.2268547 C7.64536962,14.5925723 7.0964651,13.3758429 7.8559651,13.0109017 Z M25.3362946,12.6670029 C25.2775238,11.4304735 27.3638884,12.38825 26.2487495,13.1961676 C25.8369769,13.6302147 25.2632078,13.2035441 25.3362946,12.6670029 Z M20.350795,10.8593017 C21.1189599,10.8523135 21.1298852,12.0822429 20.3605901,12.0892311 C19.5928019,12.0962194 19.5814998,10.86629 20.350795,10.8593017 Z M23.0174085,10.5487911 C23.580629,10.5437441 23.5889172,11.4460029 23.0249432,11.4506617 C22.461346,11.4557088 22.4534345,10.5538382 23.0174085,10.5487911 Z" id="dot" fill="#FFAA84"></path>
                            </g>
                        </g>
                    </g>
                </g>
            </g>
        </g>
    </g>
</svg>