<?xml version="1.0" encoding="UTF-8"?>
<svg width="93px" height="135px" viewBox="0 0 93 135" version="1.1" xmlns="http://www.w3.org/2000/svg" xmlns:xlink="http://www.w3.org/1999/xlink">
    <!-- Generator: Sketch 53.2 (72643) - https://sketchapp.com -->
    <title>Croods - Avatar and Backdrop Copy</title>
    <desc>Created with Sketch.</desc>
    <g id="Page-1" stroke="none" stroke-width="1" fill="none" fill-rule="evenodd">
        <g id="Desktop-HD-Copy-9" transform="translate(-773.000000, -1751.000000)" fill-rule="nonzero">
            <g id="Croods---Avatar-and-Backdrop-Copy" transform="translate(773.000000, 1751.000000)">
                <g id="Head">
                    <g id="Head/Plain-Hair">
                        <path d="M92.2105305,64.047364 C91.9389976,59.377124 89.5087786,57.284084 86.9998151,57.178004 C86.7791947,55.731644 86.539567,54.284604 86.2680341,52.836204 C79.5272312,17.006324 57.2289538,12.185804 38.5827932,16.824764 C26.2361946,19.895644 9.56339901,28.589444 13.0111873,61.054684 C5.57390266,59.199644 2.09081507,63.283724 2.34741361,68.994364 C2.57821653,74.121564 6.43534062,77.860884 14.0212895,78.268204 C16.2302092,95.654444 32.4787348,122.672204 63.899837,116.487604 C82.2378078,112.878164 89.0906181,93.128244 88.2583699,70.287724 C91.646421,69.719244 92.3815962,66.975444 92.2105305,64.047364" id="SKIN" fill="#FFFFFF"></path>
                        <path d="M32.4763467,0.538696 C77.1435,-4.493304 88.7250547,26.909096 88.2362956,45.432296 C88.1405803,48.920696 87.082281,55.074696 87.2248358,55.992696 C92.1260036,56.183096 92.4789964,61.983496 92.5869307,63.914696 C92.7362737,66.430696 92.5054708,69.959896 88.8065146,71.598696 C88.7589964,71.619096 88.7040109,71.632696 88.6497044,71.645616 C89.1045219,93.263496 82.7778066,113.908296 63.1873905,117.763896 C59.9962007,118.395616 56.9014051,118.709096 53.9009672,118.709096 C45.4834489,118.709096 37.8194343,116.240696 31.0372226,111.337896 C23.8015511,106.106656 18.8257117,98.973456 15.6942591,92.023176 C14.4126241,91.872216 11.5330182,90.020576 7.34937591,78.687016 C7.3215438,78.612216 7.29778467,78.534016 7.26995255,78.459216 C2.84193066,76.820416 0.217565693,73.508136 0.0145948905,69.001096 C-0.140857664,65.573896 0.93169708,62.738296 3.03539781,61.011096 C3.08223723,60.973016 3.13586496,60.935616 3.18406204,60.898216 C1.69809854,49.984896 0.137463504,36.604536 3.49293066,26.673136 C8.15379197,12.877976 18.9818431,2.055096 32.4763467,0.538696 Z M73.6882445,33.735616 C67.9792664,31.580696 68.1971715,37.449096 57.5999234,39.924296 C47.4860036,42.283896 44.4312591,35.395496 34.1462737,35.817096 C20.1555438,36.395096 22.1580985,53.177496 17.0057628,59.358696 C15.5537409,61.092696 14.2571715,61.782216 12.9762153,62.252096 C12.6184708,62.383336 12.0781204,62.411896 11.7047628,62.316696 C10.6050547,62.044696 9.58680657,61.908696 8.65680657,61.908696 C7.06155109,61.908696 5.73782847,62.309896 4.75963139,63.112296 C3.33476277,64.281896 2.6145219,66.328696 2.72313504,68.878696 C2.94104015,73.604696 6.72892336,76.508296 13.1167336,76.855096 C13.7684124,76.889096 14.3046898,77.385496 14.392938,78.038296 C15.5469526,87.136696 21.0183394,100.736696 32.6256898,109.134696 C41.1925511,115.322696 51.3010401,117.335496 62.6572226,115.098296 C77.3274635,112.208296 91.7044489,94.222296 83.9521861,53.034696 C83.1104343,48.553496 82.003938,44.473496 80.6401642,40.801496 C78.6579745,36.592296 76.403573,34.763096 73.6882445,33.735616 Z M9.27834526,65.19262 C10.1357102,65.19262 10.8294766,66.41458 10.8294766,67.92146 C10.8294766,69.42834 10.1357102,70.6503 9.27834526,70.6503 C8.42165912,70.6503 7.7278927,69.42834 7.7278927,67.92146 C7.7278927,66.41458 8.42165912,65.19262 9.27834526,65.19262 Z M87.6314562,58.746696 C88.0665876,61.997096 88.3781715,65.301896 88.5478796,68.599896 C89.6075365,67.749896 90.0141569,66.362696 89.8790693,64.071096 C89.6279015,59.807496 88.5281934,58.930296 87.6314562,58.746696 Z" id="Combined-Shape" fill="#009192"></path>
                    </g>
                </g>
                <g id="Face" transform="translate(32.000000, 54.000000)" fill="#009192">
                    <g id="Face/Normal-Face-2">
                        <path d="M16.8377301,40.0109618 C17.5502927,39.3702412 18.6503895,39.4255353 19.294196,40.1346824 C19.3323938,40.1761529 19.3692026,40.2217706 19.4025389,40.2666971 C19.4324026,40.3060941 19.5636642,40.4588441 19.6699235,40.5618294 C19.7789609,40.6779471 19.9053609,40.7899176 20.0262048,40.9046529 C20.2783103,41.1292853 20.5456949,41.3463147 20.8255807,41.5509029 C21.3839631,41.9621529 21.9944334,42.3194912 22.634073,42.6208441 C23.9084905,43.2415206 25.3155587,43.6140647 26.7642971,43.7785647 C29.6958048,44.1538735 32.810662,43.8559765 35.4858971,42.5344471 L35.4858971,42.5344471 L35.4970092,42.5289176 C35.9574664,42.3008294 36.5165433,42.4881382 36.7457301,42.9470794 C36.9582488,43.3742265 36.8061521,43.8891529 36.4109785,44.1414324 C34.9559895,45.0634618 33.3364026,45.7152412 31.6640334,46.1175059 C29.9847191,46.5073294 28.2755411,46.7070794 26.5378884,46.6206824 C24.7919015,46.5342853 23.0257741,46.1893882 21.3659059,45.5106529 C20.5338884,45.1802706 19.7261785,44.7752412 18.9601389,44.2851971 C18.5767719,44.0412118 18.2038224,43.7764912 17.8385125,43.4910353 C17.6579411,43.3424324 17.4766752,43.1986676 17.2988818,43.0348588 C17.1113653,42.8669029 16.9648246,42.7314324 16.7293873,42.47155 L16.7293873,42.47155 L16.7141081,42.4549618 C16.0703015,41.7458147 16.1251675,40.6516824 16.8377301,40.0109618 Z M28.1612949,12.1421735 C28.6731455,12.1539235 29.0849873,12.5541147 29.1169345,13.0538353 L29.1169345,13.0538353 L29.117629,13.0669676 C29.2544466,15.3063794 29.4120993,17.5630706 29.6225345,19.7810559 C29.7364334,20.8821 29.8649169,22.0031882 30.0767411,23.0067765 C30.1156334,23.1857912 30.1600818,23.3530559 30.2052246,23.4995853 C30.7358268,23.7159235 31.2671235,23.9661294 31.7942532,24.27785 C32.3568026,24.6227471 32.9297697,25.0353794 33.4235631,25.6083647 C33.9256905,26.1661441 34.3180862,26.9146882 34.4903235,27.6812029 C34.6604774,28.4594676 34.6632554,29.1492618 34.5431059,29.9033353 C34.422262,30.6484235 34.0965389,31.4322176 33.5735763,32.0522029 C33.0561697,32.6770265 32.3908334,33.1193794 31.7275807,33.4020706 C31.0580774,33.6847618 30.3878796,33.8243794 29.7336554,33.9017912 C29.0794312,33.9743647 28.4377081,33.9792029 27.8098752,33.9328941 C27.5174884,33.9135412 27.1327323,33.8769088 26.8528466,33.8098647 C26.5403191,33.7393647 26.3083543,33.6743941 25.9090136,33.5043647 C25.4159147,33.2949382 25.1867279,32.7274824 25.3978576,32.2367471 C25.5214796,31.9478353 25.770807,31.7501588 26.0548598,31.6789676 L26.0548598,31.6789676 L26.4319763,31.5870412 C26.585462,31.5497176 26.9188246,31.5614676 27.1688466,31.5746 C27.4515103,31.5932618 27.6334708,31.6070853 27.909884,31.6077765 C28.418262,31.6126147 28.9183059,31.5746 29.3912642,31.49235 C30.3385697,31.3264676 31.1518356,30.9373353 31.5345081,30.4196441 C31.7317477,30.1604529 31.8512026,29.8584088 31.898429,29.4851735 C31.9491279,29.1223059 31.9213477,28.6564529 31.8255059,28.3350559 C31.6525741,27.6908794 31.1261389,27.1496882 30.3191235,26.6126441 C29.9246444,26.3493059 29.4815499,26.1046294 29.0072026,25.8882912 L29.0072026,25.8882912 L28.8314927,25.8046588 L28.7224554,25.7535118 C28.614807,25.7016735 28.4779895,25.6125118 28.4161785,25.5586 C28.3495059,25.5019235 28.2821389,25.4383353 28.2251895,25.3754382 L28.2251895,25.3754382 L28.110596,25.2302912 C27.8640466,24.86535 27.8286268,24.6835706 27.7550092,24.4803647 C27.6404158,24.1029824 27.5834664,23.7891882 27.532073,23.4774676 C27.3431675,22.2499382 27.282051,21.1108794 27.223018,19.9552324 C27.1105081,17.6543059 27.1070356,15.3837912 27.159818,13.0946147 C27.1723191,12.5561882 27.6202752,12.1297324 28.1612949,12.1421735 Z M4.68846769,15.7468662 C4.97182593,13.7963662 6.63794462,12.4216162 8.40962813,12.6766603 C10.1813116,12.9317044 11.3876677,14.7197779 11.1043095,16.6702779 C10.8209512,18.6214691 9.15483253,19.9955279 7.38245451,19.741175 C5.61146549,19.4861309 4.40510945,17.6973662 4.68846769,15.7468662 Z M41.6437996,11.4833441 C43.4154831,11.2283 45.0809073,12.60305 45.3642655,14.55355 C45.6483182,16.5047412 44.4419622,18.2928147 42.6709732,18.5478588 C40.8985952,18.8029029 39.2324765,17.4281529 38.9491182,15.4776529 C38.66576,13.5271529 39.8714215,11.7383882 41.6437996,11.4833441 Z M14.0640141,1.77210735 C15.2106426,1.66843088 16.2253152,2.50959265 16.329491,3.65141618 C16.4336668,4.79254853 15.5884536,5.80235735 14.4411305,5.90534265 C14.3939042,5.91018088 14.3459833,5.91294559 14.2987569,5.91363676 L14.2987569,5.91363676 L14.2661152,5.91432794 C11.8152053,5.96201912 9.52472615,5.64753382 7.46412835,5.65375441 C6.43278769,5.65513676 5.45353495,5.75328382 4.51317451,6.00556324 C3.57350857,6.26129853 2.66926242,6.63798971 1.69000967,7.05269559 L1.69000967,7.05269559 L1.64000527,7.07343088 C1.04134154,7.32778382 0.34891956,7.04993088 0.094036044,6.45413676 C-0.0927859341,6.01731324 0.00861186813,5.53003382 0.311416264,5.20103382 C1.16565802,4.27693088 2.27825582,3.55257794 3.48947341,3.06875441 C4.69860747,2.57318088 5.98274813,2.28841618 7.21896791,2.13359265 C8.45727121,1.97876912 9.65043165,1.958725 10.7880316,1.91794559 C11.9263262,1.88131324 13.0139218,1.86748971 14.0640141,1.77210735 Z M37.0003358,0.0922029412 C38.2351666,-0.0266794118 39.5151402,-0.0398117647 40.8215051,0.106717647 C42.1216193,0.257394118 43.4682655,0.578791176 44.666982,1.20776176 C45.8712545,1.8236 46.8984281,2.69379118 47.6901644,3.67180588 C48.148538,4.23787941 48.0582523,5.06729118 47.4894523,5.52346765 C47.0032985,5.91329118 46.3254611,5.90499706 45.8525029,5.54282059 L45.8525029,5.54282059 L45.8337512,5.52830588 C44.1919402,4.27036471 42.5279051,3.52320294 40.5763446,3.48657059 C39.6068149,3.4686 38.5976985,3.63517353 37.5809424,3.86257059 C36.5634919,4.09135 35.5363182,4.40929118 34.5167842,4.78390882 C33.3882127,5.19792353 32.1360193,4.62355588 31.719316,3.50039412 C31.3033073,2.37723235 31.8804413,1.13035 33.0090127,0.716335294 C33.1291622,0.672791176 33.2625073,0.637541176 33.3833512,0.615423529 C34.5667886,0.406688235 35.7655051,0.212467647 37.0003358,0.0922029412 Z" id="Normal-face-2"></path>
                    </g>
                </g>
                <g id="Facial-Hair" transform="translate(15.000000, 78.000000)" fill="#009192">
                    <g id="Facial-Hair/Beard-Moustache">
                        <path d="M48.5842062,26.4785641 C46.5297372,26.9299706 45.3393035,29.4291716 39.5901973,29.8009989 C33.3252593,30.2057556 30.074292,28.3652104 29.9823009,26.0690738 C29.7765133,20.8689796 39.3198115,17.3366887 48.380531,17.1507064 C60.0000354,17.5877064 61.6517195,18.2064353 62.4884982,21.2592611 C63.556277,25.1559016 61.9399584,27.2606363 59.4780027,27.8718874 C52.8192062,29.5252155 51.6567106,25.8028262 48.5842062,26.4785641 Z M67.3238257,17.0346991 C66.3201,15.1055876 62.8612327,10.7438199 55.5550912,9.59472261 C50.8907991,8.8613584 48.1351531,11.3928027 46.6428522,11.4195578 C45.3018257,11.4435688 39.8308053,8.13492308 30.6637168,13.0345369 C26.4668761,15.2771633 25.2123894,19.2087912 23.8495575,23.3249608 C22.8063097,22.844741 22.0294956,24.2366923 15.6725664,21.266876 C9.31563717,18.2970597 2.77329469,6.95625793 0.918480531,5.37564882 C-0.495457522,4.17166923 -0.807409735,16.0833151 4.08849558,29.4992151 C7.8146501,39.7097305 15.3120292,48.7717383 23.7111619,52.7555044 C40.2941,60.6215044 64.6874274,57.0864008 71.6787549,45.9898937 C80.2761796,32.3427336 76.1712619,4.8020606 73.8599673,0.685959655 C71.5486726,-3.43014129 73.0708876,16.1161072 67.3238257,17.0346991 Z" id="Beard-Moustache"></path>
                    </g>
                </g>
            </g>
        </g>
    </g>
</svg>