<?xml version="1.0" encoding="UTF-8"?>
<svg width="106px" height="115px" viewBox="0 0 106 115" version="1.1" xmlns="http://www.w3.org/2000/svg" xmlns:xlink="http://www.w3.org/1999/xlink">
    <!-- Generator: Sketch 53.2 (72643) - https://sketchapp.com -->
    <title>Croods - Avatar and Backdrop(2) Copy</title>
    <desc>Created with Sketch.</desc>
    <g id="Page-1" stroke="none" stroke-width="1" fill="none" fill-rule="evenodd">
        <g id="Desktop-HD-Copy-9" transform="translate(-777.000000, -2209.000000)" fill-rule="nonzero">
            <g id="Croods---Avatar-and-Backdrop(2)-Copy" transform="translate(777.000000, 2209.000000)">
                <g id="Head">
                    <g id="Head/Curly-Hair-Long">
                        <g id="Curly-Hair-Long" transform="translate(0.118714, 0.292718)">
                            <path d="M95.1029812,48.1404098 C91.6394815,19.0360865 71.4210062,17.2098984 57.7806969,19.7230281 C46.9102634,21.72534 33.0037087,30.8305345 34.2344437,49.1491725 C28.7917189,47.3592624 24.8170974,50.7114673 24.1107676,55.0689239 C23.3091438,60.0138502 25.8711056,68.3782713 33.9295033,66.9376833 C34.7057153,80.3927279 46.7843599,99.926679 73.1472694,97.9717626 C93.1098951,96.4913858 98.255765,74.6315464 95.1029812,48.1404098" id="SKIN" fill="#FFFFFF"></path>
                            <path d="M44.9763172,6.24990306 C46.226111,-0.804998943 63.3668823,-2.61421824 67.1168412,4.62148869 C85.2290328,-2.30936596 98.1762957,15.0122119 94.9709558,27.4151943 C103.184134,30.6708528 102.726146,47.6700245 100.813915,47.6700245 C106.354821,49.0889627 105.370695,59.3328184 101.865613,59.6558097 C107.281771,64.1747621 106.435677,79.7292499 101.515625,81.2459047 C116.203589,111.332075 77.0279831,120.016561 79.4871429,97.8957543 C69.7342466,100.888105 57.5822547,98.9794135 49.3754296,93.9326746 C49.6064451,97.6078708 48.0054894,101.759628 47.1478628,104.081154 C42.041612,117.903367 10.8545215,117.903367 3.92405691,105.030526 C-3.00640765,92.1576854 -0.110975066,82.1329604 7.57202246,77.2167054 C-3.14363085,69.4333176 -1.12166782,52.022215 9.26652105,49.9953277 C4.74381536,37.6198464 8.64277924,24.3947576 22.1739338,25.4983112 C22.1052066,10.7039061 34.3317012,4.18030132 44.9763172,6.24990306 Z M63.0469259,26.1261548 C63.0469259,28.5099709 56.5045675,36.6649157 46.8793073,35.7977543 C46.8793073,35.7977543 48.5634102,40.6168779 45.1946269,46.2393838 C38.050473,55.583311 33.8858413,47.2926162 28.1647428,50.6968975 C23.8493736,53.449345 24.4188267,60.5282373 27.7581556,64.1654 C29.2689969,65.6785439 31.2794091,66.2232992 33.7281733,65.7850374 C34.0510174,65.7276948 34.3865674,65.8119534 34.6464598,66.0196742 C35.9886598,72.529821 37.7432224,81.4846374 45.9783469,88.5453907 C55.691393,97.5072285 77.6436393,101.68037 87.5114658,89.5488871 C94.6475341,81.7848086 96.6741175,61.0320334 93.1118587,43.1861799 C91.2469862,38.759678 87.3393592,36.5051754 86.6064626,32.9001948 C78.4631668,35.6239709 67.4229367,35.1359732 63.0469259,26.1261548 Z M30.6758234,54.0200215 C33.3885227,52.2049509 34.8525834,55.2429414 32.0977237,57.3915355 C31.4035222,57.93278 30.7849782,59.6249734 29.9204028,59.4681588 C27.858012,59.0936762 29.2608536,55.087297 30.6758234,54.0200215 Z" id="Combined-Shape" fill="#009192"></path>
                        </g>
                    </g>
                </g>
                <g id="Face" transform="translate(47.000000, 47.000000)" fill="#009192">
                    <g id="Face/Normal-Face">
                        <path d="M33.2837143,30.2070429 C33.4534286,29.7636571 33.9414286,29.5463571 34.3734286,29.7203143 C34.7757143,29.8819714 34.9865714,30.3294571 34.8774286,30.7476571 C34.2317143,33.1895 32.9094286,35.5393857 30.9562857,37.2684143 C29.0225714,39.0156 26.518,40.1079571 23.9637143,40.4131143 C22.6865714,40.5847286 21.3997143,40.5712571 20.1368571,40.4359571 C18.8671429,40.2977286 17.6482857,40.0370857 16.4111429,39.6452429 C15.186,39.2498857 14.0042857,38.6969714 12.9197143,37.9993857 C11.8265714,37.3152714 10.8197143,36.4976143 9.93628571,35.5686714 C9.33171429,34.9325857 9.34428571,33.9157857 9.96428571,33.2955143 C10.5437143,32.7174143 11.4482857,32.6904714 12.0574286,33.2076571 L12.0574286,33.2076571 L12.0688571,33.2176143 C13.71,34.6204 15.4934286,35.7830429 17.4568571,36.5409571 C19.4288571,37.2936 21.6025714,37.6907143 23.6797143,37.5390143 C25.7614286,37.3855571 27.7974286,36.6961714 29.478,35.4058429 C31.1574286,34.1213714 32.4734286,32.2986286 33.2837143,30.2070429 Z M20.9492012,9.53366171 L21.0209714,9.54187143 C21.3615429,9.59985714 21.5975429,9.91555714 21.5712571,10.2617143 L21.5712571,10.2617143 L21.5706857,10.2763571 C21.4369714,11.9702429 21.4878286,13.7145 21.6432571,15.4206857 C21.7244,16.2729 21.8364,17.1221857 22.0032571,17.9316429 C22.0872571,18.3346143 22.1861143,18.7299714 22.3066857,19.0790571 C22.3678286,19.2477429 22.4335429,19.4117429 22.4986857,19.5277143 C22.5055429,19.5429429 22.5146857,19.5546571 22.5232571,19.5675429 C23.4952571,20.0191286 24.4786857,20.5398286 25.3861143,21.5004 C25.8552571,21.9906429 26.2501143,22.7040429 26.4032571,23.4350143 C26.4895429,23.8022571 26.5049714,24.1536857 26.5101143,24.4998429 C26.5066857,24.8547857 26.4644,25.2390143 26.3404,25.6337857 C26.2181143,26.0268 26.0021143,26.4262571 25.7112571,26.7489857 C25.4192571,27.0705429 25.0712571,27.3036571 24.7329714,27.4641429 C24.0501143,27.7810143 23.4095429,27.8513 22.8141143,27.8817571 C22.2169714,27.9063571 21.6518286,27.8729714 21.1021143,27.8214286 L21.1021143,27.8214286 L20.6924,27.7792571 C20.6746857,27.7810143 20.4221143,27.7464571 20.3632571,27.7236143 C20.2746857,27.7007714 20.2066857,27.6808571 20.1358286,27.6556714 C19.8604,27.5619571 19.6181143,27.4495 19.3741143,27.3019 C18.9724,27.0594143 18.8386857,26.5299286 19.0752571,26.1187571 C19.2392571,25.8335143 19.5375429,25.6812286 19.8381143,25.6935286 L19.8381143,25.6935286 L19.8632571,25.6952857 C20.1226857,25.707 20.3849714,25.7509286 20.6186857,25.7977857 L20.6186857,25.7977857 L20.7752571,25.8276571 C20.8449714,25.8370286 20.7232571,25.8194571 20.8369714,25.8282429 L20.8369714,25.8282429 L21.2164,25.8405429 C21.7186857,25.8534286 22.2112571,25.8452286 22.6661143,25.7931 C23.1186857,25.7421429 23.5381143,25.6361286 23.8141143,25.4920429 C24.0918286,25.3339 24.1752571,25.2114857 24.2449714,24.9731 C24.3135429,24.7481857 24.2975429,24.2813714 24.2164,23.9639143 C24.1324,23.6411857 23.9832571,23.3817143 23.7204,23.0958857 C23.1946857,22.5283286 22.3152571,22.0304714 21.4484,21.5355429 L21.4484,21.5355429 L21.3461143,21.4787286 C20.8306857,21.0974286 20.7164,20.7629857 20.5735429,20.4841857 C20.4518286,20.2018714 20.3792571,19.9476714 20.3106857,19.6969857 C20.1861143,19.2003 20.1129714,18.7299714 20.0546857,18.2637429 C19.9421143,17.3336286 19.8998286,16.4240143 19.8884,15.5161571 C19.8741143,13.7016143 19.9678286,11.9058143 20.2604,10.0994714 C20.3198286,9.72988571 20.6604,9.48037143 21.0209714,9.54187143 L20.9492012,9.53366171 Z M5.53451429,8.56162 C6.71222857,8.41636286 7.95851429,8.30156286 9.20022857,8.64010571 C10.4225143,8.97982 11.6299429,9.74066286 12.2968,10.8734343 C12.5482286,11.2992486 12.4145143,11.8533343 11.9990857,12.1104629 C11.7522286,12.2633343 11.4619429,12.2768057 11.2145143,12.1748914 L11.2145143,12.1748914 L11.1328,12.1403343 C10.5539429,11.8960914 10.0230857,11.71452 9.48594286,11.5762914 C9.48822857,11.5862486 9.49108571,11.5938629 9.4928,11.60382 C9.57337143,12.0155771 9.2168,12.8918057 8.95222857,13.2742771 C8.06937143,14.5499629 6.06765714,14.3396914 5.43965714,12.94042 C5.17451429,12.3482629 5.21337143,11.7982771 5.43394286,11.33732 C5.11794286,11.4040914 4.80365714,11.4831629 4.49565714,11.5651629 L4.49565714,11.5651629 L3.8368,11.7367771 C3.65908571,11.7836343 3.52194286,11.8099914 3.35337143,11.8966771 C3.0248,12.04252 2.67051429,12.30902 2.30765714,12.64112 C2.12137143,12.8027771 1.94194286,12.9907914 1.73451429,13.18232 C1.52251429,13.37502 1.33165714,13.5870486 0.997942857,13.8201629 C0.705942857,14.0234057 0.3088,13.9455057 0.110514286,13.6467914 C-0.00548571429,13.4716629 -0.0277714286,13.26022 0.0322285714,13.0739629 L0.0322285714,13.0739629 L0.110514286,12.8349914 C0.159657143,12.6838771 0.272228571,12.4396343 0.373942857,12.1889486 C0.4768,11.9335771 0.603657143,11.6723486 0.746514286,11.4017486 C1.03965714,10.8705057 1.41451429,10.3134914 1.97337143,9.84140571 C2.23965714,9.60770571 2.58651429,9.39216286 2.90594286,9.23577714 C3.19737143,9.09696286 3.48194286,8.98567714 3.77222857,8.90016286 C4.35222857,8.72679143 4.94308571,8.64244857 5.53451429,8.56162 Z M34.8059286,8.60338143 L35.0402857,8.60396714 C35.2122857,8.62095286 35.3877143,8.62856714 35.5545714,8.65961 C36.2311429,8.76269571 36.854,8.99991 37.4042857,9.31736714 C38.4957143,9.96341 39.3642857,10.9040671 39.8242857,12.0596814 C39.9905714,12.4772957 39.7945714,12.9540671 39.3871429,13.12451 C39.1014286,13.2439957 38.7882857,13.1813243 38.5688571,12.9897957 L38.5688571,12.9897957 L38.5094286,12.9376671 C37.8454286,12.3548814 37.098,11.9097386 36.3471429,11.6807243 C36.0905714,11.5963814 35.8402857,11.5565529 35.5974286,11.5313671 C35.6694286,11.7457386 35.7117143,11.9776814 35.7122857,12.2236814 C35.7145714,13.0067814 34.862,13.80101 34.0928571,13.98551 C32.8688571,14.2789529 31.8014286,13.4794529 31.586,12.4632386 C31.5848571,12.4638243 31.5842857,12.46441 31.5831429,12.46441 C31.1511429,12.64481 30.7185714,12.8462957 30.2791429,13.0512957 L30.2791429,13.0512957 L29.6105714,13.3675814 L29.2551429,13.5339243 C29.1054286,13.5936671 29.05,13.6399386 28.6608571,13.7752386 C27.9728571,13.9919529 27.2431429,13.5965957 27.0317143,12.8913957 C26.8202857,12.1861957 27.2065714,11.4388243 27.8945714,11.22211 C27.742,11.2625243 27.9077143,11.18111 27.9831429,11.1190243 L27.9831429,11.1190243 L28.2957143,10.9099243 C28.5111429,10.7658386 28.7391429,10.6252671 28.9694286,10.4864529 C29.4311429,10.2111671 29.9082857,9.94876714 30.4094286,9.71565286 C31.4042857,9.24532429 32.4848571,8.86812429 33.6625714,8.68713857 C33.9665714,8.65961 34.2562857,8.60631 34.5728571,8.60806714 C34.7288571,8.60396714 34.8825714,8.60103857 35.0402857,8.60396714 L34.8059286,8.60338143 Z M37.0637714,0.602582857 C37.6363429,0.497154286 38.1843429,0.88724 38.2872,1.47471143 C38.3534857,1.84722571 38.2180571,2.21505429 37.9677714,2.45754 C37.3500571,3.04501143 36.7152,3.39058286 36.0043429,3.67816857 C35.2997714,3.95345429 34.5489143,4.09871143 33.7934857,4.20062571 C33.0369143,4.29551143 32.2569143,4.27735429 31.4929143,4.16489714 C30.7266286,4.06005429 29.9786286,3.79238286 29.2980571,3.44212571 C28.8986286,3.23595429 28.7369143,2.73751143 28.9374857,2.32809714 C29.0872,2.02118286 29.3980571,1.85132571 29.7123429,1.87124 L29.7123429,1.87124 L29.8066286,1.87826857 C30.4300571,1.91868286 31.0192,1.97315429 31.6186286,1.91575429 C32.2134857,1.86889714 32.8032,1.79685429 33.3883429,1.64691143 C33.9769143,1.52039714 34.5500571,1.31715429 35.1306286,1.13031143 C35.7026286,0.951082857 36.3237714,0.73964 36.8900571,0.634797143 L36.8900571,0.634797143 L37.0637714,0.602582857 Z M4.12491509,0.661223576 L4.21108571,0.668065714 L4.3608,0.686808571 C4.95108571,0.761194286 5.59337143,0.938665714 6.19222857,1.09622286 C6.79908571,1.26080857 7.40022857,1.44882286 8.01451429,1.57065143 C8.62594286,1.71298 9.24365714,1.80435143 9.8648,1.87170857 C10.4910857,1.95488 11.1110857,1.94726571 11.7585143,1.96776571 L11.7585143,1.96776571 L11.8299429,1.97010857 C12.2670857,1.98416571 12.6099429,2.35843714 12.5968,2.80592286 C12.5859429,3.14622286 12.3722286,3.43146571 12.0785143,3.54216571 C11.3785143,3.80690857 10.6362286,4.00253714 9.88822857,4.06989429 C9.1408,4.14896571 8.38594286,4.14779429 7.64422857,4.06696571 C6.90422857,3.97618 6.16422857,3.85845143 5.45794286,3.62182286 C4.74422857,3.37523714 4.09508571,3.07066571 3.44651429,2.54352286 C3.00137143,2.18155143 2.92651429,1.51676571 3.28022857,1.06049429 C3.51108571,0.76178 3.86708571,0.625894286 4.21108571,0.668065714 L4.12491509,0.661223576 Z" id="Normal-Face"></path>
                    </g>
                </g>
            </g>
        </g>
    </g>
</svg>