<?xml version="1.0" encoding="UTF-8"?>
<svg width="110px" height="119px" viewBox="0 0 110 119" version="1.1" xmlns="http://www.w3.org/2000/svg" xmlns:xlink="http://www.w3.org/1999/xlink">
    <!-- Generator: Sketch 53.2 (72643) - https://sketchapp.com -->
    <title>Croods - Avatar and Backdrop(3) Copy</title>
    <desc>Created with Sketch.</desc>
    <g id="Page-1" stroke="none" stroke-width="1" fill="none" fill-rule="evenodd">
        <g id="Desktop-HD-Copy-9" transform="translate(-97.000000, -2211.000000)" fill-rule="nonzero">
            <g id="Croods---Avatar-and-Backdrop(3)-Copy" transform="translate(97.000000, 2211.000000)">
                <g id="Head">
                    <g id="Head/Curly-Hair">
                        <g id="Curly-Hair" transform="translate(-0.000067, -0.000132)">
                            <path d="M104.313849,65.9414401 C96.291663,37.2696157 79.1815537,35.8733092 64.9855427,38.4410781 C53.6711714,40.4879977 39.1980566,49.7933193 40.4789856,68.5145909 C33.7473463,67.9201888 30.21292,71.0973094 30.21292,75.6103396 C30.21292,80.1233697 31.3008982,84.4886964 39.6386577,84.4886964 C40.4471277,98.2394753 48.7740676,121.98147 83.5136302,116.97151 C110.192537,113.124641 111.732537,92.4545205 104.313849,65.9414401" id="SKIN" fill="#FFFFFF"></path>
                            <path d="M56.2038162,1.32402129 C59.1431605,-0.938174695 64.0240345,-0.198461125 66.1356739,2.75800118 C68.0603733,2.40937304 70.0271493,1.98001626 71.8160017,2.55169465 C75.7351274,1.70613686 79.7005373,4.3935037 80.3437067,8.17100619 C83.3383515,8.2774484 86.3666575,8.8545087 87.5976957,11.9251871 C92.3986247,10.1132775 97.7952367,14.2119007 97.1682968,19.2326243 C100.807914,20.436976 102.901521,24.8896092 101.323051,28.4464534 C103.434089,30.1590966 105.917805,31.7934032 105.339554,34.6912625 C107.945291,36.799177 108.530155,41.1393881 106.50928,43.8524685 C108.92327,46.3377147 105.245182,49.1925188 105.00775,51.3129911 C104.922996,53.638574 106.045237,56.9209409 105.737477,58.3315992 C105.26081,60.5268205 104.953652,61.9733582 104.476985,62.7698808 C104.82081,63.7972275 105.152614,64.8598557 105.460373,65.9517853 C109.402942,80.967313 112.197423,94.4501924 104.94704,106.313117 C100.054745,114.850022 85.4866575,118.780011 74.36704,118.496564 C59.4340894,118.793167 47.0227233,111.545529 41.7361113,99.230524 C38.5761659,99.6144336 35.6157834,98.817313 32.8231058,97.8497652 C29.0752916,102.320936 20.8841987,99.8745592 20.3702643,94.0776446 C14.9105375,92.8003381 11.3424501,89.0264235 9.83490909,83.7479662 C6.14840636,82.4150466 4.20206754,77.690328 6.07807849,74.180127 L6.07807849,74.180127 L6.0600457,74.1442476 C0.809499232,73.4822728 -1.80285049,66.686117 1.7003189,62.7878205 C1.7003189,62.5934738 1.69430798,62.4045089 1.7003189,62.2095642 C-0.480446122,59.7452474 -0.346402406,55.4755992 1.95337901,53.1374585 C-1.4974953,49.6093177 -0.171484374,43.0403982 4.3234883,41.0425137 C4.27720415,37.4766997 5.31769595,34.1010464 7.62168505,31.3030514 C7.50627521,27.4765137 10.3278053,24.2162725 14.0203189,23.5004786 C14.0924501,23.3820765 14.1651823,23.2642725 14.2313025,23.1458705 C13.8964938,17.7478152 18.1011386,13.0846896 23.4821222,12.585966 C24.5250184,9.82743835 27.3681878,7.84868961 30.5377506,8.03526247 C32.5874774,5.4166645 35.3356741,4.21829264 38.7210293,4.61774993 C40.6270949,1.94473485 44.8714118,0.950277567 47.8396085,2.62823737 C50.4549637,0.959247416 53.2446359,0.0634584735 56.2038162,1.32402129 Z M79.1914116,47.7364132 C76.9781875,52.334358 73.1125591,54.9021268 65.5207558,54.2228102 C55.6303736,53.343765 53.3630512,67.7284135 47.9598271,70.1484788 C44.8179146,71.5531572 39.6196632,69.8237703 39.6076413,69.9475542 C35.2515211,69.6228456 31.1346359,71.3450567 31.1591706,75.8150316 C31.1591706,79.6517351 31.7982424,83.3939562 39.4146905,83.3939562 C40.0350184,83.3993381 40.5820129,83.8729461 40.615073,84.5086094 C41.3279692,104.266197 57.1066577,120.088413 83.2554007,115.474921 C92.7057832,114.134826 99.1338706,110.717313 102.927368,105.026841 C109.731739,97.2260617 106.766548,72.1708808 99.6285701,57.0208052 C98.4468214,55.7931318 96.8244717,53.1781218 95.3229416,50.5517499 C93.4174772,51.1186444 91.0654007,50.0320966 89.1358925,48.1430464 C87.3380236,49.7665891 83.1231602,50.2390012 79.1914116,47.7364132 Z M36.9116195,73.1295783 C38.6938599,73.0679853 38.6938599,77.9272517 36.9116195,77.8668547 C35.129379,77.9278496 35.129379,73.0685833 36.9116195,73.1295783 Z" id="ink" fill="#009192"></path>
                        </g>
                    </g>
                </g>
                <g id="Face" transform="translate(54.000000, 68.000000)" fill="#009192">
                    <g id="Face/Happy">
                        <path d="M38.1269605,26.9495239 C38.9871827,26.7847925 39.7748123,27.0758373 40.2339605,27.7248672 C42.0971704,31.8338373 36.1929728,38.5278672 27.7135531,38.4900313 C22.079158,38.773509 15.2463802,35.4777179 14.9554049,31.7395388 C14.6910469,30.1248224 16.1967383,27.3604791 18.5209111,27.7661955 C20.1766272,28.0549119 24.1347383,28.1614343 28.0027136,28.0287179 C33.1652568,27.854091 38.0797753,26.9576731 38.1269605,26.9495239 Z M37.7216519,28.8261806 C37.7216519,28.8261806 25.6718864,30.5200612 17.7732074,29.6236433 C17.7732074,29.6236433 17.5106642,31.1638522 17.7647383,31.6522254 C20.8868247,33.3577478 33.7375284,33.0370164 37.8166272,30.5544045 C38.1765654,29.3710164 37.7216519,28.8261806 37.7216519,28.8261806 Z M26.6315605,10.8205209 C26.9158815,10.8787299 27.1143012,11.1115657 27.1312395,11.3769985 L27.1318444,11.3892224 C27.2135111,12.6570134 27.361721,13.921894 27.7029062,15.0104015 C27.7942519,15.2746701 27.8952765,15.5331179 28.0096099,15.7397597 C28.1209185,15.9469836 28.2612642,16.1088045 28.3344617,16.1478045 C28.4838815,16.2525806 28.7784864,16.4400134 29.0561531,16.606491 C29.3428938,16.7811179 29.6495975,16.9691328 29.9605358,17.1839239 C30.566079,17.6228194 31.2460296,18.1752224 31.6846099,19.0745507 C31.8800049,19.5320731 32.0179309,20.0117149 31.9689309,20.6071925 C31.9229556,21.1921925 31.6350049,21.7498343 31.2974494,22.1188791 C30.6138691,22.872103 29.8716099,23.1858493 29.1850049,23.4745657 C28.4869062,23.7399985 27.8093753,23.9320881 27.1336593,24.0793567 C26.6230914,24.1911179 26.1155481,23.8831925 26.0000049,23.391909 C25.9014,22.9728045 26.1191778,22.5566104 26.5021037,22.3738343 L26.5069432,22.371506 C27.1100667,22.0833716 27.7095605,21.8278343 28.2406963,21.5397 C28.7682025,21.2684463 29.2509432,20.9343269 29.439684,20.675297 C29.5340543,20.5425806 29.5407086,20.4785507 29.5479679,20.4110284 C29.5552272,20.3534015 29.5140914,20.1816851 29.448758,20.0419836 C29.3199062,19.7433716 28.9660173,19.3795657 28.5026346,19.0314761 C28.2721531,18.8521925 28.0174741,18.6740731 27.7416222,18.4837299 C27.459721,18.2823269 27.1802395,18.1175955 26.8184864,17.7927896 C26.3871654,17.3917299 26.1772519,16.9778642 26.0108938,16.5925209 C25.8439309,16.2036851 25.7628691,15.8299836 25.6926963,15.4615209 C25.4392272,13.9969836 25.588042,12.6180134 25.882042,11.289103 C25.9546346,10.9602224 26.2903753,10.7506701 26.6315605,10.8205209 Z M11.5293975,8.67773284 C11.8112988,8.69344925 12.0895704,8.6853 12.376916,8.72721045 C12.946163,8.77494179 13.5275086,8.90998657 14.0985704,9.09916567 C14.6678173,9.30056866 15.2201259,9.59859851 15.7222247,9.97695672 C15.9720642,10.1702104 16.2049654,10.3855836 16.4197185,10.628897 C16.5280025,10.7482254 16.6296321,10.8786134 16.728842,11.0142403 C16.7784469,11.0875836 16.8244222,11.1516134 16.8722123,11.2342701 C16.924237,11.3221657 16.9550889,11.3687328 17.0331259,11.5317179 C17.3422494,12.1982104 17.031916,12.9793746 16.3392617,13.2768224 C15.6460025,13.5742701 14.8341753,13.2750761 14.5250519,12.6085836 C14.5510642,12.6667925 14.5226321,12.6120761 14.5117432,12.6010164 L14.4579037,12.5282552 C14.4167679,12.4752851 14.3738173,12.4188224 14.3217926,12.3646881 C14.2243975,12.2523448 14.1009901,12.1516433 13.9793975,12.0480313 C13.7265333,11.8483746 13.4349531,11.6708373 13.0998173,11.5439418 C12.7664963,11.4123896 12.4113975,11.291897 12.0193975,11.2354343 C11.8306568,11.1894493 11.623163,11.187703 11.4247432,11.1597627 C11.2293481,11.1376433 11.0508914,11.1306582 10.8627556,11.1306582 C10.1198914,11.1393896 9.3824716,11.3600015 8.67650864,11.7418522 C8.32322469,11.9310313 7.98929877,12.1725985 7.66807654,12.4368672 C7.3529037,12.6912403 7.03228642,13.0253597 6.80240988,13.2902104 L6.7394963,13.3629716 C6.44428642,13.7046582 5.91617531,13.7506433 5.56168148,13.4660015 C5.25679259,13.222106 5.17875556,12.8134791 5.34934815,12.4863448 C5.6252,11.9583896 5.91496543,11.5654791 6.26461975,11.1463746 C6.6130642,10.7412403 7.0099037,10.3669567 7.45453333,10.0328373 C8.33411358,9.35237463 9.45808889,8.88495672 10.643163,8.73186716 C10.937163,8.69752388 11.2420519,8.67365821 11.5293975,8.67773284 Z M39.9705704,7.83539104 C40.925163,8.00943582 41.8041383,8.39419701 42.5403481,8.93786866 C42.903916,9.21261493 43.2354222,9.5147194 43.5203481,9.85058507 C43.8070889,10.2015851 44.0387802,10.5188239 44.2632123,10.9804209 C44.4809901,11.4268836 44.2807556,11.9583313 43.8167679,12.1678836 C43.5076444,12.307003 43.1592,12.268003 42.8966568,12.0945403 L42.7048914,11.9664806 C42.4937679,11.826197 42.208842,11.5991821 41.9462988,11.4426 C41.6807309,11.2720478 41.4115333,11.1172119 41.139916,10.987406 C40.6063605,10.7196448 40.0413481,10.5496746 39.4975086,10.4588687 C38.9494346,10.3913463 38.4201136,10.4076448 37.8913975,10.5508388 C37.3614716,10.6806448 36.8327556,10.9379284 36.2925457,11.2615701 L36.2260025,11.3011522 C35.6585704,11.6410925 34.9126815,11.4746149 34.5593975,10.9286149 C34.2593481,10.4646896 34.3404099,9.87561493 34.7197062,9.50133134 C35.3433975,8.8854806 36.1292123,8.34122687 37.0602123,8.03912239 C37.9809284,7.72130149 39.0177926,7.66076418 39.9705704,7.83539104 Z M13.3609691,0.00518059701 C13.7330062,0.010419403 14.0560432,0.032538806 14.5103519,0.0924940299 C15.3385123,0.201926866 15.9174383,0.93710597 15.8037099,1.73340448 C15.694216,2.5011806 14.9822037,3.04659851 14.1897346,2.98780746 L14.0530185,2.97732985 C13.8697222,2.9633597 13.5509198,2.9412403 13.2811173,2.93716567 C13.0004259,2.92552388 12.7124753,2.93832985 12.4263395,2.94356866 C11.8510432,2.97092687 11.2715123,3.00992687 10.6974259,3.09665821 C9.55288272,3.27768806 8.40289506,3.51925522 7.31945062,3.95465821 C6.24024074,4.3842403 5.15498148,4.86213582 4.18345062,5.53677761 C3.16291975,6.14913582 2.26337654,6.9361209 1.33116667,7.72950896 L1.27430247,7.77782239 C0.957919753,8.04791194 0.472759259,8.01938955 0.192067901,7.71437463 C-0.0480925926,7.45301642 -0.0607962963,7.07291194 0.14004321,6.79932985 C0.527203704,6.2731209 0.904685185,5.72653881 1.34629012,5.22827015 C1.80967284,4.74921045 2.2500679,4.23871791 2.77817901,3.81146418 C3.79508025,2.91621045 4.96684568,2.1664791 6.21604321,1.56576269 C7.46887037,0.969702985 8.80759877,0.516255224 10.1910926,0.271195522 C10.8819321,0.1443 11.5824506,0.0552402985 12.2896235,0.015658209 C12.6453272,0.00634477612 12.999216,-0.00762537313 13.3609691,0.00518059701 Z M41.8434593,0.640997015 C43.1634346,1.01760896 44.443484,1.57001194 45.5426568,2.35350448 C46.1215827,2.70625075 46.6025086,3.17483284 47.1015827,3.60732537 C47.362916,3.8122209 47.559521,4.0794 47.7791136,4.32154925 C47.9938667,4.56719104 48.2068049,4.81283284 48.4094593,5.06371343 C48.6907556,5.4112209 48.6254222,5.91181791 48.2636691,6.18190746 C47.9624099,6.40717612 47.5504469,6.40135522 47.2588667,6.19063881 L47.196558,6.14523582 C46.2407556,5.45487761 45.3266938,4.76742985 44.296484,4.29069851 C43.3001506,3.76565373 42.238484,3.39719104 41.1520148,3.15271343 C40.0643358,2.90881791 38.9409654,2.82208657 37.8194099,2.8535194 L36.9797556,2.90532537 L36.1461506,3.00660896 C35.8696938,3.04735522 35.5944469,3.09042985 35.3264593,3.1492209 C35.0687556,3.20160896 34.7674963,3.27495224 34.5872247,3.32384776 L34.4771259,3.35353433 C33.712484,3.56017612 32.9194099,3.13059403 32.7052617,2.39541493 C32.4989778,1.68817612 32.907916,0.953579104 33.6193235,0.714922388 C34.0324963,0.578131343 34.3355704,0.496056716 34.6876444,0.420385075 C35.0276198,0.342967164 35.3682,0.285922388 35.7081753,0.232370149 C36.3893358,0.122937313 37.0771506,0.0926686567 37.7643605,0.0786985075 C39.1393852,0.0548328358 40.5222741,0.25798209 41.8434593,0.640997015 Z" id="Happy"></path>
                    </g>
                </g>
            </g>
        </g>
    </g>
</svg>