<?xml version="1.0" encoding="UTF-8"?>
<svg width="115px" height="157px" viewBox="0 0 115 157" version="1.1" xmlns="http://www.w3.org/2000/svg" xmlns:xlink="http://www.w3.org/1999/xlink">
    <!-- Generator: Sketch 53.2 (72643) - https://sketchapp.com -->
    <title>Croods - Avatar and Backdrop(1) Copy</title>
    <desc>Created with Sketch.</desc>
    <g id="Page-1" stroke="none" stroke-width="1" fill="none" fill-rule="evenodd">
        <g id="Desktop-HD-Copy-9" transform="translate(-103.000000, -1741.000000)" fill-rule="nonzero">
            <g id="Croods---Avatar-and-Backdrop(1)-Copy" transform="translate(103.000000, 1741.000000)">
                <g id="Head">
                    <g id="Head/Long-Hair-1">
                        <g id="Long-Hair" transform="translate(0.412308, -0.000020)">
                            <path d="M66.8304884,25.5719893 C48.8059791,23.8028317 36.4819697,29.7348681 29.3411418,36.8712317 C22.2003139,44.0075954 17.4397619,48.1704742 17.4397619,60.6591105 C17.4397619,73.1477469 35.8869007,92.1780499 37.0770387,93.9621408 C38.2671767,95.7462317 55.5241775,107.045474 74.5663853,101.098504 C87.2611903,97.1338578 94.4020183,89.6010299 95.9888691,78.5000196 C97.9724322,59.4697166 97.9724322,47.7740095 95.9888691,43.4128984 C93.0135241,36.8712317 84.8549973,27.3411469 66.8304884,25.5719893 Z" id="SKIN" fill="#FFFFFF"></path>
                            <path d="M46.4129571,11.3431507 C61.3360974,-10.1004326 102.401214,0.551184771 90.5676716,29.1121014 C97.7174255,33.8458893 104.008495,42.2364689 102.395263,60.3842416 C99.9614307,87.7581431 108.905913,86.7055295 112.237704,96.0957946 C115.615316,104.185458 112.580464,114.988128 106.049582,121.037386 C109.691404,130.677423 103.828784,161.802673 84.162944,155.672537 C72.760827,152.118628 66.8221575,144.890205 65.6403504,136.185626 C63.4314543,119.90877 70.4009024,107.045474 74.5942346,101.995189 C64.2810939,106.017719 50.7636255,104.071989 44.2178666,99.3144136 C44.2178666,105.261383 42.4326596,108.829565 39.4573147,111.80305 C36.4819697,114.776535 26.9608658,116.560626 16.2496239,111.80305 C5.53838202,107.045474 -10.5284808,84.4469893 9.65435526,60.901628 C19.2819765,51.9633325 16.4262404,52.9743174 16.4262404,36.6915143 C16.4262404,19.8526696 32.6817401,9.47818099 46.4129571,11.3431507 Z M84.9287978,36.6564272 C78.6936649,41.6471242 66.6881479,44.4475522 40.0332224,40.9495446 C32.835863,39.5020522 28.5906408,49.1688514 27.9681986,53.5464158 C27.273158,55.7610674 24.3567249,53.424503 22.960098,53.8009461 C14.6993502,54.0566658 15.5842178,69.3023174 26.7387861,68.3293931 C27.3695592,68.3293931 27.8932199,68.8170446 27.928924,69.4474234 C28.1419587,76.4178666 33.655868,88.1423174 42.2641361,94.5614764 C54.2381144,104.214598 76.3877725,104.791454 85.5673068,90.4402264 C93.8816108,79.6696696 91.761975,52.0852454 84.9287978,36.6564272 Z M23.2928605,58.3019102 C24.0438376,58.3019102 24.6525932,59.3705806 24.6525932,60.6884291 C24.6525932,62.0062776 24.0438376,63.074948 23.2928605,63.074948 C22.5418835,63.074948 21.9331279,62.0062776 21.9331279,60.6884291 C21.9331279,59.3705806 22.5418835,58.3019102 23.2928605,58.3019102 Z" id="ink" fill="#009192"></path>
                        </g>
                    </g>
                </g>
                <g id="Face" transform="translate(41.000000, 48.000000)" fill="#009192">
                    <g id="Face/Normal-Face-2">
                        <path d="M14.54652,34.0518824 C15.16212,33.5065882 16.11252,33.5536471 16.66872,34.1571765 C16.70172,34.1924706 16.73352,34.2312941 16.76232,34.2695294 C16.78812,34.3030588 16.90152,34.4330588 16.99332,34.5207059 C17.08752,34.6195294 17.19672,34.7148235 17.30112,34.8124706 C17.51892,35.0036471 17.74992,35.1883529 17.99172,35.3624706 C18.47412,35.7124706 19.00152,36.0165882 19.55412,36.2730588 C20.65512,36.8012941 21.87072,37.1183529 23.12232,37.2583529 C25.65492,37.5777647 28.34592,37.3242353 30.65712,36.1995294 L30.65712,36.1995294 L30.66672,36.1948235 C31.06452,36.0007059 31.54752,36.1601176 31.74552,36.5507059 C31.92912,36.9142353 31.79772,37.3524706 31.45632,37.5671765 C30.19932,38.3518824 28.80012,38.9065882 27.35532,39.2489412 C25.90452,39.5807059 24.42792,39.7507059 22.92672,39.6771765 C21.41832,39.6036471 19.89252,39.3101176 18.45852,38.7324706 C17.73972,38.4512941 17.04192,38.1065882 16.38012,37.6895294 C16.04892,37.4818824 15.72672,37.2565882 15.41112,37.0136471 C15.25512,36.8871765 15.09852,36.7648235 14.94492,36.6254118 C14.78292,36.4824706 14.65632,36.3671765 14.45292,36.146 L14.45292,36.146 L14.43972,36.1318824 C13.88352,35.5283529 13.93092,34.5971765 14.54652,34.0518824 Z M24.32922,10.3337647 C24.77142,10.3437647 25.12722,10.6843529 25.15482,11.1096471 L25.15482,11.1096471 L25.15542,11.1208235 C25.27362,13.0267059 25.40982,14.9472941 25.59162,16.8349412 C25.69002,17.772 25.80102,18.7261176 25.98402,19.5802353 C26.01762,19.7325882 26.05602,19.8749412 26.09502,19.9996471 C26.55342,20.1837647 27.01242,20.3967059 27.46782,20.662 C27.95382,20.9555294 28.44882,21.3067059 28.87542,21.7943529 C29.30922,22.2690588 29.64822,22.9061176 29.79702,23.5584706 C29.94402,24.2208235 29.94642,24.8078824 29.84262,25.4496471 C29.73822,26.0837647 29.45682,26.7508235 29.00502,27.2784706 C28.55802,27.8102353 27.98322,28.1867059 27.41022,28.4272941 C26.83182,28.6678824 26.25282,28.7867059 25.68762,28.8525882 C25.12242,28.9143529 24.56802,28.9184706 24.02562,28.8790588 C23.77302,28.8625882 23.44062,28.8314118 23.19882,28.7743529 C22.92882,28.7143529 22.72842,28.6590588 22.38342,28.5143529 C21.95742,28.3361176 21.75942,27.8531765 21.94182,27.4355294 C22.04862,27.1896471 22.26402,27.0214118 22.50942,26.9608235 L22.50942,26.9608235 L22.83522,26.8825882 C22.96782,26.8508235 23.25582,26.8608235 23.47182,26.872 C23.71602,26.8878824 23.87322,26.8996471 24.11202,26.9002353 C24.55122,26.9043529 24.98322,26.872 25.39182,26.802 C26.21022,26.6608235 26.91282,26.3296471 27.24342,25.8890588 C27.41382,25.6684706 27.51702,25.4114118 27.55782,25.0937647 C27.60162,24.7849412 27.57762,24.3884706 27.49482,24.1149412 C27.34542,23.5667059 26.89062,23.1061176 26.19342,22.6490588 C25.85262,22.4249412 25.46982,22.2167059 25.06002,22.0325882 L25.06002,22.0325882 L24.90822,21.9614118 L24.81402,21.9178824 C24.72102,21.8737647 24.60282,21.7978824 24.54942,21.752 C24.49182,21.7037647 24.43362,21.6496471 24.38442,21.5961176 L24.38442,21.5961176 L24.28542,21.4725882 C24.07242,21.162 24.04182,21.0072941 23.97822,20.8343529 C23.87922,20.5131765 23.83002,20.2461176 23.78562,19.9808235 C23.62242,18.9361176 23.56962,17.9667059 23.51862,16.9831765 C23.42142,15.0249412 23.41842,13.0925882 23.46402,11.1443529 C23.47482,10.6861176 23.86182,10.3231765 24.32922,10.3337647 Z M4.05048,13.4015882 C4.29528,11.7415882 5.73468,10.5715882 7.26528,10.7886471 C8.79588,11.0057059 9.83808,12.5274706 9.59328,14.1874706 C9.34848,15.8480588 7.90908,17.0174706 6.37788,16.801 C4.84788,16.5839412 3.80568,15.0615882 4.05048,13.4015882 Z M35.97708,9.77305882 C37.50768,9.556 38.94648,10.726 39.19128,12.386 C39.43668,14.0465882 38.39448,15.5683529 36.86448,15.7854118 C35.33328,16.0024706 33.89388,14.8324706 33.64908,13.1724706 C33.40428,11.5124706 34.44588,9.99011765 35.97708,9.77305882 Z M12.15024,1.50817647 C13.14084,1.41994118 14.01744,2.13582353 14.10744,3.10758824 C14.19744,4.07876471 13.46724,4.93817647 12.47604,5.02582353 C12.43524,5.02994118 12.39384,5.03229412 12.35304,5.03288235 L12.35304,5.03288235 L12.32484,5.03347059 C10.20744,5.07405882 8.22864,4.80641176 6.44844,4.81170588 C5.55744,4.81288235 4.71144,4.89641176 3.89904,5.11111765 C3.08724,5.32876471 2.30604,5.64935294 1.46004,6.00229412 L1.46004,6.00229412 L1.41684,6.01994118 C0.89964,6.23641176 0.30144,5.99994118 0.08124,5.49288235 C-0.08016,5.12111765 0.00744,4.70641176 0.26904,4.42641176 C1.00704,3.63994118 1.96824,3.02347059 3.01464,2.61170588 C4.05924,2.18994118 5.16864,1.94758824 6.23664,1.81582353 C7.30644,1.68405882 8.33724,1.667 9.32004,1.63229412 C10.30344,1.60111765 11.24304,1.58935294 12.15024,1.50817647 Z M31.96548,0.0784705882 C33.03228,-0.0227058824 34.13808,-0.0338823529 35.26668,0.0908235294 C36.38988,0.219058824 37.55328,0.492588235 38.58888,1.02788235 C39.62928,1.552 40.51668,2.29258824 41.20068,3.12494118 C41.59668,3.60670588 41.51868,4.31258824 41.02728,4.70082353 C40.60728,5.03258824 40.02168,5.02552941 39.61308,4.71729412 L39.61308,4.71729412 L39.59688,4.70494118 C38.17848,3.63435294 36.74088,2.99847059 35.05488,2.96729412 C34.21728,2.952 33.34548,3.09376471 32.46708,3.28729412 C31.58808,3.482 30.70068,3.75258824 29.81988,4.07141176 C28.84488,4.42376471 27.76308,3.93494118 27.40308,2.97905882 C27.04368,2.02317647 27.54228,0.962 28.51728,0.609647059 C28.62108,0.572588235 28.73628,0.542588235 28.84068,0.523764706 C29.86308,0.346117647 30.89868,0.180823529 31.96548,0.0784705882 Z" id="Normal-face-2"></path>
                    </g>
                </g>
            </g>
        </g>
    </g>
</svg>